<svg xmlns:xlink="http://www.w3.org/1999/xlink" xmlns="http://www.w3.org/2000/svg" width="352" height="320" viewBox="0 0 352 320" fill="none">
<g clip-path="url(#clip0_506_16989)">
<g filter="url(#filter0_b_506_16989)">
<rect width="924" height="445" rx="20" fill="#0C152B"/>
</g>
<path d="M23.824 64.242V70.416C23.824 71.284 24.034 71.928 24.454 72.348C24.8833 72.768 25.476 72.978 26.232 72.978C26.9787 72.978 27.562 72.768 27.982 72.348C28.4113 71.928 28.626 71.284 28.626 70.416V64.242H29.9V70.402C29.9 71.214 29.7367 71.9 29.41 72.46C29.0833 73.0107 28.64 73.4213 28.08 73.692C27.5293 73.9627 26.9087 74.098 26.218 74.098C25.5273 74.098 24.902 73.9627 24.342 73.692C23.7913 73.4213 23.3527 73.0107 23.026 72.46C22.7087 71.9 22.55 71.214 22.55 70.402V64.242H23.824ZM34.7413 74.126C34.1533 74.126 33.6259 74.028 33.1593 73.832C32.6926 73.6267 32.3239 73.3467 32.0533 72.992C31.7826 72.628 31.6333 72.2127 31.6053 71.746H32.9213C32.9586 72.1287 33.1359 72.4413 33.4533 72.684C33.7799 72.9267 34.2046 73.048 34.7273 73.048C35.2126 73.048 35.5953 72.9407 35.8753 72.726C36.1553 72.5113 36.2953 72.2407 36.2953 71.914C36.2953 71.578 36.1459 71.3307 35.8473 71.172C35.5486 71.004 35.0866 70.8407 34.4613 70.682C33.8919 70.5327 33.4253 70.3833 33.0613 70.234C32.7066 70.0753 32.3986 69.8467 32.1373 69.548C31.8853 69.24 31.7593 68.8387 31.7593 68.344C31.7593 67.952 31.8759 67.5927 32.1093 67.266C32.3426 66.9393 32.6739 66.6827 33.1033 66.496C33.5326 66.3 34.0226 66.202 34.5733 66.202C35.4226 66.202 36.1086 66.4167 36.6313 66.846C37.1539 67.2753 37.4339 67.8633 37.4713 68.61H36.1973C36.1693 68.2087 36.0059 67.8867 35.7073 67.644C35.4179 67.4013 35.0259 67.28 34.5313 67.28C34.0739 67.28 33.7099 67.378 33.4393 67.574C33.1686 67.77 33.0333 68.0267 33.0333 68.344C33.0333 68.596 33.1126 68.806 33.2713 68.974C33.4393 69.1327 33.6446 69.2633 33.8873 69.366C34.1393 69.4593 34.4846 69.5667 34.9233 69.688C35.4739 69.8373 35.9219 69.9867 36.2673 70.136C36.6126 70.276 36.9066 70.4907 37.1493 70.78C37.4013 71.0693 37.5319 71.4473 37.5413 71.914C37.5413 72.334 37.4246 72.712 37.1913 73.048C36.9579 73.384 36.6266 73.65 36.1973 73.846C35.7773 74.0327 35.2919 74.126 34.7413 74.126ZM46.3397 69.87C46.3397 70.1127 46.3257 70.3693 46.2977 70.64H40.1657C40.2124 71.396 40.4691 71.9887 40.9357 72.418C41.4117 72.838 41.9857 73.048 42.6577 73.048C43.2084 73.048 43.6657 72.922 44.0297 72.67C44.4031 72.4087 44.6644 72.0633 44.8137 71.634H46.1857C45.9804 72.3713 45.5697 72.9733 44.9537 73.44C44.3377 73.8973 43.5724 74.126 42.6577 74.126C41.9297 74.126 41.2764 73.9627 40.6977 73.636C40.1284 73.3093 39.6804 72.8473 39.3537 72.25C39.0271 71.6433 38.8637 70.9433 38.8637 70.15C38.8637 69.3567 39.0224 68.6613 39.3397 68.064C39.6571 67.4667 40.1004 67.0093 40.6697 66.692C41.2484 66.3653 41.9111 66.202 42.6577 66.202C43.3857 66.202 44.0297 66.3607 44.5897 66.678C45.1497 66.9953 45.5791 67.434 45.8777 67.994C46.1857 68.5447 46.3397 69.17 46.3397 69.87ZM45.0237 69.604C45.0237 69.1187 44.9164 68.7033 44.7017 68.358C44.4871 68.0033 44.1931 67.7373 43.8197 67.56C43.4557 67.3733 43.0497 67.28 42.6017 67.28C41.9577 67.28 41.4071 67.4853 40.9497 67.896C40.5017 68.3067 40.2451 68.876 40.1797 69.604H45.0237ZM51.2778 70.136C51.2778 69.352 51.4364 68.666 51.7538 68.078C52.0711 67.4807 52.5051 67.0187 53.0558 66.692C53.6158 66.3653 54.2365 66.202 54.9178 66.202C55.5898 66.202 56.1731 66.3467 56.6678 66.636C57.1625 66.9253 57.5311 67.2893 57.7738 67.728V66.328H59.0618V74H57.7738V72.572C57.5218 73.02 57.1438 73.3933 56.6398 73.692C56.1451 73.9813 55.5665 74.126 54.9038 74.126C54.2225 74.126 53.6065 73.958 53.0558 73.622C52.5051 73.286 52.0711 72.8147 51.7538 72.208C51.4364 71.6013 51.2778 70.9107 51.2778 70.136ZM57.7738 70.15C57.7738 69.5713 57.6571 69.0673 57.4238 68.638C57.1905 68.2087 56.8731 67.882 56.4718 67.658C56.0798 67.4247 55.6458 67.308 55.1698 67.308C54.6938 67.308 54.2598 67.42 53.8678 67.644C53.4758 67.868 53.1631 68.1947 52.9298 68.624C52.6965 69.0533 52.5798 69.5573 52.5798 70.136C52.5798 70.724 52.6965 71.2373 52.9298 71.676C53.1631 72.1053 53.4758 72.4367 53.8678 72.67C54.2598 72.894 54.6938 73.006 55.1698 73.006C55.6458 73.006 56.0798 72.894 56.4718 72.67C56.8731 72.4367 57.1905 72.1053 57.4238 71.676C57.6571 71.2373 57.7738 70.7287 57.7738 70.15ZM64.3787 66.202C65.0414 66.202 65.6201 66.3467 66.1147 66.636C66.6187 66.9253 66.9921 67.2893 67.2347 67.728V66.328H68.5227V74.168C68.5227 74.868 68.3734 75.4887 68.0747 76.03C67.7761 76.5807 67.3467 77.01 66.7867 77.318C66.2361 77.626 65.5921 77.78 64.8547 77.78C63.8467 77.78 63.0067 77.542 62.3347 77.066C61.6627 76.59 61.2661 75.9413 61.1447 75.12H62.4047C62.5447 75.5867 62.8341 75.96 63.2727 76.24C63.7114 76.5293 64.2387 76.674 64.8547 76.674C65.5547 76.674 66.1241 76.4547 66.5627 76.016C67.0107 75.5773 67.2347 74.9613 67.2347 74.168V72.558C66.9827 73.006 66.6094 73.3793 66.1147 73.678C65.6201 73.9767 65.0414 74.126 64.3787 74.126C63.6974 74.126 63.0767 73.958 62.5167 73.622C61.9661 73.286 61.5321 72.8147 61.2147 72.208C60.8974 71.6013 60.7387 70.9107 60.7387 70.136C60.7387 69.352 60.8974 68.666 61.2147 68.078C61.5321 67.4807 61.9661 67.0187 62.5167 66.692C63.0767 66.3653 63.6974 66.202 64.3787 66.202ZM67.2347 70.15C67.2347 69.5713 67.1181 69.0673 66.8847 68.638C66.6514 68.2087 66.3341 67.882 65.9327 67.658C65.5407 67.4247 65.1067 67.308 64.6307 67.308C64.1547 67.308 63.7207 67.42 63.3287 67.644C62.9367 67.868 62.6241 68.1947 62.3907 68.624C62.1574 69.0533 62.0407 69.5573 62.0407 70.136C62.0407 70.724 62.1574 71.2373 62.3907 71.676C62.6241 72.1053 62.9367 72.4367 63.3287 72.67C63.7207 72.894 64.1547 73.006 64.6307 73.006C65.1067 73.006 65.5407 72.894 65.9327 72.67C66.3341 72.4367 66.6514 72.1053 66.8847 71.676C67.1181 71.2373 67.2347 70.7287 67.2347 70.15ZM74.0217 74.126C73.303 74.126 72.6497 73.9627 72.0617 73.636C71.483 73.3093 71.0257 72.8473 70.6897 72.25C70.363 71.6433 70.1997 70.9433 70.1997 70.15C70.1997 69.366 70.3677 68.6753 70.7037 68.078C71.049 67.4713 71.5157 67.0093 72.1037 66.692C72.6917 66.3653 73.3497 66.202 74.0777 66.202C74.8057 66.202 75.4637 66.3653 76.0517 66.692C76.6397 67.0093 77.1017 67.4667 77.4377 68.064C77.783 68.6613 77.9557 69.3567 77.9557 70.15C77.9557 70.9433 77.7783 71.6433 77.4237 72.25C77.0783 72.8473 76.607 73.3093 76.0097 73.636C75.4123 73.9627 74.7497 74.126 74.0217 74.126ZM74.0217 73.006C74.479 73.006 74.9083 72.8987 75.3097 72.684C75.711 72.4693 76.033 72.1473 76.2757 71.718C76.5277 71.2887 76.6537 70.766 76.6537 70.15C76.6537 69.534 76.5323 69.0113 76.2897 68.582C76.047 68.1527 75.7297 67.8353 75.3377 67.63C74.9457 67.4153 74.521 67.308 74.0637 67.308C73.597 67.308 73.1677 67.4153 72.7757 67.63C72.393 67.8353 72.085 68.1527 71.8517 68.582C71.6183 69.0113 71.5017 69.534 71.5017 70.15C71.5017 70.7753 71.6137 71.3027 71.8377 71.732C72.071 72.1613 72.379 72.4833 72.7617 72.698C73.1443 72.9033 73.5643 73.006 74.0217 73.006ZM80.9047 67.574C81.1287 67.1353 81.4461 66.7947 81.8567 66.552C82.2767 66.3093 82.7854 66.188 83.3827 66.188V67.504H83.0467C81.6187 67.504 80.9047 68.2787 80.9047 69.828V74H79.6307V66.328H80.9047V67.574ZM84.3774 70.136C84.3774 69.352 84.5361 68.666 84.8534 68.078C85.1707 67.4807 85.6047 67.0187 86.1554 66.692C86.7154 66.3653 87.3361 66.202 88.0174 66.202C88.6894 66.202 89.2727 66.3467 89.7674 66.636C90.2621 66.9253 90.6307 67.2893 90.8734 67.728V66.328H92.1614V74H90.8734V72.572C90.6214 73.02 90.2434 73.3933 89.7394 73.692C89.2447 73.9813 88.6661 74.126 88.0034 74.126C87.3221 74.126 86.7061 73.958 86.1554 73.622C85.6047 73.286 85.1707 72.8147 84.8534 72.208C84.5361 71.6013 84.3774 70.9107 84.3774 70.136ZM90.8734 70.15C90.8734 69.5713 90.7567 69.0673 90.5234 68.638C90.2901 68.2087 89.9727 67.882 89.5714 67.658C89.1794 67.4247 88.7454 67.308 88.2694 67.308C87.7934 67.308 87.3594 67.42 86.9674 67.644C86.5754 67.868 86.2627 68.1947 86.0294 68.624C85.7961 69.0533 85.6794 69.5573 85.6794 70.136C85.6794 70.724 85.7961 71.2373 86.0294 71.676C86.2627 72.1053 86.5754 72.4367 86.9674 72.67C87.3594 72.894 87.7934 73.006 88.2694 73.006C88.7454 73.006 89.1794 72.894 89.5714 72.67C89.9727 72.4367 90.2901 72.1053 90.5234 71.676C90.7567 71.2373 90.8734 70.7287 90.8734 70.15ZM95.9663 64.242L95.8123 71.242H94.7483L94.5943 64.242H95.9663ZM95.3363 74.084C95.0937 74.084 94.8883 74 94.7203 73.832C94.5523 73.664 94.4683 73.4587 94.4683 73.216C94.4683 72.9733 94.5523 72.768 94.7203 72.6C94.8883 72.432 95.0937 72.348 95.3363 72.348C95.5697 72.348 95.7657 72.432 95.9243 72.6C96.0923 72.768 96.1763 72.9733 96.1763 73.216C96.1763 73.4587 96.0923 73.664 95.9243 73.832C95.7657 74 95.5697 74.084 95.3363 74.084Z" fill="#01B574"/>
<path opacity="0.5" d="M29.802 44.21H24.33L23.322 47H21.594L26.13 34.526H28.02L32.538 47H30.81L29.802 44.21ZM29.334 42.878L27.066 36.542L24.798 42.878H29.334ZM42.8057 47.162C42.0497 47.162 41.3717 47.036 40.7717 46.784C40.1717 46.52 39.6977 46.16 39.3497 45.704C39.0017 45.236 38.8097 44.702 38.7737 44.102H40.4657C40.5137 44.594 40.7417 44.996 41.1497 45.308C41.5697 45.62 42.1157 45.776 42.7877 45.776C43.4117 45.776 43.9037 45.638 44.2637 45.362C44.6237 45.086 44.8037 44.738 44.8037 44.318C44.8037 43.886 44.6117 43.568 44.2277 43.364C43.8437 43.148 43.2497 42.938 42.4457 42.734C41.7137 42.542 41.1137 42.35 40.6457 42.158C40.1897 41.954 39.7937 41.66 39.4577 41.276C39.1337 40.88 38.9717 40.364 38.9717 39.728C38.9717 39.224 39.1217 38.762 39.4217 38.342C39.7217 37.922 40.1477 37.592 40.6997 37.352C41.2517 37.1 41.8817 36.974 42.5897 36.974C43.6817 36.974 44.5637 37.25 45.2357 37.802C45.9077 38.354 46.2677 39.11 46.3157 40.07H44.6777C44.6417 39.554 44.4317 39.14 44.0477 38.828C43.6757 38.516 43.1717 38.36 42.5357 38.36C41.9477 38.36 41.4797 38.486 41.1317 38.738C40.7837 38.99 40.6097 39.32 40.6097 39.728C40.6097 40.052 40.7117 40.322 40.9157 40.538C41.1317 40.742 41.3957 40.91 41.7077 41.042C42.0317 41.162 42.4757 41.3 43.0397 41.456C43.7477 41.648 44.3237 41.84 44.7677 42.032C45.2117 42.212 45.5897 42.488 45.9017 42.86C46.2257 43.232 46.3937 43.718 46.4057 44.318C46.4057 44.858 46.2557 45.344 45.9557 45.776C45.6557 46.208 45.2297 46.55 44.6777 46.802C44.1377 47.042 43.5137 47.162 42.8057 47.162ZM57.466 37.136V47H55.828V45.542C55.516 46.046 55.078 46.442 54.514 46.73C53.962 47.006 53.35 47.144 52.678 47.144C51.91 47.144 51.22 46.988 50.608 46.676C49.996 46.352 49.51 45.872 49.15 45.236C48.802 44.6 48.628 43.826 48.628 42.914V37.136H50.248V42.698C50.248 43.67 50.494 44.42 50.986 44.948C51.478 45.464 52.15 45.722 53.002 45.722C53.878 45.722 54.568 45.452 55.072 44.912C55.576 44.372 55.828 43.586 55.828 42.554V37.136H57.466ZM59.6197 42.032C59.6197 41.024 59.8237 40.142 60.2317 39.386C60.6397 38.618 61.1977 38.024 61.9057 37.604C62.6257 37.184 63.4237 36.974 64.2997 36.974C65.1637 36.974 65.9137 37.16 66.5497 37.532C67.1857 37.904 67.6597 38.372 67.9717 38.936V37.136H69.6277V47H67.9717V45.164C67.6477 45.74 67.1617 46.22 66.5137 46.604C65.8777 46.976 65.1337 47.162 64.2817 47.162C63.4057 47.162 62.6137 46.946 61.9057 46.514C61.1977 46.082 60.6397 45.476 60.2317 44.696C59.8237 43.916 59.6197 43.028 59.6197 42.032ZM67.9717 42.05C67.9717 41.306 67.8217 40.658 67.5217 40.106C67.2217 39.554 66.8137 39.134 66.2977 38.846C65.7937 38.546 65.2357 38.396 64.6237 38.396C64.0117 38.396 63.4537 38.54 62.9497 38.828C62.4457 39.116 62.0437 39.536 61.7437 40.088C61.4437 40.64 61.2937 41.288 61.2937 42.032C61.2937 42.788 61.4437 43.448 61.7437 44.012C62.0437 44.564 62.4457 44.99 62.9497 45.29C63.4537 45.578 64.0117 45.722 64.6237 45.722C65.2357 45.722 65.7937 45.578 66.2977 45.29C66.8137 44.99 67.2217 44.564 67.5217 44.012C67.8217 43.448 67.9717 42.794 67.9717 42.05ZM78.8326 38.954C79.1566 38.39 79.6366 37.922 80.2726 37.55C80.9206 37.166 81.6706 36.974 82.5226 36.974C83.3986 36.974 84.1906 37.184 84.8986 37.604C85.6186 38.024 86.1826 38.618 86.5906 39.386C86.9986 40.142 87.2026 41.024 87.2026 42.032C87.2026 43.028 86.9986 43.916 86.5906 44.696C86.1826 45.476 85.6186 46.082 84.8986 46.514C84.1906 46.946 83.3986 47.162 82.5226 47.162C81.6826 47.162 80.9386 46.976 80.2906 46.604C79.6546 46.22 79.1686 45.746 78.8326 45.182V51.68H77.1946V37.136H78.8326V38.954ZM85.5286 42.032C85.5286 41.288 85.3786 40.64 85.0786 40.088C84.7786 39.536 84.3706 39.116 83.8546 38.828C83.3506 38.54 82.7926 38.396 82.1806 38.396C81.5806 38.396 81.0226 38.546 80.5066 38.846C80.0026 39.134 79.5946 39.56 79.2826 40.124C78.9826 40.676 78.8326 41.318 78.8326 42.05C78.8326 42.794 78.9826 43.448 79.2826 44.012C79.5946 44.564 80.0026 44.99 80.5066 45.29C81.0226 45.578 81.5806 45.722 82.1806 45.722C82.7926 45.722 83.3506 45.578 83.8546 45.29C84.3706 44.99 84.7786 44.564 85.0786 44.012C85.3786 43.448 85.5286 42.788 85.5286 42.032ZM90.9967 33.68V47H89.3587V33.68H90.9967ZM93.1764 42.032C93.1764 41.024 93.3804 40.142 93.7884 39.386C94.1964 38.618 94.7544 38.024 95.4624 37.604C96.1824 37.184 96.9804 36.974 97.8564 36.974C98.7204 36.974 99.4704 37.16 100.106 37.532C100.742 37.904 101.216 38.372 101.528 38.936V37.136H103.184V47H101.528V45.164C101.204 45.74 100.718 46.22 100.07 46.604C99.4344 46.976 98.6904 47.162 97.8384 47.162C96.9624 47.162 96.1704 46.946 95.4624 46.514C94.7544 46.082 94.1964 45.476 93.7884 44.696C93.3804 43.916 93.1764 43.028 93.1764 42.032ZM101.528 42.05C101.528 41.306 101.378 40.658 101.078 40.106C100.778 39.554 100.37 39.134 99.8544 38.846C99.3504 38.546 98.7924 38.396 98.1804 38.396C97.5684 38.396 97.0104 38.54 96.5064 38.828C96.0024 39.116 95.6004 39.536 95.3004 40.088C95.0004 40.64 94.8504 41.288 94.8504 42.032C94.8504 42.788 95.0004 43.448 95.3004 44.012C95.6004 44.564 96.0024 44.99 96.5064 45.29C97.0104 45.578 97.5684 45.722 98.1804 45.722C98.7924 45.722 99.3504 45.578 99.8544 45.29C100.37 44.99 100.778 44.564 101.078 44.012C101.378 43.448 101.528 42.794 101.528 42.05ZM107.95 38.486V44.3C107.95 44.78 108.052 45.122 108.256 45.326C108.46 45.518 108.814 45.614 109.318 45.614H110.524V47H109.048C108.136 47 107.452 46.79 106.996 46.37C106.54 45.95 106.312 45.26 106.312 44.3V38.486H105.034V37.136H106.312V34.652H107.95V37.136H110.524V38.486H107.95ZM111.897 42.032C111.897 41.024 112.101 40.142 112.509 39.386C112.917 38.618 113.475 38.024 114.183 37.604C114.903 37.184 115.701 36.974 116.577 36.974C117.441 36.974 118.191 37.16 118.827 37.532C119.463 37.904 119.937 38.372 120.249 38.936V37.136H121.905V47H120.249V45.164C119.925 45.74 119.439 46.22 118.791 46.604C118.155 46.976 117.411 47.162 116.559 47.162C115.683 47.162 114.891 46.946 114.183 46.514C113.475 46.082 112.917 45.476 112.509 44.696C112.101 43.916 111.897 43.028 111.897 42.032ZM120.249 42.05C120.249 41.306 120.099 40.658 119.799 40.106C119.499 39.554 119.091 39.134 118.575 38.846C118.071 38.546 117.513 38.396 116.901 38.396C116.289 38.396 115.731 38.54 115.227 38.828C114.723 39.116 114.321 39.536 114.021 40.088C113.721 40.64 113.571 41.288 113.571 42.032C113.571 42.788 113.721 43.448 114.021 44.012C114.321 44.564 114.723 44.99 115.227 45.29C115.731 45.578 116.289 45.722 116.901 45.722C117.513 45.722 118.071 45.578 118.575 45.29C119.091 44.99 119.499 44.564 119.799 44.012C120.099 43.448 120.249 42.794 120.249 42.05ZM128.687 38.486H126.617V47H124.979V38.486H123.701V37.136H124.979V36.434C124.979 35.33 125.261 34.526 125.825 34.022C126.401 33.506 127.319 33.248 128.579 33.248V34.616C127.859 34.616 127.349 34.76 127.049 35.048C126.761 35.324 126.617 35.786 126.617 36.434V37.136H128.687V38.486ZM134.899 47.162C133.975 47.162 133.135 46.952 132.379 46.532C131.635 46.112 131.047 45.518 130.615 44.75C130.195 43.97 129.985 43.07 129.985 42.05C129.985 41.042 130.201 40.154 130.633 39.386C131.077 38.606 131.677 38.012 132.433 37.604C133.189 37.184 134.035 36.974 134.971 36.974C135.907 36.974 136.753 37.184 137.509 37.604C138.265 38.012 138.859 38.6 139.291 39.368C139.735 40.136 139.957 41.03 139.957 42.05C139.957 43.07 139.729 43.97 139.273 44.75C138.829 45.518 138.223 46.112 137.455 46.532C136.687 46.952 135.835 47.162 134.899 47.162ZM134.899 45.722C135.487 45.722 136.039 45.584 136.555 45.308C137.071 45.032 137.485 44.618 137.797 44.066C138.121 43.514 138.283 42.842 138.283 42.05C138.283 41.258 138.127 40.586 137.815 40.034C137.503 39.482 137.095 39.074 136.591 38.81C136.087 38.534 135.541 38.396 134.953 38.396C134.353 38.396 133.801 38.534 133.297 38.81C132.805 39.074 132.409 39.482 132.109 40.034C131.809 40.586 131.659 41.258 131.659 42.05C131.659 42.854 131.803 43.532 132.091 44.084C132.391 44.636 132.787 45.05 133.279 45.326C133.771 45.59 134.311 45.722 134.899 45.722ZM143.749 38.738C144.037 38.174 144.445 37.736 144.973 37.424C145.513 37.112 146.167 36.956 146.935 36.956V38.648H146.503C144.667 38.648 143.749 39.644 143.749 41.636V47H142.111V37.136H143.749V38.738ZM160.687 36.956C161.455 36.956 162.139 37.118 162.739 37.442C163.339 37.754 163.813 38.228 164.161 38.864C164.509 39.5 164.683 40.274 164.683 41.186V47H163.063V41.42C163.063 40.436 162.817 39.686 162.325 39.17C161.845 38.642 161.191 38.378 160.363 38.378C159.511 38.378 158.833 38.654 158.329 39.206C157.825 39.746 157.573 40.532 157.573 41.564V47H155.953V41.42C155.953 40.436 155.707 39.686 155.215 39.17C154.735 38.642 154.081 38.378 153.253 38.378C152.401 38.378 151.723 38.654 151.219 39.206C150.715 39.746 150.463 40.532 150.463 41.564V47H148.825V37.136H150.463V38.558C150.787 38.042 151.219 37.646 151.759 37.37C152.311 37.094 152.917 36.956 153.577 36.956C154.405 36.956 155.137 37.142 155.773 37.514C156.409 37.886 156.883 38.432 157.195 39.152C157.471 38.456 157.927 37.916 158.563 37.532C159.199 37.148 159.907 36.956 160.687 36.956ZM166.758 42.032C166.758 41.024 166.962 40.142 167.37 39.386C167.778 38.618 168.336 38.024 169.044 37.604C169.764 37.184 170.562 36.974 171.438 36.974C172.302 36.974 173.052 37.16 173.688 37.532C174.324 37.904 174.798 38.372 175.11 38.936V37.136H176.766V47H175.11V45.164C174.786 45.74 174.3 46.22 173.652 46.604C173.016 46.976 172.272 47.162 171.42 47.162C170.544 47.162 169.752 46.946 169.044 46.514C168.336 46.082 167.778 45.476 167.37 44.696C166.962 43.916 166.758 43.028 166.758 42.032ZM175.11 42.05C175.11 41.306 174.96 40.658 174.66 40.106C174.36 39.554 173.952 39.134 173.436 38.846C172.932 38.546 172.374 38.396 171.762 38.396C171.15 38.396 170.592 38.54 170.088 38.828C169.584 39.116 169.182 39.536 168.882 40.088C168.582 40.64 168.432 41.288 168.432 42.032C168.432 42.788 168.582 43.448 168.882 44.012C169.182 44.564 169.584 44.99 170.088 45.29C170.592 45.578 171.15 45.722 171.762 45.722C172.374 45.722 172.932 45.578 173.436 45.29C173.952 44.99 174.36 44.564 174.66 44.012C174.96 43.448 175.11 42.794 175.11 42.05ZM185.215 35.534C184.903 35.534 184.639 35.426 184.423 35.21C184.219 34.994 184.117 34.73 184.117 34.418C184.117 34.106 184.219 33.842 184.423 33.626C184.639 33.41 184.903 33.302 185.215 33.302C185.527 33.302 185.785 33.41 185.989 33.626C186.205 33.842 186.313 34.106 186.313 34.418C186.313 34.73 186.205 34.994 185.989 35.21C185.785 35.426 185.527 35.534 185.215 35.534ZM186.025 49.142C186.025 50.018 185.803 50.66 185.359 51.068C184.915 51.476 184.267 51.68 183.415 51.68H182.461V50.294H183.145C183.601 50.294 183.919 50.204 184.099 50.024C184.291 49.844 184.387 49.538 184.387 49.106V37.136H186.025V49.142ZM188.186 42.032C188.186 41.024 188.39 40.142 188.798 39.386C189.206 38.618 189.764 38.024 190.472 37.604C191.192 37.184 191.99 36.974 192.866 36.974C193.73 36.974 194.48 37.16 195.116 37.532C195.752 37.904 196.226 38.372 196.538 38.936V37.136H198.194V47H196.538V45.164C196.214 45.74 195.728 46.22 195.08 46.604C194.444 46.976 193.7 47.162 192.848 47.162C191.972 47.162 191.18 46.946 190.472 46.514C189.764 46.082 189.206 45.476 188.798 44.696C188.39 43.916 188.186 43.028 188.186 42.032ZM196.538 42.05C196.538 41.306 196.388 40.658 196.088 40.106C195.788 39.554 195.38 39.134 194.864 38.846C194.36 38.546 193.802 38.396 193.19 38.396C192.578 38.396 192.02 38.54 191.516 38.828C191.012 39.116 190.61 39.536 190.31 40.088C190.01 40.64 189.86 41.288 189.86 42.032C189.86 42.788 190.01 43.448 190.31 44.012C190.61 44.564 191.012 44.99 191.516 45.29C192.02 45.578 192.578 45.722 193.19 45.722C193.802 45.722 194.36 45.578 194.864 45.29C195.38 44.99 195.788 44.564 196.088 44.012C196.388 43.448 196.538 42.794 196.538 42.05ZM195.26 34.346L191.426 36.398V35.174L195.26 32.924V34.346ZM214.761 41.69C214.761 42.002 214.743 42.332 214.707 42.68H206.823C206.883 43.652 207.213 44.414 207.813 44.966C208.425 45.506 209.163 45.776 210.027 45.776C210.735 45.776 211.323 45.614 211.791 45.29C212.271 44.954 212.607 44.51 212.799 43.958H214.563C214.299 44.906 213.771 45.68 212.979 46.28C212.187 46.868 211.203 47.162 210.027 47.162C209.091 47.162 208.251 46.952 207.507 46.532C206.775 46.112 206.199 45.518 205.779 44.75C205.359 43.97 205.149 43.07 205.149 42.05C205.149 41.03 205.353 40.136 205.761 39.368C206.169 38.6 206.739 38.012 207.471 37.604C208.215 37.184 209.067 36.974 210.027 36.974C210.963 36.974 211.791 37.178 212.511 37.586C213.231 37.994 213.783 38.558 214.167 39.278C214.563 39.986 214.761 40.79 214.761 41.69ZM213.069 41.348C213.069 40.724 212.931 40.19 212.655 39.746C212.379 39.29 212.001 38.948 211.521 38.72C211.053 38.48 210.531 38.36 209.955 38.36C209.127 38.36 208.419 38.624 207.831 39.152C207.255 39.68 206.925 40.412 206.841 41.348H213.069ZM220.415 47.162C219.659 47.162 218.981 47.036 218.381 46.784C217.781 46.52 217.307 46.16 216.959 45.704C216.611 45.236 216.419 44.702 216.383 44.102H218.075C218.123 44.594 218.351 44.996 218.759 45.308C219.179 45.62 219.725 45.776 220.397 45.776C221.021 45.776 221.513 45.638 221.873 45.362C222.233 45.086 222.413 44.738 222.413 44.318C222.413 43.886 222.221 43.568 221.837 43.364C221.453 43.148 220.859 42.938 220.055 42.734C219.323 42.542 218.723 42.35 218.255 42.158C217.799 41.954 217.403 41.66 217.067 41.276C216.743 40.88 216.581 40.364 216.581 39.728C216.581 39.224 216.731 38.762 217.031 38.342C217.331 37.922 217.757 37.592 218.309 37.352C218.861 37.1 219.491 36.974 220.199 36.974C221.291 36.974 222.173 37.25 222.845 37.802C223.517 38.354 223.877 39.11 223.925 40.07H222.287C222.251 39.554 222.041 39.14 221.657 38.828C221.285 38.516 220.781 38.36 220.145 38.36C219.557 38.36 219.089 38.486 218.741 38.738C218.393 38.99 218.219 39.32 218.219 39.728C218.219 40.052 218.321 40.322 218.525 40.538C218.741 40.742 219.005 40.91 219.317 41.042C219.641 41.162 220.085 41.3 220.649 41.456C221.357 41.648 221.933 41.84 222.377 42.032C222.821 42.212 223.199 42.488 223.511 42.86C223.835 43.232 224.003 43.718 224.015 44.318C224.015 44.858 223.865 45.344 223.565 45.776C223.265 46.208 222.839 46.55 222.287 46.802C221.747 47.042 221.123 47.162 220.415 47.162ZM228.325 38.486V44.3C228.325 44.78 228.427 45.122 228.631 45.326C228.835 45.518 229.189 45.614 229.693 45.614H230.899V47H229.423C228.511 47 227.827 46.79 227.371 46.37C226.915 45.95 226.687 45.26 226.687 44.3V38.486H225.409V37.136H226.687V34.652H228.325V37.136H230.899V38.486H228.325ZM232.272 42.032C232.272 41.024 232.476 40.142 232.884 39.386C233.292 38.618 233.85 38.024 234.558 37.604C235.278 37.184 236.076 36.974 236.952 36.974C237.816 36.974 238.566 37.16 239.202 37.532C239.838 37.904 240.312 38.372 240.624 38.936V37.136H242.28V47H240.624V45.164C240.3 45.74 239.814 46.22 239.166 46.604C238.53 46.976 237.786 47.162 236.934 47.162C236.058 47.162 235.266 46.946 234.558 46.514C233.85 46.082 233.292 45.476 232.884 44.696C232.476 43.916 232.272 43.028 232.272 42.032ZM240.624 42.05C240.624 41.306 240.474 40.658 240.174 40.106C239.874 39.554 239.466 39.134 238.95 38.846C238.446 38.546 237.888 38.396 237.276 38.396C236.664 38.396 236.106 38.54 235.602 38.828C235.098 39.116 234.696 39.536 234.396 40.088C234.096 40.64 233.946 41.288 233.946 42.032C233.946 42.788 234.096 43.448 234.396 44.012C234.696 44.564 235.098 44.99 235.602 45.29C236.106 45.578 236.664 45.722 237.276 45.722C237.888 45.722 238.446 45.578 238.95 45.29C239.466 44.99 239.874 44.564 240.174 44.012C240.474 43.448 240.624 42.794 240.624 42.05ZM239.346 34.346L235.512 36.398V35.174L239.346 32.924V34.346ZM251.485 38.954C251.809 38.39 252.289 37.922 252.925 37.55C253.573 37.166 254.323 36.974 255.175 36.974C256.051 36.974 256.843 37.184 257.551 37.604C258.271 38.024 258.835 38.618 259.243 39.386C259.651 40.142 259.855 41.024 259.855 42.032C259.855 43.028 259.651 43.916 259.243 44.696C258.835 45.476 258.271 46.082 257.551 46.514C256.843 46.946 256.051 47.162 255.175 47.162C254.335 47.162 253.591 46.976 252.943 46.604C252.307 46.22 251.821 45.746 251.485 45.182V51.68H249.847V37.136H251.485V38.954ZM258.181 42.032C258.181 41.288 258.031 40.64 257.731 40.088C257.431 39.536 257.023 39.116 256.507 38.828C256.003 38.54 255.445 38.396 254.833 38.396C254.233 38.396 253.675 38.546 253.159 38.846C252.655 39.134 252.247 39.56 251.935 40.124C251.635 40.676 251.485 41.318 251.485 42.05C251.485 42.794 251.635 43.448 251.935 44.012C252.247 44.564 252.655 44.99 253.159 45.29C253.675 45.578 254.233 45.722 254.833 45.722C255.445 45.722 256.003 45.578 256.507 45.29C257.023 44.99 257.431 44.564 257.731 44.012C258.031 43.448 258.181 42.788 258.181 42.032ZM263.649 38.738C263.937 38.174 264.345 37.736 264.873 37.424C265.413 37.112 266.067 36.956 266.835 36.956V38.648H266.403C264.567 38.648 263.649 39.644 263.649 41.636V47H262.011V37.136H263.649V38.738ZM273.028 47.162C272.104 47.162 271.264 46.952 270.508 46.532C269.764 46.112 269.176 45.518 268.744 44.75C268.324 43.97 268.114 43.07 268.114 42.05C268.114 41.042 268.33 40.154 268.762 39.386C269.206 38.606 269.806 38.012 270.562 37.604C271.318 37.184 272.164 36.974 273.1 36.974C274.036 36.974 274.882 37.184 275.638 37.604C276.394 38.012 276.988 38.6 277.42 39.368C277.864 40.136 278.086 41.03 278.086 42.05C278.086 43.07 277.858 43.97 277.402 44.75C276.958 45.518 276.352 46.112 275.584 46.532C274.816 46.952 273.964 47.162 273.028 47.162ZM273.028 45.722C273.616 45.722 274.168 45.584 274.684 45.308C275.2 45.032 275.614 44.618 275.926 44.066C276.25 43.514 276.412 42.842 276.412 42.05C276.412 41.258 276.256 40.586 275.944 40.034C275.632 39.482 275.224 39.074 274.72 38.81C274.216 38.534 273.67 38.396 273.082 38.396C272.482 38.396 271.93 38.534 271.426 38.81C270.934 39.074 270.538 39.482 270.238 40.034C269.938 40.586 269.788 41.258 269.788 42.05C269.788 42.854 269.932 43.532 270.22 44.084C270.52 44.636 270.916 45.05 271.408 45.326C271.9 45.59 272.44 45.722 273.028 45.722ZM285.046 36.956C286.246 36.956 287.218 37.322 287.962 38.054C288.706 38.774 289.078 39.818 289.078 41.186V47H287.458V41.42C287.458 40.436 287.212 39.686 286.72 39.17C286.228 38.642 285.556 38.378 284.704 38.378C283.84 38.378 283.15 38.648 282.634 39.188C282.13 39.728 281.878 40.514 281.878 41.546V47H280.24V37.136H281.878V38.54C282.202 38.036 282.64 37.646 283.192 37.37C283.756 37.094 284.374 36.956 285.046 36.956ZM293.751 38.486V44.3C293.751 44.78 293.853 45.122 294.057 45.326C294.261 45.518 294.615 45.614 295.119 45.614H296.325V47H294.849C293.937 47 293.253 46.79 292.797 46.37C292.341 45.95 292.113 45.26 292.113 44.3V38.486H290.835V37.136H292.113V34.652H293.751V37.136H296.325V38.486H293.751ZM297.698 42.032C297.698 41.024 297.902 40.142 298.31 39.386C298.718 38.618 299.276 38.024 299.984 37.604C300.704 37.184 301.502 36.974 302.378 36.974C303.242 36.974 303.992 37.16 304.628 37.532C305.264 37.904 305.738 38.372 306.05 38.936V37.136H307.706V47H306.05V45.164C305.726 45.74 305.24 46.22 304.592 46.604C303.956 46.976 303.212 47.162 302.36 47.162C301.484 47.162 300.692 46.946 299.984 46.514C299.276 46.082 298.718 45.476 298.31 44.696C297.902 43.916 297.698 43.028 297.698 42.032ZM306.05 42.05C306.05 41.306 305.9 40.658 305.6 40.106C305.3 39.554 304.892 39.134 304.376 38.846C303.872 38.546 303.314 38.396 302.702 38.396C302.09 38.396 301.532 38.54 301.028 38.828C300.524 39.116 300.122 39.536 299.822 40.088C299.522 40.64 299.372 41.288 299.372 42.032C299.372 42.788 299.522 43.448 299.822 44.012C300.122 44.564 300.524 44.99 301.028 45.29C301.532 45.578 302.09 45.722 302.702 45.722C303.314 45.722 303.872 45.578 304.376 45.29C304.892 44.99 305.3 44.564 305.6 44.012C305.9 43.448 306.05 42.794 306.05 42.05Z" fill="white"/>
<path opacity="0.5" d="M21.27 124.29V122.7H24.04V130H22.26V124.29H21.27ZM25.2098 126.25C25.2098 125.103 25.4298 124.2 25.8698 123.54C26.3164 122.88 27.0331 122.55 28.0198 122.55C29.0064 122.55 29.7198 122.88 30.1598 123.54C30.6064 124.2 30.8298 125.103 30.8298 126.25C30.8298 127.41 30.6064 128.32 30.1598 128.98C29.7198 129.64 29.0064 129.97 28.0198 129.97C27.0331 129.97 26.3164 129.64 25.8698 128.98C25.4298 128.32 25.2098 127.41 25.2098 126.25ZM29.1498 126.25C29.1498 125.577 29.0764 125.06 28.9298 124.7C28.7831 124.333 28.4798 124.15 28.0198 124.15C27.5598 124.15 27.2564 124.333 27.1098 124.7C26.9631 125.06 26.8898 125.577 26.8898 126.25C26.8898 126.703 26.9164 127.08 26.9698 127.38C27.0231 127.673 27.1298 127.913 27.2898 128.1C27.4564 128.28 27.6998 128.37 28.0198 128.37C28.3398 128.37 28.5798 128.28 28.7398 128.1C28.9064 127.913 29.0164 127.673 29.0698 127.38C29.1231 127.08 29.1498 126.703 29.1498 126.25ZM31.7332 126.25C31.7332 125.103 31.9532 124.2 32.3932 123.54C32.8399 122.88 33.5565 122.55 34.5432 122.55C35.5299 122.55 36.2432 122.88 36.6832 123.54C37.1299 124.2 37.3532 125.103 37.3532 126.25C37.3532 127.41 37.1299 128.32 36.6832 128.98C36.2432 129.64 35.5299 129.97 34.5432 129.97C33.5565 129.97 32.8399 129.64 32.3932 128.98C31.9532 128.32 31.7332 127.41 31.7332 126.25ZM35.6732 126.25C35.6732 125.577 35.5999 125.06 35.4532 124.7C35.3065 124.333 35.0032 124.15 34.5432 124.15C34.0832 124.15 33.7799 124.333 33.6332 124.7C33.4865 125.06 33.4132 125.577 33.4132 126.25C33.4132 126.703 33.4399 127.08 33.4932 127.38C33.5465 127.673 33.6532 127.913 33.8132 128.1C33.9799 128.28 34.2232 128.37 34.5432 128.37C34.8632 128.37 35.1032 128.28 35.2632 128.1C35.4299 127.913 35.5399 127.673 35.5932 127.38C35.6465 127.08 35.6732 126.703 35.6732 126.25ZM38.1166 124.54C38.1166 124 38.27 123.583 38.5766 123.29C38.89 122.997 39.2933 122.85 39.7866 122.85C40.28 122.85 40.68 122.997 40.9866 123.29C41.2933 123.583 41.4466 124 41.4466 124.54C41.4466 125.08 41.2933 125.497 40.9866 125.79C40.68 126.083 40.28 126.23 39.7866 126.23C39.2933 126.23 38.89 126.083 38.5766 125.79C38.27 125.497 38.1166 125.08 38.1166 124.54ZM44.9066 122.96L41.0566 130H39.4066L43.2566 122.96H44.9066ZM39.7766 123.85C39.4566 123.85 39.2966 124.08 39.2966 124.54C39.2966 124.993 39.4566 125.22 39.7766 125.22C39.93 125.22 40.05 125.163 40.1366 125.05C40.2233 124.937 40.2666 124.767 40.2666 124.54C40.2666 124.08 40.1033 123.85 39.7766 123.85ZM42.8766 128.42C42.8766 127.88 43.03 127.463 43.3366 127.17C43.6433 126.877 44.0433 126.73 44.5366 126.73C45.03 126.73 45.43 126.877 45.7366 127.17C46.0433 127.463 46.1966 127.88 46.1966 128.42C46.1966 128.96 46.0433 129.377 45.7366 129.67C45.43 129.963 45.03 130.11 44.5366 130.11C44.0433 130.11 43.6433 129.963 43.3366 129.67C43.03 129.377 42.8766 128.96 42.8766 128.42ZM44.5266 127.73C44.3733 127.73 44.2533 127.787 44.1666 127.9C44.0866 128.013 44.0466 128.187 44.0466 128.42C44.0466 128.873 44.2066 129.1 44.5266 129.1C44.68 129.1 44.8 129.043 44.8866 128.93C44.9733 128.817 45.0166 128.647 45.0166 128.42C45.0166 128.193 44.9733 128.023 44.8866 127.91C44.8 127.79 44.68 127.73 44.5266 127.73Z" fill="#CBD5E0"/>
<line x1="63" y1="276.5" x2="902" y2="276.5" stroke="#56577A" stroke-linecap="round" stroke-linejoin="round" stroke-dasharray="3.5 3.5"/>
<line x1="63" y1="226.5" x2="902" y2="226.5" stroke="#56577A" stroke-linecap="round" stroke-linejoin="round" stroke-dasharray="3.5 3.5"/>
<line x1="63" y1="176.5" x2="902" y2="176.5" stroke="#56577A" stroke-linecap="round" stroke-linejoin="round" stroke-dasharray="3.5 3.5"/>
<line x1="63" y1="126.5" x2="902" y2="126.5" stroke="#56577A" stroke-linecap="round" stroke-linejoin="round" stroke-dasharray="3.5 3.5"/>
<path d="M787.703 296.545C831.311 283.448 882.404 302.003 902.5 312.917V376.75H62.5V127C104.701 134.492 131.83 196.095 138.612 235.22C144.144 267.132 144.39 289.886 173.78 296.545C203.327 303.24 238.359 281.936 268 253.077C291.713 229.99 327.115 243.457 341.852 253.077C367.976 269.819 411.01 281.172 445.574 264.079C488.78 242.713 512.644 248.817 567.153 264.079C621.663 279.341 616.136 289.053 661.603 312.917C707.069 336.781 733.194 312.917 787.703 296.545Z" fill="url(#paint0_linear_506_16989)"/>
<path d="M902.5 312.917C882.404 302.003 831.311 283.448 787.703 296.545C733.194 312.917 707.069 336.781 661.603 312.917C616.136 289.053 621.663 279.341 567.153 264.079C512.644 248.817 488.78 242.713 445.574 264.079C411.01 281.172 367.976 269.819 341.852 253.077C327.115 243.457 291.713 229.99 268 253.077C238.359 281.936 203.327 303.24 173.78 296.545C144.39 289.886 144.144 267.132 138.612 235.22C131.83 196.095 104.701 134.492 62.5 127" stroke="#2CD9FF" stroke-width="3"/>
<path d="M176.414 269.457C133.142 256.369 82.4412 274.91 62.5 285.817V376.5H901.5V161.907C859.623 169.394 824.05 167.453 817.32 206.55C811.831 238.438 811.587 261.175 782.423 267.83C753.103 274.52 736.059 235.387 706.646 206.55C683.115 183.48 643.486 213.5 628.862 223.113C602.939 239.842 544.007 203.341 518.467 174.648C482 133.678 434.043 129.931 397.823 174.648C361.604 219.365 325.678 182.703 280.561 206.55C235.444 230.396 230.505 285.817 176.414 269.457Z" fill="url(#paint1_linear_506_16989)"/>
<path d="M62.5 286C82.4412 275.079 133.142 256.515 176.414 269.619C230.505 286 235.444 230.509 280.561 206.632C325.678 182.755 361.604 219.464 397.823 174.689C434.043 129.915 482 133.667 518.467 174.689C544.007 203.419 602.939 239.967 628.862 223.216C643.486 213.591 683.115 183.532 706.646 206.632C736.059 235.506 753.103 274.689 782.423 267.99C811.587 261.327 811.831 238.56 817.32 206.632C824.05 167.485 859.623 169.429 901.5 161.932" stroke="#0075FF" stroke-width="3"/>
<g style="mix-blend-mode:screen" opacity="0.5" filter="url(#filter1_f_506_16989)">
<ellipse cx="269" cy="195" rx="130" ry="122" fill="#1718FF"/>
</g>
</g>
<defs>
<filter id="filter0_b_506_16989" x="-120" y="-120" width="1164" height="685" filterUnits="userSpaceOnUse" color-interpolation-filters="sRGB">
<feFlood flood-opacity="0" result="BackgroundImageFix"/>
<feGaussianBlur in="BackgroundImageFix" stdDeviation="60"/>
<feComposite in2="SourceAlpha" operator="in" result="effect1_backgroundBlur_506_16989"/>
<feBlend mode="normal" in="SourceGraphic" in2="effect1_backgroundBlur_506_16989" result="shape"/>
</filter>
<filter id="filter1_f_506_16989" x="-161" y="-227" width="860" height="844" filterUnits="userSpaceOnUse" color-interpolation-filters="sRGB">
<feFlood flood-opacity="0" result="BackgroundImageFix"/>
<feBlend mode="normal" in="SourceGraphic" in2="BackgroundImageFix" result="shape"/>
<feGaussianBlur stdDeviation="150" result="effect1_foregroundBlur_506_16989"/>
</filter>
<linearGradient id="paint0_linear_506_16989" x1="482.5" y1="127" x2="482.5" y2="376.75" gradientUnits="userSpaceOnUse">
<stop stop-color="#2CD9FF" stop-opacity="0.36"/>
<stop offset="1" stop-color="#2CD9FF" stop-opacity="0"/>
</linearGradient>
<linearGradient id="paint1_linear_506_16989" x1="482" y1="142.5" x2="482" y2="376.5" gradientUnits="userSpaceOnUse">
<stop stop-color="#0075FF"/>
<stop offset="1" stop-color="#0075FF" stop-opacity="0"/>
</linearGradient>
<clipPath id="clip0_506_16989">
<rect width="352" height="320" rx="20" fill="white"/>
</clipPath>
</defs>
</svg>