<svg xmlns:xlink="http://www.w3.org/1999/xlink" xmlns="http://www.w3.org/2000/svg" width="352" height="320" viewBox="0 0 352 320" fill="none">
<g clip-path="url(#clip0_502_17453)">
<rect y="-4" width="390" height="361" rx="20" fill="#0C152B"/>
<g opacity="0.2">
<path d="M113.414 243.957C70.1417 230.869 19.4412 249.41 -0.5 260.317V351H838.5V136.407C796.623 143.894 761.05 141.953 754.32 181.05C748.831 212.938 748.587 235.675 719.423 242.33C690.103 249.02 673.059 209.887 643.646 181.05C620.115 157.98 580.486 188 565.862 197.613C539.939 214.342 481.007 177.841 455.467 149.148C419 108.178 371.043 104.431 334.823 149.148C298.604 193.865 262.678 157.203 217.561 181.05C172.444 204.896 167.505 260.317 113.414 243.957Z" fill="url(#paint0_linear_502_17453)"/>
<path d="M-0.5 260.5C19.4412 249.579 70.1417 231.015 113.414 244.119C167.505 260.5 172.444 205.009 217.561 181.132C262.678 157.255 298.604 193.964 334.823 149.189C371.043 104.415 419 108.167 455.467 149.189C481.007 177.919 539.939 214.467 565.862 197.716C580.486 188.091 620.115 158.032 643.646 181.132C673.059 210.006 690.103 249.189 719.423 242.49C748.587 235.827 748.831 213.06 754.32 181.132C761.05 141.985 796.623 143.929 838.5 136.432" stroke="#0075FF" stroke-width="3"/>
</g>
<g clip-path="url(#clip1_502_17453)">
<g filter="url(#filter0_d_502_17453)">
<circle cx="54.1324" cy="140.419" r="22.7504" stroke="#14BA8A" stroke-width="1.33826"/>
<path d="M49.6152 140.043L54.1318 135.526L58.6485 140.043" stroke="#14BA8A" stroke-width="1.50554" stroke-linecap="round" stroke-linejoin="round"/>
<path d="M54.1323 136.154L54.1323 145.312" stroke="#14BA8A" stroke-width="1.50554" stroke-linecap="round" stroke-linejoin="round"/>
</g>
<path d="M110.976 134.454V147.419H109.271V137.752L104.962 147.419H103.763L99.4352 137.733V147.419H97.7302V134.454H99.5663L104.363 145.171L109.159 134.454H110.976ZM123.236 141.892C123.236 142.217 123.217 142.561 123.179 142.923H114.973C115.036 143.935 115.379 144.728 116.004 145.302C116.641 145.864 117.409 146.145 118.308 146.145C119.045 146.145 119.657 145.977 120.144 145.64C120.644 145.29 120.993 144.828 121.193 144.253H123.029C122.755 145.24 122.205 146.045 121.381 146.67C120.556 147.282 119.532 147.588 118.308 147.588C117.334 147.588 116.459 147.369 115.685 146.932C114.923 146.495 114.324 145.877 113.886 145.077C113.449 144.266 113.231 143.329 113.231 142.267C113.231 141.205 113.443 140.275 113.868 139.476C114.292 138.676 114.886 138.064 115.648 137.639C116.422 137.202 117.309 136.984 118.308 136.984C119.282 136.984 120.144 137.196 120.894 137.621C121.643 138.045 122.218 138.632 122.617 139.382C123.029 140.119 123.236 140.956 123.236 141.892ZM121.474 141.536C121.474 140.887 121.331 140.331 121.043 139.869C120.756 139.394 120.363 139.038 119.863 138.801C119.376 138.551 118.833 138.426 118.233 138.426C117.371 138.426 116.634 138.701 116.022 139.251C115.423 139.8 115.079 140.562 114.992 141.536H121.474ZM130.488 136.965C131.737 136.965 132.749 137.346 133.524 138.108C134.298 138.857 134.685 139.944 134.685 141.368V147.419H132.999V141.611C132.999 140.587 132.743 139.807 132.231 139.269C131.719 138.72 131.019 138.445 130.132 138.445C129.233 138.445 128.515 138.726 127.978 139.288C127.453 139.85 127.191 140.668 127.191 141.743V147.419H125.486V137.152H127.191V138.614C127.528 138.089 127.984 137.683 128.559 137.396C129.146 137.109 129.789 136.965 130.488 136.965ZM141.948 147.588C140.986 147.588 140.112 147.369 139.325 146.932C138.551 146.495 137.939 145.877 137.489 145.077C137.052 144.266 136.833 143.329 136.833 142.267C136.833 141.218 137.058 140.294 137.508 139.494C137.97 138.682 138.594 138.064 139.381 137.639C140.168 137.202 141.049 136.984 142.023 136.984C142.997 136.984 143.878 137.202 144.665 137.639C145.452 138.064 146.07 138.676 146.519 139.476C146.982 140.275 147.213 141.205 147.213 142.267C147.213 143.329 146.975 144.266 146.501 145.077C146.039 145.877 145.408 146.495 144.608 146.932C143.809 147.369 142.922 147.588 141.948 147.588ZM141.948 146.089C142.56 146.089 143.135 145.946 143.672 145.658C144.209 145.371 144.64 144.94 144.964 144.366C145.302 143.791 145.47 143.092 145.47 142.267C145.47 141.443 145.308 140.743 144.983 140.169C144.658 139.594 144.234 139.17 143.709 138.895C143.185 138.607 142.616 138.464 142.004 138.464C141.38 138.464 140.805 138.607 140.281 138.895C139.768 139.17 139.356 139.594 139.044 140.169C138.732 140.743 138.576 141.443 138.576 142.267C138.576 143.104 138.725 143.81 139.025 144.384C139.337 144.959 139.75 145.39 140.262 145.677C140.774 145.952 141.336 146.089 141.948 146.089ZM153.089 147.588C152.302 147.588 151.596 147.457 150.972 147.195C150.347 146.92 149.854 146.545 149.492 146.07C149.13 145.583 148.93 145.028 148.892 144.403H150.653C150.703 144.915 150.941 145.334 151.365 145.658C151.803 145.983 152.371 146.145 153.07 146.145C153.72 146.145 154.232 146.002 154.607 145.714C154.981 145.427 155.169 145.065 155.169 144.628C155.169 144.178 154.969 143.847 154.569 143.635C154.169 143.41 153.551 143.191 152.714 142.979C151.952 142.779 151.328 142.579 150.841 142.38C150.366 142.167 149.954 141.861 149.604 141.462C149.267 141.049 149.098 140.512 149.098 139.85C149.098 139.326 149.255 138.845 149.567 138.408C149.879 137.97 150.322 137.627 150.897 137.377C151.472 137.115 152.127 136.984 152.864 136.984C154.001 136.984 154.919 137.271 155.618 137.846C156.318 138.42 156.693 139.207 156.743 140.206H155.038C155 139.669 154.782 139.238 154.382 138.913C153.995 138.589 153.47 138.426 152.808 138.426C152.196 138.426 151.709 138.557 151.347 138.82C150.984 139.082 150.803 139.426 150.803 139.85C150.803 140.187 150.91 140.469 151.122 140.693C151.347 140.906 151.621 141.081 151.946 141.218C152.283 141.343 152.746 141.486 153.333 141.649C154.07 141.849 154.669 142.049 155.131 142.248C155.593 142.436 155.987 142.723 156.312 143.11C156.649 143.497 156.824 144.003 156.836 144.628C156.836 145.19 156.68 145.696 156.368 146.145C156.056 146.595 155.612 146.951 155.038 147.213C154.476 147.463 153.826 147.588 153.089 147.588ZM166.318 138.557V144.609C166.318 145.109 166.424 145.465 166.636 145.677C166.848 145.877 167.217 145.977 167.741 145.977H168.997V147.419H167.46C166.511 147.419 165.799 147.201 165.325 146.764C164.85 146.327 164.613 145.608 164.613 144.609V138.557H163.282V137.152H164.613V134.567H166.318V137.152H168.997V138.557H166.318ZM170.425 142.248C170.425 141.199 170.638 140.281 171.063 139.494C171.487 138.695 172.068 138.077 172.805 137.639C173.554 137.202 174.385 136.984 175.297 136.984C176.196 136.984 176.977 137.177 177.639 137.565C178.301 137.952 178.794 138.439 179.119 139.026V137.152H180.842V147.419H179.119V145.508C178.782 146.108 178.276 146.608 177.601 147.007C176.939 147.394 176.165 147.588 175.278 147.588C174.366 147.588 173.542 147.363 172.805 146.914C172.068 146.464 171.487 145.833 171.063 145.021C170.638 144.209 170.425 143.285 170.425 142.248ZM179.119 142.267C179.119 141.493 178.963 140.818 178.65 140.244C178.338 139.669 177.913 139.232 177.376 138.932C176.852 138.62 176.271 138.464 175.634 138.464C174.997 138.464 174.416 138.614 173.892 138.913C173.367 139.213 172.949 139.65 172.636 140.225C172.324 140.8 172.168 141.474 172.168 142.248C172.168 143.035 172.324 143.722 172.636 144.309C172.949 144.884 173.367 145.327 173.892 145.64C174.416 145.939 174.997 146.089 175.634 146.089C176.271 146.089 176.852 145.939 177.376 145.64C177.913 145.327 178.338 144.884 178.65 144.309C178.963 143.722 179.119 143.042 179.119 142.267ZM189.082 147.419L186.646 143.597L184.304 147.419H182.525L185.841 142.323L182.525 137.152H184.454L186.89 140.956L189.213 137.152H190.993L187.696 142.23L191.012 147.419H189.082ZM192.052 142.248C192.052 141.199 192.264 140.281 192.689 139.494C193.114 138.695 193.694 138.077 194.431 137.639C195.181 137.202 196.011 136.984 196.923 136.984C197.822 136.984 198.603 137.177 199.265 137.565C199.927 137.952 200.42 138.439 200.745 139.026V137.152H202.469V147.419H200.745V145.508C200.408 146.108 199.902 146.608 199.228 147.007C198.566 147.394 197.791 147.588 196.904 147.588C195.993 147.588 195.168 147.363 194.431 146.914C193.694 146.464 193.114 145.833 192.689 145.021C192.264 144.209 192.052 143.285 192.052 142.248ZM200.745 142.267C200.745 141.493 200.589 140.818 200.277 140.244C199.965 139.669 199.54 139.232 199.003 138.932C198.478 138.62 197.897 138.464 197.26 138.464C196.623 138.464 196.043 138.614 195.518 138.913C194.993 139.213 194.575 139.65 194.263 140.225C193.95 140.8 193.794 141.474 193.794 142.248C193.794 143.035 193.95 143.722 194.263 144.309C194.575 144.884 194.993 145.327 195.518 145.64C196.043 145.939 196.623 146.089 197.26 146.089C197.897 146.089 198.478 145.939 199.003 145.64C199.54 145.327 199.965 144.884 200.277 144.309C200.589 143.722 200.745 143.042 200.745 142.267ZM208.985 147.588C208.198 147.588 207.492 147.457 206.868 147.195C206.243 146.92 205.75 146.545 205.388 146.07C205.025 145.583 204.826 145.028 204.788 144.403H206.549C206.599 144.915 206.836 145.334 207.261 145.658C207.698 145.983 208.267 146.145 208.966 146.145C209.616 146.145 210.128 146.002 210.502 145.714C210.877 145.427 211.064 145.065 211.064 144.628C211.064 144.178 210.865 143.847 210.465 143.635C210.065 143.41 209.447 143.191 208.61 142.979C207.848 142.779 207.224 142.579 206.737 142.38C206.262 142.167 205.85 141.861 205.5 141.462C205.163 141.049 204.994 140.512 204.994 139.85C204.994 139.326 205.15 138.845 205.463 138.408C205.775 137.97 206.218 137.627 206.793 137.377C207.367 137.115 208.023 136.984 208.76 136.984C209.897 136.984 210.815 137.271 211.514 137.846C212.214 138.42 212.588 139.207 212.638 140.206H210.933C210.896 139.669 210.677 139.238 210.278 138.913C209.89 138.589 209.366 138.426 208.704 138.426C208.092 138.426 207.605 138.557 207.242 138.82C206.88 139.082 206.699 139.426 206.699 139.85C206.699 140.187 206.805 140.469 207.018 140.693C207.242 140.906 207.517 141.081 207.842 141.218C208.179 141.343 208.641 141.486 209.228 141.649C209.965 141.849 210.565 142.049 211.027 142.248C211.489 142.436 211.883 142.723 212.207 143.11C212.545 143.497 212.719 144.003 212.732 144.628C212.732 145.19 212.576 145.696 212.264 146.145C211.951 146.595 211.508 146.951 210.933 147.213C210.371 147.463 209.722 147.588 208.985 147.588Z" fill="#A0AEC0"/>
<g filter="url(#filter1_d_502_17453)">
<circle cx="54.1328" cy="207.806" r="22.7504" transform="rotate(-180 54.1328 207.806)" stroke="#14BA8A" stroke-width="1.33826"/>
<path d="M49.6152 207.43L54.1318 202.913L58.6485 207.43" stroke="#14BA8A" stroke-width="1.50554" stroke-linecap="round" stroke-linejoin="round"/>
<path d="M54.1323 203.541L54.1323 212.699" stroke="#14BA8A" stroke-width="1.50554" stroke-linecap="round" stroke-linejoin="round"/>
</g>
<path d="M110.976 201.841V214.806H109.271V205.139L104.962 214.806H103.763L99.4352 205.12V214.806H97.7302V201.841H99.5663L104.363 212.558L109.159 201.841H110.976ZM123.236 209.279C123.236 209.604 123.217 209.948 123.179 210.31H114.973C115.036 211.322 115.379 212.115 116.004 212.689C116.641 213.251 117.409 213.532 118.308 213.532C119.045 213.532 119.657 213.364 120.144 213.027C120.644 212.677 120.993 212.215 121.193 211.64H123.029C122.755 212.627 122.205 213.432 121.381 214.057C120.556 214.669 119.532 214.975 118.308 214.975C117.334 214.975 116.459 214.756 115.685 214.319C114.923 213.882 114.324 213.264 113.886 212.464C113.449 211.653 113.231 210.716 113.231 209.654C113.231 208.592 113.443 207.662 113.868 206.863C114.292 206.063 114.886 205.451 115.648 205.026C116.422 204.589 117.309 204.371 118.308 204.371C119.282 204.371 120.144 204.583 120.894 205.008C121.643 205.432 122.218 206.019 122.617 206.769C123.029 207.506 123.236 208.343 123.236 209.279ZM121.474 208.923C121.474 208.274 121.331 207.718 121.043 207.256C120.756 206.781 120.363 206.425 119.863 206.188C119.376 205.938 118.833 205.813 118.233 205.813C117.371 205.813 116.634 206.088 116.022 206.638C115.423 207.187 115.079 207.949 114.992 208.923H121.474ZM127.191 200.942V214.806H125.486V200.942H127.191ZM135.193 204.352C135.967 204.352 136.667 204.521 137.291 204.858C137.916 205.183 138.403 205.676 138.753 206.338C139.115 207 139.296 207.806 139.296 208.755V214.806H137.61V208.998C137.61 207.974 137.354 207.194 136.842 206.656C136.329 206.107 135.63 205.832 134.743 205.832C133.844 205.832 133.126 206.113 132.589 206.675C132.064 207.237 131.802 208.055 131.802 209.13V214.806H130.097V200.942H131.802V206.001C132.139 205.476 132.601 205.07 133.188 204.783C133.788 204.496 134.456 204.352 135.193 204.352ZM146.559 214.975C145.597 214.975 144.723 214.756 143.936 214.319C143.161 213.882 142.549 213.264 142.1 212.464C141.662 211.653 141.444 210.716 141.444 209.654C141.444 208.605 141.669 207.681 142.118 206.881C142.581 206.069 143.205 205.451 143.992 205.026C144.779 204.589 145.659 204.371 146.634 204.371C147.608 204.371 148.488 204.589 149.275 205.026C150.062 205.451 150.681 206.063 151.13 206.863C151.592 207.662 151.823 208.592 151.823 209.654C151.823 210.716 151.586 211.653 151.111 212.464C150.649 213.264 150.019 213.882 149.219 214.319C148.42 214.756 147.533 214.975 146.559 214.975ZM146.559 213.476C147.171 213.476 147.745 213.333 148.282 213.045C148.819 212.758 149.25 212.327 149.575 211.752C149.912 211.178 150.081 210.478 150.081 209.654C150.081 208.83 149.919 208.13 149.594 207.556C149.269 206.981 148.844 206.556 148.32 206.282C147.795 205.994 147.227 205.851 146.615 205.851C145.99 205.851 145.416 205.994 144.891 206.282C144.379 206.556 143.967 206.981 143.655 207.556C143.342 208.13 143.186 208.83 143.186 209.654C143.186 210.491 143.336 211.197 143.636 211.771C143.948 212.346 144.36 212.777 144.872 213.064C145.385 213.339 145.947 213.476 146.559 213.476ZM155.77 206.207C156.07 205.62 156.494 205.164 157.044 204.839C157.606 204.514 158.287 204.352 159.086 204.352V206.113H158.637C156.726 206.113 155.77 207.15 155.77 209.223V214.806H154.065V204.539H155.77V206.207ZM170.422 209.279C170.422 209.604 170.403 209.948 170.366 210.31H162.16C162.222 211.322 162.566 212.115 163.19 212.689C163.827 213.251 164.595 213.532 165.495 213.532C166.232 213.532 166.844 213.364 167.331 213.027C167.83 212.677 168.18 212.215 168.38 211.64H170.216C169.941 212.627 169.392 213.432 168.567 214.057C167.743 214.669 166.719 214.975 165.495 214.975C164.52 214.975 163.646 214.756 162.872 214.319C162.11 213.882 161.51 213.264 161.073 212.464C160.636 211.653 160.417 210.716 160.417 209.654C160.417 208.592 160.63 207.662 161.054 206.863C161.479 206.063 162.072 205.451 162.834 205.026C163.609 204.589 164.495 204.371 165.495 204.371C166.469 204.371 167.331 204.583 168.08 205.008C168.83 205.432 169.404 206.019 169.804 206.769C170.216 207.506 170.422 208.343 170.422 209.279ZM168.661 208.923C168.661 208.274 168.517 207.718 168.23 207.256C167.943 206.781 167.549 206.425 167.05 206.188C166.563 205.938 166.019 205.813 165.42 205.813C164.558 205.813 163.821 206.088 163.209 206.638C162.609 207.187 162.266 207.949 162.178 208.923H168.661ZM176.307 214.975C175.52 214.975 174.815 214.844 174.19 214.582C173.566 214.307 173.072 213.932 172.71 213.457C172.348 212.97 172.148 212.414 172.111 211.79H173.872C173.922 212.302 174.159 212.721 174.584 213.045C175.021 213.37 175.589 213.532 176.289 213.532C176.938 213.532 177.45 213.389 177.825 213.101C178.2 212.814 178.387 212.452 178.387 212.015C178.387 211.565 178.187 211.234 177.787 211.022C177.388 210.797 176.769 210.578 175.933 210.366C175.171 210.166 174.546 209.966 174.059 209.767C173.584 209.554 173.172 209.248 172.822 208.848C172.485 208.436 172.317 207.899 172.317 207.237C172.317 206.713 172.473 206.232 172.785 205.795C173.097 205.357 173.541 205.014 174.115 204.764C174.69 204.502 175.346 204.371 176.082 204.371C177.219 204.371 178.137 204.658 178.837 205.233C179.536 205.807 179.911 206.594 179.961 207.593H178.256C178.218 207.056 178 206.625 177.6 206.3C177.213 205.976 176.688 205.813 176.026 205.813C175.414 205.813 174.927 205.944 174.565 206.207C174.203 206.469 174.022 206.813 174.022 207.237C174.022 207.574 174.128 207.855 174.34 208.08C174.565 208.293 174.84 208.468 175.164 208.605C175.502 208.73 175.964 208.873 176.551 209.036C177.288 209.236 177.887 209.436 178.349 209.635C178.812 209.823 179.205 210.11 179.53 210.497C179.867 210.884 180.042 211.39 180.054 212.015C180.054 212.577 179.898 213.083 179.586 213.532C179.274 213.982 178.83 214.338 178.256 214.6C177.694 214.85 177.044 214.975 176.307 214.975ZM189.161 206.432C189.498 205.845 189.998 205.357 190.66 204.97C191.334 204.571 192.115 204.371 193.002 204.371C193.914 204.371 194.738 204.589 195.475 205.026C196.224 205.464 196.811 206.082 197.236 206.881C197.661 207.668 197.873 208.586 197.873 209.635C197.873 210.672 197.661 211.596 197.236 212.408C196.811 213.22 196.224 213.851 195.475 214.301C194.738 214.75 193.914 214.975 193.002 214.975C192.128 214.975 191.353 214.781 190.679 214.394C190.017 213.995 189.511 213.501 189.161 212.914V219.678H187.456V204.539H189.161V206.432ZM196.131 209.635C196.131 208.861 195.975 208.186 195.662 207.612C195.35 207.037 194.925 206.6 194.388 206.3C193.864 206.001 193.283 205.851 192.646 205.851C192.021 205.851 191.441 206.007 190.904 206.319C190.379 206.619 189.954 207.062 189.629 207.649C189.317 208.224 189.161 208.892 189.161 209.654C189.161 210.429 189.317 211.109 189.629 211.696C189.954 212.271 190.379 212.714 190.904 213.027C191.441 213.326 192.021 213.476 192.646 213.476C193.283 213.476 193.864 213.326 194.388 213.027C194.925 212.714 195.35 212.271 195.662 211.696C195.975 211.109 196.131 210.422 196.131 209.635ZM201.822 206.207C202.122 205.62 202.547 205.164 203.096 204.839C203.658 204.514 204.339 204.352 205.138 204.352V206.113H204.689C202.778 206.113 201.822 207.15 201.822 209.223V214.806H200.117V204.539H201.822V206.207ZM216.474 209.279C216.474 209.604 216.456 209.948 216.418 210.31H208.212C208.274 211.322 208.618 212.115 209.242 212.689C209.879 213.251 210.648 213.532 211.547 213.532C212.284 213.532 212.896 213.364 213.383 213.027C213.883 212.677 214.232 212.215 214.432 211.64H216.268C215.993 212.627 215.444 213.432 214.62 214.057C213.795 214.669 212.771 214.975 211.547 214.975C210.573 214.975 209.698 214.756 208.924 214.319C208.162 213.882 207.562 213.264 207.125 212.464C206.688 211.653 206.47 210.716 206.47 209.654C206.47 208.592 206.682 207.662 207.107 206.863C207.531 206.063 208.125 205.451 208.886 205.026C209.661 204.589 210.548 204.371 211.547 204.371C212.521 204.371 213.383 204.583 214.132 205.008C214.882 205.432 215.456 206.019 215.856 206.769C216.268 207.506 216.474 208.343 216.474 209.279ZM214.713 208.923C214.713 208.274 214.57 207.718 214.282 207.256C213.995 206.781 213.602 206.425 213.102 206.188C212.615 205.938 212.071 205.813 211.472 205.813C210.61 205.813 209.873 206.088 209.261 206.638C208.662 207.187 208.318 207.949 208.231 208.923H214.713ZM223.09 213.532C223.84 213.532 224.464 213.358 224.964 213.008C225.463 212.658 225.807 212.158 225.994 211.509H227.83C227.581 212.483 227.087 213.283 226.35 213.907C225.626 214.519 224.714 214.869 223.615 214.956V215.893C224.352 215.881 224.939 216.037 225.376 216.361C225.813 216.686 226.032 217.148 226.032 217.748C226.032 218.335 225.819 218.803 225.395 219.153C224.97 219.503 224.42 219.678 223.746 219.678H221.591V218.572H223.409C223.821 218.572 224.121 218.51 224.308 218.385C224.508 218.26 224.608 218.048 224.608 217.748C224.608 217.461 224.508 217.255 224.308 217.13C224.121 217.005 223.821 216.942 223.409 216.942H222.472V214.938C221.61 214.85 220.848 214.582 220.186 214.132C219.524 213.67 219.006 213.058 218.631 212.296C218.269 211.521 218.088 210.641 218.088 209.654C218.088 208.592 218.3 207.668 218.725 206.881C219.15 206.082 219.737 205.464 220.486 205.026C221.248 204.589 222.116 204.371 223.09 204.371C224.352 204.371 225.388 204.677 226.2 205.289C227.025 205.901 227.568 206.75 227.83 207.837H225.994C225.819 207.212 225.476 206.719 224.964 206.357C224.464 205.994 223.84 205.813 223.09 205.813C222.116 205.813 221.329 206.151 220.73 206.825C220.13 207.487 219.83 208.43 219.83 209.654C219.83 210.891 220.13 211.846 220.73 212.521C221.329 213.195 222.116 213.532 223.09 213.532ZM234.583 214.975C233.621 214.975 232.747 214.756 231.96 214.319C231.186 213.882 230.574 213.264 230.124 212.464C229.687 211.653 229.468 210.716 229.468 209.654C229.468 208.605 229.693 207.681 230.143 206.881C230.605 206.069 231.229 205.451 232.016 205.026C232.803 204.589 233.684 204.371 234.658 204.371C235.632 204.371 236.513 204.589 237.3 205.026C238.087 205.451 238.705 206.063 239.155 206.863C239.617 207.662 239.848 208.592 239.848 209.654C239.848 210.716 239.61 211.653 239.136 212.464C238.674 213.264 238.043 213.882 237.243 214.319C236.444 214.756 235.557 214.975 234.583 214.975ZM234.583 213.476C235.195 213.476 235.77 213.333 236.307 213.045C236.844 212.758 237.275 212.327 237.599 211.752C237.937 211.178 238.105 210.478 238.105 209.654C238.105 208.83 237.943 208.13 237.618 207.556C237.293 206.981 236.869 206.556 236.344 206.282C235.82 205.994 235.251 205.851 234.639 205.851C234.015 205.851 233.44 205.994 232.916 206.282C232.403 206.556 231.991 206.981 231.679 207.556C231.367 208.13 231.211 208.83 231.211 209.654C231.211 210.491 231.361 211.197 231.66 211.771C231.973 212.346 232.385 212.777 232.897 213.064C233.409 213.339 233.971 213.476 234.583 213.476ZM245.724 214.975C244.937 214.975 244.232 214.844 243.607 214.582C242.982 214.307 242.489 213.932 242.127 213.457C241.765 212.97 241.565 212.414 241.527 211.79H243.289C243.338 212.302 243.576 212.721 244 213.045C244.438 213.37 245.006 213.532 245.705 213.532C246.355 213.532 246.867 213.389 247.242 213.101C247.616 212.814 247.804 212.452 247.804 212.015C247.804 211.565 247.604 211.234 247.204 211.022C246.805 210.797 246.186 210.578 245.349 210.366C244.588 210.166 243.963 209.966 243.476 209.767C243.001 209.554 242.589 209.248 242.239 208.848C241.902 208.436 241.733 207.899 241.733 207.237C241.733 206.713 241.89 206.232 242.202 205.795C242.514 205.357 242.958 205.014 243.532 204.764C244.107 204.502 244.762 204.371 245.499 204.371C246.636 204.371 247.554 204.658 248.253 205.233C248.953 205.807 249.328 206.594 249.378 207.593H247.673C247.635 207.056 247.417 206.625 247.017 206.3C246.63 205.976 246.105 205.813 245.443 205.813C244.831 205.813 244.344 205.944 243.982 206.207C243.62 206.469 243.438 206.813 243.438 207.237C243.438 207.574 243.545 207.855 243.757 208.08C243.982 208.293 244.257 208.468 244.581 208.605C244.919 208.73 245.381 208.873 245.968 209.036C246.705 209.236 247.304 209.436 247.766 209.635C248.228 209.823 248.622 210.11 248.947 210.497C249.284 210.884 249.459 211.39 249.471 212.015C249.471 212.577 249.315 213.083 249.003 213.532C248.691 213.982 248.247 214.338 247.673 214.6C247.111 214.85 246.461 214.975 245.724 214.975Z" fill="#A0AEC0"/>
<g filter="url(#filter2_d_502_17453)">
<circle cx="54.1324" cy="275.194" r="22.7504" stroke="#14BA8A" stroke-width="1.33826"/>
<path d="M49.6152 274.817L54.1318 270.301L58.6485 274.817" stroke="#14BA8A" stroke-width="1.50554" stroke-linecap="round" stroke-linejoin="round"/>
<path d="M54.1323 270.928L54.1323 280.086" stroke="#14BA8A" stroke-width="1.50554" stroke-linecap="round" stroke-linejoin="round"/>
</g>
<path d="M110.976 269.228V282.193H109.271V272.526L104.962 282.193H103.763L99.4352 272.507V282.193H97.7302V269.228H99.5663L104.363 279.945L109.159 269.228H110.976ZM113.231 277.022C113.231 275.973 113.443 275.055 113.868 274.268C114.292 273.469 114.873 272.851 115.61 272.414C116.36 271.976 117.19 271.758 118.102 271.758C119.001 271.758 119.782 271.951 120.444 272.339C121.106 272.726 121.599 273.213 121.924 273.8V271.926H123.648V282.193H121.924V280.282C121.587 280.882 121.081 281.382 120.406 281.781C119.744 282.169 118.97 282.362 118.083 282.362C117.171 282.362 116.347 282.137 115.61 281.688C114.873 281.238 114.292 280.607 113.868 279.795C113.443 278.983 113.231 278.059 113.231 277.022ZM121.924 277.041C121.924 276.267 121.768 275.592 121.456 275.018C121.143 274.443 120.719 274.006 120.182 273.706C119.657 273.394 119.076 273.238 118.439 273.238C117.802 273.238 117.221 273.388 116.697 273.688C116.172 273.987 115.754 274.424 115.442 274.999C115.129 275.574 114.973 276.248 114.973 277.022C114.973 277.809 115.129 278.496 115.442 279.083C115.754 279.658 116.172 280.101 116.697 280.414C117.221 280.713 117.802 280.863 118.439 280.863C119.076 280.863 119.657 280.713 120.182 280.414C120.719 280.101 121.143 279.658 121.456 279.083C121.768 278.496 121.924 277.816 121.924 277.041ZM127.409 270.259C127.085 270.259 126.81 270.146 126.585 269.922C126.36 269.697 126.248 269.422 126.248 269.097C126.248 268.773 126.36 268.498 126.585 268.273C126.81 268.048 127.085 267.936 127.409 267.936C127.722 267.936 127.984 268.048 128.196 268.273C128.421 268.498 128.534 268.773 128.534 269.097C128.534 269.422 128.421 269.697 128.196 269.922C127.984 270.146 127.722 270.259 127.409 270.259ZM128.234 271.926V282.193H126.529V271.926H128.234ZM134.774 282.362C133.987 282.362 133.282 282.231 132.657 281.969C132.033 281.694 131.539 281.319 131.177 280.845C130.815 280.357 130.615 279.802 130.578 279.177H132.339C132.389 279.689 132.626 280.108 133.051 280.432C133.488 280.757 134.056 280.919 134.756 280.919C135.405 280.919 135.917 280.776 136.292 280.489C136.667 280.201 136.854 279.839 136.854 279.402C136.854 278.952 136.654 278.621 136.254 278.409C135.855 278.184 135.236 277.965 134.4 277.753C133.638 277.553 133.013 277.353 132.526 277.154C132.051 276.941 131.639 276.635 131.289 276.236C130.952 275.823 130.784 275.286 130.784 274.624C130.784 274.1 130.94 273.619 131.252 273.182C131.564 272.744 132.008 272.401 132.582 272.151C133.157 271.889 133.813 271.758 134.549 271.758C135.686 271.758 136.604 272.045 137.304 272.62C138.003 273.194 138.378 273.981 138.428 274.98H136.723C136.685 274.443 136.467 274.012 136.067 273.688C135.68 273.363 135.155 273.2 134.493 273.2C133.881 273.2 133.394 273.332 133.032 273.594C132.67 273.856 132.489 274.2 132.489 274.624C132.489 274.962 132.595 275.243 132.807 275.467C133.032 275.68 133.307 275.855 133.631 275.992C133.969 276.117 134.431 276.261 135.018 276.423C135.755 276.623 136.354 276.823 136.816 277.022C137.279 277.21 137.672 277.497 137.997 277.884C138.334 278.271 138.509 278.777 138.521 279.402C138.521 279.964 138.365 280.47 138.053 280.919C137.741 281.369 137.297 281.725 136.723 281.987C136.161 282.237 135.511 282.362 134.774 282.362ZM147.628 268.329V282.193H145.923V268.329H147.628ZM159.639 271.926V282.193H157.934V280.676C157.61 281.2 157.154 281.613 156.567 281.912C155.992 282.2 155.355 282.343 154.656 282.343C153.856 282.343 153.138 282.181 152.501 281.856C151.864 281.519 151.358 281.019 150.984 280.357C150.621 279.695 150.44 278.89 150.44 277.941V271.926H152.126V277.716C152.126 278.727 152.382 279.508 152.895 280.058C153.407 280.595 154.106 280.863 154.993 280.863C155.905 280.863 156.623 280.582 157.148 280.02C157.672 279.458 157.934 278.64 157.934 277.566V271.926H159.639ZM161.881 277.041C161.881 275.98 162.093 275.055 162.518 274.268C162.943 273.469 163.53 272.851 164.279 272.414C165.041 271.976 165.909 271.758 166.883 271.758C168.145 271.758 169.182 272.064 169.994 272.676C170.818 273.288 171.361 274.137 171.624 275.224H169.787C169.613 274.599 169.269 274.106 168.757 273.744C168.257 273.382 167.633 273.2 166.883 273.2C165.909 273.2 165.122 273.538 164.523 274.212C163.923 274.874 163.623 275.817 163.623 277.041C163.623 278.278 163.923 279.233 164.523 279.908C165.122 280.582 165.909 280.919 166.883 280.919C167.633 280.919 168.257 280.745 168.757 280.395C169.257 280.045 169.6 279.546 169.787 278.896H171.624C171.349 279.945 170.799 280.788 169.975 281.425C169.15 282.05 168.12 282.362 166.883 282.362C165.909 282.362 165.041 282.144 164.279 281.706C163.53 281.269 162.943 280.651 162.518 279.852C162.093 279.052 161.881 278.115 161.881 277.041ZM175.603 273.594C175.903 273.007 176.328 272.551 176.877 272.226C177.439 271.901 178.12 271.739 178.92 271.739V273.5H178.47C176.559 273.5 175.603 274.537 175.603 276.61V282.193H173.898V271.926H175.603V273.594ZM185.366 282.362C184.404 282.362 183.529 282.144 182.743 281.706C181.968 281.269 181.356 280.651 180.906 279.852C180.469 279.04 180.251 278.103 180.251 277.041C180.251 275.992 180.476 275.068 180.925 274.268C181.387 273.456 182.012 272.838 182.799 272.414C183.586 271.976 184.466 271.758 185.44 271.758C186.415 271.758 187.295 271.976 188.082 272.414C188.869 272.838 189.487 273.45 189.937 274.25C190.399 275.049 190.63 275.98 190.63 277.041C190.63 278.103 190.393 279.04 189.918 279.852C189.456 280.651 188.825 281.269 188.026 281.706C187.227 282.144 186.34 282.362 185.366 282.362ZM185.366 280.863C185.978 280.863 186.552 280.72 187.089 280.432C187.626 280.145 188.057 279.714 188.382 279.14C188.719 278.565 188.888 277.866 188.888 277.041C188.888 276.217 188.725 275.517 188.401 274.943C188.076 274.368 187.651 273.944 187.127 273.669C186.602 273.382 186.034 273.238 185.422 273.238C184.797 273.238 184.223 273.382 183.698 273.669C183.186 273.944 182.774 274.368 182.462 274.943C182.149 275.517 181.993 276.217 181.993 277.041C181.993 277.878 182.143 278.584 182.443 279.158C182.755 279.733 183.167 280.164 183.679 280.451C184.191 280.726 184.753 280.863 185.366 280.863Z" fill="#A0AEC0"/>
<g filter="url(#filter3_d_502_17453)">
<circle cx="54.1324" cy="342.581" r="22.7504" stroke="#14BA8A" stroke-width="1.33826"/>
</g>
</g>
<path opacity="0.5" d="M27.8909 50.126C27.0629 50.126 26.3189 49.982 25.6589 49.694C25.0109 49.394 24.5009 48.986 24.1289 48.47C23.7569 47.942 23.5649 47.336 23.5529 46.652H25.2989C25.3589 47.24 25.5989 47.738 26.0189 48.146C26.4509 48.542 27.0749 48.74 27.8909 48.74C28.6709 48.74 29.2829 48.548 29.7269 48.164C30.1829 47.768 30.4109 47.264 30.4109 46.652C30.4109 46.172 30.2789 45.782 30.0149 45.482C29.7509 45.182 29.4209 44.954 29.0249 44.798C28.6289 44.642 28.0949 44.474 27.4229 44.294C26.5949 44.078 25.9289 43.862 25.4249 43.646C24.9329 43.43 24.5069 43.094 24.1469 42.638C23.7989 42.17 23.6249 41.546 23.6249 40.766C23.6249 40.082 23.7989 39.476 24.1469 38.948C24.4949 38.42 24.9809 38.012 25.6049 37.724C26.2409 37.436 26.9669 37.292 27.7829 37.292C28.9589 37.292 29.9189 37.586 30.6629 38.174C31.4189 38.762 31.8449 39.542 31.9409 40.514H30.1409C30.0809 40.034 29.8289 39.614 29.3849 39.254C28.9409 38.882 28.3529 38.696 27.6209 38.696C26.9369 38.696 26.3789 38.876 25.9469 39.236C25.5149 39.584 25.2989 40.076 25.2989 40.712C25.2989 41.168 25.4249 41.54 25.6769 41.828C25.9409 42.116 26.2589 42.338 26.6309 42.494C27.0149 42.638 27.5489 42.806 28.2329 42.998C29.0609 43.226 29.7269 43.454 30.2309 43.682C30.7349 43.898 31.1669 44.24 31.5269 44.708C31.8869 45.164 32.0669 45.788 32.0669 46.58C32.0669 47.192 31.9049 47.768 31.5809 48.308C31.2569 48.848 30.7769 49.286 30.1409 49.622C29.5049 49.958 28.7549 50.126 27.8909 50.126ZM43.2253 40.136V50H41.5873V48.542C41.2753 49.046 40.8373 49.442 40.2733 49.73C39.7213 50.006 39.1093 50.144 38.4373 50.144C37.6693 50.144 36.9793 49.988 36.3673 49.676C35.7553 49.352 35.2693 48.872 34.9093 48.236C34.5613 47.6 34.3873 46.826 34.3873 45.914V40.136H36.0073V45.698C36.0073 46.67 36.2533 47.42 36.7453 47.948C37.2373 48.464 37.9093 48.722 38.7613 48.722C39.6373 48.722 40.3273 48.452 40.8313 47.912C41.3353 47.372 41.5873 46.586 41.5873 45.554V40.136H43.2253ZM45.379 45.032C45.379 44.024 45.583 43.142 45.991 42.386C46.399 41.618 46.957 41.024 47.665 40.604C48.385 40.184 49.183 39.974 50.059 39.974C50.923 39.974 51.673 40.16 52.309 40.532C52.945 40.904 53.419 41.372 53.731 41.936V40.136H55.387V50H53.731V48.164C53.407 48.74 52.921 49.22 52.273 49.604C51.637 49.976 50.893 50.162 50.041 50.162C49.165 50.162 48.373 49.946 47.665 49.514C46.957 49.082 46.399 48.476 45.991 47.696C45.583 46.916 45.379 46.028 45.379 45.032ZM53.731 45.05C53.731 44.306 53.581 43.658 53.281 43.106C52.981 42.554 52.573 42.134 52.057 41.846C51.553 41.546 50.995 41.396 50.383 41.396C49.771 41.396 49.213 41.54 48.709 41.828C48.205 42.116 47.803 42.536 47.503 43.088C47.203 43.64 47.053 44.288 47.053 45.032C47.053 45.788 47.203 46.448 47.503 47.012C47.803 47.564 48.205 47.99 48.709 48.29C49.213 48.578 49.771 48.722 50.383 48.722C50.995 48.722 51.553 48.578 52.057 48.29C52.573 47.99 52.981 47.564 53.281 47.012C53.581 46.448 53.731 45.794 53.731 45.05ZM61.647 50.162C60.891 50.162 60.213 50.036 59.613 49.784C59.013 49.52 58.539 49.16 58.191 48.704C57.843 48.236 57.651 47.702 57.615 47.102H59.307C59.355 47.594 59.583 47.996 59.991 48.308C60.411 48.62 60.957 48.776 61.629 48.776C62.253 48.776 62.745 48.638 63.105 48.362C63.465 48.086 63.645 47.738 63.645 47.318C63.645 46.886 63.453 46.568 63.069 46.364C62.685 46.148 62.091 45.938 61.287 45.734C60.555 45.542 59.955 45.35 59.487 45.158C59.031 44.954 58.635 44.66 58.299 44.276C57.975 43.88 57.813 43.364 57.813 42.728C57.813 42.224 57.963 41.762 58.263 41.342C58.563 40.922 58.989 40.592 59.541 40.352C60.093 40.1 60.723 39.974 61.431 39.974C62.523 39.974 63.405 40.25 64.077 40.802C64.749 41.354 65.109 42.11 65.157 43.07H63.519C63.483 42.554 63.273 42.14 62.889 41.828C62.517 41.516 62.013 41.36 61.377 41.36C60.789 41.36 60.321 41.486 59.973 41.738C59.625 41.99 59.451 42.32 59.451 42.728C59.451 43.052 59.553 43.322 59.757 43.538C59.973 43.742 60.237 43.91 60.549 44.042C60.873 44.162 61.317 44.3 61.881 44.456C62.589 44.648 63.165 44.84 63.609 45.032C64.053 45.212 64.431 45.488 64.743 45.86C65.067 46.232 65.235 46.718 65.247 47.318C65.247 47.858 65.097 48.344 64.797 48.776C64.497 49.208 64.071 49.55 63.519 49.802C62.979 50.042 62.355 50.162 61.647 50.162ZM74.3562 41.486V47.3C74.3562 47.78 74.4582 48.122 74.6622 48.326C74.8662 48.518 75.2202 48.614 75.7242 48.614H76.9302V50H75.4542C74.5422 50 73.8582 49.79 73.4022 49.37C72.9462 48.95 72.7182 48.26 72.7182 47.3V41.486H71.4402V40.136H72.7182V37.652H74.3562V40.136H76.9302V41.486H74.3562ZM80.5528 41.738C80.8408 41.174 81.2488 40.736 81.7768 40.424C82.3168 40.112 82.9708 39.956 83.7388 39.956V41.648H83.3068C81.4708 41.648 80.5528 42.644 80.5528 44.636V50H78.9148V40.136H80.5528V41.738ZM85.0177 45.032C85.0177 44.024 85.2217 43.142 85.6297 42.386C86.0377 41.618 86.5957 41.024 87.3037 40.604C88.0237 40.184 88.8217 39.974 89.6977 39.974C90.5617 39.974 91.3117 40.16 91.9477 40.532C92.5837 40.904 93.0577 41.372 93.3697 41.936V40.136H95.0257V50H93.3697V48.164C93.0457 48.74 92.5597 49.22 91.9117 49.604C91.2757 49.976 90.5317 50.162 89.6797 50.162C88.8037 50.162 88.0117 49.946 87.3037 49.514C86.5957 49.082 86.0377 48.476 85.6297 47.696C85.2217 46.916 85.0177 46.028 85.0177 45.032ZM93.3697 45.05C93.3697 44.306 93.2197 43.658 92.9197 43.106C92.6197 42.554 92.2117 42.134 91.6957 41.846C91.1917 41.546 90.6337 41.396 90.0217 41.396C89.4097 41.396 88.8517 41.54 88.3477 41.828C87.8437 42.116 87.4417 42.536 87.1417 43.088C86.8417 43.64 86.6917 44.288 86.6917 45.032C86.6917 45.788 86.8417 46.448 87.1417 47.012C87.4417 47.564 87.8437 47.99 88.3477 48.29C88.8517 48.578 89.4097 48.722 90.0217 48.722C90.6337 48.722 91.1917 48.578 91.6957 48.29C92.2117 47.99 92.6197 47.564 92.9197 47.012C93.2197 46.448 93.3697 45.794 93.3697 45.05ZM102.6 39.956C103.8 39.956 104.772 40.322 105.516 41.054C106.26 41.774 106.632 42.818 106.632 44.186V50H105.012V44.42C105.012 43.436 104.766 42.686 104.274 42.17C103.782 41.642 103.11 41.378 102.258 41.378C101.394 41.378 100.704 41.648 100.188 42.188C99.6837 42.728 99.4317 43.514 99.4317 44.546V50H97.7937V40.136H99.4317V41.54C99.7557 41.036 100.194 40.646 100.746 40.37C101.31 40.094 101.928 39.956 102.6 39.956ZM112.799 50.162C112.043 50.162 111.365 50.036 110.765 49.784C110.165 49.52 109.691 49.16 109.343 48.704C108.995 48.236 108.803 47.702 108.767 47.102H110.459C110.507 47.594 110.735 47.996 111.143 48.308C111.563 48.62 112.109 48.776 112.781 48.776C113.405 48.776 113.897 48.638 114.257 48.362C114.617 48.086 114.797 47.738 114.797 47.318C114.797 46.886 114.605 46.568 114.221 46.364C113.837 46.148 113.243 45.938 112.439 45.734C111.707 45.542 111.107 45.35 110.639 45.158C110.183 44.954 109.787 44.66 109.451 44.276C109.127 43.88 108.965 43.364 108.965 42.728C108.965 42.224 109.115 41.762 109.415 41.342C109.715 40.922 110.141 40.592 110.693 40.352C111.245 40.1 111.875 39.974 112.583 39.974C113.675 39.974 114.557 40.25 115.229 40.802C115.901 41.354 116.261 42.11 116.309 43.07H114.671C114.635 42.554 114.425 42.14 114.041 41.828C113.669 41.516 113.165 41.36 112.529 41.36C111.941 41.36 111.473 41.486 111.125 41.738C110.777 41.99 110.603 42.32 110.603 42.728C110.603 43.052 110.705 43.322 110.909 43.538C111.125 43.742 111.389 43.91 111.701 44.042C112.025 44.162 112.469 44.3 113.033 44.456C113.741 44.648 114.317 44.84 114.761 45.032C115.205 45.212 115.583 45.488 115.895 45.86C116.219 46.232 116.387 46.718 116.399 47.318C116.399 47.858 116.249 48.344 115.949 48.776C115.649 49.208 115.223 49.55 114.671 49.802C114.131 50.042 113.507 50.162 112.799 50.162ZM118.1 45.032C118.1 44.024 118.304 43.142 118.712 42.386C119.12 41.618 119.678 41.024 120.386 40.604C121.106 40.184 121.904 39.974 122.78 39.974C123.644 39.974 124.394 40.16 125.03 40.532C125.666 40.904 126.14 41.372 126.452 41.936V40.136H128.108V50H126.452V48.164C126.128 48.74 125.642 49.22 124.994 49.604C124.358 49.976 123.614 50.162 122.762 50.162C121.886 50.162 121.094 49.946 120.386 49.514C119.678 49.082 119.12 48.476 118.712 47.696C118.304 46.916 118.1 46.028 118.1 45.032ZM126.452 45.05C126.452 44.306 126.302 43.658 126.002 43.106C125.702 42.554 125.294 42.134 124.778 41.846C124.274 41.546 123.716 41.396 123.104 41.396C122.492 41.396 121.934 41.54 121.43 41.828C120.926 42.116 120.524 42.536 120.224 43.088C119.924 43.64 119.774 44.288 119.774 45.032C119.774 45.788 119.924 46.448 120.224 47.012C120.524 47.564 120.926 47.99 121.43 48.29C121.934 48.578 122.492 48.722 123.104 48.722C123.716 48.722 124.274 48.578 124.778 48.29C125.294 47.99 125.702 47.564 126.002 47.012C126.302 46.448 126.452 45.794 126.452 45.05ZM135.07 48.776C135.79 48.776 136.39 48.608 136.87 48.272C137.35 47.936 137.68 47.456 137.86 46.832H139.624C139.384 47.768 138.91 48.536 138.202 49.136C137.506 49.724 136.63 50.06 135.574 50.144V51.044C136.282 51.032 136.846 51.182 137.266 51.494C137.686 51.806 137.896 52.25 137.896 52.826C137.896 53.39 137.692 53.84 137.284 54.176C136.876 54.512 136.348 54.68 135.7 54.68H133.63V53.618H135.376C135.772 53.618 136.06 53.558 136.24 53.438C136.432 53.318 136.528 53.114 136.528 52.826C136.528 52.55 136.432 52.352 136.24 52.232C136.06 52.112 135.772 52.052 135.376 52.052H134.476V50.126C133.648 50.042 132.916 49.784 132.28 49.352C131.644 48.908 131.146 48.32 130.786 47.588C130.438 46.844 130.264 45.998 130.264 45.05C130.264 44.03 130.468 43.142 130.876 42.386C131.284 41.618 131.848 41.024 132.568 40.604C133.3 40.184 134.134 39.974 135.07 39.974C136.282 39.974 137.278 40.268 138.058 40.856C138.85 41.444 139.372 42.26 139.624 43.304H137.86C137.692 42.704 137.362 42.23 136.87 41.882C136.39 41.534 135.79 41.36 135.07 41.36C134.134 41.36 133.378 41.684 132.802 42.332C132.226 42.968 131.938 43.874 131.938 45.05C131.938 46.238 132.226 47.156 132.802 47.804C133.378 48.452 134.134 48.776 135.07 48.776ZM146.111 50.162C145.187 50.162 144.347 49.952 143.591 49.532C142.847 49.112 142.259 48.518 141.827 47.75C141.407 46.97 141.197 46.07 141.197 45.05C141.197 44.042 141.413 43.154 141.845 42.386C142.289 41.606 142.889 41.012 143.645 40.604C144.401 40.184 145.247 39.974 146.183 39.974C147.119 39.974 147.965 40.184 148.721 40.604C149.477 41.012 150.071 41.6 150.503 42.368C150.947 43.136 151.169 44.03 151.169 45.05C151.169 46.07 150.941 46.97 150.485 47.75C150.041 48.518 149.435 49.112 148.667 49.532C147.899 49.952 147.047 50.162 146.111 50.162ZM146.111 48.722C146.699 48.722 147.251 48.584 147.767 48.308C148.283 48.032 148.697 47.618 149.009 47.066C149.333 46.514 149.495 45.842 149.495 45.05C149.495 44.258 149.339 43.586 149.027 43.034C148.715 42.482 148.307 42.074 147.803 41.81C147.299 41.534 146.753 41.396 146.165 41.396C145.565 41.396 145.013 41.534 144.509 41.81C144.017 42.074 143.621 42.482 143.321 43.034C143.021 43.586 142.871 44.258 142.871 45.05C142.871 45.854 143.015 46.532 143.303 47.084C143.603 47.636 143.999 48.05 144.491 48.326C144.983 48.59 145.523 48.722 146.111 48.722ZM143.555 38.948C143.639 38.336 143.837 37.868 144.149 37.544C144.473 37.22 144.875 37.058 145.355 37.058C145.583 37.058 145.775 37.1 145.931 37.184C146.099 37.256 146.297 37.364 146.525 37.508C146.693 37.628 146.843 37.724 146.975 37.796C147.107 37.856 147.251 37.886 147.407 37.886C147.611 37.886 147.785 37.82 147.929 37.688C148.073 37.556 148.163 37.364 148.199 37.112H149.135C149.063 37.712 148.865 38.174 148.541 38.498C148.217 38.822 147.815 38.984 147.335 38.984C147.107 38.984 146.903 38.948 146.723 38.876C146.555 38.792 146.363 38.672 146.147 38.516C145.955 38.396 145.799 38.306 145.679 38.246C145.571 38.186 145.439 38.156 145.283 38.156C145.079 38.156 144.905 38.222 144.761 38.354C144.629 38.486 144.545 38.684 144.509 38.948H143.555ZM162.323 44.69C162.323 45.002 162.305 45.332 162.269 45.68H154.385C154.445 46.652 154.775 47.414 155.375 47.966C155.987 48.506 156.725 48.776 157.589 48.776C158.297 48.776 158.885 48.614 159.353 48.29C159.833 47.954 160.169 47.51 160.361 46.958H162.125C161.861 47.906 161.333 48.68 160.541 49.28C159.749 49.868 158.765 50.162 157.589 50.162C156.653 50.162 155.813 49.952 155.069 49.532C154.337 49.112 153.761 48.518 153.341 47.75C152.921 46.97 152.711 46.07 152.711 45.05C152.711 44.03 152.915 43.136 153.323 42.368C153.731 41.6 154.301 41.012 155.033 40.604C155.777 40.184 156.629 39.974 157.589 39.974C158.525 39.974 159.353 40.178 160.073 40.586C160.793 40.994 161.345 41.558 161.729 42.278C162.125 42.986 162.323 43.79 162.323 44.69ZM160.631 44.348C160.631 43.724 160.493 43.19 160.217 42.746C159.941 42.29 159.563 41.948 159.083 41.72C158.615 41.48 158.093 41.36 157.517 41.36C156.689 41.36 155.981 41.624 155.393 42.152C154.817 42.68 154.487 43.412 154.403 44.348H160.631ZM167.977 50.162C167.221 50.162 166.543 50.036 165.943 49.784C165.343 49.52 164.869 49.16 164.521 48.704C164.173 48.236 163.981 47.702 163.945 47.102H165.637C165.685 47.594 165.913 47.996 166.321 48.308C166.741 48.62 167.287 48.776 167.959 48.776C168.583 48.776 169.075 48.638 169.435 48.362C169.795 48.086 169.975 47.738 169.975 47.318C169.975 46.886 169.783 46.568 169.399 46.364C169.015 46.148 168.421 45.938 167.617 45.734C166.885 45.542 166.285 45.35 165.817 45.158C165.361 44.954 164.965 44.66 164.629 44.276C164.305 43.88 164.143 43.364 164.143 42.728C164.143 42.224 164.293 41.762 164.593 41.342C164.893 40.922 165.319 40.592 165.871 40.352C166.423 40.1 167.053 39.974 167.761 39.974C168.853 39.974 169.735 40.25 170.407 40.802C171.079 41.354 171.439 42.11 171.487 43.07H169.849C169.813 42.554 169.603 42.14 169.219 41.828C168.847 41.516 168.343 41.36 167.707 41.36C167.119 41.36 166.651 41.486 166.303 41.738C165.955 41.99 165.781 42.32 165.781 42.728C165.781 43.052 165.883 43.322 166.087 43.538C166.303 43.742 166.567 43.91 166.879 44.042C167.203 44.162 167.647 44.3 168.211 44.456C168.919 44.648 169.495 44.84 169.939 45.032C170.383 45.212 170.761 45.488 171.073 45.86C171.397 46.232 171.565 46.718 171.577 47.318C171.577 47.858 171.427 48.344 171.127 48.776C170.827 49.208 170.401 49.55 169.849 49.802C169.309 50.042 168.685 50.162 167.977 50.162Z" fill="white"/>
<path opacity="0.5" d="M29.3729 78.83H25.1169L24.3329 81H22.9889L26.5169 71.298H27.9869L31.5009 81H30.1569L29.3729 78.83ZM29.0089 77.794L27.2449 72.866L25.4809 77.794H29.0089ZM32.5624 77.136C32.5624 76.352 32.7211 75.666 33.0384 75.078C33.3558 74.4807 33.7898 74.0187 34.3404 73.692C34.9004 73.3653 35.5258 73.202 36.2164 73.202C36.8791 73.202 37.4578 73.3513 37.9524 73.65C38.4564 73.9393 38.8251 74.2987 39.0584 74.728V73.328H40.3464V84.64H39.0584V79.586C38.8158 80.0153 38.4424 80.3793 37.9384 80.678C37.4344 80.9767 36.8464 81.126 36.1744 81.126C35.5024 81.126 34.8911 80.958 34.3404 80.622C33.7898 80.286 33.3558 79.8147 33.0384 79.208C32.7211 78.6013 32.5624 77.9107 32.5624 77.136ZM39.0584 77.15C39.0584 76.5713 38.9418 76.0673 38.7084 75.638C38.4751 75.2087 38.1578 74.882 37.7564 74.658C37.3644 74.4247 36.9304 74.308 36.4544 74.308C35.9784 74.308 35.5444 74.42 35.1524 74.644C34.7604 74.868 34.4478 75.1947 34.2144 75.624C33.9811 76.0533 33.8644 76.5573 33.8644 77.136C33.8644 77.724 33.9811 78.2373 34.2144 78.676C34.4478 79.1053 34.7604 79.4367 35.1524 79.67C35.5444 79.894 35.9784 80.006 36.4544 80.006C36.9304 80.006 37.3644 79.894 37.7564 79.67C38.1578 79.4367 38.4751 79.1053 38.7084 78.676C38.9418 78.2373 39.0584 77.7287 39.0584 77.15ZM49.3034 73.328V81H48.0294V79.866C47.7867 80.258 47.4461 80.566 47.0074 80.79C46.5781 81.0047 46.1021 81.112 45.5794 81.112C44.9821 81.112 44.4454 80.9907 43.9694 80.748C43.4934 80.496 43.1154 80.1227 42.8354 79.628C42.5647 79.1333 42.4294 78.5313 42.4294 77.822V73.328H43.6894V77.654C43.6894 78.41 43.8807 78.9933 44.2634 79.404C44.6461 79.8053 45.1687 80.006 45.8314 80.006C46.5127 80.006 47.0494 79.796 47.4414 79.376C47.8334 78.956 48.0294 78.3447 48.0294 77.542V73.328H49.3034ZM52.1125 72.082C51.8698 72.082 51.6645 71.998 51.4965 71.83C51.3285 71.662 51.2445 71.4567 51.2445 71.214C51.2445 70.9713 51.3285 70.766 51.4965 70.598C51.6645 70.43 51.8698 70.346 52.1125 70.346C52.3458 70.346 52.5418 70.43 52.7005 70.598C52.8685 70.766 52.9525 70.9713 52.9525 71.214C52.9525 71.4567 52.8685 71.662 52.7005 71.83C52.5418 71.998 52.3458 72.082 52.1125 72.082ZM52.7285 73.328V81H51.4545V73.328H52.7285ZM65.6322 76.87C65.6322 77.1127 65.6182 77.3693 65.5902 77.64H59.4582C59.5049 78.396 59.7615 78.9887 60.2282 79.418C60.7042 79.838 61.2782 80.048 61.9502 80.048C62.5009 80.048 62.9582 79.922 63.3222 79.67C63.6955 79.4087 63.9569 79.0633 64.1062 78.634H65.4782C65.2729 79.3713 64.8622 79.9733 64.2462 80.44C63.6302 80.8973 62.8649 81.126 61.9502 81.126C61.2222 81.126 60.5689 80.9627 59.9902 80.636C59.4209 80.3093 58.9729 79.8473 58.6462 79.25C58.3195 78.6433 58.1562 77.9433 58.1562 77.15C58.1562 76.3567 58.3149 75.6613 58.6322 75.064C58.9495 74.4667 59.3929 74.0093 59.9622 73.692C60.5409 73.3653 61.2035 73.202 61.9502 73.202C62.6782 73.202 63.3222 73.3607 63.8822 73.678C64.4422 73.9953 64.8715 74.434 65.1702 74.994C65.4782 75.5447 65.6322 76.17 65.6322 76.87ZM64.3162 76.604C64.3162 76.1187 64.2089 75.7033 63.9942 75.358C63.7795 75.0033 63.4855 74.7373 63.1122 74.56C62.7482 74.3733 62.3422 74.28 61.8942 74.28C61.2502 74.28 60.6995 74.4853 60.2422 74.896C59.7942 75.3067 59.5375 75.876 59.4722 76.604H64.3162ZM68.5878 70.64V81H67.3138V70.64H68.5878ZM70.2832 77.136C70.2832 76.352 70.4418 75.666 70.7592 75.078C71.0765 74.4807 71.5105 74.0187 72.0612 73.692C72.6212 73.3653 73.2418 73.202 73.9232 73.202C74.5952 73.202 75.1785 73.3467 75.6732 73.636C76.1678 73.9253 76.5365 74.2893 76.7792 74.728V73.328H78.0672V81H76.7792V79.572C76.5272 80.02 76.1492 80.3933 75.6452 80.692C75.1505 80.9813 74.5718 81.126 73.9092 81.126C73.2278 81.126 72.6118 80.958 72.0612 80.622C71.5105 80.286 71.0765 79.8147 70.7592 79.208C70.4418 78.6013 70.2832 77.9107 70.2832 77.136ZM76.7792 77.15C76.7792 76.5713 76.6625 76.0673 76.4292 75.638C76.1958 75.2087 75.8785 74.882 75.4772 74.658C75.0852 74.4247 74.6512 74.308 74.1752 74.308C73.6992 74.308 73.2652 74.42 72.8732 74.644C72.4812 74.868 72.1685 75.1947 71.9352 75.624C71.7018 76.0533 71.5852 76.5573 71.5852 77.136C71.5852 77.724 71.7018 78.2373 71.9352 78.676C72.1685 79.1053 72.4812 79.4367 72.8732 79.67C73.2652 79.894 73.6992 80.006 74.1752 80.006C74.6512 80.006 75.0852 79.894 75.4772 79.67C75.8785 79.4367 76.1958 79.1053 76.4292 78.676C76.6625 78.2373 76.7792 77.7287 76.7792 77.15ZM82.9361 81.126C82.3481 81.126 81.8208 81.028 81.3541 80.832C80.8874 80.6267 80.5188 80.3467 80.2481 79.992C79.9774 79.628 79.8281 79.2127 79.8001 78.746H81.1161C81.1534 79.1287 81.3308 79.4413 81.6481 79.684C81.9748 79.9267 82.3994 80.048 82.9221 80.048C83.4074 80.048 83.7901 79.9407 84.0701 79.726C84.3501 79.5113 84.4901 79.2407 84.4901 78.914C84.4901 78.578 84.3408 78.3307 84.0421 78.172C83.7434 78.004 83.2814 77.8407 82.6561 77.682C82.0868 77.5327 81.6201 77.3833 81.2561 77.234C80.9014 77.0753 80.5934 76.8467 80.3321 76.548C80.0801 76.24 79.9541 75.8387 79.9541 75.344C79.9541 74.952 80.0708 74.5927 80.3041 74.266C80.5374 73.9393 80.8688 73.6827 81.2981 73.496C81.7274 73.3 82.2174 73.202 82.7681 73.202C83.6174 73.202 84.3034 73.4167 84.8261 73.846C85.3488 74.2753 85.6288 74.8633 85.6661 75.61H84.3921C84.3641 75.2087 84.2008 74.8867 83.9021 74.644C83.6128 74.4013 83.2208 74.28 82.7261 74.28C82.2688 74.28 81.9048 74.378 81.6341 74.574C81.3634 74.77 81.2281 75.0267 81.2281 75.344C81.2281 75.596 81.3074 75.806 81.4661 75.974C81.6341 76.1327 81.8394 76.2633 82.0821 76.366C82.3341 76.4593 82.6794 76.5667 83.1181 76.688C83.6688 76.8373 84.1168 76.9867 84.4621 77.136C84.8074 77.276 85.1014 77.4907 85.3441 77.78C85.5961 78.0693 85.7268 78.4473 85.7361 78.914C85.7361 79.334 85.6194 79.712 85.3861 80.048C85.1528 80.384 84.8214 80.65 84.3921 80.846C83.9721 81.0327 83.4868 81.126 82.9361 81.126ZM94.123 79.824L96.503 73.328H97.861L94.851 81H93.367L90.357 73.328H91.729L94.123 79.824ZM98.6386 77.136C98.6386 76.352 98.7973 75.666 99.1146 75.078C99.432 74.4807 99.866 74.0187 100.417 73.692C100.977 73.3653 101.597 73.202 102.279 73.202C102.951 73.202 103.534 73.3467 104.029 73.636C104.523 73.9253 104.892 74.2893 105.135 74.728V73.328H106.423V81H105.135V79.572C104.883 80.02 104.505 80.3933 104.001 80.692C103.506 80.9813 102.927 81.126 102.265 81.126C101.583 81.126 100.967 80.958 100.417 80.622C99.866 80.286 99.432 79.8147 99.1146 79.208C98.7973 78.6013 98.6386 77.9107 98.6386 77.136ZM105.135 77.15C105.135 76.5713 105.018 76.0673 104.785 75.638C104.551 75.2087 104.234 74.882 103.833 74.658C103.441 74.4247 103.007 74.308 102.531 74.308C102.055 74.308 101.621 74.42 101.229 74.644C100.837 74.868 100.524 75.1947 100.291 75.624C100.057 76.0533 99.9406 76.5573 99.9406 77.136C99.9406 77.724 100.057 78.2373 100.291 78.676C100.524 79.1053 100.837 79.4367 101.229 79.67C101.621 79.894 102.055 80.006 102.531 80.006C103.007 80.006 103.441 79.894 103.833 79.67C104.234 79.4367 104.551 79.1053 104.785 78.676C105.018 78.2373 105.135 77.7287 105.135 77.15ZM109.85 70.64V81H108.576V70.64H109.85ZM119.021 76.87C119.021 77.1127 119.007 77.3693 118.979 77.64H112.847C112.894 78.396 113.15 78.9887 113.617 79.418C114.093 79.838 114.667 80.048 115.339 80.048C115.89 80.048 116.347 79.922 116.711 79.67C117.084 79.4087 117.346 79.0633 117.495 78.634H118.867C118.662 79.3713 118.251 79.9733 117.635 80.44C117.019 80.8973 116.254 81.126 115.339 81.126C114.611 81.126 113.958 80.9627 113.379 80.636C112.81 80.3093 112.362 79.8473 112.035 79.25C111.708 78.6433 111.545 77.9433 111.545 77.15C111.545 76.3567 111.704 75.6613 112.021 75.064C112.338 74.4667 112.782 74.0093 113.351 73.692C113.93 73.3653 114.592 73.202 115.339 73.202C116.067 73.202 116.711 73.3607 117.271 73.678C117.831 73.9953 118.26 74.434 118.559 74.994C118.867 75.5447 119.021 76.17 119.021 76.87ZM117.705 76.604C117.705 76.1187 117.598 75.7033 117.383 75.358C117.168 75.0033 116.874 74.7373 116.501 74.56C116.137 74.3733 115.731 74.28 115.283 74.28C114.639 74.28 114.088 74.4853 113.631 74.896C113.183 75.3067 112.926 75.876 112.861 76.604H117.705ZM129.929 73.188C130.526 73.188 131.058 73.314 131.525 73.566C131.991 73.8087 132.36 74.1773 132.631 74.672C132.901 75.1667 133.037 75.7687 133.037 76.478V81H131.777V76.66C131.777 75.8947 131.585 75.3113 131.203 74.91C130.829 74.4993 130.321 74.294 129.677 74.294C129.014 74.294 128.487 74.5087 128.095 74.938C127.703 75.358 127.507 75.9693 127.507 76.772V81H126.247V76.66C126.247 75.8947 126.055 75.3113 125.673 74.91C125.299 74.4993 124.791 74.294 124.147 74.294C123.484 74.294 122.957 74.5087 122.565 74.938C122.173 75.358 121.977 75.9693 121.977 76.772V81H120.703V73.328H121.977V74.434C122.229 74.0327 122.565 73.7247 122.985 73.51C123.414 73.2953 123.885 73.188 124.399 73.188C125.043 73.188 125.612 73.3327 126.107 73.622C126.601 73.9113 126.97 74.336 127.213 74.896C127.427 74.3547 127.782 73.9347 128.277 73.636C128.771 73.3373 129.322 73.188 129.929 73.188ZM148.085 73.188C148.682 73.188 149.214 73.314 149.681 73.566C150.147 73.8087 150.516 74.1773 150.787 74.672C151.057 75.1667 151.193 75.7687 151.193 76.478V81H149.933V76.66C149.933 75.8947 149.741 75.3113 149.359 74.91C148.985 74.4993 148.477 74.294 147.833 74.294C147.17 74.294 146.643 74.5087 146.251 74.938C145.859 75.358 145.663 75.9693 145.663 76.772V81H144.403V76.66C144.403 75.8947 144.211 75.3113 143.829 74.91C143.455 74.4993 142.947 74.294 142.303 74.294C141.64 74.294 141.113 74.5087 140.721 74.938C140.329 75.358 140.133 75.9693 140.133 76.772V81H138.859V73.328H140.133V74.434C140.385 74.0327 140.721 73.7247 141.141 73.51C141.57 73.2953 142.041 73.188 142.555 73.188C143.199 73.188 143.768 73.3327 144.263 73.622C144.757 73.9113 145.126 74.336 145.369 74.896C145.583 74.3547 145.938 73.9347 146.433 73.636C146.927 73.3373 147.478 73.188 148.085 73.188ZM152.807 77.136C152.807 76.352 152.965 75.666 153.283 75.078C153.6 74.4807 154.034 74.0187 154.585 73.692C155.145 73.3653 155.765 73.202 156.447 73.202C157.119 73.202 157.702 73.3467 158.197 73.636C158.691 73.9253 159.06 74.2893 159.303 74.728V73.328H160.591V81H159.303V79.572C159.051 80.02 158.673 80.3933 158.169 80.692C157.674 80.9813 157.095 81.126 156.433 81.126C155.751 81.126 155.135 80.958 154.585 80.622C154.034 80.286 153.6 79.8147 153.283 79.208C152.965 78.6013 152.807 77.9107 152.807 77.136ZM159.303 77.15C159.303 76.5713 159.186 76.0673 158.953 75.638C158.719 75.2087 158.402 74.882 158.001 74.658C157.609 74.4247 157.175 74.308 156.699 74.308C156.223 74.308 155.789 74.42 155.397 74.644C155.005 74.868 154.692 75.1947 154.459 75.624C154.225 76.0533 154.109 76.5573 154.109 77.136C154.109 77.724 154.225 78.2373 154.459 78.676C154.692 79.1053 155.005 79.4367 155.397 79.67C155.789 79.894 156.223 80.006 156.699 80.006C157.175 80.006 157.609 79.894 158.001 79.67C158.402 79.4367 158.719 79.1053 158.953 78.676C159.186 78.2373 159.303 77.7287 159.303 77.15ZM163.402 72.082C163.159 72.082 162.954 71.998 162.786 71.83C162.618 71.662 162.534 71.4567 162.534 71.214C162.534 70.9713 162.618 70.766 162.786 70.598C162.954 70.43 163.159 70.346 163.402 70.346C163.635 70.346 163.831 70.43 163.99 70.598C164.158 70.766 164.242 70.9713 164.242 71.214C164.242 71.4567 164.158 71.662 163.99 71.83C163.831 71.998 163.635 72.082 163.402 72.082ZM164.018 73.328V81H162.744V73.328H164.018ZM168.905 81.126C168.317 81.126 167.79 81.028 167.323 80.832C166.856 80.6267 166.488 80.3467 166.217 79.992C165.946 79.628 165.797 79.2127 165.769 78.746H167.085C167.122 79.1287 167.3 79.4413 167.617 79.684C167.944 79.9267 168.368 80.048 168.891 80.048C169.376 80.048 169.759 79.9407 170.039 79.726C170.319 79.5113 170.459 79.2407 170.459 78.914C170.459 78.578 170.31 78.3307 170.011 78.172C169.712 78.004 169.25 77.8407 168.625 77.682C168.056 77.5327 167.589 77.3833 167.225 77.234C166.87 77.0753 166.562 76.8467 166.301 76.548C166.049 76.24 165.923 75.8387 165.923 75.344C165.923 74.952 166.04 74.5927 166.273 74.266C166.506 73.9393 166.838 73.6827 167.267 73.496C167.696 73.3 168.186 73.202 168.737 73.202C169.586 73.202 170.272 73.4167 170.795 73.846C171.318 74.2753 171.598 74.8633 171.635 75.61H170.361C170.333 75.2087 170.17 74.8867 169.871 74.644C169.582 74.4013 169.19 74.28 168.695 74.28C168.238 74.28 167.874 74.378 167.603 74.574C167.332 74.77 167.197 75.0267 167.197 75.344C167.197 75.596 167.276 75.806 167.435 75.974C167.603 76.1327 167.808 76.2633 168.051 76.366C168.303 76.4593 168.648 76.5667 169.087 76.688C169.638 76.8373 170.086 76.9867 170.431 77.136C170.776 77.276 171.07 77.4907 171.313 77.78C171.565 78.0693 171.696 78.4473 171.705 78.914C171.705 79.334 171.588 79.712 171.355 80.048C171.122 80.384 170.79 80.65 170.361 80.846C169.941 81.0327 169.456 81.126 168.905 81.126Z" fill="#A0AEC0"/>
<g style="mix-blend-mode:screen" opacity="0.8" filter="url(#filter4_f_502_17453)">
<ellipse cx="311" cy="98.4938" rx="130" ry="110.494" fill="#1718FF"/>
</g>
</g>
<defs>
<filter id="filter0_d_502_17453" x="3.71289" y="90" width="100.839" height="100.839" filterUnits="userSpaceOnUse" color-interpolation-filters="sRGB">
<feFlood flood-opacity="0" result="BackgroundImageFix"/>
<feColorMatrix in="SourceAlpha" type="matrix" values="0 0 0 0 0 0 0 0 0 0 0 0 0 0 0 0 0 0 127 0" result="hardAlpha"/>
<feOffset/>
<feGaussianBlur stdDeviation="13.5"/>
<feComposite in2="hardAlpha" operator="out"/>
<feColorMatrix type="matrix" values="0 0 0 0 0.0901961 0 0 0 0 0.0941176 0 0 0 0 1 0 0 0 1 0"/>
<feBlend mode="normal" in2="BackgroundImageFix" result="effect1_dropShadow_502_17453"/>
<feBlend mode="normal" in="SourceGraphic" in2="effect1_dropShadow_502_17453" result="shape"/>
</filter>
<filter id="filter1_d_502_17453" x="3.71338" y="157.387" width="100.839" height="100.839" filterUnits="userSpaceOnUse" color-interpolation-filters="sRGB">
<feFlood flood-opacity="0" result="BackgroundImageFix"/>
<feColorMatrix in="SourceAlpha" type="matrix" values="0 0 0 0 0 0 0 0 0 0 0 0 0 0 0 0 0 0 127 0" result="hardAlpha"/>
<feOffset/>
<feGaussianBlur stdDeviation="13.5"/>
<feComposite in2="hardAlpha" operator="out"/>
<feColorMatrix type="matrix" values="0 0 0 0 0.0901961 0 0 0 0 0.0941176 0 0 0 0 1 0 0 0 1 0"/>
<feBlend mode="normal" in2="BackgroundImageFix" result="effect1_dropShadow_502_17453"/>
<feBlend mode="normal" in="SourceGraphic" in2="effect1_dropShadow_502_17453" result="shape"/>
</filter>
<filter id="filter2_d_502_17453" x="3.71289" y="224.774" width="100.839" height="100.839" filterUnits="userSpaceOnUse" color-interpolation-filters="sRGB">
<feFlood flood-opacity="0" result="BackgroundImageFix"/>
<feColorMatrix in="SourceAlpha" type="matrix" values="0 0 0 0 0 0 0 0 0 0 0 0 0 0 0 0 0 0 127 0" result="hardAlpha"/>
<feOffset/>
<feGaussianBlur stdDeviation="13.5"/>
<feComposite in2="hardAlpha" operator="out"/>
<feColorMatrix type="matrix" values="0 0 0 0 0.0901961 0 0 0 0 0.0941176 0 0 0 0 1 0 0 0 1 0"/>
<feBlend mode="normal" in2="BackgroundImageFix" result="effect1_dropShadow_502_17453"/>
<feBlend mode="normal" in="SourceGraphic" in2="effect1_dropShadow_502_17453" result="shape"/>
</filter>
<filter id="filter3_d_502_17453" x="3.71289" y="292.161" width="100.839" height="100.839" filterUnits="userSpaceOnUse" color-interpolation-filters="sRGB">
<feFlood flood-opacity="0" result="BackgroundImageFix"/>
<feColorMatrix in="SourceAlpha" type="matrix" values="0 0 0 0 0 0 0 0 0 0 0 0 0 0 0 0 0 0 127 0" result="hardAlpha"/>
<feOffset/>
<feGaussianBlur stdDeviation="13.5"/>
<feComposite in2="hardAlpha" operator="out"/>
<feColorMatrix type="matrix" values="0 0 0 0 0.0901961 0 0 0 0 0.0941176 0 0 0 0 1 0 0 0 1 0"/>
<feBlend mode="normal" in2="BackgroundImageFix" result="effect1_dropShadow_502_17453"/>
<feBlend mode="normal" in="SourceGraphic" in2="effect1_dropShadow_502_17453" result="shape"/>
</filter>
<filter id="filter4_f_502_17453" x="-119" y="-312" width="860" height="820.988" filterUnits="userSpaceOnUse" color-interpolation-filters="sRGB">
<feFlood flood-opacity="0" result="BackgroundImageFix"/>
<feBlend mode="normal" in="SourceGraphic" in2="BackgroundImageFix" result="shape"/>
<feGaussianBlur stdDeviation="150" result="effect1_foregroundBlur_502_17453"/>
</filter>
<linearGradient id="paint0_linear_502_17453" x1="419" y1="117" x2="419" y2="351" gradientUnits="userSpaceOnUse">
<stop stop-color="#0075FF"/>
<stop offset="1" stop-color="#0075FF" stop-opacity="0"/>
</linearGradient>
<clipPath id="clip0_502_17453">
<rect width="352" height="320" rx="20" fill="white"/>
</clipPath>
<clipPath id="clip1_502_17453">
<rect width="311.575" height="259" fill="white" transform="translate(30.7129 117)"/>
</clipPath>
</defs>
</svg>