<svg xmlns:xlink="http://www.w3.org/1999/xlink" xmlns="http://www.w3.org/2000/svg" width="352" height="320" viewBox="0 0 352 320" fill="none">
<g clip-path="url(#clip0_502_17451)">
<rect width="352" height="320" rx="20" fill="#0C152B"/>
<g opacity="0.2">
<line x1="0.5" y1="181.5" x2="839.5" y2="181.5" stroke="#56577A" stroke-linecap="round" stroke-linejoin="round" stroke-dasharray="3.5 3.5"/>
<line x1="0.5" y1="131.5" x2="839.5" y2="131.5" stroke="#56577A" stroke-linecap="round" stroke-linejoin="round" stroke-dasharray="3.5 3.5"/>
<line x1="0.5" y1="81.5" x2="839.5" y2="81.5001" stroke="#56577A" stroke-linecap="round" stroke-linejoin="round" stroke-dasharray="3.5 3.5"/>
<line x1="0.5" y1="31.5" x2="839.5" y2="31.5001" stroke="#56577A" stroke-linecap="round" stroke-linejoin="round" stroke-dasharray="3.5 3.5"/>
</g>
<path opacity="0.5" d="M84.602 244.098C84.602 244.91 84.322 245.587 83.762 246.128C83.2113 246.66 82.3667 246.926 81.228 246.926H79.352V251H78.078V241.242H81.228C82.3293 241.242 83.1647 241.508 83.734 242.04C84.3127 242.572 84.602 243.258 84.602 244.098ZM81.228 245.876C81.9373 245.876 82.46 245.722 82.796 245.414C83.132 245.106 83.3 244.667 83.3 244.098C83.3 242.894 82.6093 242.292 81.228 242.292H79.352V245.876H81.228ZM85.7094 247.136C85.7094 246.352 85.8681 245.666 86.1854 245.078C86.5028 244.481 86.9368 244.019 87.4874 243.692C88.0474 243.365 88.6681 243.202 89.3494 243.202C90.0214 243.202 90.6048 243.347 91.0994 243.636C91.5941 243.925 91.9628 244.289 92.2054 244.728V243.328H93.4934V251H92.2054V249.572C91.9534 250.02 91.5754 250.393 91.0714 250.692C90.5768 250.981 89.9981 251.126 89.3354 251.126C88.6541 251.126 88.0381 250.958 87.4874 250.622C86.9368 250.286 86.5028 249.815 86.1854 249.208C85.8681 248.601 85.7094 247.911 85.7094 247.136ZM92.2054 247.15C92.2054 246.571 92.0888 246.067 91.8554 245.638C91.6221 245.209 91.3048 244.882 90.9034 244.658C90.5114 244.425 90.0774 244.308 89.6014 244.308C89.1254 244.308 88.6914 244.42 88.2994 244.644C87.9074 244.868 87.5948 245.195 87.3614 245.624C87.1281 246.053 87.0114 246.557 87.0114 247.136C87.0114 247.724 87.1281 248.237 87.3614 248.676C87.5948 249.105 87.9074 249.437 88.2994 249.67C88.6914 249.894 89.1254 250.006 89.6014 250.006C90.0774 250.006 90.5114 249.894 90.9034 249.67C91.3048 249.437 91.6221 249.105 91.8554 248.676C92.0888 248.237 92.2054 247.729 92.2054 247.15ZM98.8104 243.202C99.473 243.202 100.052 243.347 100.546 243.636C101.05 243.925 101.424 244.289 101.666 244.728V243.328H102.954V251.168C102.954 251.868 102.805 252.489 102.506 253.03C102.208 253.581 101.778 254.01 101.218 254.318C100.668 254.626 100.024 254.78 99.2864 254.78C98.2784 254.78 97.4384 254.542 96.7664 254.066C96.0944 253.59 95.6977 252.941 95.5764 252.12H96.8364C96.9764 252.587 97.2657 252.96 97.7044 253.24C98.143 253.529 98.6704 253.674 99.2864 253.674C99.9864 253.674 100.556 253.455 100.994 253.016C101.442 252.577 101.666 251.961 101.666 251.168V249.558C101.414 250.006 101.041 250.379 100.546 250.678C100.052 250.977 99.473 251.126 98.8104 251.126C98.129 251.126 97.5084 250.958 96.9484 250.622C96.3977 250.286 95.9637 249.815 95.6464 249.208C95.329 248.601 95.1704 247.911 95.1704 247.136C95.1704 246.352 95.329 245.666 95.6464 245.078C95.9637 244.481 96.3977 244.019 96.9484 243.692C97.5084 243.365 98.129 243.202 98.8104 243.202ZM101.666 247.15C101.666 246.571 101.55 246.067 101.316 245.638C101.083 245.209 100.766 244.882 100.364 244.658C99.9724 244.425 99.5384 244.308 99.0624 244.308C98.5864 244.308 98.1524 244.42 97.7604 244.644C97.3684 244.868 97.0557 245.195 96.8224 245.624C96.589 246.053 96.4724 246.557 96.4724 247.136C96.4724 247.724 96.589 248.237 96.8224 248.676C97.0557 249.105 97.3684 249.437 97.7604 249.67C98.1524 249.894 98.5864 250.006 99.0624 250.006C99.5384 250.006 99.9724 249.894 100.364 249.67C100.766 249.437 101.083 249.105 101.316 248.676C101.55 248.237 101.666 247.729 101.666 247.15ZM104.631 247.136C104.631 246.352 104.79 245.666 105.107 245.078C105.425 244.481 105.859 244.019 106.409 243.692C106.969 243.365 107.59 243.202 108.271 243.202C108.943 243.202 109.527 243.347 110.021 243.636C110.516 243.925 110.885 244.289 111.127 244.728V243.328H112.415V251H111.127V249.572C110.875 250.02 110.497 250.393 109.993 250.692C109.499 250.981 108.92 251.126 108.257 251.126C107.576 251.126 106.96 250.958 106.409 250.622C105.859 250.286 105.425 249.815 105.107 249.208C104.79 248.601 104.631 247.911 104.631 247.136ZM111.127 247.15C111.127 246.571 111.011 246.067 110.777 245.638C110.544 245.209 110.227 244.882 109.825 244.658C109.433 244.425 108.999 244.308 108.523 244.308C108.047 244.308 107.613 244.42 107.221 244.644C106.829 244.868 106.517 245.195 106.283 245.624C106.05 246.053 105.933 246.557 105.933 247.136C105.933 247.724 106.05 248.237 106.283 248.676C106.517 249.105 106.829 249.437 107.221 249.67C107.613 249.894 108.047 250.006 108.523 250.006C108.999 250.006 109.433 249.894 109.825 249.67C110.227 249.437 110.544 249.105 110.777 248.676C111.011 248.237 111.127 247.729 111.127 247.15ZM123.794 243.188C124.392 243.188 124.924 243.314 125.39 243.566C125.857 243.809 126.226 244.177 126.496 244.672C126.767 245.167 126.902 245.769 126.902 246.478V251H125.642V246.66C125.642 245.895 125.451 245.311 125.068 244.91C124.695 244.499 124.186 244.294 123.542 244.294C122.88 244.294 122.352 244.509 121.96 244.938C121.568 245.358 121.372 245.969 121.372 246.772V251H120.112V246.66C120.112 245.895 119.921 245.311 119.538 244.91C119.165 244.499 118.656 244.294 118.012 244.294C117.35 244.294 116.822 244.509 116.43 244.938C116.038 245.358 115.842 245.969 115.842 246.772V251H114.568V243.328H115.842V244.434C116.094 244.033 116.43 243.725 116.85 243.51C117.28 243.295 117.751 243.188 118.264 243.188C118.908 243.188 119.478 243.333 119.972 243.622C120.467 243.911 120.836 244.336 121.078 244.896C121.293 244.355 121.648 243.935 122.142 243.636C122.637 243.337 123.188 243.188 123.794 243.188ZM135.992 246.87C135.992 247.113 135.978 247.369 135.95 247.64H129.818C129.865 248.396 130.121 248.989 130.588 249.418C131.064 249.838 131.638 250.048 132.31 250.048C132.861 250.048 133.318 249.922 133.682 249.67C134.055 249.409 134.317 249.063 134.466 248.634H135.838C135.633 249.371 135.222 249.973 134.606 250.44C133.99 250.897 133.225 251.126 132.31 251.126C131.582 251.126 130.929 250.963 130.35 250.636C129.781 250.309 129.333 249.847 129.006 249.25C128.679 248.643 128.516 247.943 128.516 247.15C128.516 246.357 128.675 245.661 128.992 245.064C129.309 244.467 129.753 244.009 130.322 243.692C130.901 243.365 131.563 243.202 132.31 243.202C133.038 243.202 133.682 243.361 134.242 243.678C134.802 243.995 135.231 244.434 135.53 244.994C135.838 245.545 135.992 246.17 135.992 246.87ZM134.676 246.604C134.676 246.119 134.569 245.703 134.354 245.358C134.139 245.003 133.845 244.737 133.472 244.56C133.108 244.373 132.702 244.28 132.254 244.28C131.61 244.28 131.059 244.485 130.602 244.896C130.154 245.307 129.897 245.876 129.832 246.604H134.676ZM141.412 243.188C142.345 243.188 143.101 243.473 143.68 244.042C144.258 244.602 144.548 245.414 144.548 246.478V251H143.288V246.66C143.288 245.895 143.096 245.311 142.714 244.91C142.331 244.499 141.808 244.294 141.146 244.294C140.474 244.294 139.937 244.504 139.536 244.924C139.144 245.344 138.948 245.955 138.948 246.758V251H137.674V243.328H138.948V244.42C139.2 244.028 139.54 243.725 139.97 243.51C140.408 243.295 140.889 243.188 141.412 243.188ZM148.183 244.378V248.9C148.183 249.273 148.262 249.539 148.421 249.698C148.579 249.847 148.855 249.922 149.247 249.922H150.185V251H149.037C148.327 251 147.795 250.837 147.441 250.51C147.086 250.183 146.909 249.647 146.909 248.9V244.378H145.915V243.328H146.909V241.396H148.183V243.328H150.185V244.378H148.183ZM155.074 251.126C154.356 251.126 153.702 250.963 153.114 250.636C152.536 250.309 152.078 249.847 151.742 249.25C151.416 248.643 151.252 247.943 151.252 247.15C151.252 246.366 151.42 245.675 151.756 245.078C152.102 244.471 152.568 244.009 153.156 243.692C153.744 243.365 154.402 243.202 155.13 243.202C155.858 243.202 156.516 243.365 157.104 243.692C157.692 244.009 158.154 244.467 158.49 245.064C158.836 245.661 159.008 246.357 159.008 247.15C159.008 247.943 158.831 248.643 158.476 249.25C158.131 249.847 157.66 250.309 157.062 250.636C156.465 250.963 155.802 251.126 155.074 251.126ZM155.074 250.006C155.532 250.006 155.961 249.899 156.362 249.684C156.764 249.469 157.086 249.147 157.328 248.718C157.58 248.289 157.706 247.766 157.706 247.15C157.706 246.534 157.585 246.011 157.342 245.582C157.1 245.153 156.782 244.835 156.39 244.63C155.998 244.415 155.574 244.308 155.116 244.308C154.65 244.308 154.22 244.415 153.828 244.63C153.446 244.835 153.138 245.153 152.904 245.582C152.671 246.011 152.554 246.534 152.554 247.15C152.554 247.775 152.666 248.303 152.89 248.732C153.124 249.161 153.432 249.483 153.814 249.698C154.197 249.903 154.617 250.006 155.074 250.006ZM163.399 251.126C162.811 251.126 162.284 251.028 161.817 250.832C161.351 250.627 160.982 250.347 160.711 249.992C160.441 249.628 160.291 249.213 160.263 248.746H161.579C161.617 249.129 161.794 249.441 162.111 249.684C162.438 249.927 162.863 250.048 163.385 250.048C163.871 250.048 164.253 249.941 164.533 249.726C164.813 249.511 164.953 249.241 164.953 248.914C164.953 248.578 164.804 248.331 164.505 248.172C164.207 248.004 163.745 247.841 163.119 247.682C162.55 247.533 162.083 247.383 161.719 247.234C161.365 247.075 161.057 246.847 160.795 246.548C160.543 246.24 160.417 245.839 160.417 245.344C160.417 244.952 160.534 244.593 160.767 244.266C161.001 243.939 161.332 243.683 161.761 243.496C162.191 243.3 162.681 243.202 163.231 243.202C164.081 243.202 164.767 243.417 165.289 243.846C165.812 244.275 166.092 244.863 166.129 245.61H164.855C164.827 245.209 164.664 244.887 164.365 244.644C164.076 244.401 163.684 244.28 163.189 244.28C162.732 244.28 162.368 244.378 162.097 244.574C161.827 244.77 161.691 245.027 161.691 245.344C161.691 245.596 161.771 245.806 161.929 245.974C162.097 246.133 162.303 246.263 162.545 246.366C162.797 246.459 163.143 246.567 163.581 246.688C164.132 246.837 164.58 246.987 164.925 247.136C165.271 247.276 165.565 247.491 165.807 247.78C166.059 248.069 166.19 248.447 166.199 248.914C166.199 249.334 166.083 249.712 165.849 250.048C165.616 250.384 165.285 250.65 164.855 250.846C164.435 251.033 163.95 251.126 163.399 251.126ZM178.73 246.87C178.73 247.113 178.716 247.369 178.688 247.64H172.556C172.603 248.396 172.86 248.989 173.326 249.418C173.802 249.838 174.376 250.048 175.048 250.048C175.599 250.048 176.056 249.922 176.42 249.67C176.794 249.409 177.055 249.063 177.204 248.634H178.576C178.371 249.371 177.96 249.973 177.344 250.44C176.728 250.897 175.963 251.126 175.048 251.126C174.32 251.126 173.667 250.963 173.088 250.636C172.519 250.309 172.071 249.847 171.744 249.25C171.418 248.643 171.254 247.943 171.254 247.15C171.254 246.357 171.413 245.661 171.73 245.064C172.048 244.467 172.491 244.009 173.06 243.692C173.639 243.365 174.302 243.202 175.048 243.202C175.776 243.202 176.42 243.361 176.98 243.678C177.54 243.995 177.97 244.434 178.268 244.994C178.576 245.545 178.73 246.17 178.73 246.87ZM177.414 246.604C177.414 246.119 177.307 245.703 177.092 245.358C176.878 245.003 176.584 244.737 176.21 244.56C175.846 244.373 175.44 244.28 174.992 244.28C174.348 244.28 173.798 244.485 173.34 244.896C172.892 245.307 172.636 245.876 172.57 246.604H177.414ZM185.698 244.378V248.9C185.698 249.273 185.778 249.539 185.936 249.698C186.095 249.847 186.37 249.922 186.762 249.922H187.7V251H186.552C185.843 251 185.311 250.837 184.956 250.51C184.602 250.183 184.424 249.647 184.424 248.9V244.378H183.43V243.328H184.424V241.396H185.698V243.328H187.7V244.378H185.698ZM188.768 247.136C188.768 246.352 188.927 245.666 189.244 245.078C189.561 244.481 189.995 244.019 190.546 243.692C191.106 243.365 191.727 243.202 192.408 243.202C193.08 243.202 193.663 243.347 194.158 243.636C194.653 243.925 195.021 244.289 195.264 244.728V243.328H196.552V251H195.264V249.572C195.012 250.02 194.634 250.393 194.13 250.692C193.635 250.981 193.057 251.126 192.394 251.126C191.713 251.126 191.097 250.958 190.546 250.622C189.995 250.286 189.561 249.815 189.244 249.208C188.927 248.601 188.768 247.911 188.768 247.136ZM195.264 247.15C195.264 246.571 195.147 246.067 194.914 245.638C194.681 245.209 194.363 244.882 193.962 244.658C193.57 244.425 193.136 244.308 192.66 244.308C192.184 244.308 191.75 244.42 191.358 244.644C190.966 244.868 190.653 245.195 190.42 245.624C190.187 246.053 190.07 246.557 190.07 247.136C190.07 247.724 190.187 248.237 190.42 248.676C190.653 249.105 190.966 249.437 191.358 249.67C191.75 249.894 192.184 250.006 192.66 250.006C193.136 250.006 193.57 249.894 193.962 249.67C194.363 249.437 194.681 249.105 194.914 248.676C195.147 248.237 195.264 247.729 195.264 247.15ZM202.709 251L200.889 248.144L199.139 251H197.809L200.287 247.192L197.809 243.328H199.251L201.071 246.17L202.807 243.328H204.137L201.673 247.122L204.151 251H202.709ZM204.928 247.136C204.928 246.352 205.087 245.666 205.404 245.078C205.722 244.481 206.156 244.019 206.706 243.692C207.266 243.365 207.887 243.202 208.568 243.202C209.24 243.202 209.824 243.347 210.318 243.636C210.813 243.925 211.182 244.289 211.424 244.728V243.328H212.712V251H211.424V249.572C211.172 250.02 210.794 250.393 210.29 250.692C209.796 250.981 209.217 251.126 208.554 251.126C207.873 251.126 207.257 250.958 206.706 250.622C206.156 250.286 205.722 249.815 205.404 249.208C205.087 248.601 204.928 247.911 204.928 247.136ZM211.424 247.15C211.424 246.571 211.308 246.067 211.074 245.638C210.841 245.209 210.524 244.882 210.122 244.658C209.73 244.425 209.296 244.308 208.82 244.308C208.344 244.308 207.91 244.42 207.518 244.644C207.126 244.868 206.814 245.195 206.58 245.624C206.347 246.053 206.23 246.557 206.23 247.136C206.23 247.724 206.347 248.237 206.58 248.676C206.814 249.105 207.126 249.437 207.518 249.67C207.91 249.894 208.344 250.006 208.82 250.006C209.296 250.006 209.73 249.894 210.122 249.67C210.524 249.437 210.841 249.105 211.074 248.676C211.308 248.237 211.424 247.729 211.424 247.15ZM217.581 251.126C216.993 251.126 216.466 251.028 215.999 250.832C215.532 250.627 215.164 250.347 214.893 249.992C214.622 249.628 214.473 249.213 214.445 248.746H215.761C215.798 249.129 215.976 249.441 216.293 249.684C216.62 249.927 217.044 250.048 217.567 250.048C218.052 250.048 218.435 249.941 218.715 249.726C218.995 249.511 219.135 249.241 219.135 248.914C219.135 248.578 218.986 248.331 218.687 248.172C218.388 248.004 217.926 247.841 217.301 247.682C216.732 247.533 216.265 247.383 215.901 247.234C215.546 247.075 215.238 246.847 214.977 246.548C214.725 246.24 214.599 245.839 214.599 245.344C214.599 244.952 214.716 244.593 214.949 244.266C215.182 243.939 215.514 243.683 215.943 243.496C216.372 243.3 216.862 243.202 217.413 243.202C218.262 243.202 218.948 243.417 219.471 243.846C219.994 244.275 220.274 244.863 220.311 245.61H219.037C219.009 245.209 218.846 244.887 218.547 244.644C218.258 244.401 217.866 244.28 217.371 244.28C216.914 244.28 216.55 244.378 216.279 244.574C216.008 244.77 215.873 245.027 215.873 245.344C215.873 245.596 215.952 245.806 216.111 245.974C216.279 246.133 216.484 246.263 216.727 246.366C216.979 246.459 217.324 246.567 217.763 246.688C218.314 246.837 218.762 246.987 219.107 247.136C219.452 247.276 219.746 247.491 219.989 247.78C220.241 248.069 220.372 248.447 220.381 248.914C220.381 249.334 220.264 249.712 220.031 250.048C219.798 250.384 219.466 250.65 219.037 250.846C218.617 251.033 218.132 251.126 217.581 251.126Z" fill="white"/>
<path opacity="0.5" d="M266.859 256.33V257.408H261.273V256.33H266.859ZM274.388 262L272.064 258.01H270.524V262H269.25V252.242H272.4C273.137 252.242 273.758 252.368 274.262 252.62C274.775 252.872 275.158 253.213 275.41 253.642C275.662 254.071 275.788 254.561 275.788 255.112C275.788 255.784 275.592 256.377 275.2 256.89C274.817 257.403 274.239 257.744 273.464 257.912L275.914 262H274.388ZM270.524 256.988H272.4C273.091 256.988 273.609 256.82 273.954 256.484C274.299 256.139 274.472 255.681 274.472 255.112C274.472 254.533 274.299 254.085 273.954 253.768C273.618 253.451 273.1 253.292 272.4 253.292H270.524V256.988ZM284.067 259.326C284.067 259.774 283.955 260.203 283.731 260.614C283.507 261.015 283.176 261.351 282.737 261.622C282.308 261.893 281.79 262.047 281.183 262.084V263.218H280.427V262.084C279.578 262.009 278.887 261.739 278.355 261.272C277.823 260.796 277.553 260.194 277.543 259.466H278.901C278.939 259.858 279.083 260.199 279.335 260.488C279.597 260.777 279.961 260.959 280.427 261.034V257.534C279.802 257.375 279.298 257.212 278.915 257.044C278.533 256.876 278.206 256.615 277.935 256.26C277.665 255.905 277.529 255.429 277.529 254.832C277.529 254.076 277.791 253.451 278.313 252.956C278.845 252.461 279.55 252.186 280.427 252.13V250.968H281.183V252.13C281.977 252.195 282.616 252.452 283.101 252.9C283.587 253.339 283.867 253.913 283.941 254.622H282.583C282.537 254.295 282.392 254.001 282.149 253.74C281.907 253.469 281.585 253.292 281.183 253.208V256.624C281.799 256.783 282.299 256.946 282.681 257.114C283.073 257.273 283.4 257.529 283.661 257.884C283.932 258.239 284.067 258.719 284.067 259.326ZM278.831 254.762C278.831 255.219 278.967 255.569 279.237 255.812C279.508 256.055 279.905 256.255 280.427 256.414V253.18C279.942 253.227 279.555 253.385 279.265 253.656C278.976 253.917 278.831 254.286 278.831 254.762ZM281.183 261.048C281.687 260.992 282.079 260.81 282.359 260.502C282.649 260.194 282.793 259.825 282.793 259.396C282.793 258.939 282.653 258.589 282.373 258.346C282.093 258.094 281.697 257.893 281.183 257.744V261.048ZM285.93 253.04V251.878H288.562V262H287.274V253.04H285.93ZM297.205 252.984H292.291V256.176C292.505 255.877 292.823 255.635 293.243 255.448C293.663 255.252 294.115 255.154 294.601 255.154C295.375 255.154 296.005 255.317 296.491 255.644C296.976 255.961 297.321 256.377 297.527 256.89C297.741 257.394 297.849 257.931 297.849 258.5C297.849 259.172 297.723 259.774 297.471 260.306C297.219 260.838 296.831 261.258 296.309 261.566C295.795 261.874 295.156 262.028 294.391 262.028C293.411 262.028 292.617 261.776 292.011 261.272C291.404 260.768 291.035 260.096 290.905 259.256H292.151C292.272 259.788 292.529 260.203 292.921 260.502C293.313 260.801 293.807 260.95 294.405 260.95C295.142 260.95 295.697 260.731 296.071 260.292C296.444 259.844 296.631 259.256 296.631 258.528C296.631 257.8 296.444 257.24 296.071 256.848C295.697 256.447 295.147 256.246 294.419 256.246C293.924 256.246 293.49 256.367 293.117 256.61C292.753 256.843 292.487 257.165 292.319 257.576H291.115V251.864H297.205V252.984ZM299.234 259.746V258.78L304.148 251.976H305.674V258.64H307.074V259.746H305.674V262H304.414V259.746H299.234ZM304.47 253.306L300.704 258.64H304.47V253.306ZM308.963 262.084C308.72 262.084 308.515 262 308.347 261.832C308.179 261.664 308.095 261.459 308.095 261.216C308.095 260.973 308.179 260.768 308.347 260.6C308.515 260.432 308.72 260.348 308.963 260.348C309.196 260.348 309.392 260.432 309.551 260.6C309.719 260.768 309.803 260.973 309.803 261.216C309.803 261.459 309.719 261.664 309.551 261.832C309.392 262 309.196 262.084 308.963 262.084ZM317.74 252.984H312.826V256.176C313.041 255.877 313.358 255.635 313.778 255.448C314.198 255.252 314.651 255.154 315.136 255.154C315.911 255.154 316.541 255.317 317.026 255.644C317.511 255.961 317.857 256.377 318.062 256.89C318.277 257.394 318.384 257.931 318.384 258.5C318.384 259.172 318.258 259.774 318.006 260.306C317.754 260.838 317.367 261.258 316.844 261.566C316.331 261.874 315.691 262.028 314.926 262.028C313.946 262.028 313.153 261.776 312.546 261.272C311.939 260.768 311.571 260.096 311.44 259.256H312.686C312.807 259.788 313.064 260.203 313.456 260.502C313.848 260.801 314.343 260.95 314.94 260.95C315.677 260.95 316.233 260.731 316.606 260.292C316.979 259.844 317.166 259.256 317.166 258.528C317.166 257.8 316.979 257.24 316.606 256.848C316.233 256.447 315.682 256.246 314.954 256.246C314.459 256.246 314.025 256.367 313.652 256.61C313.288 256.843 313.022 257.165 312.854 257.576H311.65V251.864H317.74V252.984ZM320.077 256.834C320.077 255.229 320.338 253.978 320.861 253.082C321.384 252.177 322.298 251.724 323.605 251.724C324.902 251.724 325.812 252.177 326.335 253.082C326.858 253.978 327.119 255.229 327.119 256.834C327.119 258.467 326.858 259.737 326.335 260.642C325.812 261.547 324.902 262 323.605 262C322.298 262 321.384 261.547 320.861 260.642C320.338 259.737 320.077 258.467 320.077 256.834ZM325.859 256.834C325.859 256.022 325.803 255.336 325.691 254.776C325.588 254.207 325.369 253.749 325.033 253.404C324.706 253.059 324.23 252.886 323.605 252.886C322.97 252.886 322.485 253.059 322.149 253.404C321.822 253.749 321.603 254.207 321.491 254.776C321.388 255.336 321.337 256.022 321.337 256.834C321.337 257.674 321.388 258.379 321.491 258.948C321.603 259.517 321.822 259.975 322.149 260.32C322.485 260.665 322.97 260.838 323.605 260.838C324.23 260.838 324.706 260.665 325.033 260.32C325.369 259.975 325.588 259.517 325.691 258.948C325.803 258.379 325.859 257.674 325.859 256.834Z" fill="white"/>
<path opacity="0.5" d="M85.596 263.242V273H84.322V268.576H79.352V273H78.078V263.242H79.352V267.526H84.322V263.242H85.596ZM91.1174 273.126C90.3987 273.126 89.7454 272.963 89.1574 272.636C88.5787 272.309 88.1214 271.847 87.7854 271.25C87.4587 270.643 87.2954 269.943 87.2954 269.15C87.2954 268.366 87.4634 267.675 87.7994 267.078C88.1447 266.471 88.6114 266.009 89.1994 265.692C89.7874 265.365 90.4454 265.202 91.1734 265.202C91.9014 265.202 92.5594 265.365 93.1474 265.692C93.7354 266.009 94.1974 266.467 94.5334 267.064C94.8787 267.661 95.0514 268.357 95.0514 269.15C95.0514 269.943 94.874 270.643 94.5194 271.25C94.174 271.847 93.7027 272.309 93.1054 272.636C92.508 272.963 91.8454 273.126 91.1174 273.126ZM91.1174 272.006C91.5747 272.006 92.004 271.899 92.4054 271.684C92.8067 271.469 93.1287 271.147 93.3714 270.718C93.6234 270.289 93.7494 269.766 93.7494 269.15C93.7494 268.534 93.628 268.011 93.3854 267.582C93.1427 267.153 92.8254 266.835 92.4334 266.63C92.0414 266.415 91.6167 266.308 91.1594 266.308C90.6927 266.308 90.2634 266.415 89.8714 266.63C89.4887 266.835 89.1807 267.153 88.9474 267.582C88.714 268.011 88.5974 268.534 88.5974 269.15C88.5974 269.775 88.7094 270.303 88.9334 270.732C89.1667 271.161 89.4747 271.483 89.8574 271.698C90.24 271.903 90.66 272.006 91.1174 272.006ZM97.4124 264.082C97.1698 264.082 96.9644 263.998 96.7964 263.83C96.6378 263.662 96.5584 263.457 96.5584 263.214C96.5584 262.971 96.6378 262.766 96.7964 262.598C96.9644 262.43 97.1698 262.346 97.4124 262.346C97.6551 262.346 97.8558 262.43 98.0144 262.598C98.1824 262.766 98.2664 262.971 98.2664 263.214C98.2664 263.457 98.1824 263.662 98.0144 263.83C97.8558 263.998 97.6551 264.082 97.4124 264.082ZM98.0424 274.666C98.0424 275.347 97.8698 275.847 97.5244 276.164C97.1791 276.481 96.6751 276.64 96.0124 276.64H95.2704V275.562H95.8024C96.1571 275.562 96.4044 275.492 96.5444 275.352C96.6938 275.212 96.7684 274.974 96.7684 274.638V265.328H98.0424V274.666ZM107.199 268.87C107.199 269.113 107.185 269.369 107.157 269.64H101.025C101.072 270.396 101.328 270.989 101.795 271.418C102.271 271.838 102.845 272.048 103.517 272.048C104.068 272.048 104.525 271.922 104.889 271.67C105.262 271.409 105.524 271.063 105.673 270.634H107.045C106.84 271.371 106.429 271.973 105.813 272.44C105.197 272.897 104.432 273.126 103.517 273.126C102.789 273.126 102.136 272.963 101.557 272.636C100.988 272.309 100.54 271.847 100.213 271.25C99.8864 270.643 99.7231 269.943 99.7231 269.15C99.7231 268.357 99.8818 267.661 100.199 267.064C100.516 266.467 100.96 266.009 101.529 265.692C102.108 265.365 102.77 265.202 103.517 265.202C104.245 265.202 104.889 265.361 105.449 265.678C106.009 265.995 106.438 266.434 106.737 266.994C107.045 267.545 107.199 268.17 107.199 268.87ZM105.883 268.604C105.883 268.119 105.776 267.703 105.561 267.358C105.346 267.003 105.052 266.737 104.679 266.56C104.315 266.373 103.909 266.28 103.461 266.28C102.817 266.28 102.266 266.485 101.809 266.896C101.361 267.307 101.104 267.876 101.039 268.604H105.883Z" fill="#A0AEC0"/>
<circle opacity="0.08" cx="45" cy="257" r="21" fill="white"/>
<g clip-path="url(#clip1_502_17451)">
<path d="M45 252V248H35V266H55V252H45ZM39 264H37V262H39V264ZM39 260H37V258H39V260ZM39 256H37V254H39V256ZM39 252H37V250H39V252ZM43 264H41V262H43V264ZM43 260H41V258H43V260ZM43 256H41V254H43V256ZM43 252H41V250H43V252ZM53 264H45V262H47V260H45V258H47V256H45V254H53V264ZM51 256H49V258H51V256ZM51 260H49V262H51V260Z" fill="#13BA8A"/>
</g>
<path opacity="0.5" d="M28.89 222.45H25.85L25.29 224H24.33L26.85 217.07H27.9L30.41 224H29.45L28.89 222.45ZM28.63 221.71L27.37 218.19L26.11 221.71H28.63ZM33.4483 224.09C33.0283 224.09 32.6516 224.02 32.3183 223.88C31.9849 223.733 31.7216 223.533 31.5283 223.28C31.3349 223.02 31.2283 222.723 31.2083 222.39H32.1483C32.1749 222.663 32.3016 222.887 32.5283 223.06C32.7616 223.233 33.0649 223.32 33.4383 223.32C33.7849 223.32 34.0583 223.243 34.2583 223.09C34.4583 222.937 34.5583 222.743 34.5583 222.51C34.5583 222.27 34.4516 222.093 34.2383 221.98C34.0249 221.86 33.6949 221.743 33.2483 221.63C32.8416 221.523 32.5083 221.417 32.2483 221.31C31.9949 221.197 31.7749 221.033 31.5883 220.82C31.4083 220.6 31.3183 220.313 31.3183 219.96C31.3183 219.68 31.4016 219.423 31.5683 219.19C31.7349 218.957 31.9716 218.773 32.2783 218.64C32.5849 218.5 32.9349 218.43 33.3283 218.43C33.9349 218.43 34.4249 218.583 34.7983 218.89C35.1716 219.197 35.3716 219.617 35.3983 220.15H34.4883C34.4683 219.863 34.3516 219.633 34.1383 219.46C33.9316 219.287 33.6516 219.2 33.2983 219.2C32.9716 219.2 32.7116 219.27 32.5183 219.41C32.3249 219.55 32.2283 219.733 32.2283 219.96C32.2283 220.14 32.2849 220.29 32.3983 220.41C32.5183 220.523 32.6649 220.617 32.8383 220.69C33.0183 220.757 33.2649 220.833 33.5783 220.92C33.9716 221.027 34.2916 221.133 34.5383 221.24C34.7849 221.34 34.9949 221.493 35.1683 221.7C35.3483 221.907 35.4416 222.177 35.4483 222.51C35.4483 222.81 35.3649 223.08 35.1983 223.32C35.0316 223.56 34.7949 223.75 34.4883 223.89C34.1883 224.023 33.8416 224.09 33.4483 224.09ZM41.3389 224.09C40.9189 224.09 40.5422 224.02 40.2089 223.88C39.8756 223.733 39.6122 223.533 39.4189 223.28C39.2256 223.02 39.1189 222.723 39.0989 222.39H40.0389C40.0656 222.663 40.1922 222.887 40.4189 223.06C40.6522 223.233 40.9556 223.32 41.3289 223.32C41.6756 223.32 41.9489 223.243 42.1489 223.09C42.3489 222.937 42.4489 222.743 42.4489 222.51C42.4489 222.27 42.3422 222.093 42.1289 221.98C41.9156 221.86 41.5856 221.743 41.1389 221.63C40.7322 221.523 40.3989 221.417 40.1389 221.31C39.8856 221.197 39.6656 221.033 39.4789 220.82C39.2989 220.6 39.2089 220.313 39.2089 219.96C39.2089 219.68 39.2922 219.423 39.4589 219.19C39.6256 218.957 39.8622 218.773 40.1689 218.64C40.4756 218.5 40.8256 218.43 41.2189 218.43C41.8256 218.43 42.3156 218.583 42.6889 218.89C43.0622 219.197 43.2622 219.617 43.2889 220.15H42.3789C42.3589 219.863 42.2422 219.633 42.0289 219.46C41.8222 219.287 41.5422 219.2 41.1889 219.2C40.8622 219.2 40.6022 219.27 40.4089 219.41C40.2156 219.55 40.1189 219.733 40.1189 219.96C40.1189 220.14 40.1756 220.29 40.2889 220.41C40.4089 220.523 40.5556 220.617 40.7289 220.69C40.9089 220.757 41.1556 220.833 41.4689 220.92C41.8622 221.027 42.1822 221.133 42.4289 221.24C42.6756 221.34 42.8856 221.493 43.0589 221.7C43.2389 221.907 43.3322 222.177 43.3389 222.51C43.3389 222.81 43.2556 223.08 43.0889 223.32C42.9222 223.56 42.6856 223.75 42.3789 223.89C42.0789 224.023 41.7322 224.09 41.3389 224.09ZM49.4835 218.52V224H48.5735V223.19C48.4002 223.47 48.1568 223.69 47.8435 223.85C47.5368 224.003 47.1968 224.08 46.8235 224.08C46.3968 224.08 46.0135 223.993 45.6735 223.82C45.3335 223.64 45.0635 223.373 44.8635 223.02C44.6702 222.667 44.5735 222.237 44.5735 221.73V218.52H45.4735V221.61C45.4735 222.15 45.6102 222.567 45.8835 222.86C46.1568 223.147 46.5302 223.29 47.0035 223.29C47.4902 223.29 47.8735 223.14 48.1535 222.84C48.4335 222.54 48.5735 222.103 48.5735 221.53V218.52H49.4835ZM50.68 221.24C50.68 220.68 50.7933 220.19 51.02 219.77C51.2467 219.343 51.5567 219.013 51.95 218.78C52.35 218.547 52.7933 218.43 53.28 218.43C53.76 218.43 54.1767 218.533 54.53 218.74C54.8833 218.947 55.1467 219.207 55.32 219.52V218.52H56.24V224H55.32V222.98C55.14 223.3 54.87 223.567 54.51 223.78C54.1567 223.987 53.7433 224.09 53.27 224.09C52.7833 224.09 52.3433 223.97 51.95 223.73C51.5567 223.49 51.2467 223.153 51.02 222.72C50.7933 222.287 50.68 221.793 50.68 221.24ZM55.32 221.25C55.32 220.837 55.2367 220.477 55.07 220.17C54.9033 219.863 54.6767 219.63 54.39 219.47C54.11 219.303 53.8 219.22 53.46 219.22C53.12 219.22 52.81 219.3 52.53 219.46C52.25 219.62 52.0267 219.853 51.86 220.16C51.6933 220.467 51.61 220.827 51.61 221.24C51.61 221.66 51.6933 222.027 51.86 222.34C52.0267 222.647 52.25 222.883 52.53 223.05C52.81 223.21 53.12 223.29 53.46 223.29C53.8 223.29 54.11 223.21 54.39 223.05C54.6767 222.883 54.9033 222.647 55.07 222.34C55.2367 222.027 55.32 221.663 55.32 221.25ZM59.7178 224.09C59.2978 224.09 58.9211 224.02 58.5878 223.88C58.2545 223.733 57.9911 223.533 57.7978 223.28C57.6045 223.02 57.4978 222.723 57.4778 222.39H58.4178C58.4445 222.663 58.5711 222.887 58.7978 223.06C59.0311 223.233 59.3345 223.32 59.7078 223.32C60.0545 223.32 60.3278 223.243 60.5278 223.09C60.7278 222.937 60.8278 222.743 60.8278 222.51C60.8278 222.27 60.7211 222.093 60.5078 221.98C60.2945 221.86 59.9645 221.743 59.5178 221.63C59.1111 221.523 58.7778 221.417 58.5178 221.31C58.2645 221.197 58.0445 221.033 57.8578 220.82C57.6778 220.6 57.5878 220.313 57.5878 219.96C57.5878 219.68 57.6711 219.423 57.8378 219.19C58.0045 218.957 58.2411 218.773 58.5478 218.64C58.8545 218.5 59.2045 218.43 59.5978 218.43C60.2045 218.43 60.6945 218.583 61.0678 218.89C61.4411 219.197 61.6411 219.617 61.6678 220.15H60.7578C60.7378 219.863 60.6211 219.633 60.4078 219.46C60.2011 219.287 59.9211 219.2 59.5678 219.2C59.2411 219.2 58.9811 219.27 58.7878 219.41C58.5945 219.55 58.4978 219.733 58.4978 219.96C58.4978 220.14 58.5545 220.29 58.6678 220.41C58.7878 220.523 58.9345 220.617 59.1078 220.69C59.2878 220.757 59.5345 220.833 59.8478 220.92C60.2411 221.027 60.5611 221.133 60.8078 221.24C61.0545 221.34 61.2645 221.493 61.4378 221.7C61.6178 221.907 61.7111 222.177 61.7178 222.51C61.7178 222.81 61.6345 223.08 61.4678 223.32C61.3011 223.56 61.0645 223.75 60.7578 223.89C60.4578 224.023 60.1111 224.09 59.7178 224.09ZM66.1384 217.63C65.9651 217.63 65.8184 217.57 65.6984 217.45C65.5784 217.33 65.5184 217.183 65.5184 217.01C65.5184 216.837 65.5784 216.69 65.6984 216.57C65.8184 216.45 65.9651 216.39 66.1384 216.39C66.3051 216.39 66.4451 216.45 66.5584 216.57C66.6784 216.69 66.7384 216.837 66.7384 217.01C66.7384 217.183 66.6784 217.33 66.5584 217.45C66.4451 217.57 66.3051 217.63 66.1384 217.63ZM66.5784 218.52V224H65.6684V218.52H66.5784ZM70.7994 218.42C71.466 218.42 72.006 218.623 72.4194 219.03C72.8327 219.43 73.0394 220.01 73.0394 220.77V224H72.1394V220.9C72.1394 220.353 72.0027 219.937 71.7294 219.65C71.456 219.357 71.0827 219.21 70.6094 219.21C70.1294 219.21 69.746 219.36 69.4594 219.66C69.1794 219.96 69.0394 220.397 69.0394 220.97V224H68.1294V218.52H69.0394V219.3C69.2194 219.02 69.4627 218.803 69.7694 218.65C70.0827 218.497 70.426 218.42 70.7994 218.42ZM76.7559 219.27H75.6059V224H74.6959V219.27H73.9859V218.52H74.6959V218.13C74.6959 217.517 74.8525 217.07 75.1659 216.79C75.4859 216.503 75.9959 216.36 76.6959 216.36V217.12C76.2959 217.12 76.0125 217.2 75.8459 217.36C75.6859 217.513 75.6059 217.77 75.6059 218.13V218.52H76.7559V219.27ZM80.2069 224.09C79.6935 224.09 79.2269 223.973 78.8069 223.74C78.3935 223.507 78.0669 223.177 77.8269 222.75C77.5935 222.317 77.4769 221.817 77.4769 221.25C77.4769 220.69 77.5969 220.197 77.8369 219.77C78.0835 219.337 78.4169 219.007 78.8369 218.78C79.2569 218.547 79.7269 218.43 80.2469 218.43C80.7669 218.43 81.2369 218.547 81.6569 218.78C82.0769 219.007 82.4069 219.333 82.6469 219.76C82.8935 220.187 83.0169 220.683 83.0169 221.25C83.0169 221.817 82.8902 222.317 82.6369 222.75C82.3902 223.177 82.0535 223.507 81.6269 223.74C81.2002 223.973 80.7269 224.09 80.2069 224.09ZM80.2069 223.29C80.5335 223.29 80.8402 223.213 81.1269 223.06C81.4135 222.907 81.6435 222.677 81.8169 222.37C81.9969 222.063 82.0869 221.69 82.0869 221.25C82.0869 220.81 82.0002 220.437 81.8269 220.13C81.6535 219.823 81.4269 219.597 81.1469 219.45C80.8669 219.297 80.5635 219.22 80.2369 219.22C79.9035 219.22 79.5969 219.297 79.3169 219.45C79.0435 219.597 78.8235 219.823 78.6569 220.13C78.4902 220.437 78.4069 220.81 78.4069 221.25C78.4069 221.697 78.4869 222.073 78.6469 222.38C78.8135 222.687 79.0335 222.917 79.3069 223.07C79.5802 223.217 79.8802 223.29 80.2069 223.29ZM85.1234 219.41C85.2834 219.097 85.51 218.853 85.8034 218.68C86.1034 218.507 86.4667 218.42 86.8934 218.42V219.36H86.6534C85.6334 219.36 85.1234 219.913 85.1234 221.02V224H84.2134V218.52H85.1234V219.41ZM94.5338 218.42C94.9605 218.42 95.3405 218.51 95.6738 218.69C96.0072 218.863 96.2705 219.127 96.4638 219.48C96.6572 219.833 96.7538 220.263 96.7538 220.77V224H95.8538V220.9C95.8538 220.353 95.7172 219.937 95.4438 219.65C95.1772 219.357 94.8138 219.21 94.3538 219.21C93.8805 219.21 93.5038 219.363 93.2238 219.67C92.9438 219.97 92.8038 220.407 92.8038 220.98V224H91.9038V220.9C91.9038 220.353 91.7672 219.937 91.4938 219.65C91.2272 219.357 90.8638 219.21 90.4038 219.21C89.9305 219.21 89.5538 219.363 89.2738 219.67C88.9938 219.97 88.8538 220.407 88.8538 220.98V224H87.9438V218.52H88.8538V219.31C89.0338 219.023 89.2738 218.803 89.5738 218.65C89.8805 218.497 90.2172 218.42 90.5838 218.42C91.0438 218.42 91.4505 218.523 91.8038 218.73C92.1572 218.937 92.4205 219.24 92.5938 219.64C92.7472 219.253 93.0005 218.953 93.3538 218.74C93.7072 218.527 94.1005 218.42 94.5338 218.42ZM97.9066 221.24C97.9066 220.68 98.0199 220.19 98.2466 219.77C98.4732 219.343 98.7832 219.013 99.1766 218.78C99.5766 218.547 100.02 218.43 100.507 218.43C100.987 218.43 101.403 218.533 101.757 218.74C102.11 218.947 102.373 219.207 102.547 219.52V218.52H103.467V224H102.547V222.98C102.367 223.3 102.097 223.567 101.737 223.78C101.383 223.987 100.97 224.09 100.497 224.09C100.01 224.09 99.5699 223.97 99.1766 223.73C98.7832 223.49 98.4732 223.153 98.2466 222.72C98.0199 222.287 97.9066 221.793 97.9066 221.24ZM102.547 221.25C102.547 220.837 102.463 220.477 102.297 220.17C102.13 219.863 101.903 219.63 101.617 219.47C101.337 219.303 101.027 219.22 100.687 219.22C100.347 219.22 100.037 219.3 99.7566 219.46C99.4766 219.62 99.2532 219.853 99.0866 220.16C98.9199 220.467 98.8366 220.827 98.8366 221.24C98.8366 221.66 98.9199 222.027 99.0866 222.34C99.2532 222.647 99.4766 222.883 99.7566 223.05C100.037 223.21 100.347 223.29 100.687 223.29C101.027 223.29 101.337 223.21 101.617 223.05C101.903 222.883 102.13 222.647 102.297 222.34C102.463 222.027 102.547 221.663 102.547 221.25ZM107.334 223.32C107.734 223.32 108.068 223.227 108.334 223.04C108.601 222.853 108.784 222.587 108.884 222.24H109.864C109.731 222.76 109.468 223.187 109.074 223.52C108.688 223.847 108.201 224.033 107.614 224.08V224.58C108.008 224.573 108.321 224.657 108.554 224.83C108.788 225.003 108.904 225.25 108.904 225.57C108.904 225.883 108.791 226.133 108.564 226.32C108.338 226.507 108.044 226.6 107.684 226.6H106.534V226.01H107.504C107.724 226.01 107.884 225.977 107.984 225.91C108.091 225.843 108.144 225.73 108.144 225.57C108.144 225.417 108.091 225.307 107.984 225.24C107.884 225.173 107.724 225.14 107.504 225.14H107.004V224.07C106.544 224.023 106.138 223.88 105.784 223.64C105.431 223.393 105.154 223.067 104.954 222.66C104.761 222.247 104.664 221.777 104.664 221.25C104.664 220.683 104.778 220.19 105.004 219.77C105.231 219.343 105.544 219.013 105.944 218.78C106.351 218.547 106.814 218.43 107.334 218.43C108.008 218.43 108.561 218.593 108.994 218.92C109.434 219.247 109.724 219.7 109.864 220.28H108.884C108.791 219.947 108.608 219.683 108.334 219.49C108.068 219.297 107.734 219.2 107.334 219.2C106.814 219.2 106.394 219.38 106.074 219.74C105.754 220.093 105.594 220.597 105.594 221.25C105.594 221.91 105.754 222.42 106.074 222.78C106.394 223.14 106.814 223.32 107.334 223.32ZM113.469 224.09C112.955 224.09 112.489 223.973 112.069 223.74C111.655 223.507 111.329 223.177 111.089 222.75C110.855 222.317 110.739 221.817 110.739 221.25C110.739 220.69 110.859 220.197 111.099 219.77C111.345 219.337 111.679 219.007 112.099 218.78C112.519 218.547 112.989 218.43 113.509 218.43C114.029 218.43 114.499 218.547 114.919 218.78C115.339 219.007 115.669 219.333 115.909 219.76C116.155 220.187 116.279 220.683 116.279 221.25C116.279 221.817 116.152 222.317 115.899 222.75C115.652 223.177 115.315 223.507 114.889 223.74C114.462 223.973 113.989 224.09 113.469 224.09ZM113.469 223.29C113.795 223.29 114.102 223.213 114.389 223.06C114.675 222.907 114.905 222.677 115.079 222.37C115.259 222.063 115.349 221.69 115.349 221.25C115.349 220.81 115.262 220.437 115.089 220.13C114.915 219.823 114.689 219.597 114.409 219.45C114.129 219.297 113.825 219.22 113.499 219.22C113.165 219.22 112.859 219.297 112.579 219.45C112.305 219.597 112.085 219.823 111.919 220.13C111.752 220.437 111.669 220.81 111.669 221.25C111.669 221.697 111.749 222.073 111.909 222.38C112.075 222.687 112.295 222.917 112.569 223.07C112.842 223.217 113.142 223.29 113.469 223.29ZM112.049 217.86C112.095 217.52 112.205 217.26 112.379 217.08C112.559 216.9 112.782 216.81 113.049 216.81C113.175 216.81 113.282 216.833 113.369 216.88C113.462 216.92 113.572 216.98 113.699 217.06C113.792 217.127 113.875 217.18 113.949 217.22C114.022 217.253 114.102 217.27 114.189 217.27C114.302 217.27 114.399 217.233 114.479 217.16C114.559 217.087 114.609 216.98 114.629 216.84H115.149C115.109 217.173 114.999 217.43 114.819 217.61C114.639 217.79 114.415 217.88 114.149 217.88C114.022 217.88 113.909 217.86 113.809 217.82C113.715 217.773 113.609 217.707 113.489 217.62C113.382 217.553 113.295 217.503 113.229 217.47C113.169 217.437 113.095 217.42 113.009 217.42C112.895 217.42 112.799 217.457 112.719 217.53C112.645 217.603 112.599 217.713 112.579 217.86H112.049ZM122.475 221.05C122.475 221.223 122.465 221.407 122.445 221.6H118.065C118.098 222.14 118.282 222.563 118.615 222.87C118.955 223.17 119.365 223.32 119.845 223.32C120.238 223.32 120.565 223.23 120.825 223.05C121.092 222.863 121.278 222.617 121.385 222.31H122.365C122.218 222.837 121.925 223.267 121.485 223.6C121.045 223.927 120.498 224.09 119.845 224.09C119.325 224.09 118.858 223.973 118.445 223.74C118.038 223.507 117.718 223.177 117.485 222.75C117.252 222.317 117.135 221.817 117.135 221.25C117.135 220.683 117.248 220.187 117.475 219.76C117.702 219.333 118.018 219.007 118.425 218.78C118.838 218.547 119.312 218.43 119.845 218.43C120.365 218.43 120.825 218.543 121.225 218.77C121.625 218.997 121.932 219.31 122.145 219.71C122.365 220.103 122.475 220.55 122.475 221.05ZM121.535 220.86C121.535 220.513 121.458 220.217 121.305 219.97C121.152 219.717 120.942 219.527 120.675 219.4C120.415 219.267 120.125 219.2 119.805 219.2C119.345 219.2 118.952 219.347 118.625 219.64C118.305 219.933 118.122 220.34 118.075 220.86H121.535ZM125.616 224.09C125.196 224.09 124.82 224.02 124.486 223.88C124.153 223.733 123.89 223.533 123.696 223.28C123.503 223.02 123.396 222.723 123.376 222.39H124.316C124.343 222.663 124.47 222.887 124.696 223.06C124.93 223.233 125.233 223.32 125.606 223.32C125.953 223.32 126.226 223.243 126.426 223.09C126.626 222.937 126.726 222.743 126.726 222.51C126.726 222.27 126.62 222.093 126.406 221.98C126.193 221.86 125.863 221.743 125.416 221.63C125.01 221.523 124.676 221.417 124.416 221.31C124.163 221.197 123.943 221.033 123.756 220.82C123.576 220.6 123.486 220.313 123.486 219.96C123.486 219.68 123.57 219.423 123.736 219.19C123.903 218.957 124.14 218.773 124.446 218.64C124.753 218.5 125.103 218.43 125.496 218.43C126.103 218.43 126.593 218.583 126.966 218.89C127.34 219.197 127.54 219.617 127.566 220.15H126.656C126.636 219.863 126.52 219.633 126.306 219.46C126.1 219.287 125.82 219.2 125.466 219.2C125.14 219.2 124.88 219.27 124.686 219.41C124.493 219.55 124.396 219.733 124.396 219.96C124.396 220.14 124.453 220.29 124.566 220.41C124.686 220.523 124.833 220.617 125.006 220.69C125.186 220.757 125.433 220.833 125.746 220.92C126.14 221.027 126.46 221.133 126.706 221.24C126.953 221.34 127.163 221.493 127.336 221.7C127.516 221.907 127.61 222.177 127.616 222.51C127.616 222.81 127.533 223.08 127.366 223.32C127.2 223.56 126.963 223.75 126.656 223.89C126.356 224.023 126.01 224.09 125.616 224.09ZM136.567 221.05C136.567 221.223 136.557 221.407 136.537 221.6H132.157C132.19 222.14 132.374 222.563 132.707 222.87C133.047 223.17 133.457 223.32 133.937 223.32C134.33 223.32 134.657 223.23 134.917 223.05C135.184 222.863 135.37 222.617 135.477 222.31H136.457C136.31 222.837 136.017 223.267 135.577 223.6C135.137 223.927 134.59 224.09 133.937 224.09C133.417 224.09 132.95 223.973 132.537 223.74C132.13 223.507 131.81 223.177 131.577 222.75C131.344 222.317 131.227 221.817 131.227 221.25C131.227 220.683 131.34 220.187 131.567 219.76C131.794 219.333 132.11 219.007 132.517 218.78C132.93 218.547 133.404 218.43 133.937 218.43C134.457 218.43 134.917 218.543 135.317 218.77C135.717 218.997 136.024 219.31 136.237 219.71C136.457 220.103 136.567 220.55 136.567 221.05ZM135.627 220.86C135.627 220.513 135.55 220.217 135.397 219.97C135.244 219.717 135.034 219.527 134.767 219.4C134.507 219.267 134.217 219.2 133.897 219.2C133.437 219.2 133.044 219.347 132.717 219.64C132.397 219.933 132.214 220.34 132.167 220.86H135.627ZM139.708 224.09C139.288 224.09 138.911 224.02 138.578 223.88C138.245 223.733 137.981 223.533 137.788 223.28C137.595 223.02 137.488 222.723 137.468 222.39H138.408C138.435 222.663 138.561 222.887 138.788 223.06C139.021 223.233 139.325 223.32 139.698 223.32C140.045 223.32 140.318 223.243 140.518 223.09C140.718 222.937 140.818 222.743 140.818 222.51C140.818 222.27 140.711 222.093 140.498 221.98C140.285 221.86 139.955 221.743 139.508 221.63C139.101 221.523 138.768 221.417 138.508 221.31C138.255 221.197 138.035 221.033 137.848 220.82C137.668 220.6 137.578 220.313 137.578 219.96C137.578 219.68 137.661 219.423 137.828 219.19C137.995 218.957 138.231 218.773 138.538 218.64C138.845 218.5 139.195 218.43 139.588 218.43C140.195 218.43 140.685 218.583 141.058 218.89C141.431 219.197 141.631 219.617 141.658 220.15H140.748C140.728 219.863 140.611 219.633 140.398 219.46C140.191 219.287 139.911 219.2 139.558 219.2C139.231 219.2 138.971 219.27 138.778 219.41C138.585 219.55 138.488 219.733 138.488 219.96C138.488 220.14 138.545 220.29 138.658 220.41C138.778 220.523 138.925 220.617 139.098 220.69C139.278 220.757 139.525 220.833 139.838 220.92C140.231 221.027 140.551 221.133 140.798 221.24C141.045 221.34 141.255 221.493 141.428 221.7C141.608 221.907 141.701 222.177 141.708 222.51C141.708 222.81 141.625 223.08 141.458 223.32C141.291 223.56 141.055 223.75 140.748 223.89C140.448 224.023 140.101 224.09 139.708 224.09ZM144.103 219.27V222.5C144.103 222.767 144.159 222.957 144.273 223.07C144.386 223.177 144.583 223.23 144.863 223.23H145.533V224H144.713C144.206 224 143.826 223.883 143.573 223.65C143.319 223.417 143.193 223.033 143.193 222.5V219.27H142.483V218.52H143.193V217.14H144.103V218.52H145.533V219.27H144.103ZM146.295 221.24C146.295 220.68 146.409 220.19 146.635 219.77C146.862 219.343 147.172 219.013 147.565 218.78C147.965 218.547 148.409 218.43 148.895 218.43C149.375 218.43 149.792 218.533 150.145 218.74C150.499 218.947 150.762 219.207 150.935 219.52V218.52H151.855V224H150.935V222.98C150.755 223.3 150.485 223.567 150.125 223.78C149.772 223.987 149.359 224.09 148.885 224.09C148.399 224.09 147.959 223.97 147.565 223.73C147.172 223.49 146.862 223.153 146.635 222.72C146.409 222.287 146.295 221.793 146.295 221.24ZM150.935 221.25C150.935 220.837 150.852 220.477 150.685 220.17C150.519 219.863 150.292 219.63 150.005 219.47C149.725 219.303 149.415 219.22 149.075 219.22C148.735 219.22 148.425 219.3 148.145 219.46C147.865 219.62 147.642 219.853 147.475 220.16C147.309 220.467 147.225 220.827 147.225 221.24C147.225 221.66 147.309 222.027 147.475 222.34C147.642 222.647 147.865 222.883 148.145 223.05C148.425 223.21 148.735 223.29 149.075 223.29C149.415 223.29 149.725 223.21 150.005 223.05C150.292 222.883 150.519 222.647 150.685 222.34C150.852 222.027 150.935 221.663 150.935 221.25ZM147.785 217.93C147.832 217.59 147.942 217.33 148.115 217.15C148.295 216.97 148.519 216.88 148.785 216.88C148.912 216.88 149.019 216.903 149.105 216.95C149.199 216.99 149.309 217.05 149.435 217.13C149.529 217.197 149.612 217.25 149.685 217.29C149.759 217.323 149.839 217.34 149.925 217.34C150.039 217.34 150.135 217.303 150.215 217.23C150.295 217.157 150.345 217.05 150.365 216.91H150.885C150.845 217.243 150.735 217.5 150.555 217.68C150.375 217.86 150.152 217.95 149.885 217.95C149.759 217.95 149.645 217.93 149.545 217.89C149.452 217.843 149.345 217.777 149.225 217.69C149.119 217.623 149.032 217.573 148.965 217.54C148.905 217.507 148.832 217.49 148.745 217.49C148.632 217.49 148.535 217.527 148.455 217.6C148.382 217.673 148.335 217.783 148.315 217.93H147.785ZM155.783 224.09C155.27 224.09 154.803 223.973 154.383 223.74C153.97 223.507 153.643 223.177 153.403 222.75C153.17 222.317 153.053 221.817 153.053 221.25C153.053 220.69 153.173 220.197 153.413 219.77C153.66 219.337 153.993 219.007 154.413 218.78C154.833 218.547 155.303 218.43 155.823 218.43C156.343 218.43 156.813 218.547 157.233 218.78C157.653 219.007 157.983 219.333 158.223 219.76C158.47 220.187 158.593 220.683 158.593 221.25C158.593 221.817 158.466 222.317 158.213 222.75C157.966 223.177 157.63 223.507 157.203 223.74C156.776 223.973 156.303 224.09 155.783 224.09ZM155.783 223.29C156.11 223.29 156.416 223.213 156.703 223.06C156.99 222.907 157.22 222.677 157.393 222.37C157.573 222.063 157.663 221.69 157.663 221.25C157.663 220.81 157.576 220.437 157.403 220.13C157.23 219.823 157.003 219.597 156.723 219.45C156.443 219.297 156.14 219.22 155.813 219.22C155.48 219.22 155.173 219.297 154.893 219.45C154.62 219.597 154.4 219.823 154.233 220.13C154.066 220.437 153.983 220.81 153.983 221.25C153.983 221.697 154.063 222.073 154.223 222.38C154.39 222.687 154.61 222.917 154.883 223.07C155.156 223.217 155.456 223.29 155.783 223.29ZM163.366 219.53C163.546 219.217 163.812 218.957 164.166 218.75C164.526 218.537 164.942 218.43 165.416 218.43C165.902 218.43 166.342 218.547 166.736 218.78C167.136 219.013 167.449 219.343 167.676 219.77C167.902 220.19 168.016 220.68 168.016 221.24C168.016 221.793 167.902 222.287 167.676 222.72C167.449 223.153 167.136 223.49 166.736 223.73C166.342 223.97 165.902 224.09 165.416 224.09C164.949 224.09 164.536 223.987 164.176 223.78C163.822 223.567 163.552 223.303 163.366 222.99V226.6H162.456V218.52H163.366V219.53ZM167.086 221.24C167.086 220.827 167.002 220.467 166.836 220.16C166.669 219.853 166.442 219.62 166.156 219.46C165.876 219.3 165.566 219.22 165.226 219.22C164.892 219.22 164.582 219.303 164.296 219.47C164.016 219.63 163.789 219.867 163.616 220.18C163.449 220.487 163.366 220.843 163.366 221.25C163.366 221.663 163.449 222.027 163.616 222.34C163.789 222.647 164.016 222.883 164.296 223.05C164.582 223.21 164.892 223.29 165.226 223.29C165.566 223.29 165.876 223.21 166.156 223.05C166.442 222.883 166.669 222.647 166.836 222.34C167.002 222.027 167.086 221.66 167.086 221.24ZM170.123 219.41C170.283 219.097 170.51 218.853 170.803 218.68C171.103 218.507 171.467 218.42 171.893 218.42V219.36H171.653C170.633 219.36 170.123 219.913 170.123 221.02V224H169.213V218.52H170.123V219.41ZM175.334 224.09C174.82 224.09 174.354 223.973 173.934 223.74C173.52 223.507 173.194 223.177 172.954 222.75C172.72 222.317 172.604 221.817 172.604 221.25C172.604 220.69 172.724 220.197 172.964 219.77C173.21 219.337 173.544 219.007 173.964 218.78C174.384 218.547 174.854 218.43 175.374 218.43C175.894 218.43 176.364 218.547 176.784 218.78C177.204 219.007 177.534 219.333 177.774 219.76C178.02 220.187 178.144 220.683 178.144 221.25C178.144 221.817 178.017 222.317 177.764 222.75C177.517 223.177 177.18 223.507 176.754 223.74C176.327 223.973 175.854 224.09 175.334 224.09ZM175.334 223.29C175.66 223.29 175.967 223.213 176.254 223.06C176.54 222.907 176.77 222.677 176.944 222.37C177.124 222.063 177.214 221.69 177.214 221.25C177.214 220.81 177.127 220.437 176.954 220.13C176.78 219.823 176.554 219.597 176.274 219.45C175.994 219.297 175.69 219.22 175.364 219.22C175.03 219.22 174.724 219.297 174.444 219.45C174.17 219.597 173.95 219.823 173.784 220.13C173.617 220.437 173.534 220.81 173.534 221.25C173.534 221.697 173.614 222.073 173.774 222.38C173.94 222.687 174.16 222.917 174.434 223.07C174.707 223.217 175.007 223.29 175.334 223.29ZM180.45 219.27V222.5C180.45 222.767 180.507 222.957 180.62 223.07C180.734 223.177 180.93 223.23 181.21 223.23H181.88V224H181.06C180.554 224 180.174 223.883 179.92 223.65C179.667 223.417 179.54 223.033 179.54 222.5V219.27H178.83V218.52H179.54V217.14H180.45V218.52H181.88V219.27H180.45ZM187.983 221.05C187.983 221.223 187.973 221.407 187.953 221.6H183.573C183.606 222.14 183.79 222.563 184.123 222.87C184.463 223.17 184.873 223.32 185.353 223.32C185.746 223.32 186.073 223.23 186.333 223.05C186.6 222.863 186.786 222.617 186.893 222.31H187.873C187.726 222.837 187.433 223.267 186.993 223.6C186.553 223.927 186.006 224.09 185.353 224.09C184.833 224.09 184.366 223.973 183.953 223.74C183.546 223.507 183.226 223.177 182.993 222.75C182.76 222.317 182.643 221.817 182.643 221.25C182.643 220.683 182.756 220.187 182.983 219.76C183.21 219.333 183.526 219.007 183.933 218.78C184.346 218.547 184.82 218.43 185.353 218.43C185.873 218.43 186.333 218.543 186.733 218.77C187.133 218.997 187.44 219.31 187.653 219.71C187.873 220.103 187.983 220.55 187.983 221.05ZM187.043 220.86C187.043 220.513 186.966 220.217 186.813 219.97C186.66 219.717 186.45 219.527 186.183 219.4C185.923 219.267 185.633 219.2 185.313 219.2C184.853 219.2 184.46 219.347 184.133 219.64C183.813 219.933 183.63 220.34 183.583 220.86H187.043ZM191.444 218.43C191.917 218.43 192.331 218.533 192.684 218.74C193.044 218.947 193.311 219.207 193.484 219.52V218.52H194.404V224.12C194.404 224.62 194.297 225.063 194.084 225.45C193.871 225.843 193.564 226.15 193.164 226.37C192.771 226.59 192.311 226.7 191.784 226.7C191.064 226.7 190.464 226.53 189.984 226.19C189.504 225.85 189.221 225.387 189.134 224.8H190.034C190.134 225.133 190.341 225.4 190.654 225.6C190.967 225.807 191.344 225.91 191.784 225.91C192.284 225.91 192.691 225.753 193.004 225.44C193.324 225.127 193.484 224.687 193.484 224.12V222.97C193.304 223.29 193.037 223.557 192.684 223.77C192.331 223.983 191.917 224.09 191.444 224.09C190.957 224.09 190.514 223.97 190.114 223.73C189.721 223.49 189.411 223.153 189.184 222.72C188.957 222.287 188.844 221.793 188.844 221.24C188.844 220.68 188.957 220.19 189.184 219.77C189.411 219.343 189.721 219.013 190.114 218.78C190.514 218.547 190.957 218.43 191.444 218.43ZM193.484 221.25C193.484 220.837 193.401 220.477 193.234 220.17C193.067 219.863 192.841 219.63 192.554 219.47C192.274 219.303 191.964 219.22 191.624 219.22C191.284 219.22 190.974 219.3 190.694 219.46C190.414 219.62 190.191 219.853 190.024 220.16C189.857 220.467 189.774 220.827 189.774 221.24C189.774 221.66 189.857 222.027 190.024 222.34C190.191 222.647 190.414 222.883 190.694 223.05C190.974 223.21 191.284 223.29 191.624 223.29C191.964 223.29 192.274 223.21 192.554 223.05C192.841 222.883 193.067 222.647 193.234 222.34C193.401 222.027 193.484 221.663 193.484 221.25ZM196.412 217.63C196.239 217.63 196.092 217.57 195.972 217.45C195.852 217.33 195.792 217.183 195.792 217.01C195.792 216.837 195.852 216.69 195.972 216.57C196.092 216.45 196.239 216.39 196.412 216.39C196.579 216.39 196.719 216.45 196.832 216.57C196.952 216.69 197.012 216.837 197.012 217.01C197.012 217.183 196.952 217.33 196.832 217.45C196.719 217.57 196.579 217.63 196.412 217.63ZM196.852 218.52V224H195.942V218.52H196.852ZM198.063 221.24C198.063 220.68 198.176 220.19 198.403 219.77C198.629 219.343 198.939 219.013 199.333 218.78C199.733 218.547 200.179 218.43 200.673 218.43C201.099 218.43 201.496 218.53 201.863 218.73C202.229 218.923 202.509 219.18 202.703 219.5V216.6H203.623V224H202.703V222.97C202.523 223.297 202.256 223.567 201.903 223.78C201.549 223.987 201.136 224.09 200.663 224.09C200.176 224.09 199.733 223.97 199.333 223.73C198.939 223.49 198.629 223.153 198.403 222.72C198.176 222.287 198.063 221.793 198.063 221.24ZM202.703 221.25C202.703 220.837 202.619 220.477 202.453 220.17C202.286 219.863 202.059 219.63 201.773 219.47C201.493 219.303 201.183 219.22 200.843 219.22C200.503 219.22 200.193 219.3 199.913 219.46C199.633 219.62 199.409 219.853 199.243 220.16C199.076 220.467 198.993 220.827 198.993 221.24C198.993 221.66 199.076 222.027 199.243 222.34C199.409 222.647 199.633 222.883 199.913 223.05C200.193 223.21 200.503 223.29 200.843 223.29C201.183 223.29 201.493 223.21 201.773 223.05C202.059 222.883 202.286 222.647 202.453 222.34C202.619 222.027 202.703 221.663 202.703 221.25ZM204.821 221.24C204.821 220.68 204.934 220.19 205.161 219.77C205.387 219.343 205.697 219.013 206.091 218.78C206.491 218.547 206.934 218.43 207.421 218.43C207.901 218.43 208.317 218.533 208.671 218.74C209.024 218.947 209.287 219.207 209.461 219.52V218.52H210.381V224H209.461V222.98C209.281 223.3 209.011 223.567 208.651 223.78C208.297 223.987 207.884 224.09 207.411 224.09C206.924 224.09 206.484 223.97 206.091 223.73C205.697 223.49 205.387 223.153 205.161 222.72C204.934 222.287 204.821 221.793 204.821 221.24ZM209.461 221.25C209.461 220.837 209.377 220.477 209.211 220.17C209.044 219.863 208.817 219.63 208.531 219.47C208.251 219.303 207.941 219.22 207.601 219.22C207.261 219.22 206.951 219.3 206.671 219.46C206.391 219.62 206.167 219.853 206.001 220.16C205.834 220.467 205.751 220.827 205.751 221.24C205.751 221.66 205.834 222.027 206.001 222.34C206.167 222.647 206.391 222.883 206.671 223.05C206.951 223.21 207.261 223.29 207.601 223.29C207.941 223.29 208.251 223.21 208.531 223.05C208.817 222.883 209.044 222.647 209.211 222.34C209.377 222.027 209.461 221.663 209.461 221.25ZM213.858 224.09C213.438 224.09 213.062 224.02 212.728 223.88C212.395 223.733 212.132 223.533 211.938 223.28C211.745 223.02 211.638 222.723 211.618 222.39H212.558C212.585 222.663 212.712 222.887 212.938 223.06C213.172 223.233 213.475 223.32 213.848 223.32C214.195 223.32 214.468 223.243 214.668 223.09C214.868 222.937 214.968 222.743 214.968 222.51C214.968 222.27 214.862 222.093 214.648 221.98C214.435 221.86 214.105 221.743 213.658 221.63C213.252 221.523 212.918 221.417 212.658 221.31C212.405 221.197 212.185 221.033 211.998 220.82C211.818 220.6 211.728 220.313 211.728 219.96C211.728 219.68 211.812 219.423 211.978 219.19C212.145 218.957 212.382 218.773 212.688 218.64C212.995 218.5 213.345 218.43 213.738 218.43C214.345 218.43 214.835 218.583 215.208 218.89C215.582 219.197 215.782 219.617 215.808 220.15H214.898C214.878 219.863 214.762 219.633 214.548 219.46C214.342 219.287 214.062 219.2 213.708 219.2C213.382 219.2 213.122 219.27 212.928 219.41C212.735 219.55 212.638 219.733 212.638 219.96C212.638 220.14 212.695 220.29 212.808 220.41C212.928 220.523 213.075 220.617 213.248 220.69C213.428 220.757 213.675 220.833 213.988 220.92C214.382 221.027 214.702 221.133 214.948 221.24C215.195 221.34 215.405 221.493 215.578 221.7C215.758 221.907 215.852 222.177 215.858 222.51C215.858 222.81 215.775 223.08 215.608 223.32C215.442 223.56 215.205 223.75 214.898 223.89C214.598 224.023 214.252 224.09 213.858 224.09Z" fill="#A0AEC0"/>
<g clip-path="url(#clip2_502_17451)">
<g filter="url(#filter0_b_502_17451)">
<rect x="24" y="47" width="304" height="103" rx="20" fill="url(#paint0_linear_502_17451)"/>
</g>
<mask id="mask0_502_17451" style="mask-type:alpha" maskUnits="userSpaceOnUse" x="24" y="47" width="304" height="103">
<rect x="24" y="47" width="304" height="103" rx="20" fill="#0B1325"/>
</mask>
<g mask="url(#mask0_502_17451)">
</g>
<g clip-path="url(#clip3_502_17451)">
<g filter="url(#filter1_d_502_17451)">
<path d="M79.7918 91.125V86.2083C79.7918 79.325 74.3835 73.9166 67.5002 73.9166C60.6168 73.9166 55.2085 79.325 55.2085 86.2083V91.125C51.0293 91.125 47.8335 94.3208 47.8335 98.5V115.708C47.8335 119.887 51.0293 123.083 55.2085 123.083H79.7918C83.971 123.083 87.1668 119.887 87.1668 115.708V98.5C87.1668 94.3208 83.971 91.125 79.7918 91.125ZM60.1252 86.2083C60.1252 82.0291 63.321 78.8333 67.5002 78.8333C71.6793 78.8333 74.8752 82.0291 74.8752 86.2083V91.125H60.1252V86.2083ZM70.2043 107.104L69.9585 107.35V110.792C69.9585 112.267 68.9752 113.25 67.5002 113.25C66.0252 113.25 65.0418 112.267 65.0418 110.792V107.35C63.5668 105.875 63.321 103.662 64.796 102.187C66.271 100.712 68.4835 100.467 69.9585 101.942C71.4335 103.171 71.6793 105.629 70.2043 107.104Z" fill="#2ED9FF"/>
</g>
</g>
<g filter="url(#filter2_d_502_17451)">
<path d="M249 103.2C249.702 106.8 252.5 113.5 259 113C265.5 112.5 266.279 96 277.657 96C289.036 96 289.036 115.029 308 98.5714" stroke="#1718FF" stroke-width="2" stroke-linecap="round" stroke-linejoin="round"/>
</g>
<g clip-path="url(#clip4_502_17451)">
<path d="M293 72C291.9 72 291 72.9 291 74C291 75.1 291.9 76 293 76C294.1 76 295 75.1 295 74C295 72.9 294.1 72 293 72ZM305 72C303.9 72 303 72.9 303 74C303 75.1 303.9 76 305 76C306.1 76 307 75.1 307 74C307 72.9 306.1 72 305 72ZM299 72C297.9 72 297 72.9 297 74C297 75.1 297.9 76 299 76C300.1 76 301 75.1 301 74C301 72.9 300.1 72 299 72Z" fill="white"/>
</g>
</g>
<g style="mix-blend-mode:screen" opacity="0.5" filter="url(#filter3_f_502_17451)">
<ellipse cx="298" cy="243" rx="130" ry="137" fill="#1718FF"/>
</g>
</g>
<defs>
<filter id="filter0_b_502_17451" x="-96" y="-73" width="544" height="343" filterUnits="userSpaceOnUse" color-interpolation-filters="sRGB">
<feFlood flood-opacity="0" result="BackgroundImageFix"/>
<feGaussianBlur in="BackgroundImageFix" stdDeviation="60"/>
<feComposite in2="SourceAlpha" operator="in" result="effect1_backgroundBlur_502_17451"/>
<feBlend mode="normal" in="SourceGraphic" in2="effect1_backgroundBlur_502_17451" result="shape"/>
</filter>
<filter id="filter1_d_502_17451" x="33.8335" y="59.9166" width="67.3335" height="77.1666" filterUnits="userSpaceOnUse" color-interpolation-filters="sRGB">
<feFlood flood-opacity="0" result="BackgroundImageFix"/>
<feColorMatrix in="SourceAlpha" type="matrix" values="0 0 0 0 0 0 0 0 0 0 0 0 0 0 0 0 0 0 127 0" result="hardAlpha"/>
<feOffset/>
<feGaussianBlur stdDeviation="7"/>
<feComposite in2="hardAlpha" operator="out"/>
<feColorMatrix type="matrix" values="0 0 0 0 0.0901961 0 0 0 0 0.0941176 0 0 0 0 1 0 0 0 0.5 0"/>
<feBlend mode="normal" in2="BackgroundImageFix" result="effect1_dropShadow_502_17451"/>
<feBlend mode="normal" in="SourceGraphic" in2="effect1_dropShadow_502_17451" result="shape"/>
</filter>
<filter id="filter2_d_502_17451" x="228" y="75" width="101" height="59.0266" filterUnits="userSpaceOnUse" color-interpolation-filters="sRGB">
<feFlood flood-opacity="0" result="BackgroundImageFix"/>
<feColorMatrix in="SourceAlpha" type="matrix" values="0 0 0 0 0 0 0 0 0 0 0 0 0 0 0 0 0 0 127 0" result="hardAlpha"/>
<feOffset/>
<feGaussianBlur stdDeviation="10"/>
<feComposite in2="hardAlpha" operator="out"/>
<feColorMatrix type="matrix" values="0 0 0 0 0.0901961 0 0 0 0 0.0941176 0 0 0 0 1 0 0 0 0.5 0"/>
<feBlend mode="normal" in2="BackgroundImageFix" result="effect1_dropShadow_502_17451"/>
<feBlend mode="normal" in="SourceGraphic" in2="effect1_dropShadow_502_17451" result="shape"/>
</filter>
<filter id="filter3_f_502_17451" x="-132" y="-194" width="860" height="874" filterUnits="userSpaceOnUse" color-interpolation-filters="sRGB">
<feFlood flood-opacity="0" result="BackgroundImageFix"/>
<feBlend mode="normal" in="SourceGraphic" in2="BackgroundImageFix" result="shape"/>
<feGaussianBlur stdDeviation="150" result="effect1_foregroundBlur_502_17451"/>
</filter>
<linearGradient id="paint0_linear_502_17451" x1="26.8913" y1="35.5" x2="100.289" y2="197.283" gradientUnits="userSpaceOnUse">
<stop stop-color="#18567C"/>
<stop offset="1" stop-color="#0A0E23" stop-opacity="0.49"/>
</linearGradient>
<clipPath id="clip0_502_17451">
<rect width="352" height="320" rx="20" fill="white"/>
</clipPath>
<clipPath id="clip1_502_17451">
<rect width="24" height="24" fill="white" transform="translate(33 245)"/>
</clipPath>
<clipPath id="clip2_502_17451">
<rect x="24" y="47" width="304" height="103" rx="14" fill="white"/>
</clipPath>
<clipPath id="clip3_502_17451">
<rect width="59" height="59" fill="white" transform="translate(38 69)"/>
</clipPath>
<clipPath id="clip4_502_17451">
<rect width="24" height="24" fill="white" transform="translate(287 62)"/>
</clipPath>
</defs>
</svg>