<svg xmlns:xlink="http://www.w3.org/1999/xlink" xmlns="http://www.w3.org/2000/svg" width="352" height="320" viewBox="0 0 352 320" fill="none">
<g filter="url(#filter0_b_502_17130)">
<g clip-path="url(#clip0_502_17130)">
<rect width="352" height="320" rx="20" fill="#0C152B"/>
<path opacity="0.5" d="M30.024 33.786V37.98H34.596V39.33H30.024V43.65H35.136V45H28.386V32.436H35.136V33.786H30.024ZM41.1065 45.162C40.3505 45.162 39.6725 45.036 39.0725 44.784C38.4725 44.52 37.9985 44.16 37.6505 43.704C37.3025 43.236 37.1105 42.702 37.0745 42.102H38.7665C38.8145 42.594 39.0425 42.996 39.4505 43.308C39.8705 43.62 40.4165 43.776 41.0885 43.776C41.7125 43.776 42.2045 43.638 42.5645 43.362C42.9245 43.086 43.1045 42.738 43.1045 42.318C43.1045 41.886 42.9125 41.568 42.5285 41.364C42.1445 41.148 41.5505 40.938 40.7465 40.734C40.0145 40.542 39.4145 40.35 38.9465 40.158C38.4905 39.954 38.0945 39.66 37.7585 39.276C37.4345 38.88 37.2725 38.364 37.2725 37.728C37.2725 37.224 37.4225 36.762 37.7225 36.342C38.0225 35.922 38.4485 35.592 39.0005 35.352C39.5525 35.1 40.1825 34.974 40.8905 34.974C41.9825 34.974 42.8645 35.25 43.5365 35.802C44.2085 36.354 44.5685 37.11 44.6165 38.07H42.9785C42.9425 37.554 42.7325 37.14 42.3485 36.828C41.9765 36.516 41.4725 36.36 40.8365 36.36C40.2485 36.36 39.7805 36.486 39.4325 36.738C39.0845 36.99 38.9105 37.32 38.9105 37.728C38.9105 38.052 39.0125 38.322 39.2165 38.538C39.4325 38.742 39.6965 38.91 40.0085 39.042C40.3325 39.162 40.7765 39.3 41.3405 39.456C42.0485 39.648 42.6245 39.84 43.0685 40.032C43.5125 40.212 43.8905 40.488 44.2025 40.86C44.5265 41.232 44.6945 41.718 44.7065 42.318C44.7065 42.858 44.5565 43.344 44.2565 43.776C43.9565 44.208 43.5305 44.55 42.9785 44.802C42.4385 45.042 41.8145 45.162 41.1065 45.162ZM46.4068 40.05C46.4068 39.03 46.6108 38.142 47.0188 37.386C47.4268 36.618 47.9908 36.024 48.7108 35.604C49.4428 35.184 50.2768 34.974 51.2128 34.974C52.4248 34.974 53.4208 35.268 54.2008 35.856C54.9928 36.444 55.5148 37.26 55.7668 38.304H54.0028C53.8348 37.704 53.5048 37.23 53.0128 36.882C52.5328 36.534 51.9328 36.36 51.2128 36.36C50.2768 36.36 49.5208 36.684 48.9448 37.332C48.3688 37.968 48.0808 38.874 48.0808 40.05C48.0808 41.238 48.3688 42.156 48.9448 42.804C49.5208 43.452 50.2768 43.776 51.2128 43.776C51.9328 43.776 52.5328 43.608 53.0128 43.272C53.4928 42.936 53.8228 42.456 54.0028 41.832H55.7668C55.5028 42.84 54.9748 43.65 54.1828 44.262C53.3908 44.862 52.4008 45.162 51.2128 45.162C50.2768 45.162 49.4428 44.952 48.7108 44.532C47.9908 44.112 47.4268 43.518 47.0188 42.75C46.6108 41.982 46.4068 41.082 46.4068 40.05ZM57.3404 40.032C57.3404 39.024 57.5444 38.142 57.9524 37.386C58.3604 36.618 58.9184 36.024 59.6264 35.604C60.3464 35.184 61.1444 34.974 62.0204 34.974C62.8844 34.974 63.6344 35.16 64.2704 35.532C64.9064 35.904 65.3804 36.372 65.6924 36.936V35.136H67.3484V45H65.6924V43.164C65.3684 43.74 64.8824 44.22 64.2344 44.604C63.5984 44.976 62.8544 45.162 62.0024 45.162C61.1264 45.162 60.3344 44.946 59.6264 44.514C58.9184 44.082 58.3604 43.476 57.9524 42.696C57.5444 41.916 57.3404 41.028 57.3404 40.032ZM65.6924 40.05C65.6924 39.306 65.5424 38.658 65.2424 38.106C64.9424 37.554 64.5344 37.134 64.0184 36.846C63.5144 36.546 62.9564 36.396 62.3444 36.396C61.7324 36.396 61.1744 36.54 60.6704 36.828C60.1664 37.116 59.7644 37.536 59.4644 38.088C59.1644 38.64 59.0144 39.288 59.0144 40.032C59.0144 40.788 59.1644 41.448 59.4644 42.012C59.7644 42.564 60.1664 42.99 60.6704 43.29C61.1744 43.578 61.7324 43.722 62.3444 43.722C62.9564 43.722 63.5144 43.578 64.0184 43.29C64.5344 42.99 64.9424 42.564 65.2424 42.012C65.5424 41.448 65.6924 40.794 65.6924 40.05ZM71.7545 31.68V45H70.1165V31.68H71.7545ZM73.9342 40.032C73.9342 39.024 74.1382 38.142 74.5462 37.386C74.9542 36.618 75.5122 36.024 76.2202 35.604C76.9402 35.184 77.7382 34.974 78.6142 34.974C79.4782 34.974 80.2282 35.16 80.8642 35.532C81.5002 35.904 81.9742 36.372 82.2862 36.936V35.136H83.9422V45H82.2862V43.164C81.9622 43.74 81.4762 44.22 80.8282 44.604C80.1922 44.976 79.4482 45.162 78.5962 45.162C77.7202 45.162 76.9282 44.946 76.2202 44.514C75.5122 44.082 74.9542 43.476 74.5462 42.696C74.1382 41.916 73.9342 41.028 73.9342 40.032ZM82.2862 40.05C82.2862 39.306 82.1362 38.658 81.8362 38.106C81.5362 37.554 81.1282 37.134 80.6122 36.846C80.1082 36.546 79.5502 36.396 78.9382 36.396C78.3262 36.396 77.7682 36.54 77.2642 36.828C76.7602 37.116 76.3582 37.536 76.0582 38.088C75.7582 38.64 75.6082 39.288 75.6082 40.032C75.6082 40.788 75.7582 41.448 76.0582 42.012C76.3582 42.564 76.7602 42.99 77.2642 43.29C77.7682 43.578 78.3262 43.722 78.9382 43.722C79.5502 43.722 80.1082 43.578 80.6122 43.29C81.1282 42.99 81.5362 42.564 81.8362 42.012C82.1362 41.448 82.2862 40.794 82.2862 40.05ZM88.3482 36.972C88.6842 36.384 89.1762 35.904 89.8242 35.532C90.4722 35.16 91.2102 34.974 92.0382 34.974C92.9262 34.974 93.7242 35.184 94.4322 35.604C95.1402 36.024 95.6982 36.618 96.1062 37.386C96.5142 38.142 96.7182 39.024 96.7182 40.032C96.7182 41.028 96.5142 41.916 96.1062 42.696C95.6982 43.476 95.1342 44.082 94.4142 44.514C93.7062 44.946 92.9142 45.162 92.0382 45.162C91.1862 45.162 90.4362 44.976 89.7882 44.604C89.1522 44.232 88.6722 43.758 88.3482 43.182V45H86.7102V31.68H88.3482V36.972ZM95.0442 40.032C95.0442 39.288 94.8942 38.64 94.5942 38.088C94.2942 37.536 93.8862 37.116 93.3702 36.828C92.8662 36.54 92.3082 36.396 91.6962 36.396C91.0962 36.396 90.5382 36.546 90.0222 36.846C89.5182 37.134 89.1102 37.56 88.7982 38.124C88.4982 38.676 88.3482 39.318 88.3482 40.05C88.3482 40.794 88.4982 41.448 88.7982 42.012C89.1102 42.564 89.5182 42.99 90.0222 43.29C90.5382 43.578 91.0962 43.722 91.6962 43.722C92.3082 43.722 92.8662 43.578 93.3702 43.29C93.8862 42.99 94.2942 42.564 94.5942 42.012C94.8942 41.448 95.0442 40.788 95.0442 40.032ZM99.7203 33.534C99.4083 33.534 99.1443 33.426 98.9283 33.21C98.7123 32.994 98.6043 32.73 98.6043 32.418C98.6043 32.106 98.7123 31.842 98.9283 31.626C99.1443 31.41 99.4083 31.302 99.7203 31.302C100.02 31.302 100.272 31.41 100.476 31.626C100.692 31.842 100.8 32.106 100.8 32.418C100.8 32.73 100.692 32.994 100.476 33.21C100.272 33.426 100.02 33.534 99.7203 33.534ZM100.512 35.136V45H98.8743V35.136H100.512ZM104.942 31.68V45H103.304V31.68H104.942ZM108.58 33.534C108.268 33.534 108.004 33.426 107.788 33.21C107.572 32.994 107.464 32.73 107.464 32.418C107.464 32.106 107.572 31.842 107.788 31.626C108.004 31.41 108.268 31.302 108.58 31.302C108.88 31.302 109.132 31.41 109.336 31.626C109.552 31.842 109.66 32.106 109.66 32.418C109.66 32.73 109.552 32.994 109.336 33.21C109.132 33.426 108.88 33.534 108.58 33.534ZM109.372 35.136V45H107.734V35.136H109.372ZM111.551 40.032C111.551 39.024 111.755 38.142 112.163 37.386C112.571 36.618 113.129 36.024 113.837 35.604C114.557 35.184 115.361 34.974 116.249 34.974C117.017 34.974 117.731 35.154 118.391 35.514C119.051 35.862 119.555 36.324 119.903 36.9V31.68H121.559V45H119.903V43.146C119.579 43.734 119.099 44.22 118.463 44.604C117.827 44.976 117.083 45.162 116.231 45.162C115.355 45.162 114.557 44.946 113.837 44.514C113.129 44.082 112.571 43.476 112.163 42.696C111.755 41.916 111.551 41.028 111.551 40.032ZM119.903 40.05C119.903 39.306 119.753 38.658 119.453 38.106C119.153 37.554 118.745 37.134 118.229 36.846C117.725 36.546 117.167 36.396 116.555 36.396C115.943 36.396 115.385 36.54 114.881 36.828C114.377 37.116 113.975 37.536 113.675 38.088C113.375 38.64 113.225 39.288 113.225 40.032C113.225 40.788 113.375 41.448 113.675 42.012C113.975 42.564 114.377 42.99 114.881 43.29C115.385 43.578 115.943 43.722 116.555 43.722C117.167 43.722 117.725 43.578 118.229 43.29C118.745 42.99 119.153 42.564 119.453 42.012C119.753 41.448 119.903 40.794 119.903 40.05ZM123.715 40.032C123.715 39.024 123.919 38.142 124.327 37.386C124.735 36.618 125.293 36.024 126.001 35.604C126.721 35.184 127.519 34.974 128.395 34.974C129.259 34.974 130.009 35.16 130.645 35.532C131.281 35.904 131.755 36.372 132.067 36.936V35.136H133.723V45H132.067V43.164C131.743 43.74 131.257 44.22 130.609 44.604C129.973 44.976 129.229 45.162 128.377 45.162C127.501 45.162 126.709 44.946 126.001 44.514C125.293 44.082 124.735 43.476 124.327 42.696C123.919 41.916 123.715 41.028 123.715 40.032ZM132.067 40.05C132.067 39.306 131.917 38.658 131.617 38.106C131.317 37.554 130.909 37.134 130.393 36.846C129.889 36.546 129.331 36.396 128.719 36.396C128.107 36.396 127.549 36.54 127.045 36.828C126.541 37.116 126.139 37.536 125.839 38.088C125.539 38.64 125.389 39.288 125.389 40.032C125.389 40.788 125.539 41.448 125.839 42.012C126.139 42.564 126.541 42.99 127.045 43.29C127.549 43.578 128.107 43.722 128.719 43.722C129.331 43.722 129.889 43.578 130.393 43.29C130.909 42.99 131.317 42.564 131.617 42.012C131.917 41.448 132.067 40.794 132.067 40.05ZM135.879 40.032C135.879 39.024 136.083 38.142 136.491 37.386C136.899 36.618 137.457 36.024 138.165 35.604C138.885 35.184 139.689 34.974 140.577 34.974C141.345 34.974 142.059 35.154 142.719 35.514C143.379 35.862 143.883 36.324 144.231 36.9V31.68H145.887V45H144.231V43.146C143.907 43.734 143.427 44.22 142.791 44.604C142.155 44.976 141.411 45.162 140.559 45.162C139.683 45.162 138.885 44.946 138.165 44.514C137.457 44.082 136.899 43.476 136.491 42.696C136.083 41.916 135.879 41.028 135.879 40.032ZM144.231 40.05C144.231 39.306 144.081 38.658 143.781 38.106C143.481 37.554 143.073 37.134 142.557 36.846C142.053 36.546 141.495 36.396 140.883 36.396C140.271 36.396 139.713 36.54 139.209 36.828C138.705 37.116 138.303 37.536 138.003 38.088C137.703 38.64 137.553 39.288 137.553 40.032C137.553 40.788 137.703 41.448 138.003 42.012C138.303 42.564 138.705 42.99 139.209 43.29C139.713 43.578 140.271 43.722 140.883 43.722C141.495 43.722 142.053 43.578 142.557 43.29C143.073 42.99 143.481 42.564 143.781 42.012C144.081 41.448 144.231 40.794 144.231 40.05ZM157.656 39.69C157.656 40.002 157.638 40.332 157.602 40.68H149.718C149.778 41.652 150.108 42.414 150.708 42.966C151.32 43.506 152.058 43.776 152.922 43.776C153.63 43.776 154.218 43.614 154.686 43.29C155.166 42.954 155.502 42.51 155.694 41.958H157.458C157.194 42.906 156.666 43.68 155.874 44.28C155.082 44.868 154.098 45.162 152.922 45.162C151.986 45.162 151.146 44.952 150.402 44.532C149.67 44.112 149.094 43.518 148.674 42.75C148.254 41.97 148.044 41.07 148.044 40.05C148.044 39.03 148.248 38.136 148.656 37.368C149.064 36.6 149.634 36.012 150.366 35.604C151.11 35.184 151.962 34.974 152.922 34.974C153.858 34.974 154.686 35.178 155.406 35.586C156.126 35.994 156.678 36.558 157.062 37.278C157.458 37.986 157.656 38.79 157.656 39.69ZM155.964 39.348C155.964 38.724 155.826 38.19 155.55 37.746C155.274 37.29 154.896 36.948 154.416 36.72C153.948 36.48 153.426 36.36 152.85 36.36C152.022 36.36 151.314 36.624 150.726 37.152C150.15 37.68 149.82 38.412 149.736 39.348H155.964Z" fill="white"/>
<path opacity="0.5" d="M35.47 60.07C35.1993 59.5007 34.8073 59.062 34.294 58.754C33.7807 58.4367 33.1833 58.278 32.502 58.278C31.8207 58.278 31.2047 58.4367 30.654 58.754C30.1127 59.062 29.6833 59.51 29.366 60.098C29.058 60.6767 28.904 61.3487 28.904 62.114C28.904 62.8793 29.058 63.5513 29.366 64.13C29.6833 64.7087 30.1127 65.1567 30.654 65.474C31.2047 65.782 31.8207 65.936 32.502 65.936C33.454 65.936 34.238 65.6513 34.854 65.082C35.47 64.5127 35.8293 63.7427 35.932 62.772H32.04V61.736H37.29V62.716C37.2153 63.5187 36.9633 64.256 36.534 64.928C36.1047 65.5907 35.54 66.118 34.84 66.51C34.14 66.8927 33.3607 67.084 32.502 67.084C31.5967 67.084 30.7707 66.874 30.024 66.454C29.2773 66.0247 28.6847 65.432 28.246 64.676C27.8167 63.92 27.602 63.066 27.602 62.114C27.602 61.162 27.8167 60.308 28.246 59.552C28.6847 58.7867 29.2773 58.194 30.024 57.774C30.7707 57.3447 31.5967 57.13 32.502 57.13C33.538 57.13 34.4527 57.3867 35.246 57.9C36.0487 58.4133 36.632 59.1367 36.996 60.07H35.47ZM38.4985 63.136C38.4985 62.352 38.6572 61.666 38.9745 61.078C39.2918 60.4807 39.7258 60.0187 40.2765 59.692C40.8365 59.3653 41.4572 59.202 42.1385 59.202C42.8105 59.202 43.3938 59.3467 43.8885 59.636C44.3832 59.9253 44.7518 60.2893 44.9945 60.728V59.328H46.2825V67H44.9945V65.572C44.7425 66.02 44.3645 66.3933 43.8605 66.692C43.3658 66.9813 42.7872 67.126 42.1245 67.126C41.4432 67.126 40.8272 66.958 40.2765 66.622C39.7258 66.286 39.2918 65.8147 38.9745 65.208C38.6572 64.6013 38.4985 63.9107 38.4985 63.136ZM44.9945 63.15C44.9945 62.5713 44.8778 62.0673 44.6445 61.638C44.4112 61.2087 44.0938 60.882 43.6925 60.658C43.3005 60.4247 42.8665 60.308 42.3905 60.308C41.9145 60.308 41.4805 60.42 41.0885 60.644C40.6965 60.868 40.3838 61.1947 40.1505 61.624C39.9172 62.0533 39.8005 62.5573 39.8005 63.136C39.8005 63.724 39.9172 64.2373 40.1505 64.676C40.3838 65.1053 40.6965 65.4367 41.0885 65.67C41.4805 65.894 41.9145 66.006 42.3905 66.006C42.8665 66.006 43.3005 65.894 43.6925 65.67C44.0938 65.4367 44.4112 65.1053 44.6445 64.676C44.8778 64.2373 44.9945 63.7287 44.9945 63.15ZM52.1734 59.188C53.1068 59.188 53.8628 59.4727 54.4414 60.042C55.0201 60.602 55.3094 61.414 55.3094 62.478V67H54.0494V62.66C54.0494 61.8947 53.8581 61.3113 53.4754 60.91C53.0928 60.4993 52.5701 60.294 51.9074 60.294C51.2354 60.294 50.6988 60.504 50.2974 60.924C49.9054 61.344 49.7094 61.9553 49.7094 62.758V67H48.4354V59.328H49.7094V60.42C49.9614 60.028 50.3021 59.7247 50.7314 59.51C51.1701 59.2953 51.6508 59.188 52.1734 59.188ZM61.1985 59.188C61.7772 59.188 62.2998 59.314 62.7665 59.566C63.2332 59.8087 63.5972 60.1773 63.8585 60.672C64.1292 61.1667 64.2645 61.7687 64.2645 62.478V67H63.0045V62.66C63.0045 61.8947 62.8132 61.3113 62.4305 60.91C62.0478 60.4993 61.5252 60.294 60.8625 60.294C60.1905 60.294 59.6538 60.504 59.2525 60.924C58.8605 61.344 58.6645 61.9553 58.6645 62.758V67H57.3905V56.64H58.6645V60.42C58.9165 60.028 59.2618 59.7247 59.7005 59.51C60.1485 59.2953 60.6478 59.188 61.1985 59.188ZM73.3456 62.87C73.3456 63.1127 73.3316 63.3693 73.3036 63.64H67.1716C67.2182 64.396 67.4749 64.9887 67.9416 65.418C68.4176 65.838 68.9916 66.048 69.6636 66.048C70.2142 66.048 70.6716 65.922 71.0356 65.67C71.4089 65.4087 71.6702 65.0633 71.8196 64.634H73.1916C72.9862 65.3713 72.5756 65.9733 71.9596 66.44C71.3436 66.8973 70.5782 67.126 69.6636 67.126C68.9356 67.126 68.2822 66.9627 67.7036 66.636C67.1342 66.3093 66.6862 65.8473 66.3596 65.25C66.0329 64.6433 65.8696 63.9433 65.8696 63.15C65.8696 62.3567 66.0282 61.6613 66.3456 61.064C66.6629 60.4667 67.1062 60.0093 67.6756 59.692C68.2542 59.3653 68.9169 59.202 69.6636 59.202C70.3916 59.202 71.0356 59.3607 71.5956 59.678C72.1556 59.9953 72.5849 60.434 72.8836 60.994C73.1916 61.5447 73.3456 62.17 73.3456 62.87ZM72.0296 62.604C72.0296 62.1187 71.9222 61.7033 71.7076 61.358C71.4929 61.0033 71.1989 60.7373 70.8256 60.56C70.4616 60.3733 70.0556 60.28 69.6076 60.28C68.9636 60.28 68.4129 60.4853 67.9556 60.896C67.5076 61.3067 67.2509 61.876 67.1856 62.604H72.0296ZM87.9856 59.188C88.583 59.188 89.115 59.314 89.5816 59.566C90.0483 59.8087 90.417 60.1773 90.6876 60.672C90.9583 61.1667 91.0936 61.7687 91.0936 62.478V67H89.8336V62.66C89.8336 61.8947 89.6423 61.3113 89.2596 60.91C88.8863 60.4993 88.3776 60.294 87.7336 60.294C87.071 60.294 86.5436 60.5087 86.1516 60.938C85.7596 61.358 85.5636 61.9693 85.5636 62.772V67H84.3036V62.66C84.3036 61.8947 84.1123 61.3113 83.7296 60.91C83.3563 60.4993 82.8476 60.294 82.2036 60.294C81.541 60.294 81.0136 60.5087 80.6216 60.938C80.2296 61.358 80.0336 61.9693 80.0336 62.772V67H78.7596V59.328H80.0336V60.434C80.2856 60.0327 80.6216 59.7247 81.0416 59.51C81.471 59.2953 81.9423 59.188 82.4556 59.188C83.0996 59.188 83.669 59.3327 84.1636 59.622C84.6583 59.9113 85.027 60.336 85.2696 60.896C85.4843 60.3547 85.839 59.9347 86.3336 59.636C86.8283 59.3373 87.379 59.188 87.9856 59.188ZM92.7075 63.136C92.7075 62.352 92.8661 61.666 93.1835 61.078C93.5008 60.4807 93.9348 60.0187 94.4855 59.692C95.0455 59.3653 95.6661 59.202 96.3475 59.202C97.0195 59.202 97.6028 59.3467 98.0975 59.636C98.5921 59.9253 98.9608 60.2893 99.2035 60.728V59.328H100.491V67H99.2035V65.572C98.9515 66.02 98.5735 66.3933 98.0695 66.692C97.5748 66.9813 96.9961 67.126 96.3335 67.126C95.6521 67.126 95.0361 66.958 94.4855 66.622C93.9348 66.286 93.5008 65.8147 93.1835 65.208C92.8661 64.6013 92.7075 63.9107 92.7075 63.136ZM99.2035 63.15C99.2035 62.5713 99.0868 62.0673 98.8535 61.638C98.6201 61.2087 98.3028 60.882 97.9015 60.658C97.5095 60.4247 97.0755 60.308 96.5995 60.308C96.1235 60.308 95.6895 60.42 95.2975 60.644C94.9055 60.868 94.5928 61.1947 94.3595 61.624C94.1261 62.0533 94.0095 62.5573 94.0095 63.136C94.0095 63.724 94.1261 64.2373 94.3595 64.676C94.5928 65.1053 94.9055 65.4367 95.2975 65.67C95.6895 65.894 96.1235 66.006 96.5995 66.006C97.0755 66.006 97.5095 65.894 97.9015 65.67C98.3028 65.4367 98.6201 65.1053 98.8535 64.676C99.0868 64.2373 99.2035 63.7287 99.2035 63.15ZM103.302 58.082C103.06 58.082 102.854 57.998 102.686 57.83C102.518 57.662 102.434 57.4567 102.434 57.214C102.434 56.9713 102.518 56.766 102.686 56.598C102.854 56.43 103.06 56.346 103.302 56.346C103.536 56.346 103.732 56.43 103.89 56.598C104.058 56.766 104.142 56.9713 104.142 57.214C104.142 57.4567 104.058 57.662 103.89 57.83C103.732 57.998 103.536 58.082 103.302 58.082ZM103.918 59.328V67H102.644V59.328H103.918ZM108.806 67.126C108.218 67.126 107.69 67.028 107.224 66.832C106.757 66.6267 106.388 66.3467 106.118 65.992C105.847 65.628 105.698 65.2127 105.67 64.746H106.986C107.023 65.1287 107.2 65.4413 107.518 65.684C107.844 65.9267 108.269 66.048 108.792 66.048C109.277 66.048 109.66 65.9407 109.94 65.726C110.22 65.5113 110.36 65.2407 110.36 64.914C110.36 64.578 110.21 64.3307 109.912 64.172C109.613 64.004 109.151 63.8407 108.526 63.682C107.956 63.5327 107.49 63.3833 107.126 63.234C106.771 63.0753 106.463 62.8467 106.202 62.548C105.95 62.24 105.824 61.8387 105.824 61.344C105.824 60.952 105.94 60.5927 106.174 60.266C106.407 59.9393 106.738 59.6827 107.168 59.496C107.597 59.3 108.087 59.202 108.638 59.202C109.487 59.202 110.173 59.4167 110.696 59.846C111.218 60.2753 111.498 60.8633 111.536 61.61H110.262C110.234 61.2087 110.07 60.8867 109.772 60.644C109.482 60.4013 109.09 60.28 108.596 60.28C108.138 60.28 107.774 60.378 107.504 60.574C107.233 60.77 107.098 61.0267 107.098 61.344C107.098 61.596 107.177 61.806 107.336 61.974C107.504 62.1327 107.709 62.2633 107.952 62.366C108.204 62.4593 108.549 62.5667 108.988 62.688C109.538 62.8373 109.986 62.9867 110.332 63.136C110.677 63.276 110.971 63.4907 111.214 63.78C111.466 64.0693 111.596 64.4473 111.606 64.914C111.606 65.334 111.489 65.712 111.256 66.048C111.022 66.384 110.691 66.65 110.262 66.846C109.842 67.0327 109.356 67.126 108.806 67.126Z" fill="#A0AEC0"/>
<mask id="path-4-inside-1_502_17130" fill="white">
<path d="M262.35 239.653C265.359 241.39 269.225 240.367 270.781 237.26C278.146 222.553 282 206.305 282 189.799C282 173.293 278.146 157.045 270.781 142.337C269.225 139.231 265.359 138.207 262.35 139.944V139.944C259.341 141.682 258.331 145.521 259.862 148.64C266.136 161.425 269.417 175.502 269.417 189.799C269.417 204.095 266.136 218.173 259.862 230.957C258.331 234.076 259.341 237.916 262.35 239.653V239.653Z"/>
</mask>
<path d="M262.35 239.653C265.359 241.39 269.225 240.367 270.781 237.26C278.146 222.553 282 206.305 282 189.799C282 173.293 278.146 157.045 270.781 142.337C269.225 139.231 265.359 138.207 262.35 139.944V139.944C259.341 141.682 258.331 145.521 259.862 148.64C266.136 161.425 269.417 175.502 269.417 189.799C269.417 204.095 266.136 218.173 259.862 230.957C258.331 234.076 259.341 237.916 262.35 239.653V239.653Z" fill="#1E2636" stroke="url(#paint0_linear_502_17130)" stroke-width="2" mask="url(#path-4-inside-1_502_17130)"/>
<g filter="url(#filter1_d_502_17130)">
<path d="M268.24 151.938C271.455 150.619 273.008 146.934 271.5 143.803C264.869 130.035 255.328 117.84 243.508 108.076C230.069 96.9744 214.099 89.3583 197.013 85.9025C179.927 82.4468 162.253 83.2581 145.555 88.2646C128.858 93.2711 113.653 102.318 101.287 114.605C88.9215 126.891 79.7768 142.038 74.663 158.703C69.5492 175.367 68.6242 193.036 71.97 210.144C75.3157 227.252 82.829 243.27 93.8442 256.781C103.532 268.663 115.666 278.283 129.391 285.002C132.511 286.53 136.206 285 137.546 281.794V281.794C138.886 278.589 137.362 274.923 134.254 273.37C122.433 267.465 111.976 259.108 103.596 248.83C93.8886 236.923 87.2672 222.806 84.3185 207.729C81.3699 192.652 82.1851 177.08 86.6919 162.394C91.1987 147.707 99.2579 134.359 110.156 123.531C121.054 112.703 134.454 104.729 149.169 100.317C163.884 95.9048 179.461 95.1898 194.519 98.2353C209.576 101.281 223.65 107.993 235.494 117.777C245.719 126.223 254.008 136.733 259.837 148.592C261.37 151.71 265.026 153.258 268.24 151.938V151.938Z" fill="url(#paint1_linear_502_17130)" shape-rendering="crispEdges"/>
</g>
<g filter="url(#filter2_b_502_17130)">
<rect x="30" y="213.799" width="293" height="82" rx="20" fill="#0B1325"/>
<path opacity="0.5" d="M153.012 249.367C153.199 250.431 153.628 251.252 154.3 251.831C154.991 252.409 155.915 252.699 157.072 252.699C158.621 252.699 159.76 252.092 160.488 250.879C161.235 249.665 161.589 247.621 161.552 244.747C161.16 245.587 160.507 246.249 159.592 246.735C158.677 247.201 157.66 247.435 156.54 247.435C155.289 247.435 154.169 247.183 153.18 246.679C152.209 246.156 151.444 245.4 150.884 244.411C150.324 243.421 150.044 242.227 150.044 240.827C150.044 238.829 150.623 237.224 151.78 236.011C152.937 234.779 154.58 234.163 156.708 234.163C159.321 234.163 161.151 235.012 162.196 236.711C163.26 238.409 163.792 240.939 163.792 244.299C163.792 246.651 163.577 248.592 163.148 250.123C162.737 251.653 162.028 252.82 161.02 253.623C160.031 254.425 158.668 254.827 156.932 254.827C155.028 254.827 153.544 254.313 152.48 253.287C151.416 252.26 150.809 250.953 150.66 249.367H153.012ZM156.96 245.279C158.211 245.279 159.237 244.896 160.04 244.131C160.843 243.347 161.244 242.292 161.244 240.967C161.244 239.567 160.852 238.437 160.068 237.579C159.284 236.72 158.183 236.291 156.764 236.291C155.457 236.291 154.412 236.701 153.628 237.523C152.863 238.344 152.48 239.427 152.48 240.771C152.48 242.133 152.863 243.225 153.628 244.047C154.393 244.868 155.504 245.279 156.96 245.279ZM180.281 236.767H170.453V243.151C170.882 242.553 171.517 242.068 172.357 241.695C173.197 241.303 174.102 241.107 175.073 241.107C176.622 241.107 177.882 241.433 178.853 242.087C179.823 242.721 180.514 243.552 180.925 244.579C181.354 245.587 181.569 246.66 181.569 247.799C181.569 249.143 181.317 250.347 180.813 251.411C180.309 252.475 179.534 253.315 178.489 253.931C177.462 254.547 176.183 254.855 174.653 254.855C172.693 254.855 171.106 254.351 169.893 253.343C168.679 252.335 167.942 250.991 167.681 249.311H170.173C170.415 250.375 170.929 251.205 171.713 251.803C172.497 252.4 173.486 252.699 174.681 252.699C176.155 252.699 177.266 252.26 178.013 251.383C178.759 250.487 179.133 249.311 179.133 247.855C179.133 246.399 178.759 245.279 178.013 244.495C177.266 243.692 176.165 243.291 174.709 243.291C173.719 243.291 172.851 243.533 172.105 244.019C171.377 244.485 170.845 245.129 170.509 245.951H168.101V234.527H180.281V236.767ZM184.395 239.119C184.395 237.849 184.777 236.841 185.543 236.095C186.308 235.329 187.288 234.947 188.483 234.947C189.677 234.947 190.657 235.329 191.423 236.095C192.188 236.841 192.571 237.849 192.571 239.119C192.571 240.407 192.188 241.433 191.423 242.199C190.657 242.945 189.677 243.319 188.483 243.319C187.288 243.319 186.308 242.945 185.543 242.199C184.777 241.433 184.395 240.407 184.395 239.119ZM200.747 235.255L189.407 254.799H186.887L198.227 235.255H200.747ZM188.483 236.515C187.848 236.515 187.344 236.739 186.971 237.187C186.616 237.616 186.439 238.26 186.439 239.119C186.439 239.977 186.616 240.631 186.971 241.079C187.344 241.527 187.848 241.751 188.483 241.751C189.117 241.751 189.621 241.527 189.995 241.079C190.368 240.612 190.555 239.959 190.555 239.119C190.555 238.26 190.368 237.616 189.995 237.187C189.621 236.739 189.117 236.515 188.483 236.515ZM195.119 250.935C195.119 249.647 195.501 248.629 196.267 247.883C197.032 247.117 198.012 246.735 199.207 246.735C200.401 246.735 201.372 247.117 202.119 247.883C202.884 248.629 203.267 249.647 203.267 250.935C203.267 252.204 202.884 253.221 202.119 253.987C201.372 254.752 200.401 255.135 199.207 255.135C198.012 255.135 197.032 254.761 196.267 254.015C195.501 253.249 195.119 252.223 195.119 250.935ZM199.179 248.331C198.544 248.331 198.04 248.555 197.667 249.003C197.293 249.432 197.107 250.076 197.107 250.935C197.107 251.775 197.293 252.419 197.667 252.867C198.04 253.296 198.544 253.511 199.179 253.511C199.813 253.511 200.317 253.296 200.691 252.867C201.064 252.419 201.251 251.775 201.251 250.935C201.251 250.076 201.064 249.432 200.691 249.003C200.317 248.555 199.813 248.331 199.179 248.331Z" fill="white"/>
<path opacity="0.5" d="M116.112 269.491C116.416 269.539 116.692 269.663 116.94 269.863C117.196 270.063 117.396 270.311 117.54 270.607C117.692 270.903 117.768 271.219 117.768 271.555C117.768 271.979 117.66 272.363 117.444 272.707C117.228 273.043 116.912 273.311 116.496 273.511C116.088 273.703 115.604 273.799 115.044 273.799H111.924V265.435H114.924C115.492 265.435 115.976 265.531 116.376 265.723C116.776 265.907 117.076 266.159 117.276 266.479C117.476 266.799 117.576 267.159 117.576 267.559C117.576 268.055 117.44 268.467 117.168 268.795C116.904 269.115 116.552 269.347 116.112 269.491ZM113.016 269.047H114.852C115.364 269.047 115.76 268.927 116.04 268.687C116.32 268.447 116.46 268.115 116.46 267.691C116.46 267.267 116.32 266.935 116.04 266.695C115.76 266.455 115.356 266.335 114.828 266.335H113.016V269.047ZM114.948 272.899C115.492 272.899 115.916 272.771 116.22 272.515C116.524 272.259 116.676 271.903 116.676 271.447C116.676 270.983 116.516 270.619 116.196 270.355C115.876 270.083 115.448 269.947 114.912 269.947H113.016V272.899H114.948ZM118.875 270.487C118.875 269.815 119.011 269.227 119.283 268.723C119.555 268.211 119.927 267.815 120.399 267.535C120.879 267.255 121.411 267.115 121.995 267.115C122.571 267.115 123.071 267.239 123.495 267.487C123.919 267.735 124.235 268.047 124.443 268.423V267.223H125.547V273.799H124.443V272.575C124.227 272.959 123.903 273.279 123.471 273.535C123.047 273.783 122.551 273.907 121.983 273.907C121.399 273.907 120.871 273.763 120.399 273.475C119.927 273.187 119.555 272.783 119.283 272.263C119.011 271.743 118.875 271.151 118.875 270.487ZM124.443 270.499C124.443 270.003 124.343 269.571 124.143 269.203C123.943 268.835 123.671 268.555 123.327 268.363C122.991 268.163 122.619 268.063 122.211 268.063C121.803 268.063 121.431 268.159 121.095 268.351C120.759 268.543 120.491 268.823 120.291 269.191C120.091 269.559 119.991 269.991 119.991 270.487C119.991 270.991 120.091 271.431 120.291 271.807C120.491 272.175 120.759 272.459 121.095 272.659C121.431 272.851 121.803 272.947 122.211 272.947C122.619 272.947 122.991 272.851 123.327 272.659C123.671 272.459 123.943 272.175 124.143 271.807C124.343 271.431 124.443 270.995 124.443 270.499ZM129.721 273.907C129.217 273.907 128.765 273.823 128.365 273.655C127.965 273.479 127.649 273.239 127.417 272.935C127.185 272.623 127.057 272.267 127.033 271.867H128.161C128.193 272.195 128.345 272.463 128.617 272.671C128.897 272.879 129.261 272.983 129.709 272.983C130.125 272.983 130.453 272.891 130.693 272.707C130.933 272.523 131.053 272.291 131.053 272.011C131.053 271.723 130.925 271.511 130.669 271.375C130.413 271.231 130.017 271.091 129.481 270.955C128.993 270.827 128.593 270.699 128.281 270.571C127.977 270.435 127.713 270.239 127.489 269.983C127.273 269.719 127.165 269.375 127.165 268.951C127.165 268.615 127.265 268.307 127.465 268.027C127.665 267.747 127.949 267.527 128.317 267.367C128.685 267.199 129.105 267.115 129.577 267.115C130.305 267.115 130.893 267.299 131.341 267.667C131.789 268.035 132.029 268.539 132.061 269.179H130.969C130.945 268.835 130.805 268.559 130.549 268.351C130.301 268.143 129.965 268.039 129.541 268.039C129.149 268.039 128.837 268.123 128.605 268.291C128.373 268.459 128.257 268.679 128.257 268.951C128.257 269.167 128.325 269.347 128.461 269.491C128.605 269.627 128.781 269.739 128.989 269.827C129.205 269.907 129.501 269.999 129.877 270.103C130.349 270.231 130.733 270.359 131.029 270.487C131.325 270.607 131.577 270.791 131.785 271.039C132.001 271.287 132.113 271.611 132.121 272.011C132.121 272.371 132.021 272.695 131.821 272.983C131.621 273.271 131.337 273.499 130.969 273.667C130.609 273.827 130.193 273.907 129.721 273.907ZM139.662 270.259C139.662 270.467 139.65 270.687 139.626 270.919H134.37C134.41 271.567 134.63 272.075 135.03 272.443C135.438 272.803 135.93 272.983 136.506 272.983C136.978 272.983 137.37 272.875 137.682 272.659C138.002 272.435 138.226 272.139 138.354 271.771H139.53C139.354 272.403 139.002 272.919 138.474 273.319C137.946 273.711 137.29 273.907 136.506 273.907C135.882 273.907 135.322 273.767 134.826 273.487C134.338 273.207 133.954 272.811 133.674 272.299C133.394 271.779 133.254 271.179 133.254 270.499C133.254 269.819 133.39 269.223 133.662 268.711C133.934 268.199 134.314 267.807 134.802 267.535C135.298 267.255 135.866 267.115 136.506 267.115C137.13 267.115 137.682 267.251 138.162 267.523C138.642 267.795 139.01 268.171 139.266 268.651C139.53 269.123 139.662 269.659 139.662 270.259ZM138.534 270.031C138.534 269.615 138.442 269.259 138.258 268.963C138.074 268.659 137.822 268.431 137.502 268.279C137.19 268.119 136.842 268.039 136.458 268.039C135.906 268.039 135.434 268.215 135.042 268.567C134.658 268.919 134.438 269.407 134.382 270.031H138.534ZM140.696 270.487C140.696 269.815 140.832 269.227 141.104 268.723C141.376 268.211 141.748 267.815 142.22 267.535C142.7 267.255 143.232 267.115 143.816 267.115C144.392 267.115 144.892 267.239 145.316 267.487C145.74 267.735 146.056 268.047 146.264 268.423V267.223H147.368V273.799H146.264V272.575C146.048 272.959 145.724 273.279 145.292 273.535C144.868 273.783 144.372 273.907 143.804 273.907C143.22 273.907 142.692 273.763 142.22 273.475C141.748 273.187 141.376 272.783 141.104 272.263C140.832 271.743 140.696 271.151 140.696 270.487ZM146.264 270.499C146.264 270.003 146.164 269.571 145.964 269.203C145.764 268.835 145.492 268.555 145.148 268.363C144.812 268.163 144.44 268.063 144.032 268.063C143.624 268.063 143.252 268.159 142.916 268.351C142.58 268.543 142.312 268.823 142.112 269.191C141.912 269.559 141.812 269.991 141.812 270.487C141.812 270.991 141.912 271.431 142.112 271.807C142.312 272.175 142.58 272.459 142.916 272.659C143.252 272.851 143.624 272.947 144.032 272.947C144.44 272.947 144.812 272.851 145.148 272.659C145.492 272.459 145.764 272.175 145.964 271.807C146.164 271.431 146.264 270.995 146.264 270.499ZM148.805 270.487C148.805 269.815 148.941 269.227 149.213 268.723C149.485 268.211 149.857 267.815 150.329 267.535C150.809 267.255 151.345 267.115 151.937 267.115C152.449 267.115 152.925 267.235 153.365 267.475C153.805 267.707 154.141 268.015 154.373 268.399V264.919H155.477V273.799H154.373V272.563C154.157 272.955 153.837 273.279 153.413 273.535C152.989 273.783 152.493 273.907 151.925 273.907C151.341 273.907 150.809 273.763 150.329 273.475C149.857 273.187 149.485 272.783 149.213 272.263C148.941 271.743 148.805 271.151 148.805 270.487ZM154.373 270.499C154.373 270.003 154.273 269.571 154.073 269.203C153.873 268.835 153.601 268.555 153.257 268.363C152.921 268.163 152.549 268.063 152.141 268.063C151.733 268.063 151.361 268.159 151.025 268.351C150.689 268.543 150.421 268.823 150.221 269.191C150.021 269.559 149.921 269.991 149.921 270.487C149.921 270.991 150.021 271.431 150.221 271.807C150.421 272.175 150.689 272.459 151.025 272.659C151.361 272.851 151.733 272.947 152.141 272.947C152.549 272.947 152.921 272.851 153.257 272.659C153.601 272.459 153.873 272.175 154.073 271.807C154.273 271.431 154.373 270.995 154.373 270.499ZM160.19 273.907C159.574 273.907 159.014 273.767 158.51 273.487C158.014 273.207 157.622 272.811 157.334 272.299C157.054 271.779 156.914 271.179 156.914 270.499C156.914 269.827 157.058 269.235 157.346 268.723C157.642 268.203 158.042 267.807 158.546 267.535C159.05 267.255 159.614 267.115 160.238 267.115C160.862 267.115 161.426 267.255 161.93 267.535C162.434 267.807 162.83 268.199 163.118 268.711C163.414 269.223 163.562 269.819 163.562 270.499C163.562 271.179 163.41 271.779 163.106 272.299C162.81 272.811 162.406 273.207 161.894 273.487C161.382 273.767 160.814 273.907 160.19 273.907ZM160.19 272.947C160.582 272.947 160.95 272.855 161.294 272.671C161.638 272.487 161.914 272.211 162.122 271.843C162.338 271.475 162.446 271.027 162.446 270.499C162.446 269.971 162.342 269.523 162.134 269.155C161.926 268.787 161.654 268.515 161.318 268.339C160.982 268.155 160.618 268.063 160.226 268.063C159.826 268.063 159.458 268.155 159.122 268.339C158.794 268.515 158.53 268.787 158.33 269.155C158.13 269.523 158.03 269.971 158.03 270.499C158.03 271.035 158.126 271.487 158.318 271.855C158.518 272.223 158.782 272.499 159.11 272.683C159.438 272.859 159.798 272.947 160.19 272.947ZM174.197 270.259C174.197 270.467 174.185 270.687 174.161 270.919H168.905C168.945 271.567 169.165 272.075 169.565 272.443C169.973 272.803 170.465 272.983 171.041 272.983C171.513 272.983 171.905 272.875 172.217 272.659C172.537 272.435 172.761 272.139 172.889 271.771H174.065C173.889 272.403 173.537 272.919 173.009 273.319C172.481 273.711 171.825 273.907 171.041 273.907C170.417 273.907 169.857 273.767 169.361 273.487C168.873 273.207 168.489 272.811 168.209 272.299C167.929 271.779 167.789 271.179 167.789 270.499C167.789 269.819 167.925 269.223 168.197 268.711C168.469 268.199 168.849 267.807 169.337 267.535C169.833 267.255 170.401 267.115 171.041 267.115C171.665 267.115 172.217 267.251 172.697 267.523C173.177 267.795 173.545 268.171 173.801 268.651C174.065 269.123 174.197 269.659 174.197 270.259ZM173.069 270.031C173.069 269.615 172.977 269.259 172.793 268.963C172.609 268.659 172.357 268.431 172.037 268.279C171.725 268.119 171.377 268.039 170.993 268.039C170.441 268.039 169.969 268.215 169.577 268.567C169.193 268.919 168.973 269.407 168.917 270.031H173.069ZM183.547 267.103C184.059 267.103 184.515 267.211 184.915 267.427C185.315 267.635 185.631 267.951 185.863 268.375C186.095 268.799 186.211 269.315 186.211 269.923V273.799H185.131V270.079C185.131 269.423 184.967 268.923 184.639 268.579C184.319 268.227 183.883 268.051 183.331 268.051C182.763 268.051 182.311 268.235 181.975 268.603C181.639 268.963 181.471 269.487 181.471 270.175V273.799H180.391V270.079C180.391 269.423 180.227 268.923 179.899 268.579C179.579 268.227 179.143 268.051 178.591 268.051C178.023 268.051 177.571 268.235 177.235 268.603C176.899 268.963 176.731 269.487 176.731 270.175V273.799H175.639V267.223H176.731V268.171C176.947 267.827 177.235 267.563 177.595 267.379C177.963 267.195 178.367 267.103 178.807 267.103C179.359 267.103 179.847 267.227 180.271 267.475C180.695 267.723 181.011 268.087 181.219 268.567C181.403 268.103 181.707 267.743 182.131 267.487C182.555 267.231 183.027 267.103 183.547 267.103ZM197.033 267.223V273.799H195.941V272.827C195.733 273.163 195.441 273.427 195.065 273.619C194.697 273.803 194.289 273.895 193.841 273.895C193.329 273.895 192.869 273.791 192.461 273.583C192.053 273.367 191.729 273.047 191.489 272.623C191.257 272.199 191.141 271.683 191.141 271.075V267.223H192.221V270.931C192.221 271.579 192.385 272.079 192.713 272.431C193.041 272.775 193.489 272.947 194.057 272.947C194.641 272.947 195.101 272.767 195.437 272.407C195.773 272.047 195.941 271.523 195.941 270.835V267.223H197.033ZM201.205 273.907C200.701 273.907 200.249 273.823 199.849 273.655C199.449 273.479 199.133 273.239 198.901 272.935C198.669 272.623 198.541 272.267 198.517 271.867H199.645C199.677 272.195 199.829 272.463 200.101 272.671C200.381 272.879 200.745 272.983 201.193 272.983C201.609 272.983 201.937 272.891 202.177 272.707C202.417 272.523 202.537 272.291 202.537 272.011C202.537 271.723 202.409 271.511 202.153 271.375C201.897 271.231 201.501 271.091 200.965 270.955C200.477 270.827 200.077 270.699 199.765 270.571C199.461 270.435 199.197 270.239 198.973 269.983C198.757 269.719 198.649 269.375 198.649 268.951C198.649 268.615 198.749 268.307 198.949 268.027C199.149 267.747 199.433 267.527 199.801 267.367C200.169 267.199 200.589 267.115 201.061 267.115C201.789 267.115 202.377 267.299 202.825 267.667C203.273 268.035 203.513 268.539 203.545 269.179H202.453C202.429 268.835 202.289 268.559 202.033 268.351C201.785 268.143 201.449 268.039 201.025 268.039C200.633 268.039 200.321 268.123 200.089 268.291C199.857 268.459 199.741 268.679 199.741 268.951C199.741 269.167 199.809 269.347 199.945 269.491C200.089 269.627 200.265 269.739 200.473 269.827C200.689 269.907 200.985 269.999 201.361 270.103C201.833 270.231 202.217 270.359 202.513 270.487C202.809 270.607 203.061 270.791 203.269 271.039C203.485 271.287 203.597 271.611 203.605 272.011C203.605 272.371 203.505 272.695 203.305 272.983C203.105 273.271 202.821 273.499 202.453 273.667C202.093 273.827 201.677 273.907 201.205 273.907ZM210.979 267.223V273.799H209.887V272.827C209.679 273.163 209.387 273.427 209.011 273.619C208.643 273.803 208.235 273.895 207.787 273.895C207.275 273.895 206.815 273.791 206.407 273.583C205.999 273.367 205.675 273.047 205.435 272.623C205.203 272.199 205.087 271.683 205.087 271.075V267.223H206.167V270.931C206.167 271.579 206.331 272.079 206.659 272.431C206.987 272.775 207.435 272.947 208.003 272.947C208.587 272.947 209.047 272.767 209.383 272.407C209.719 272.047 209.887 271.523 209.887 270.835V267.223H210.979ZM212.414 270.487C212.414 269.815 212.55 269.227 212.822 268.723C213.094 268.211 213.466 267.815 213.938 267.535C214.418 267.255 214.95 267.115 215.534 267.115C216.11 267.115 216.61 267.239 217.034 267.487C217.458 267.735 217.774 268.047 217.982 268.423V267.223H219.086V273.799H217.982V272.575C217.766 272.959 217.442 273.279 217.01 273.535C216.586 273.783 216.09 273.907 215.522 273.907C214.938 273.907 214.41 273.763 213.938 273.475C213.466 273.187 213.094 272.783 212.822 272.263C212.55 271.743 212.414 271.151 212.414 270.487ZM217.982 270.499C217.982 270.003 217.882 269.571 217.682 269.203C217.482 268.835 217.21 268.555 216.866 268.363C216.53 268.163 216.158 268.063 215.75 268.063C215.342 268.063 214.97 268.159 214.634 268.351C214.298 268.543 214.03 268.823 213.83 269.191C213.63 269.559 213.53 269.991 213.53 270.487C213.53 270.991 213.63 271.431 213.83 271.807C214.03 272.175 214.298 272.459 214.634 272.659C214.97 272.851 215.342 272.947 215.75 272.947C216.158 272.947 216.53 272.851 216.866 272.659C217.21 272.459 217.482 272.175 217.682 271.807C217.882 271.431 217.982 270.995 217.982 270.499ZM217.13 265.363L214.574 266.731V265.915L217.13 264.415V265.363ZM222.024 268.291C222.216 267.915 222.488 267.623 222.84 267.415C223.2 267.207 223.636 267.103 224.148 267.103V268.231H223.86C222.636 268.231 222.024 268.895 222.024 270.223V273.799H220.932V267.223H222.024V268.291ZM225.972 266.155C225.764 266.155 225.588 266.083 225.444 265.939C225.3 265.795 225.228 265.619 225.228 265.411C225.228 265.203 225.3 265.027 225.444 264.883C225.588 264.739 225.764 264.667 225.972 264.667C226.172 264.667 226.34 264.739 226.476 264.883C226.62 265.027 226.692 265.203 226.692 265.411C226.692 265.619 226.62 265.795 226.476 265.939C226.34 266.083 226.172 266.155 225.972 266.155ZM226.5 267.223V273.799H225.408V267.223H226.5ZM231.23 273.907C230.614 273.907 230.054 273.767 229.55 273.487C229.054 273.207 228.662 272.811 228.374 272.299C228.094 271.779 227.954 271.179 227.954 270.499C227.954 269.827 228.098 269.235 228.386 268.723C228.682 268.203 229.082 267.807 229.586 267.535C230.09 267.255 230.654 267.115 231.278 267.115C231.902 267.115 232.466 267.255 232.97 267.535C233.474 267.807 233.87 268.199 234.158 268.711C234.454 269.223 234.602 269.819 234.602 270.499C234.602 271.179 234.45 271.779 234.146 272.299C233.85 272.811 233.446 273.207 232.934 273.487C232.422 273.767 231.854 273.907 231.23 273.907ZM231.23 272.947C231.622 272.947 231.99 272.855 232.334 272.671C232.678 272.487 232.954 272.211 233.162 271.843C233.378 271.475 233.486 271.027 233.486 270.499C233.486 269.971 233.382 269.523 233.174 269.155C232.966 268.787 232.694 268.515 232.358 268.339C232.022 268.155 231.658 268.063 231.266 268.063C230.866 268.063 230.498 268.155 230.162 268.339C229.834 268.515 229.57 268.787 229.37 269.155C229.17 269.523 229.07 269.971 229.07 270.499C229.07 271.035 229.166 271.487 229.358 271.855C229.558 272.223 229.822 272.499 230.15 272.683C230.478 272.859 230.838 272.947 231.23 272.947ZM238.365 273.907C237.861 273.907 237.409 273.823 237.009 273.655C236.609 273.479 236.293 273.239 236.061 272.935C235.829 272.623 235.701 272.267 235.677 271.867H236.805C236.837 272.195 236.989 272.463 237.261 272.671C237.541 272.879 237.905 272.983 238.353 272.983C238.769 272.983 239.097 272.891 239.337 272.707C239.577 272.523 239.697 272.291 239.697 272.011C239.697 271.723 239.569 271.511 239.313 271.375C239.057 271.231 238.661 271.091 238.125 270.955C237.637 270.827 237.237 270.699 236.925 270.571C236.621 270.435 236.357 270.239 236.133 269.983C235.917 269.719 235.809 269.375 235.809 268.951C235.809 268.615 235.909 268.307 236.109 268.027C236.309 267.747 236.593 267.527 236.961 267.367C237.329 267.199 237.749 267.115 238.221 267.115C238.949 267.115 239.537 267.299 239.985 267.667C240.433 268.035 240.673 268.539 240.705 269.179H239.613C239.589 268.835 239.449 268.559 239.193 268.351C238.945 268.143 238.609 268.039 238.185 268.039C237.793 268.039 237.481 268.123 237.249 268.291C237.017 268.459 236.901 268.679 236.901 268.951C236.901 269.167 236.969 269.347 237.105 269.491C237.249 269.627 237.425 269.739 237.633 269.827C237.849 269.907 238.145 269.999 238.521 270.103C238.993 270.231 239.377 270.359 239.673 270.487C239.969 270.607 240.221 270.791 240.429 271.039C240.645 271.287 240.757 271.611 240.765 272.011C240.765 272.371 240.665 272.695 240.465 272.983C240.265 273.271 239.981 273.499 239.613 273.667C239.253 273.827 238.837 273.907 238.365 273.907Z" fill="#A0AEC0"/>
<path opacity="0.5" d="M55.744 236.371C55.744 234.995 55.968 233.923 56.416 233.155C56.864 232.379 57.648 231.991 58.768 231.991C59.88 231.991 60.66 232.379 61.108 233.155C61.556 233.923 61.78 234.995 61.78 236.371C61.78 237.771 61.556 238.859 61.108 239.635C60.66 240.411 59.88 240.799 58.768 240.799C57.648 240.799 56.864 240.411 56.416 239.635C55.968 238.859 55.744 237.771 55.744 236.371ZM60.7 236.371C60.7 235.675 60.652 235.087 60.556 234.607C60.468 234.119 60.28 233.727 59.992 233.431C59.712 233.135 59.304 232.987 58.768 232.987C58.224 232.987 57.808 233.135 57.52 233.431C57.24 233.727 57.052 234.119 56.956 234.607C56.868 235.087 56.824 235.675 56.824 236.371C56.824 237.091 56.868 237.695 56.956 238.183C57.052 238.671 57.24 239.063 57.52 239.359C57.808 239.655 58.224 239.803 58.768 239.803C59.304 239.803 59.712 239.655 59.992 239.359C60.28 239.063 60.468 238.671 60.556 238.183C60.652 237.695 60.7 237.091 60.7 236.371ZM63.0392 234.079C63.0392 233.535 63.2032 233.103 63.5312 232.783C63.8592 232.455 64.2792 232.291 64.7912 232.291C65.3032 232.291 65.7232 232.455 66.0512 232.783C66.3792 233.103 66.5432 233.535 66.5432 234.079C66.5432 234.631 66.3792 235.071 66.0512 235.399C65.7232 235.719 65.3032 235.879 64.7912 235.879C64.2792 235.879 63.8592 235.719 63.5312 235.399C63.2032 235.071 63.0392 234.631 63.0392 234.079ZM70.0472 232.423L65.1872 240.799H64.1072L68.9672 232.423H70.0472ZM64.7912 232.963C64.5192 232.963 64.3032 233.059 64.1432 233.251C63.9912 233.435 63.9152 233.711 63.9152 234.079C63.9152 234.447 63.9912 234.727 64.1432 234.919C64.3032 235.111 64.5192 235.207 64.7912 235.207C65.0632 235.207 65.2792 235.111 65.4392 234.919C65.5992 234.719 65.6792 234.439 65.6792 234.079C65.6792 233.711 65.5992 233.435 65.4392 233.251C65.2792 233.059 65.0632 232.963 64.7912 232.963ZM67.6352 239.143C67.6352 238.591 67.7992 238.155 68.1272 237.835C68.4552 237.507 68.8752 237.343 69.3872 237.343C69.8992 237.343 70.3152 237.507 70.6352 237.835C70.9632 238.155 71.1272 238.591 71.1272 239.143C71.1272 239.687 70.9632 240.123 70.6352 240.451C70.3152 240.779 69.8992 240.943 69.3872 240.943C68.8752 240.943 68.4552 240.783 68.1272 240.463C67.7992 240.135 67.6352 239.695 67.6352 239.143ZM69.3752 238.027C69.1032 238.027 68.8872 238.123 68.7272 238.315C68.5672 238.499 68.4872 238.775 68.4872 239.143C68.4872 239.503 68.5672 239.779 68.7272 239.971C68.8872 240.155 69.1032 240.247 69.3752 240.247C69.6472 240.247 69.8632 240.155 70.0232 239.971C70.1832 239.779 70.2632 239.503 70.2632 239.143C70.2632 238.775 70.1832 238.499 70.0232 238.315C69.8632 238.123 69.6472 238.027 69.3752 238.027Z" fill="#A0AEC0"/>
<path opacity="0.5" d="M273.456 233.119V232.123H275.712V240.799H274.608V233.119H273.456ZM277.588 236.371C277.588 234.995 277.812 233.923 278.26 233.155C278.708 232.379 279.492 231.991 280.612 231.991C281.724 231.991 282.504 232.379 282.952 233.155C283.4 233.923 283.624 234.995 283.624 236.371C283.624 237.771 283.4 238.859 282.952 239.635C282.504 240.411 281.724 240.799 280.612 240.799C279.492 240.799 278.708 240.411 278.26 239.635C277.812 238.859 277.588 237.771 277.588 236.371ZM282.544 236.371C282.544 235.675 282.496 235.087 282.4 234.607C282.312 234.119 282.124 233.727 281.836 233.431C281.556 233.135 281.148 232.987 280.612 232.987C280.068 232.987 279.652 233.135 279.364 233.431C279.084 233.727 278.896 234.119 278.8 234.607C278.712 235.087 278.668 235.675 278.668 236.371C278.668 237.091 278.712 237.695 278.8 238.183C278.896 238.671 279.084 239.063 279.364 239.359C279.652 239.655 280.068 239.803 280.612 239.803C281.148 239.803 281.556 239.655 281.836 239.359C282.124 239.063 282.312 238.671 282.4 238.183C282.496 237.695 282.544 237.091 282.544 236.371ZM285.123 236.371C285.123 234.995 285.347 233.923 285.795 233.155C286.243 232.379 287.027 231.991 288.147 231.991C289.259 231.991 290.039 232.379 290.487 233.155C290.935 233.923 291.159 234.995 291.159 236.371C291.159 237.771 290.935 238.859 290.487 239.635C290.039 240.411 289.259 240.799 288.147 240.799C287.027 240.799 286.243 240.411 285.795 239.635C285.347 238.859 285.123 237.771 285.123 236.371ZM290.079 236.371C290.079 235.675 290.031 235.087 289.935 234.607C289.847 234.119 289.659 233.727 289.371 233.431C289.091 233.135 288.683 232.987 288.147 232.987C287.603 232.987 287.187 233.135 286.899 233.431C286.619 233.727 286.431 234.119 286.335 234.607C286.247 235.087 286.203 235.675 286.203 236.371C286.203 237.091 286.247 237.695 286.335 238.183C286.431 238.671 286.619 239.063 286.899 239.359C287.187 239.655 287.603 239.803 288.147 239.803C288.683 239.803 289.091 239.655 289.371 239.359C289.659 239.063 289.847 238.671 289.935 238.183C290.031 237.695 290.079 237.091 290.079 236.371ZM292.418 234.079C292.418 233.535 292.582 233.103 292.91 232.783C293.238 232.455 293.658 232.291 294.17 232.291C294.682 232.291 295.102 232.455 295.43 232.783C295.758 233.103 295.922 233.535 295.922 234.079C295.922 234.631 295.758 235.071 295.43 235.399C295.102 235.719 294.682 235.879 294.17 235.879C293.658 235.879 293.238 235.719 292.91 235.399C292.582 235.071 292.418 234.631 292.418 234.079ZM299.426 232.423L294.566 240.799H293.486L298.346 232.423H299.426ZM294.17 232.963C293.898 232.963 293.682 233.059 293.522 233.251C293.37 233.435 293.294 233.711 293.294 234.079C293.294 234.447 293.37 234.727 293.522 234.919C293.682 235.111 293.898 235.207 294.17 235.207C294.442 235.207 294.658 235.111 294.818 234.919C294.978 234.719 295.058 234.439 295.058 234.079C295.058 233.711 294.978 233.435 294.818 233.251C294.658 233.059 294.442 232.963 294.17 232.963ZM297.014 239.143C297.014 238.591 297.178 238.155 297.506 237.835C297.834 237.507 298.254 237.343 298.766 237.343C299.278 237.343 299.694 237.507 300.014 237.835C300.342 238.155 300.506 238.591 300.506 239.143C300.506 239.687 300.342 240.123 300.014 240.451C299.694 240.779 299.278 240.943 298.766 240.943C298.254 240.943 297.834 240.783 297.506 240.463C297.178 240.135 297.014 239.695 297.014 239.143ZM298.754 238.027C298.482 238.027 298.266 238.123 298.106 238.315C297.946 238.499 297.866 238.775 297.866 239.143C297.866 239.503 297.946 239.779 298.106 239.971C298.266 240.155 298.482 240.247 298.754 240.247C299.026 240.247 299.242 240.155 299.402 239.971C299.562 239.779 299.642 239.503 299.642 239.143C299.642 238.775 299.562 238.499 299.402 238.315C299.242 238.123 299.026 238.027 298.754 238.027Z" fill="#A0AEC0"/>
</g>
<g filter="url(#filter3_d_502_17130)">
<circle cx="176" cy="160" r="33" fill="#11B97C"/>
</g>
<g clip-path="url(#clip1_502_17130)">
<path d="M176.017 142.812C166.529 142.812 158.847 150.513 158.847 160C158.847 169.487 166.529 177.188 176.017 177.188C185.522 177.188 193.222 169.487 193.222 160C193.222 150.513 185.522 142.812 176.017 142.812ZM176.034 173.75C168.437 173.75 162.284 167.597 162.284 160C162.284 152.403 168.437 146.25 176.034 146.25C183.631 146.25 189.784 152.403 189.784 160C189.784 167.597 183.631 173.75 176.034 173.75ZM182.05 158.281C183.476 158.281 184.628 157.13 184.628 155.703C184.628 154.277 183.476 153.125 182.05 153.125C180.623 153.125 179.472 154.277 179.472 155.703C179.472 157.13 180.623 158.281 182.05 158.281ZM170.019 158.281C171.445 158.281 172.597 157.13 172.597 155.703C172.597 154.277 171.445 153.125 170.019 153.125C168.592 153.125 167.44 154.277 167.44 155.703C167.44 157.13 168.592 158.281 170.019 158.281ZM176.034 169.453C179.523 169.453 182.565 167.545 184.198 164.727C184.525 164.159 184.112 163.438 183.442 163.438H168.626C167.973 163.438 167.544 164.159 167.87 164.727C169.503 167.545 172.545 169.453 176.034 169.453Z" fill="white"/>
</g>
<g filter="url(#filter4_d_502_17130)">
<circle cx="233" cy="200" r="21" fill="#D93022"/>
</g>
<g clip-path="url(#clip2_502_17130)">
<path d="M233.011 189.062C226.974 189.062 222.084 193.963 222.084 200C222.084 206.037 226.974 210.938 233.011 210.938C239.059 210.938 243.959 206.037 243.959 200C243.959 193.963 239.059 189.062 233.011 189.062ZM233.022 208.75C228.188 208.75 224.272 204.834 224.272 200C224.272 195.166 228.188 191.25 233.022 191.25C237.856 191.25 241.772 195.166 241.772 200C241.772 204.834 237.856 208.75 233.022 208.75ZM236.85 198.906C237.758 198.906 238.491 198.173 238.491 197.266C238.491 196.358 237.758 195.625 236.85 195.625C235.942 195.625 235.209 196.358 235.209 197.266C235.209 198.173 235.942 198.906 236.85 198.906ZM229.194 198.906C230.102 198.906 230.834 198.173 230.834 197.266C230.834 196.358 230.102 195.625 229.194 195.625C228.286 195.625 227.553 196.358 227.553 197.266C227.553 198.173 228.286 198.906 229.194 198.906ZM233.022 206.016C235.242 206.016 237.178 204.802 238.217 203.008C238.425 202.647 238.163 202.188 237.736 202.188H228.308C227.892 202.188 227.619 202.647 227.827 203.008C228.866 204.802 230.802 206.016 233.022 206.016Z" fill="white"/>
</g>
<g filter="url(#filter5_d_502_17130)">
<circle cx="119" cy="208" r="21" fill="#DBB75B"/>
</g>
<g clip-path="url(#clip3_502_17130)">
<path d="M119.011 197.062C112.974 197.062 108.084 201.963 108.084 208C108.084 214.037 112.974 218.938 119.011 218.938C125.059 218.938 129.959 214.037 129.959 208C129.959 201.963 125.059 197.062 119.011 197.062ZM119.022 216.75C114.188 216.75 110.272 212.834 110.272 208C110.272 203.166 114.188 199.25 119.022 199.25C123.856 199.25 127.772 203.166 127.772 208C127.772 212.834 123.856 216.75 119.022 216.75ZM122.85 206.906C123.758 206.906 124.491 206.173 124.491 205.266C124.491 204.358 123.758 203.625 122.85 203.625C121.942 203.625 121.209 204.358 121.209 205.266C121.209 206.173 121.942 206.906 122.85 206.906ZM115.194 206.906C116.102 206.906 116.834 206.173 116.834 205.266C116.834 204.358 116.102 203.625 115.194 203.625C114.286 203.625 113.553 204.358 113.553 205.266C113.553 206.173 114.286 206.906 115.194 206.906ZM119.022 214.016C121.242 214.016 123.178 212.802 124.217 211.008C124.425 210.647 124.163 210.188 123.736 210.188H114.308C113.892 210.188 113.619 210.647 113.827 211.008C114.866 212.802 116.802 214.016 119.022 214.016Z" fill="white"/>
</g>
<g style="mix-blend-mode:screen" opacity="0.5" filter="url(#filter6_f_502_17130)">
<ellipse cx="294" cy="26" rx="130" ry="119" fill="#1718FF"/>
</g>
</g>
</g>
<defs>
<filter id="filter0_b_502_17130" x="-120" y="-120" width="592" height="560" filterUnits="userSpaceOnUse" color-interpolation-filters="sRGB">
<feFlood flood-opacity="0" result="BackgroundImageFix"/>
<feGaussianBlur in="BackgroundImageFix" stdDeviation="60"/>
<feComposite in2="SourceAlpha" operator="in" result="effect1_backgroundBlur_502_17130"/>
<feBlend mode="normal" in="SourceGraphic" in2="effect1_backgroundBlur_502_17130" result="shape"/>
</filter>
<filter id="filter1_d_502_17130" x="37.999" y="51.7987" width="266.081" height="265.799" filterUnits="userSpaceOnUse" color-interpolation-filters="sRGB">
<feFlood flood-opacity="0" result="BackgroundImageFix"/>
<feColorMatrix in="SourceAlpha" type="matrix" values="0 0 0 0 0 0 0 0 0 0 0 0 0 0 0 0 0 0 127 0" result="hardAlpha"/>
<feOffset/>
<feGaussianBlur stdDeviation="16"/>
<feComposite in2="hardAlpha" operator="out"/>
<feColorMatrix type="matrix" values="0 0 0 0 0.0901961 0 0 0 0 0.0941176 0 0 0 0 1 0 0 0 0.5 0"/>
<feBlend mode="normal" in2="BackgroundImageFix" result="effect1_dropShadow_502_17130"/>
<feBlend mode="normal" in="SourceGraphic" in2="effect1_dropShadow_502_17130" result="shape"/>
</filter>
<filter id="filter2_b_502_17130" x="-90" y="93.7987" width="533" height="322" filterUnits="userSpaceOnUse" color-interpolation-filters="sRGB">
<feFlood flood-opacity="0" result="BackgroundImageFix"/>
<feGaussianBlur in="BackgroundImageFix" stdDeviation="60"/>
<feComposite in2="SourceAlpha" operator="in" result="effect1_backgroundBlur_502_17130"/>
<feBlend mode="normal" in="SourceGraphic" in2="effect1_backgroundBlur_502_17130" result="shape"/>
</filter>
<filter id="filter3_d_502_17130" x="82.5" y="72" width="187" height="187" filterUnits="userSpaceOnUse" color-interpolation-filters="sRGB">
<feFlood flood-opacity="0" result="BackgroundImageFix"/>
<feColorMatrix in="SourceAlpha" type="matrix" values="0 0 0 0 0 0 0 0 0 0 0 0 0 0 0 0 0 0 127 0" result="hardAlpha"/>
<feMorphology radius="9.625" operator="dilate" in="SourceAlpha" result="effect1_dropShadow_502_17130"/>
<feOffset dy="5.5"/>
<feGaussianBlur stdDeviation="25.4375"/>
<feComposite in2="hardAlpha" operator="out"/>
<feColorMatrix type="matrix" values="0 0 0 0 0.0666667 0 0 0 0 0.72549 0 0 0 0 0.486275 0 0 0 0.5 0"/>
<feBlend mode="normal" in2="BackgroundImageFix" result="effect1_dropShadow_502_17130"/>
<feBlend mode="normal" in="SourceGraphic" in2="effect1_dropShadow_502_17130" result="shape"/>
</filter>
<filter id="filter4_d_502_17130" x="173.5" y="144" width="119" height="119" filterUnits="userSpaceOnUse" color-interpolation-filters="sRGB">
<feFlood flood-opacity="0" result="BackgroundImageFix"/>
<feColorMatrix in="SourceAlpha" type="matrix" values="0 0 0 0 0 0 0 0 0 0 0 0 0 0 0 0 0 0 127 0" result="hardAlpha"/>
<feMorphology radius="6.125" operator="dilate" in="SourceAlpha" result="effect1_dropShadow_502_17130"/>
<feOffset dy="3.5"/>
<feGaussianBlur stdDeviation="16.1875"/>
<feComposite in2="hardAlpha" operator="out"/>
<feColorMatrix type="matrix" values="0 0 0 0 0.85098 0 0 0 0 0.188235 0 0 0 0 0.133333 0 0 0 0.5 0"/>
<feBlend mode="normal" in2="BackgroundImageFix" result="effect1_dropShadow_502_17130"/>
<feBlend mode="normal" in="SourceGraphic" in2="effect1_dropShadow_502_17130" result="shape"/>
</filter>
<filter id="filter5_d_502_17130" x="59.5" y="152" width="119" height="119" filterUnits="userSpaceOnUse" color-interpolation-filters="sRGB">
<feFlood flood-opacity="0" result="BackgroundImageFix"/>
<feColorMatrix in="SourceAlpha" type="matrix" values="0 0 0 0 0 0 0 0 0 0 0 0 0 0 0 0 0 0 127 0" result="hardAlpha"/>
<feMorphology radius="6.125" operator="dilate" in="SourceAlpha" result="effect1_dropShadow_502_17130"/>
<feOffset dy="3.5"/>
<feGaussianBlur stdDeviation="16.1875"/>
<feComposite in2="hardAlpha" operator="out"/>
<feColorMatrix type="matrix" values="0 0 0 0 1 0 0 0 0 0.878431 0 0 0 0 0.560784 0 0 0 0.5 0"/>
<feBlend mode="normal" in2="BackgroundImageFix" result="effect1_dropShadow_502_17130"/>
<feBlend mode="normal" in="SourceGraphic" in2="effect1_dropShadow_502_17130" result="shape"/>
</filter>
<filter id="filter6_f_502_17130" x="-136" y="-393" width="860" height="838" filterUnits="userSpaceOnUse" color-interpolation-filters="sRGB">
<feFlood flood-opacity="0" result="BackgroundImageFix"/>
<feBlend mode="normal" in="SourceGraphic" in2="BackgroundImageFix" result="shape"/>
<feGaussianBlur stdDeviation="150" result="effect1_foregroundBlur_502_17130"/>
</filter>
<linearGradient id="paint0_linear_502_17130" x1="285" y1="174.799" x2="259.5" y2="174.299" gradientUnits="userSpaceOnUse">
<stop stop-color="#454B58"/>
<stop offset="0.985598" stop-color="#454B58" stop-opacity="0"/>
</linearGradient>
<linearGradient id="paint1_linear_502_17130" x1="156.5" y1="96.2987" x2="73.5" y2="204.299" gradientUnits="userSpaceOnUse">
<stop stop-color="#1718FF"/>
<stop offset="1" stop-color="#1718FF" stop-opacity="0"/>
</linearGradient>
<clipPath id="clip0_502_17130">
<rect width="352" height="320" rx="20" fill="white"/>
</clipPath>
<clipPath id="clip1_502_17130">
<rect width="41.25" height="41.25" fill="white" transform="translate(155.375 139.375)"/>
</clipPath>
<clipPath id="clip2_502_17130">
<rect width="26.25" height="26.25" fill="white" transform="translate(219.875 186.875)"/>
</clipPath>
<clipPath id="clip3_502_17130">
<rect width="26.25" height="26.25" fill="white" transform="translate(105.875 194.875)"/>
</clipPath>
</defs>
</svg>