<svg xmlns:xlink="http://www.w3.org/1999/xlink" xmlns="http://www.w3.org/2000/svg" width="54" height="54" viewBox="0 0 54 54" fill="none">
<mask id="mask0_223_5849" style="mask-type:alpha" maskUnits="userSpaceOnUse" x="0" y="0" width="54" height="54">
<path d="M0.333313 8.74407C0.333313 6.94628 0.333313 6.04739 0.657002 5.31313C0.942405 4.66572 1.40246 4.11059 1.98562 3.70994C2.64701 3.25554 3.53027 3.08864 5.2968 2.75483L14.2757 1.05812C15.6652 0.795564 16.3599 0.664285 17.0094 0.765759C17.5836 0.855467 18.1296 1.07535 18.6057 1.40857C19.1443 1.7855 19.5542 2.36159 20.3739 3.51377L26.6908 12.3921L33.6074 3.32447C34.4356 2.23861 34.8498 1.69568 35.3807 1.34221C35.8502 1.02962 36.3832 0.825193 36.9414 0.743685C37.5725 0.651514 38.2435 0.778305 39.5854 1.03189L48.7032 2.75482C50.4697 3.08864 51.3529 3.25554 52.0143 3.70994C52.5975 4.11059 53.0575 4.66572 53.343 5.31313C53.6666 6.04739 53.6666 6.94628 53.6666 8.74406V45.256C53.6666 47.0538 53.6666 47.9527 53.343 48.6869C53.0575 49.3344 52.5975 49.8895 52.0143 50.2901C51.3529 50.7445 50.4697 50.9114 48.7032 51.2453L39.5854 52.9682C38.2435 53.2218 37.5725 53.3486 36.9414 53.2564C36.3832 53.1749 35.8502 52.9705 35.3807 52.6579C34.8498 52.3044 34.4356 51.7615 33.6074 50.6756L26.6908 41.608L20.3739 50.4863C19.5542 51.6385 19.1443 52.2146 18.6057 52.5915C18.1296 52.9247 17.5836 53.1446 17.0094 53.2343C16.3599 53.3358 15.6652 53.2045 14.2757 52.942L5.2968 51.2452C3.53027 50.9114 2.64701 50.7445 1.98562 50.2901C1.40246 49.8895 0.942405 49.3344 0.657002 48.6869C0.333313 47.9527 0.333313 47.0538 0.333313 45.256V8.74407Z" fill="#D9D9D9"/>
</mask>
<g mask="url(#mask0_223_5849)">
<path d="M35.8888 53.6667L18.111 30.3596V0.333374L53.6666 50.3071L35.8888 53.6667Z" fill="#00018F"/>
<path d="M0.333313 3.69295L18.1111 0.333374V53.6667L0.333313 50.3071V3.69295Z" fill="#9EBFFF"/>
<path d="M35.889 0.333374L53.6668 3.69295V50.3071L35.889 53.6667V0.333374Z" fill="#1718FF"/>
<path d="M35.8888 0.333374L18.111 23.6405V53.6667L53.6666 3.69295L35.8888 0.333374Z" fill="#4E80FF"/>
</g>
</svg>