<svg xmlns:xlink="http://www.w3.org/1999/xlink" xmlns="http://www.w3.org/2000/svg" width="86" height="86" viewBox="0 0 86 86" fill="none">
<path d="M0 13.7904C0 10.9139 0 9.47567 0.517903 8.30086C0.974547 7.26501 1.71064 6.37679 2.64369 5.73576C3.70191 5.00872 5.11513 4.74167 7.94157 4.20758L22.3079 1.49285C24.531 1.07276 25.6426 0.862709 26.6818 1.02507C27.6004 1.1686 28.4741 1.52041 29.2359 2.05357C30.0976 2.65665 30.7534 3.5784 32.065 5.42188L42.172 19.6271L53.2385 5.11901C54.5637 3.38163 55.2263 2.51294 56.0758 1.94739C56.827 1.44725 57.6799 1.12016 58.5729 0.989749C59.5827 0.842276 60.6562 1.04514 62.8034 1.45087L77.3918 4.20757C80.2182 4.74167 81.6314 5.00872 82.6896 5.73575C83.6227 6.37679 84.3588 7.26501 84.8154 8.30086C85.3333 9.47567 85.3333 10.9139 85.3333 13.7904V72.2095C85.3333 75.0859 85.3333 76.5242 84.8154 77.699C84.3588 78.7348 83.6227 79.623 82.6896 80.2641C81.6314 80.9911 80.2182 81.2582 77.3918 81.7923L62.8034 84.549C60.6562 84.9547 59.5827 85.1576 58.5729 85.0101C57.6799 84.8797 56.827 84.5526 56.0758 84.0524C55.2263 83.4869 54.5637 82.6182 53.2385 80.8808L42.172 66.3727L32.065 80.5779C30.7534 82.4214 30.0976 83.3432 29.2359 83.9463C28.4741 84.4794 27.6004 84.8312 26.6818 84.9748C25.6426 85.1371 24.531 84.9271 22.3079 84.507L7.94157 81.7923C5.11513 81.2582 3.70191 80.9911 2.64369 80.2641C1.71064 79.623 0.974547 78.7348 0.517903 77.699C0 76.5241 0 75.0859 0 72.2094V13.7904Z" fill="#D9D9D9"/>
<path d="M56.8884 85.6666L28.444 48.3752V0.333252L85.3329 80.2912L56.8884 85.6666Z" fill="#4E80FF"/>
<path d="M0 5.70858L28.444 0.333252L28.4444 85.6666L0 80.2912V5.70858Z" fill="#F0F8FF"/>
<path d="M56.8893 0.333252L85.3337 5.70858L85.3329 80.2912L56.8884 85.6666L56.8893 0.333252Z" fill="#9EBFFF"/>
<path d="M56.8893 0.333252L28.444 37.6246L28.4444 85.6666L85.3337 5.70858L56.8893 0.333252Z" fill="#C2DAFF"/>
</svg>