<svg xmlns:xlink="http://www.w3.org/1999/xlink" width="119" height="22" viewBox="0 0 119 22" fill="none" xmlns="http://www.w3.org/2000/svg">
<mask id="mask0_308_7554" style="mask-type:alpha" maskUnits="userSpaceOnUse" x="0" y="0" width="22" height="22" fill="none">
<path d="M0.333313 3.69778C0.333313 2.97866 0.333313 2.6191 0.462789 2.3254C0.57695 2.06644 0.760973 1.84438 0.994236 1.68412C1.25879 1.50236 1.6121 1.4356 2.31871 1.30208L5.91028 0.623396C6.46607 0.518372 6.74396 0.46586 7.00375 0.50645C7.23342 0.542333 7.45184 0.630285 7.64228 0.763575C7.8577 0.914347 8.02166 1.14478 8.34957 1.60565L10.8763 5.15697L13.6429 1.52994C13.9742 1.09559 14.1399 0.878419 14.3523 0.73703C14.5401 0.611995 14.7533 0.530224 14.9765 0.49762C15.229 0.460752 15.4974 0.511469 16.0342 0.612901L19.6813 1.30208C20.3879 1.4356 20.7412 1.50236 21.0057 1.68412C21.239 1.84438 21.423 2.06644 21.5372 2.3254C21.6666 2.6191 21.6666 2.97866 21.6666 3.69778V18.3026C21.6666 19.0217 21.6666 19.3812 21.5372 19.6749C21.423 19.9339 21.239 20.1559 21.0057 20.3162C20.7412 20.498 20.3879 20.5647 19.6813 20.6982L16.0342 21.3874C15.4974 21.4889 15.229 21.5396 14.9765 21.5027C14.7533 21.4701 14.5401 21.3883 14.3523 21.2633C14.1399 21.1219 13.9742 20.9047 13.6429 20.4704L10.8763 16.8434L8.34957 20.3947C8.02166 20.8555 7.8577 21.086 7.64228 21.2368C7.45184 21.37 7.23342 21.458 7.00375 21.4939C6.74396 21.5345 6.46607 21.482 5.91028 21.3769L2.31871 20.6982C1.6121 20.5647 1.25879 20.498 0.994236 20.3162C0.760973 20.1559 0.57695 19.9339 0.462789 19.6749C0.333313 19.3812 0.333313 19.0217 0.333313 18.3025V3.69778Z" fill="#D9D9D9"></path>
</mask>
<g mask="url(#mask0_308_7554)" fill="none">
<path d="M14.5554 21.6668L7.44434 12.344V0.333496L21.6666 20.323L14.5554 21.6668Z" fill="#00018F"></path>
<path d="M0.333313 1.67733L7.44442 0.333496V21.6668L0.333313 20.323V1.67733Z" fill="#9EBFFF"></path>
<path d="M14.5555 0.333496L21.6667 1.67733V20.323L14.5555 21.6668V0.333496Z" fill="#1718FF"></path>
<path d="M14.5554 0.333496L7.44434 9.65633V21.6668L21.6666 1.67733L14.5554 0.333496Z" fill="#4E80FF"></path>
</g>
<path d="M29.6666 19.7295V9.10822C29.6666 6.73381 30.3878 4.9106 31.8301 3.6386C33.2724 2.36659 35.1919 1.73059 37.5886 1.73059C40.0278 1.73059 41.9579 2.36659 43.379 3.6386C44.8213 4.8894 45.5424 6.71261 45.5424 9.10822V19.7295C45.5424 19.9415 45.447 20.0475 45.2561 20.0475H41.4701C41.258 20.0475 41.1519 19.9415 41.1519 19.7295V9.14002C41.1519 6.76561 39.9642 5.57841 37.5886 5.57841C35.2343 5.57841 34.0571 6.76561 34.0571 9.14002V19.7295C34.0571 19.9415 33.9511 20.0475 33.739 20.0475H29.953C29.7621 20.0475 29.6666 19.9415 29.6666 19.7295Z" fill="#FFFFFF"></path>
<path d="M60.9507 14.0372H64.6095C64.8216 14.0372 64.9277 14.1432 64.9277 14.3552C64.9277 14.5884 64.8534 14.917 64.7049 15.341C64.5565 15.765 64.2807 16.2738 63.8777 16.8674C63.4748 17.4398 62.9763 17.9805 62.3824 18.4893C61.8098 18.9769 61.0356 19.4009 60.0599 19.7613C59.0842 20.1217 58.0025 20.3019 56.8148 20.3019C54.1847 20.3019 52.0531 19.4539 50.4199 17.7579C48.8079 16.0618 48.0019 13.804 48.0019 10.9844C48.0019 8.22842 48.8185 5.99181 50.4517 4.2746C52.0849 2.5574 54.1953 1.69879 56.7829 1.69879C59.4766 1.69879 61.5552 2.5256 63.0187 4.1792C64.5034 5.81161 65.2458 7.81501 65.2458 10.1894C65.2458 11.631 64.4928 12.3518 62.9869 12.3518H52.3924C52.5409 13.6026 53.0075 14.6308 53.7923 15.4364C54.5983 16.2208 55.627 16.613 56.8784 16.613C58.8297 16.613 60.0599 15.8604 60.569 14.3552C60.6538 14.1432 60.7811 14.0372 60.9507 14.0372ZM52.3924 9.29902H60.9507C60.9083 8.09062 60.5159 7.08361 59.7736 6.27801C59.0524 5.47241 58.0343 5.0696 56.7193 5.0696C55.574 5.0696 54.6089 5.46181 53.8241 6.24621C53.0393 7.00941 52.5621 8.02701 52.3924 9.29902Z" fill="#FFFFFF"></path>
<path d="M66.0414 19.6977L71.5137 10.889L66.0732 2.33479C66.0096 2.22879 65.999 2.14399 66.0414 2.08039C66.0839 1.99559 66.1687 1.95319 66.296 1.95319H70.6865C70.8986 1.95319 71.0576 2.04859 71.1637 2.23939L74.6952 8.31322L78.2267 2.23939C78.3327 2.04859 78.4918 1.95319 78.7039 1.95319H82.9672C83.2429 1.95319 83.3065 2.08039 83.1581 2.33479L77.6858 10.889L83.1262 19.6977C83.2535 19.9309 83.1793 20.0475 82.9035 20.0475H78.513C78.3009 20.0475 78.1418 19.9521 78.0358 19.7613L74.5361 13.6556L70.9728 19.7613C70.8668 19.9521 70.7077 20.0475 70.4956 20.0475H66.2641C65.9672 20.0475 65.893 19.9309 66.0414 19.6977Z" fill="#FFFFFF"></path>
<path d="M85.3297 12.8924V2.27119C85.3297 2.05919 85.4251 1.95319 85.616 1.95319H89.402C89.6142 1.95319 89.7202 2.05919 89.7202 2.27119V12.8606C89.7202 15.235 90.908 16.4222 93.2835 16.4222C95.6378 16.4222 96.815 15.235 96.815 12.8606V2.27119C96.815 2.05919 96.9211 1.95319 97.1332 1.95319H100.919C101.11 1.95319 101.206 2.05919 101.206 2.27119V12.8924C101.206 15.2668 100.484 17.09 99.0421 18.3621C97.5998 19.6341 95.6697 20.2701 93.2517 20.2701C90.8337 20.2701 88.9036 19.6447 87.4613 18.3939C86.0402 17.1219 85.3297 15.288 85.3297 12.8924Z" fill="#FFFFFF"></path>
<path d="M104.142 14.228H107.706C107.918 14.228 108.056 14.334 108.119 14.546C108.289 15.288 108.681 15.9028 109.296 16.3904C109.933 16.8568 110.717 17.09 111.651 17.09C112.605 17.09 113.347 16.8992 113.878 16.5176C114.429 16.1148 114.705 15.5954 114.705 14.9594C114.705 14.3446 114.44 13.8676 113.91 13.5284C113.379 13.168 112.711 12.9348 111.905 12.8288C111.099 12.7228 110.23 12.5744 109.296 12.3836C108.363 12.1716 107.493 11.9278 106.687 11.6522C105.881 11.3766 105.213 10.8784 104.683 10.1576C104.153 9.41562 103.888 8.47222 103.888 7.32741C103.888 5.58901 104.598 4.211 106.019 3.1934C107.462 2.17579 109.254 1.66699 111.396 1.66699C112.648 1.66699 113.75 1.84719 114.705 2.20759C115.681 2.54679 116.423 2.9602 116.932 3.4478C117.441 3.9354 117.855 4.476 118.173 5.0696C118.491 5.66321 118.692 6.15081 118.777 6.53241C118.862 6.89281 118.905 7.20021 118.905 7.45461C118.905 7.66661 118.809 7.77261 118.618 7.77261H115.118C114.885 7.77261 114.758 7.66661 114.737 7.45461C114.567 6.67021 114.185 6.04481 113.591 5.57841C113.019 5.112 112.255 4.8788 111.301 4.8788C110.325 4.8788 109.561 5.0908 109.01 5.51481C108.458 5.91761 108.183 6.43701 108.183 7.07301C108.183 7.62421 108.384 8.05882 108.787 8.37682C109.19 8.69482 109.699 8.92802 110.314 9.07642C110.951 9.22482 111.651 9.35202 112.414 9.45802C113.199 9.56402 113.973 9.71242 114.737 9.90322C115.521 10.094 116.221 10.359 116.837 10.6982C117.473 11.0162 117.992 11.525 118.395 12.2246C118.798 12.903 119 13.7404 119 14.7368C119 16.454 118.289 17.8215 116.868 18.8391C115.468 19.8355 113.708 20.3337 111.587 20.3337C110.314 20.3337 109.18 20.1535 108.183 19.7931C107.207 19.4327 106.454 19.0087 105.924 18.5211C105.394 18.0335 104.959 17.5035 104.619 16.931C104.28 16.3374 104.057 15.8498 103.951 15.4682C103.866 15.0866 103.824 14.7792 103.824 14.546C103.824 14.334 103.93 14.228 104.142 14.228Z" fill="#FFFFFF"></path>
</svg>