<svg xmlns:xlink="http://www.w3.org/1999/xlink" xmlns="http://www.w3.org/2000/svg" width="196" height="168" viewBox="0 0 196 168" fill="none">
<g filter="url(#filter0_dd_444_14943)">
<rect width="156.476" height="41.5107" rx="6.38626" transform="matrix(0.866025 0.5 -0.225461 0.974252 34.5 21.5)" fill="#FFE08F" shape-rendering="crispEdges"/>
<path d="M55.8734 51.2704C56.4558 52.6109 56.1235 54.0471 55.131 54.4784C54.1386 54.9096 52.8619 54.1725 52.2794 52.832C51.697 51.4915 52.0293 50.0552 53.0218 49.624C54.0143 49.1928 55.291 49.9299 55.8734 51.2704" stroke="black" stroke-width="1.19742" stroke-linecap="round" stroke-linejoin="round"/>
<path fill-rule="evenodd" clip-rule="evenodd" d="M47.7425 56.8435L47.5925 57.4916C47.5097 57.8494 47.7006 58.2887 48.0186 58.4723L56.0842 63.129C56.4022 63.3126 56.7275 63.1712 56.8103 62.8135L56.9603 62.1654C57.4141 60.2042 55.4322 57.6155 53.1001 56.2691C50.768 54.9227 48.1963 54.8823 47.7425 56.8435Z" stroke="black" stroke-width="1.19742" stroke-linecap="round" stroke-linejoin="round"/>
<path d="M71.2647 63.5657L70.2906 63.0032C70.3059 62.6548 70.2692 62.3196 70.1804 61.9979C70.0942 61.6776 69.9677 61.3775 69.8009 61.0975C69.6375 60.8162 69.4422 60.5632 69.2152 60.3386C68.9881 60.1139 68.741 59.9245 68.4739 59.7703C67.9868 59.4891 67.5135 59.3728 67.054 59.4214C66.5971 59.4716 66.1898 59.6989 65.832 60.1035C65.4768 60.5095 65.2085 61.1044 65.0271 61.888C64.8458 62.6716 64.808 63.3995 64.9136 64.0716C65.0219 64.7453 65.2405 65.334 65.5692 65.8377C65.9005 66.3429 66.3097 66.7361 66.7968 67.0173C67.0639 67.1716 67.3301 67.2785 67.5953 67.3381C67.8606 67.3977 68.1128 67.4047 68.3519 67.3591C68.5943 67.3121 68.8139 67.2101 69.0105 67.0531C69.2104 66.8947 69.3753 66.676 69.5052 66.397L70.4794 66.9594C70.299 67.3796 70.0697 67.7164 69.7913 67.9698C69.513 68.2232 69.2002 68.3949 68.8528 68.4849C68.5061 68.5719 68.1381 68.5782 67.7486 68.5036C67.3618 68.4306 66.9654 68.2769 66.5595 68.0425C65.8735 67.6464 65.3069 67.1056 64.86 66.4201C64.413 65.7346 64.1168 64.9558 63.9713 64.0836C63.8258 63.2115 63.8635 62.2982 64.0844 61.3437C64.3053 60.3892 64.6494 59.6528 65.1167 59.1344C65.5839 58.6161 66.1283 58.3226 66.7498 58.2539C67.3713 58.1853 68.0251 58.349 68.7111 58.7451C69.117 58.9795 69.4827 59.2657 69.8082 59.6039C70.1363 59.9436 70.4147 60.3248 70.6434 60.7474C70.8728 61.167 71.0422 61.6155 71.1514 62.0926C71.2614 62.5669 71.2991 63.0579 71.2647 63.5657ZM73.9129 72.308C73.3682 71.9936 72.9241 71.5718 72.5804 71.0428C72.2394 70.5153 72.0144 69.9228 71.9053 69.2654C71.7988 68.6095 71.8267 67.931 71.9889 67.2298C72.1526 66.5228 72.4093 65.9714 72.7592 65.5756C73.1116 65.1813 73.5259 64.9563 74.0019 64.9005C74.4805 64.8462 74.9922 64.9763 75.5369 65.2908C76.0815 65.6053 76.5244 66.0263 76.8654 66.5538C77.2091 67.0828 77.4338 67.6767 77.5396 68.3356C77.648 68.996 77.6204 69.6797 77.4567 70.3867C77.2945 71.0878 77.0375 71.634 76.6857 72.0254C76.3365 72.4182 75.9226 72.6418 75.444 72.6961C74.968 72.7519 74.4576 72.6225 73.9129 72.308ZM74.1297 71.3712C74.5435 71.6101 74.9115 71.6873 75.2338 71.6029C75.5562 71.5185 75.8265 71.3189 76.0448 71.0042C76.2631 70.6894 76.4247 70.3051 76.5297 69.8515C76.6347 69.3978 76.6684 68.938 76.6308 68.4721C76.5931 68.0062 76.4687 67.5754 76.2575 67.1796C76.0463 66.7838 75.7338 66.4665 75.3201 66.2276C74.9063 65.9887 74.5379 65.913 74.2149 66.0003C73.8919 66.0877 73.6209 66.2902 73.4019 66.6079C73.1829 66.9257 73.0209 67.3114 72.9159 67.765C72.811 68.2187 72.7776 68.677 72.816 69.14C72.8543 69.6029 72.9794 70.0308 73.1913 70.4237C73.4032 70.8165 73.716 71.1323 74.1297 71.3712ZM78.3159 74.6898L79.8866 67.9023L80.7822 68.4194L80.5368 69.4799L80.6153 69.5253C80.8249 69.2355 81.0929 69.0713 81.4195 69.0328C81.7467 68.9913 82.1068 69.0839 82.4996 69.3107C82.8976 69.5405 83.2053 69.8334 83.4228 70.1894C83.6435 70.5439 83.7866 70.9455 83.852 71.394L83.9149 71.4303C84.1505 71.1689 84.4467 71.0243 84.8034 70.9965C85.1608 70.9658 85.5556 71.0751 85.9876 71.3246C86.5271 71.636 86.9244 72.0808 87.1795 72.6589C87.4353 73.234 87.4708 73.9208 87.286 74.7191L86.2348 79.2617L85.3077 78.7265L86.359 74.1839C86.4749 73.6831 86.436 73.2549 86.2422 72.8992C86.0484 72.5435 85.7866 72.2705 85.4566 72.08C85.0324 71.835 84.6703 71.7896 84.3705 71.9438C84.0713 72.095 83.8709 72.39 83.7693 72.829L82.7467 77.2479L81.8039 76.7036L82.8797 72.0549C82.9691 71.669 82.9297 71.294 82.7616 70.9298C82.5943 70.5626 82.3351 70.2778 81.9842 70.0752C81.7433 69.9361 81.5014 69.8782 81.2585 69.9016C81.0182 69.9265 80.8043 70.0301 80.6166 70.2123C80.4323 70.3931 80.3016 70.6499 80.2246 70.9828L79.2429 75.225L78.3159 74.6898ZM90.6479 81.97C90.0665 81.6343 89.5984 81.2004 89.2436 80.6683C88.8921 80.1348 88.6628 79.5415 88.5557 78.8885C88.4518 78.2341 88.4803 77.5593 88.6412 76.8641C88.8021 76.1688 89.0565 75.6211 89.4044 75.2208C89.7557 74.8192 90.1686 74.5867 90.6434 74.5235C91.1214 74.4589 91.6328 74.5838 92.1775 74.8983C92.4917 75.0797 92.7884 75.3178 93.0675 75.6125C93.3467 75.9073 93.5812 76.2598 93.7713 76.67C93.962 77.0774 94.0819 77.5407 94.1309 78.0599C94.18 78.5791 94.1312 79.1554 93.9846 79.7888L93.8824 80.2307L89.2316 77.5456L89.4402 76.6441L93.1483 78.7849C93.2369 78.402 93.2479 78.0209 93.1812 77.6418C93.1172 77.2642 92.9809 76.9167 92.7724 76.5993C92.5665 76.2833 92.2959 76.0286 91.9607 75.8351C91.5915 75.6219 91.2481 75.5406 90.9307 75.5911C90.6165 75.6401 90.3496 75.7866 90.1299 76.0304C89.9102 76.2743 89.7571 76.5833 89.6705 76.9574L89.5314 77.5584C89.4128 78.071 89.3908 78.5508 89.4654 78.998C89.5433 79.4438 89.7022 79.8411 89.9421 80.1899C90.1827 80.5359 90.4902 80.8169 90.8646 81.0331C91.1082 81.1737 91.337 81.2624 91.5511 81.2992C91.7686 81.3346 91.9674 81.3158 92.1475 81.2428C92.3284 81.1669 92.4853 81.0338 92.6184 80.8435L93.4486 81.6433C93.2752 81.9306 93.0473 82.1397 92.7647 82.2704C92.4828 82.3982 92.1615 82.4397 91.8007 82.3951C91.4407 82.3475 91.0564 82.2058 90.6479 81.97ZM97.2286 85.7693C96.6629 85.4428 96.2106 85.0113 95.8716 84.475C95.5327 83.9386 95.3142 83.3433 95.2163 82.689C95.1183 82.0346 95.1478 81.3687 95.3046 80.6911C95.4641 80.0018 95.7175 79.4584 96.0647 79.0611C96.4153 78.6624 96.8279 78.4314 97.3027 78.3683C97.7807 78.3036 98.2921 78.4285 98.8368 78.743C99.261 78.9879 99.6229 79.2971 99.9224 79.6704C100.222 80.0437 100.444 80.4521 100.587 80.8958C100.731 81.3394 100.78 81.7885 100.734 82.2429L99.8071 81.7077C99.808 81.3576 99.7143 80.9929 99.526 80.6137C99.341 80.233 99.0442 79.9248 98.6357 79.6889C98.2743 79.4803 97.9329 79.4034 97.6115 79.4582C97.2933 79.5117 97.014 79.686 96.7735 79.9813C96.5363 80.2752 96.3584 80.6784 96.2398 81.191C96.1184 81.7154 96.0861 82.2143 96.1427 82.6878C96.202 83.1629 96.3416 83.5858 96.5616 83.9566C96.7841 84.3289 97.0787 84.6208 97.4454 84.8325C97.6863 84.9716 97.9158 85.0507 98.1341 85.0698C98.3523 85.089 98.5499 85.0495 98.727 84.9513C98.9041 84.8532 99.0501 84.697 99.1649 84.4828L100.092 85.018C99.9469 85.3884 99.7337 85.6745 99.4525 85.8761C99.1746 86.0764 98.845 86.1732 98.4635 86.1667C98.0854 86.1588 97.6737 86.0263 97.2286 85.7693ZM103.707 89.5097C103.126 89.1741 102.658 88.7402 102.303 88.2081C101.951 87.6745 101.722 87.0813 101.615 86.4283C101.511 85.7739 101.54 85.0991 101.7 84.4038C101.861 83.7086 102.116 83.1609 102.464 82.7606C102.815 82.3589 103.228 82.1265 103.703 82.0633C104.181 81.9987 104.692 82.1236 105.237 82.4381C105.551 82.6195 105.848 82.8576 106.127 83.1523C106.406 83.447 106.641 83.7995 106.831 84.2098C107.021 84.6171 107.141 85.0804 107.19 85.5997C107.239 86.1189 107.19 86.6952 107.044 87.3286L106.942 87.7705L102.291 85.0853L102.499 84.1839L106.208 86.3247C106.296 85.9417 106.307 85.5607 106.241 85.1816C106.177 84.804 106.04 84.4565 105.832 84.1391C105.626 83.8231 105.355 83.5684 105.02 83.3749C104.651 83.1617 104.307 83.0804 103.99 83.1308C103.676 83.1799 103.409 83.3264 103.189 83.5702C102.969 83.814 102.816 84.123 102.73 84.4972L102.591 85.0981C102.472 85.6107 102.45 86.0906 102.525 86.5378C102.603 86.9835 102.762 87.3808 103.001 87.7297C103.242 88.0756 103.549 88.3567 103.924 88.5729C104.167 88.7135 104.396 88.8022 104.61 88.839C104.828 88.8744 105.027 88.8556 105.207 88.7826C105.388 88.7067 105.545 88.5736 105.678 88.3832L106.508 89.1831C106.335 89.4704 106.107 89.6794 105.824 89.8102C105.542 89.9379 105.221 89.9795 104.86 89.9349C104.5 89.8873 104.116 89.7456 103.707 89.5097ZM112.94 94.8606C112.558 94.6398 112.23 94.3585 111.956 94.0165C111.682 93.6717 111.49 93.2916 111.378 92.8765C111.267 92.4584 111.262 92.0284 111.365 91.5865C111.455 91.1976 111.596 90.9217 111.788 90.7588C111.981 90.5929 112.207 90.5065 112.467 90.4995C112.727 90.4926 113.002 90.5346 113.293 90.6256C113.586 90.7152 113.878 90.8202 114.168 90.9408C114.547 91.0994 114.853 91.2312 115.087 91.3363C115.325 91.4399 115.503 91.488 115.624 91.4807C115.747 91.475 115.828 91.3881 115.867 91.2202L115.875 91.1848C115.976 90.7488 115.948 90.3488 115.792 89.9848C115.638 89.6223 115.348 89.3178 114.921 89.0714C114.479 88.8159 114.107 88.7245 113.805 88.7974C113.503 88.8702 113.272 89.0009 113.113 89.1894L112.315 88.3279C112.567 88.0062 112.851 87.806 113.166 87.7274C113.485 87.6474 113.81 87.6517 114.143 87.7403C114.479 87.8274 114.799 87.9587 115.103 88.1341C115.296 88.246 115.513 88.401 115.752 88.5992C115.994 88.7959 116.215 89.0418 116.414 89.337C116.615 89.6337 116.757 89.9879 116.84 90.3997C116.923 90.8115 116.902 91.287 116.777 91.8261L115.742 96.298L114.815 95.7628L115.028 94.8437L114.981 94.8165C114.884 94.9275 114.743 95.0246 114.557 95.1079C114.372 95.1911 114.144 95.2214 113.873 95.1986C113.602 95.1758 113.291 95.0632 112.94 94.8606ZM113.299 94.0054C113.665 94.2171 113.993 94.3145 114.282 94.2976C114.573 94.2822 114.813 94.1834 115.001 94.0012C115.191 93.8205 115.319 93.5887 115.384 93.3059L115.605 92.3514C115.553 92.3818 115.456 92.3805 115.312 92.3476C115.171 92.3132 115.011 92.2624 114.831 92.195C114.654 92.1262 114.481 92.0567 114.313 91.9865C114.149 91.9149 114.015 91.8577 113.912 91.815C113.663 91.7113 113.425 91.6387 113.197 91.5973C112.972 91.5544 112.778 91.574 112.613 91.6561C112.452 91.7367 112.341 91.9096 112.279 92.1747C112.196 92.5371 112.251 92.8798 112.447 93.203C112.645 93.5248 112.929 93.7922 113.299 94.0054ZM122.559 92.5391L123.486 93.0743L121.8 100.357C121.704 100.775 121.556 101.1 121.356 101.333C121.16 101.566 120.914 101.693 120.618 101.713C120.325 101.734 119.985 101.633 119.598 101.409C119.566 101.391 119.535 101.373 119.503 101.355C119.472 101.337 119.44 101.318 119.409 101.3L119.634 100.328C119.665 100.346 119.694 100.363 119.72 100.378C119.747 100.393 119.775 100.41 119.807 100.428C120.09 100.591 120.318 100.616 120.493 100.503C120.667 100.393 120.794 100.166 120.873 99.8214L122.559 92.5391ZM123.276 91.6709C123.095 91.5666 122.956 91.4074 122.857 91.1933C122.76 90.9808 122.735 90.7773 122.78 90.5829C122.825 90.3884 122.928 90.259 123.088 90.1947C123.251 90.1318 123.423 90.1525 123.603 90.2568C123.784 90.3612 123.923 90.5196 124.019 90.7321C124.118 90.9462 124.145 91.1504 124.1 91.3449C124.055 91.5393 123.951 91.6679 123.788 91.7308C123.627 91.7952 123.457 91.7752 123.276 91.6709ZM126.252 102.526C125.708 102.212 125.264 101.79 124.92 101.261C124.579 100.734 124.354 100.141 124.245 99.4836C124.138 98.8277 124.166 98.1492 124.328 97.4481C124.492 96.741 124.749 96.1896 125.099 95.7938C125.451 95.3996 125.865 95.1745 126.341 95.1187C126.82 95.0645 127.332 95.1946 127.876 95.509C128.421 95.8235 128.864 96.2445 129.205 96.772C129.549 97.301 129.773 97.895 129.879 98.5538C129.987 99.2142 129.96 99.8979 129.796 100.605C129.634 101.306 129.377 101.852 129.025 102.244C128.676 102.636 128.262 102.86 127.783 102.914C127.307 102.97 126.797 102.841 126.252 102.526ZM126.469 101.589C126.883 101.828 127.251 101.906 127.573 101.821C127.896 101.737 128.166 101.537 128.384 101.222C128.603 100.908 128.764 100.523 128.869 100.07C128.974 99.616 129.008 99.1562 128.97 98.6903C128.933 98.2244 128.808 97.7936 128.597 97.3978C128.386 97.0021 128.073 96.6847 127.66 96.4458C127.246 96.207 126.877 96.1312 126.554 96.2186C126.231 96.3059 125.96 96.5084 125.741 96.8262C125.522 97.1439 125.36 97.5296 125.255 97.9833C125.15 98.4369 125.117 98.8953 125.155 99.3582C125.194 99.8212 125.319 100.249 125.531 100.642C125.743 101.035 126.055 101.351 126.469 101.589ZM132.469 109.001C132.021 108.742 131.651 108.455 131.359 108.14C131.066 107.827 130.837 107.504 130.67 107.171C130.506 106.842 130.388 106.524 130.317 106.216L131.191 106.059C131.246 106.231 131.319 106.433 131.411 106.666C131.501 106.903 131.644 107.144 131.84 107.39C132.037 107.641 132.318 107.871 132.682 108.082C133.169 108.363 133.601 108.462 133.98 108.38C134.358 108.298 134.612 107.974 134.743 107.408L135.062 106.03L134.984 105.984C134.887 106.069 134.755 106.166 134.587 106.276C134.422 106.385 134.207 106.443 133.941 106.449C133.679 106.455 133.351 106.344 132.958 106.117C132.471 105.836 132.064 105.454 131.736 104.971C131.411 104.489 131.193 103.936 131.083 103.311C130.975 102.688 131.002 102.023 131.166 101.316C131.327 100.62 131.576 100.078 131.912 99.6877C132.25 99.2947 132.645 99.0687 133.098 99.0096C133.552 98.9476 134.033 99.0633 134.541 99.3566C134.933 99.5834 135.228 99.8369 135.424 100.117C135.624 100.396 135.764 100.664 135.844 100.921C135.927 101.176 135.99 101.382 136.03 101.539L136.125 101.594L136.374 100.515L137.27 101.032L135.654 108.014C135.519 108.598 135.291 109.004 134.971 109.233C134.653 109.467 134.276 109.555 133.841 109.498C133.408 109.445 132.951 109.279 132.469 109.001ZM133.301 105.253C133.673 105.468 134.009 105.553 134.31 105.51C134.611 105.467 134.87 105.304 135.086 105.022C135.303 104.739 135.469 104.348 135.585 103.847C135.698 103.358 135.733 102.889 135.689 102.439C135.644 101.989 135.518 101.584 135.311 101.224C135.103 100.864 134.811 100.575 134.434 100.357C134.041 100.13 133.688 100.053 133.374 100.126C133.063 100.2 132.798 100.388 132.58 100.689C132.365 100.992 132.204 101.374 132.097 101.833C131.988 102.305 131.957 102.759 132.004 103.197C132.055 103.634 132.186 104.03 132.397 104.386C132.612 104.74 132.913 105.029 133.301 105.253ZM139.356 110.111C138.973 109.891 138.645 109.609 138.371 109.267C138.098 108.923 137.905 108.543 137.793 108.127C137.682 107.709 137.678 107.279 137.78 106.837C137.87 106.449 138.011 106.173 138.203 106.01C138.396 105.844 138.622 105.757 138.882 105.75C139.142 105.744 139.417 105.786 139.708 105.877C140.002 105.966 140.294 106.071 140.583 106.192C140.962 106.35 141.269 106.482 141.503 106.587C141.74 106.691 141.919 106.739 142.039 106.732C142.162 106.726 142.243 106.639 142.282 106.471L142.29 106.436C142.391 106 142.364 105.6 142.207 105.236C142.054 104.873 141.764 104.569 141.337 104.322C140.894 104.067 140.522 103.975 140.22 104.048C139.918 104.121 139.688 104.252 139.528 104.44L138.73 103.579C138.983 103.257 139.267 103.057 139.582 102.978C139.9 102.898 140.225 102.903 140.558 102.991C140.894 103.078 141.214 103.21 141.518 103.385C141.712 103.497 141.928 103.652 142.167 103.85C142.41 104.047 142.63 104.293 142.829 104.588C143.031 104.885 143.173 105.239 143.256 105.651C143.339 106.062 143.318 106.538 143.193 107.077L142.158 111.549L141.231 111.014L141.444 110.095L141.396 110.067C141.299 110.178 141.158 110.276 140.973 110.359C140.787 110.442 140.559 110.472 140.288 110.45C140.017 110.427 139.707 110.314 139.356 110.111ZM139.714 109.256C140.081 109.468 140.408 109.565 140.697 109.548C140.989 109.533 141.228 109.434 141.416 109.252C141.606 109.071 141.734 108.84 141.799 108.557L142.02 107.602C141.969 107.633 141.871 107.631 141.727 107.599C141.587 107.564 141.426 107.513 141.246 107.446C141.069 107.377 140.897 107.308 140.729 107.237C140.564 107.166 140.431 107.109 140.328 107.066C140.079 106.962 139.84 106.89 139.612 106.848C139.388 106.805 139.193 106.825 139.029 106.907C138.867 106.988 138.756 107.161 138.695 107.426C138.611 107.788 138.667 108.131 138.862 108.454C139.061 108.776 139.345 109.043 139.714 109.256ZM144.071 112.654L145.642 105.866L146.537 106.383L146.3 107.408L146.363 107.445C146.551 107.172 146.813 107.015 147.149 106.972C147.486 106.929 147.835 107.012 148.196 107.221C148.264 107.26 148.349 107.31 148.45 107.372C148.552 107.434 148.628 107.483 148.679 107.519L148.434 108.58C148.404 108.553 148.335 108.498 148.227 108.415C148.122 108.331 148.007 108.254 147.884 108.183C147.591 108.013 147.313 107.931 147.051 107.937C146.791 107.941 146.567 108.025 146.378 108.19C146.192 108.353 146.063 108.587 145.992 108.894L144.998 113.189L144.071 112.654Z" fill="black"/>
<rect x="-0.255676" y="-0.588435" width="157.275" height="42.309" rx="6.7854" transform="matrix(0.866025 0.5 -0.225461 0.974252 34.3331 21.6127)" stroke="white" stroke-width="0.798282" shape-rendering="crispEdges"/>
</g>
<defs>
<filter id="filter0_dd_444_14943" x="-0.404408" y="-0.721682" width="195.962" height="169.77" filterUnits="userSpaceOnUse" color-interpolation-filters="sRGB">
<feFlood flood-opacity="0" result="BackgroundImageFix"/>
<feColorMatrix in="SourceAlpha" type="matrix" values="0 0 0 0 0 0 0 0 0 0 0 0 0 0 0 0 0 0 127 0" result="hardAlpha"/>
<feOffset dx="3.19313" dy="3.99141"/>
<feComposite in2="hardAlpha" operator="out"/>
<feColorMatrix type="matrix" values="0 0 0 0 0.845833 0 0 0 0 0.757065 0 0 0 0 0.525122 0 0 0 1 0"/>
<feBlend mode="normal" in2="BackgroundImageFix" result="effect1_dropShadow_444_14943"/>
<feColorMatrix in="SourceAlpha" type="matrix" values="0 0 0 0 0 0 0 0 0 0 0 0 0 0 0 0 0 0 127 0" result="hardAlpha"/>
<feOffset dy="3.32335"/>
<feGaussianBlur stdDeviation="12.7725"/>
<feComposite in2="hardAlpha" operator="out"/>
<feColorMatrix type="matrix" values="0 0 0 0 1 0 0 0 0 0.878431 0 0 0 0 0.560784 0 0 0 0.5 0"/>
<feBlend mode="normal" in2="effect1_dropShadow_444_14943" result="effect2_dropShadow_444_14943"/>
<feBlend mode="normal" in="SourceGraphic" in2="effect2_dropShadow_444_14943" result="shape"/>
</filter>
</defs>
</svg>