<svg xmlns:xlink="http://www.w3.org/1999/xlink" xmlns="http://www.w3.org/2000/svg" width="222" height="138" viewBox="0 0 222 138" fill="none">
<g filter="url(#filter0_bd_444_14772)">
<rect width="171.488" height="63.165" rx="13.0799" transform="matrix(0.983255 -0.182236 0.123775 0.99231 23.0635 51.2512)" fill="#0F1729" fill-opacity="0.2" shape-rendering="crispEdges"/>
<circle cx="0.631287" cy="0.631287" r="0.631287" transform="matrix(0.983255 -0.182236 0.123775 0.99231 40.7637 62.2114)" stroke="#9B82EF" stroke-width="0.473465" stroke-linecap="round" stroke-linejoin="round"/>
<circle cx="0.631287" cy="0.631287" r="0.631287" transform="matrix(0.983255 -0.182236 0.123775 0.99231 43.7725 63.4163)" stroke="#9B82EF" stroke-width="0.473465" stroke-linecap="round" stroke-linejoin="round"/>
<path d="M43.7936 66.1363L40.0693 66.8265" stroke="#9B82EF" stroke-width="0.473465" stroke-linecap="round" stroke-linejoin="round"/>
<path d="M42.9589 64.7014L41.96 63.0781" stroke="#9B82EF" stroke-width="0.473465" stroke-linecap="round" stroke-linejoin="round"/>
<path d="M41.0744 63.2424L40.5164 65.1543" stroke="#9B82EF" stroke-width="0.473465" stroke-linecap="round" stroke-linejoin="round"/>
<rect width="5.0503" height="1.26257" rx="0.473465" transform="matrix(0.983255 -0.182236 0.123775 0.99231 39.4482 66.9417)" stroke="#9B82EF" stroke-width="0.473465" stroke-linecap="round" stroke-linejoin="round"/>
<path d="M41.9313 66.4815C41.8187 65.5788 42.671 64.6501 43.9096 64.2352" stroke="#9B82EF" stroke-width="0.473465" stroke-linecap="round" stroke-linejoin="round"/>
<path d="M43.8479 66.1263C43.8185 65.5666 43.9078 65.0002 44.1098 64.4653" stroke="#9B82EF" stroke-width="0.473465" stroke-linecap="round" stroke-linejoin="round"/>
<circle cx="0.631287" cy="0.631287" r="0.631287" transform="matrix(0.983255 -0.182236 0.123775 0.99231 38.1855 64.4517)" stroke="#9B82EF" stroke-width="0.473465" stroke-linecap="round" stroke-linejoin="round"/>
<path d="M41.9317 66.4813C41.8191 65.5786 40.7789 65.0007 39.4951 65.0532" stroke="#9B82EF" stroke-width="0.473465" stroke-linecap="round" stroke-linejoin="round"/>
<path d="M40.0154 66.8365C39.9071 66.2914 39.6837 65.783 39.3604 65.3455" stroke="#9B82EF" stroke-width="0.473465" stroke-linecap="round" stroke-linejoin="round"/>
<path d="M50.9513 62.2778C50.8904 61.9705 50.7402 61.7366 50.5007 61.5761C50.2627 61.4154 49.9688 61.3674 49.619 61.4323C49.3898 61.4748 49.1903 61.5572 49.0207 61.6797C48.851 61.8022 48.7238 61.951 48.6389 62.126C48.5538 62.2996 48.5237 62.4865 48.5487 62.6867C48.5631 62.8024 48.5955 62.9056 48.6459 62.9964C48.6964 63.0872 48.7656 63.1662 48.8536 63.2333C48.943 63.2987 49.0512 63.353 49.1784 63.3962C49.3069 63.4376 49.4551 63.4686 49.623 63.489L50.1544 63.5544C50.3574 63.579 50.5349 63.6159 50.6869 63.6651C50.8388 63.7143 50.967 63.7778 51.0715 63.8556C51.1772 63.9316 51.26 64.0232 51.32 64.1304C51.3798 64.2362 51.4185 64.3595 51.436 64.5004C51.4656 64.7377 51.4317 64.9601 51.3344 65.1679C51.237 65.3756 51.0869 65.5521 50.884 65.6974C50.6811 65.8428 50.4371 65.9418 50.152 65.9947C49.8772 66.0456 49.631 66.0419 49.4132 65.9837C49.1953 65.9239 49.0154 65.8199 48.8736 65.6717C48.7332 65.5218 48.6417 65.3369 48.5992 65.1172L48.7403 65.091C48.7794 65.2841 48.862 65.4455 48.9879 65.5754C49.1139 65.7053 49.274 65.7955 49.4682 65.846C49.6639 65.8962 49.8859 65.8983 50.1343 65.8523C50.3929 65.8044 50.6136 65.7172 50.7963 65.5908C50.9802 65.4626 51.1157 65.307 51.2026 65.124C51.291 64.9407 51.3218 64.7416 51.295 64.5265C51.2746 64.3634 51.2215 64.2268 51.1356 64.1168C51.0495 64.0053 50.9249 63.9161 50.7617 63.8492C50.5985 63.7824 50.3902 63.7337 50.1368 63.7033L49.6055 63.6379C49.2373 63.5909 48.9534 63.491 48.754 63.3383C48.556 63.1853 48.4405 62.9768 48.4076 62.7128C48.3797 62.4889 48.4127 62.2779 48.5068 62.0799C48.6007 61.8805 48.7419 61.7109 48.9305 61.5713C49.1205 61.4313 49.3441 61.3376 49.6013 61.2899C49.8599 61.242 50.0934 61.2518 50.3018 61.3194C50.5102 61.387 50.6831 61.5013 50.8205 61.6625C50.9578 61.8237 51.0485 62.0201 51.0924 62.2517L50.9513 62.2778ZM54.0592 65.2705C53.7638 65.3253 53.4955 65.2953 53.2542 65.1808C53.0143 65.0659 52.8168 64.8863 52.6615 64.6419C52.5063 64.3976 52.4077 64.1079 52.3659 63.7727C52.3241 63.4375 52.3475 63.1252 52.4362 62.8356C52.5263 62.5458 52.6675 62.3034 52.8597 62.1085C53.0519 61.9135 53.281 61.7914 53.5469 61.7421C53.7439 61.7056 53.9313 61.7141 54.1094 61.7676C54.2889 61.8208 54.4505 61.9107 54.5941 62.0374C54.7377 62.164 54.8562 62.3188 54.9497 62.5018C55.0445 62.683 55.1056 62.8841 55.1332 63.105L55.151 63.2474L52.4353 63.7507L52.4176 63.6083L54.9921 63.1312C54.9579 62.8568 54.8711 62.6188 54.7317 62.417C54.592 62.2138 54.42 62.0636 54.2154 61.9665C54.0108 61.8693 53.7939 61.842 53.5647 61.8845C53.3325 61.9275 53.1311 62.0362 52.9604 62.2104C52.7897 62.3847 52.6627 62.6024 52.5795 62.8637C52.4963 63.1249 52.4707 63.4073 52.5025 63.7109L52.5048 63.7287C52.5419 64.0268 52.6276 64.2917 52.7617 64.5232C52.8971 64.753 53.0734 64.9245 53.2904 65.0375C53.5075 65.1505 53.7578 65.1807 54.0415 65.1282C54.2501 65.0895 54.4204 65.02 54.5522 64.9197C54.6855 64.8191 54.7887 64.7127 54.8619 64.6006C54.9366 64.4881 54.9903 64.3939 55.0229 64.3181L55.1475 64.3769C55.1083 64.4722 55.0453 64.5817 54.9585 64.7056C54.8717 64.8294 54.7552 64.9443 54.6091 65.0503C54.4629 65.1563 54.2796 65.2297 54.0592 65.2705ZM58.5341 63.2212L58.2477 60.9255L58.3888 60.8994L58.815 64.3163L58.6739 64.3424L58.6062 63.7996L58.5886 63.8029C58.5314 63.9956 58.4184 64.1622 58.2495 64.3027C58.0821 64.443 57.8815 64.5348 57.6479 64.5781C57.4216 64.62 57.2155 64.6074 57.0297 64.5402C56.8439 64.4729 56.6909 64.361 56.5706 64.2042C56.4503 64.0475 56.3759 63.8549 56.3474 63.6265L56.0611 61.3308L56.2022 61.3046L56.4885 63.6004C56.5263 63.9029 56.651 64.1317 56.8628 64.2866C57.0746 64.4416 57.3303 64.4913 57.6301 64.4357C57.83 64.3987 58.0016 64.3221 58.145 64.206C58.2898 64.0897 58.3967 63.9462 58.4656 63.7756C58.536 63.6048 58.5588 63.42 58.5341 63.2212Z" fill="white"/>
<path d="M63.2701 63.5634C62.9527 63.6222 62.67 63.5972 62.4218 63.4885C62.1737 63.3797 61.9714 63.204 61.8149 62.9614C61.6583 62.7188 61.5588 62.427 61.5162 62.0859C61.4729 61.7389 61.4979 61.4209 61.5912 61.132C61.6857 60.8414 61.8375 60.6 62.0466 60.408C62.257 60.2143 62.515 60.0891 62.8207 60.0324C63.0587 59.9883 63.2788 59.993 63.481 60.0466C63.6831 60.1002 63.8551 60.1958 63.9971 60.3333C64.139 60.4709 64.238 60.6437 64.2941 60.8518L63.7739 60.9482C63.7148 60.7999 63.6094 60.6783 63.4577 60.5835C63.3074 60.487 63.1176 60.4599 62.8883 60.5024C62.6855 60.54 62.5144 60.6263 62.3749 60.7614C62.2366 60.8948 62.1369 61.0658 62.0758 61.2743C62.0159 61.4812 62.002 61.7136 62.0342 61.9717C62.0671 62.2357 62.1369 62.4579 62.2437 62.6384C62.3518 62.8186 62.4884 62.9489 62.6532 63.0291C62.8195 63.109 63.0056 63.1299 63.2113 63.0918C63.3465 63.0667 63.4662 63.0203 63.5705 62.9524C63.6748 62.8845 63.7596 62.799 63.8249 62.6958C63.8903 62.5927 63.9313 62.4758 63.9481 62.3453L64.4683 62.2488C64.4641 62.456 64.414 62.6511 64.3181 62.8343C64.2234 63.0157 64.0872 63.1714 63.9095 63.3015C63.7331 63.4298 63.5199 63.5171 63.2701 63.5634ZM66.4835 62.9769C66.269 63.0167 66.0692 63.012 65.8841 62.9628C65.6989 62.9122 65.5452 62.8185 65.4229 62.6819C65.3004 62.5438 65.2253 62.3635 65.1975 62.141C65.1731 61.9452 65.1915 61.7795 65.2528 61.6437C65.3138 61.5065 65.4039 61.3911 65.5231 61.2977C65.6423 61.2043 65.7768 61.1263 65.9269 61.0636C66.0782 60.9991 66.2312 60.9419 66.3859 60.892C66.5883 60.8272 66.7525 60.7763 66.8787 60.7392C67.0062 60.7004 67.0972 60.6585 67.1517 60.6135C67.2077 60.5682 67.2304 60.5033 67.2199 60.4188L67.2177 60.401C67.1903 60.1815 67.1095 60.022 66.9753 59.9225C66.8426 59.8226 66.6564 59.7949 66.4169 59.8393C66.1686 59.8853 65.9807 59.9763 65.8533 60.1122C65.7259 60.2481 65.6414 60.3836 65.5996 60.5188L65.0836 60.4324C65.1459 60.2084 65.2433 60.025 65.3758 59.8821C65.5096 59.7374 65.6611 59.6259 65.8302 59.5475C66.0007 59.4673 66.1711 59.4115 66.3416 59.3799C66.4503 59.3597 66.5769 59.3499 66.7213 59.3505C66.867 59.3493 67.0109 59.3764 67.1532 59.432C67.2969 59.4873 67.4229 59.5876 67.5313 59.7329C67.6396 59.8782 67.7107 60.0866 67.7445 60.358L68.0253 62.6092L67.5051 62.7056L67.4474 62.2429L67.421 62.2478C67.3949 62.3285 67.3461 62.4188 67.2743 62.5185C67.2026 62.6183 67.1021 62.7105 66.9728 62.7952C66.8435 62.8798 66.6804 62.9404 66.4835 62.9769ZM66.5041 62.4906C66.7098 62.4525 66.8781 62.3796 67.009 62.2718C67.1414 62.1639 67.2355 62.0387 67.2914 61.8963C67.3488 61.7537 67.3686 61.6112 67.3509 61.4688L67.2909 60.9883C67.2722 61.0191 67.2268 61.0525 67.1546 61.0887C67.0837 61.123 67.0008 61.1574 66.9058 61.1917C66.8122 61.2242 66.7205 61.2548 66.6309 61.2836C66.5426 61.3106 66.4709 61.333 66.416 61.3507C66.283 61.3936 66.1603 61.4459 66.0477 61.5078C65.9364 61.5678 65.8497 61.6438 65.7875 61.7358C65.7266 61.826 65.7044 61.9378 65.7211 62.0713C65.7438 62.2537 65.8279 62.3792 65.9733 62.4479C66.1199 62.5148 66.2969 62.529 66.5041 62.4906ZM71.1664 59.3141L70.7158 59.5342C70.6766 59.461 70.6237 59.3927 70.5571 59.3292C70.4919 59.2639 70.4077 59.2157 70.3046 59.1848C70.2015 59.1538 70.0743 59.1524 69.9229 59.1804C69.7157 59.2188 69.5491 59.299 69.423 59.421C69.2981 59.5413 69.2449 59.6748 69.2632 59.8216C69.2795 59.9521 69.3394 60.0465 69.4428 60.1047C69.5463 60.1629 69.7011 60.1987 69.9073 60.2121L70.4254 60.2435C70.7373 60.2615 70.9771 60.3332 71.1445 60.4584C71.3118 60.5822 71.4104 60.7634 71.4401 61.0022C71.4646 61.198 71.4305 61.3833 71.3381 61.5583C71.2471 61.7329 71.108 61.8831 70.9207 62.0089C70.7334 62.1346 70.5083 62.2219 70.2452 62.2706C69.8999 62.3346 69.6046 62.312 69.3595 62.2026C69.1143 62.0933 68.9435 61.8989 68.847 61.6194L69.3252 61.4033C69.3951 61.5785 69.5012 61.6999 69.6435 61.7676C69.7872 61.8351 69.9656 61.849 70.1787 61.8096C70.4212 61.7646 70.6072 61.677 70.7368 61.5468C70.8677 61.4148 70.9239 61.2754 70.9056 61.1286C70.8908 61.0099 70.8373 60.9182 70.745 60.8534C70.6525 60.7871 70.5186 60.7497 70.3431 60.7412L69.7622 60.7123C69.4429 60.6957 69.2008 60.6229 69.0359 60.4942C68.8722 60.3637 68.7757 60.1805 68.7463 59.9447C68.7223 59.7519 68.7546 59.5714 68.8434 59.4032C68.9337 59.2348 69.0668 59.091 69.2429 58.9719C69.4205 58.8525 69.6283 58.7707 69.8663 58.7266C70.2014 58.6645 70.4737 58.6899 70.6832 58.8028C70.8942 58.9154 71.0553 59.0859 71.1664 59.3141ZM74.5336 58.69L74.0829 58.9101C74.0437 58.837 73.9908 58.7686 73.9243 58.7051C73.859 58.6398 73.7748 58.5917 73.6717 58.5607C73.5686 58.5298 73.4414 58.5283 73.2901 58.5563C73.0829 58.5948 72.9162 58.675 72.7901 58.7969C72.6653 58.9172 72.612 59.0507 72.6303 59.1975C72.6466 59.3281 72.7065 59.4224 72.81 59.4806C72.9135 59.5388 73.0683 59.5746 73.2744 59.588L73.7925 59.6194C74.1045 59.6375 74.3442 59.7091 74.5117 59.8344C74.679 59.9581 74.7775 60.1394 74.8073 60.3782C74.8317 60.5739 74.7977 60.7593 74.7052 60.9342C74.6143 61.1089 74.4751 61.2591 74.2879 61.3848C74.1006 61.5106 73.8754 61.5978 73.6124 61.6466C73.267 61.7106 72.9718 61.6879 72.7266 61.5786C72.4814 61.4693 72.3106 61.2748 72.2141 60.9953L72.6923 60.7792C72.7623 60.9544 72.8684 61.0759 73.0106 61.1436C73.1544 61.211 73.3328 61.225 73.5458 61.1855C73.7883 61.1406 73.9743 61.053 74.1039 60.9227C74.2348 60.7908 74.2911 60.6513 74.2728 60.5045C74.258 60.3859 74.2044 60.2941 74.1122 60.2293C74.0197 60.163 73.8857 60.1256 73.7103 60.1172L73.1293 60.0883C72.81 60.0716 72.5679 59.9989 72.403 59.8701C72.2394 59.7396 72.1429 59.5565 72.1135 59.3207C72.0894 59.1279 72.1218 58.9474 72.2106 58.7792C72.3008 58.6107 72.434 58.4669 72.61 58.3478C72.7876 58.2284 72.9954 58.1467 73.2335 58.1025C73.5685 58.0404 73.8408 58.0658 74.0503 58.1787C74.2613 58.2914 74.4224 58.4618 74.5336 58.69ZM75.8332 61.1621L75.407 57.7452L75.9272 57.6488L76.3534 61.0657L75.8332 61.1621ZM75.6005 57.1267C75.4991 57.1455 75.4073 57.1268 75.3252 57.0708C75.2445 57.0144 75.198 56.9373 75.1858 56.8394C75.1736 56.7415 75.1991 56.6511 75.2625 56.568C75.3272 56.4847 75.4103 56.4336 75.5117 56.4148C75.6131 56.3961 75.7042 56.4148 75.7849 56.4712C75.867 56.5273 75.9142 56.6043 75.9264 56.7021C75.9386 56.8 75.9124 56.8906 75.8476 56.9739C75.7843 57.057 75.7019 57.1079 75.6005 57.1267ZM77.6942 58.7142L77.9506 60.7697L77.4304 60.8661L77.0042 57.4492L77.5067 57.3561L77.5733 57.8899L77.6174 57.8818C77.6751 57.6936 77.7782 57.5318 77.9268 57.3966C78.0751 57.2598 78.2771 57.1678 78.5328 57.1204C78.762 57.0779 78.9685 57.0882 79.1523 57.1512C79.3359 57.2128 79.4874 57.3304 79.6067 57.504C79.7259 57.6761 79.8037 57.9075 79.8399 58.1982L80.1107 60.3693L79.5905 60.4657L79.3242 58.3302C79.2907 58.0617 79.1955 57.8654 79.0387 57.7413C78.8817 57.6156 78.6827 57.5751 78.4417 57.6198C78.2757 57.6505 78.1318 57.7144 78.0101 57.8113C77.8898 57.9079 77.8009 58.0329 77.7433 58.1862C77.6858 58.3395 77.6694 58.5155 77.6942 58.7142ZM82.5698 59.9864C82.2641 60.0431 81.9868 60.0193 81.7378 59.9153C81.4902 59.811 81.2853 59.6388 81.1231 59.3988C80.9623 59.1585 80.8599 58.8619 80.8159 58.5089C80.7715 58.153 80.7967 57.8304 80.8914 57.5413C80.9876 57.2518 81.1412 57.0125 81.3521 56.8232C81.5645 56.6336 81.8235 56.5105 82.1292 56.4538C82.4348 56.3972 82.7114 56.421 82.959 56.5253C83.208 56.6294 83.413 56.8023 83.574 57.0441C83.7364 57.2856 83.8398 57.5843 83.8842 57.9402C83.9282 58.2932 83.902 58.6136 83.8056 58.9016C83.7107 59.1893 83.5571 59.4279 83.3447 59.6175C83.1337 59.8068 82.8755 59.9298 82.5698 59.9864ZM82.511 59.5148C82.7432 59.4718 82.9267 59.3763 83.0616 59.2284C83.1965 59.0805 83.2878 58.902 83.3353 58.6929C83.3829 58.4838 83.3925 58.265 83.364 58.0366C83.3355 57.8082 83.273 57.6021 83.1763 57.4182C83.0797 57.2343 82.9489 57.0954 82.7838 57.0016C82.6188 56.9078 82.4202 56.8824 82.188 56.9254C81.9558 56.9685 81.7724 57.0647 81.6376 57.2141C81.5029 57.3634 81.4119 57.5434 81.3645 57.754C81.3171 57.9646 81.3076 58.1841 81.3361 58.4125C81.3646 58.6409 81.427 58.8463 81.5234 59.0287C81.6199 59.2111 81.7505 59.3485 81.9154 59.4408C82.0803 59.5332 82.2788 59.5578 82.511 59.5148Z" fill="#FDFCFF"/>
<rect width="145.329" height="6.53995" rx="3.26998" transform="matrix(0.983255 -0.182236 0.123775 0.99231 39.6953 79.0986)" fill="url(#paint0_linear_444_14772)"/>
<rect width="99.7353" height="6.53995" rx="3.26998" transform="matrix(0.983255 -0.182236 0.123775 0.99231 41.3145 92.0779)" fill="url(#paint1_linear_444_14772)" fill-opacity="0.3"/>
<rect x="0.226248" y="0.165558" width="171.08" height="62.7563" rx="12.8755" transform="matrix(0.983255 -0.182236 0.123775 0.99231 23.0468 51.2937)" stroke="#C3C3FA" stroke-opacity="0.2" stroke-width="0.408747" shape-rendering="crispEdges"/>
</g>
<defs>
<filter id="filter0_bd_444_14772" x="-0.936523" y="-2" width="224.435" height="141.931" filterUnits="userSpaceOnUse" color-interpolation-filters="sRGB">
<feFlood flood-opacity="0" result="BackgroundImageFix"/>
<feGaussianBlur in="BackgroundImageFix" stdDeviation="4.90496"/>
<feComposite in2="SourceAlpha" operator="in" result="effect1_backgroundBlur_444_14772"/>
<feColorMatrix in="SourceAlpha" type="matrix" values="0 0 0 0 0 0 0 0 0 0 0 0 0 0 0 0 0 0 127 0" result="hardAlpha"/>
<feOffset dy="2"/>
<feGaussianBlur stdDeviation="12"/>
<feComposite in2="hardAlpha" operator="out"/>
<feColorMatrix type="matrix" values="0 0 0 0 0.0901961 0 0 0 0 0.0941176 0 0 0 0 1 0 0 0 0.2 0"/>
<feBlend mode="normal" in2="effect1_backgroundBlur_444_14772" result="effect2_dropShadow_444_14772"/>
<feBlend mode="normal" in="SourceGraphic" in2="effect2_dropShadow_444_14772" result="shape"/>
</filter>
<linearGradient id="paint0_linear_444_14772" x1="-0.0022632" y1="6.53991" x2="0.585159" y2="-6.5136" gradientUnits="userSpaceOnUse">
<stop stop-color="#1718FF"/>
<stop offset="1" stop-color="#7F56D9"/>
<stop offset="1" stop-color="#3334FF"/>
</linearGradient>
<linearGradient id="paint1_linear_444_14772" x1="-0.00155318" y1="6.53991" x2="0.852466" y2="-6.48404" gradientUnits="userSpaceOnUse">
<stop stop-color="#1718FF"/>
<stop offset="1" stop-color="#7F56D9"/>
<stop offset="1" stop-color="#3334FF"/>
</linearGradient>
</defs>
</svg>