<svg xmlns:xlink="http://www.w3.org/1999/xlink" xmlns="http://www.w3.org/2000/svg" width="153" height="114" viewBox="0 0 153 114" fill="none">
<g filter="url(#filter0_dd_444_14771)">
<rect width="118.607" height="31.494" rx="4.84523" transform="matrix(0.92881 0.370557 -0.0989724 0.99509 22.7383 16.7556)" fill="#6128FF" shape-rendering="crispEdges"/>
<path d="M41.8395 36.7646C42.412 37.7067 42.3013 38.8197 41.5923 39.2506C40.8833 39.6814 39.8444 39.2669 39.2719 38.3248C38.6995 37.3827 38.8102 36.2697 39.5192 35.8389C40.2282 35.4081 41.2671 35.8225 41.8395 36.7646" stroke="#FDFCFF" stroke-width="0.908481" stroke-linecap="round" stroke-linejoin="round"/>
<path fill-rule="evenodd" clip-rule="evenodd" d="M36.2311 41.8243L36.1812 42.3265C36.1536 42.6038 36.3412 42.9125 36.6 43.0158L43.1629 45.6341C43.4217 45.7374 43.6541 45.5962 43.6816 45.3189L43.7316 44.8167C43.8828 43.2969 42.1283 41.5704 40.2307 40.8133C38.3331 40.0563 36.3823 40.3045 36.2311 41.8243Z" stroke="#FDFCFF" stroke-width="0.908481" stroke-linecap="round" stroke-linejoin="round"/>
<path d="M54.6388 44.3823L53.8461 44.0661C53.8236 43.8031 53.7629 43.5558 53.6641 43.3241C53.5674 43.0933 53.4422 42.8819 53.2885 42.6901C53.1371 42.4968 52.9645 42.3282 52.7705 42.1844C52.5766 42.0405 52.3709 41.9253 52.1536 41.8386C51.7573 41.6804 51.3876 41.6445 51.0445 41.7307C50.7035 41.8178 50.4174 42.0324 50.1862 42.3745C49.9571 42.7174 49.8124 43.1925 49.752 43.7998C49.6916 44.407 49.7344 44.9569 49.8804 45.4495C50.0285 45.943 50.2516 46.3607 50.5499 46.7028C50.8503 47.0458 51.1987 47.2963 51.595 47.4544C51.8124 47.5412 52.0244 47.5925 52.231 47.6085C52.4377 47.6245 52.6293 47.6024 52.8059 47.5423C52.9848 47.4808 53.141 47.3805 53.2744 47.2415C53.4102 47.1011 53.5136 46.9192 53.5846 46.6959L54.3772 47.0122C54.2819 47.3468 54.1413 47.6242 53.9555 47.8443C53.7697 48.0645 53.5497 48.2271 53.2955 48.3322C53.0416 48.4351 52.7636 48.4796 52.4615 48.4659C52.1614 48.453 51.8463 48.3807 51.516 48.2489C50.9577 48.0262 50.4758 47.682 50.0702 47.2163C49.6645 46.7507 49.3639 46.1988 49.1682 45.5606C48.9724 44.9223 48.9114 44.2334 48.9849 43.4938C49.0585 42.7541 49.2467 42.1646 49.5496 41.7253C49.8525 41.286 50.2358 41.007 50.6996 40.8882C51.1633 40.7694 51.6743 40.8214 52.2326 41.0441C52.5629 41.1759 52.8678 41.3509 53.1474 41.5693C53.4291 41.7885 53.6773 42.0441 53.8919 42.3363C54.1068 42.6261 54.279 42.944 54.4085 43.29C54.5382 43.6337 54.615 43.9978 54.6388 44.3823ZM57.5014 50.6511C57.0582 50.4742 56.6806 50.2061 56.3685 49.8466C56.0586 49.488 55.8301 49.0681 55.683 48.5869C55.538 48.1066 55.4926 47.5948 55.5466 47.0515C55.6011 46.5036 55.7414 46.0623 55.9674 45.7276C56.1955 45.3938 56.4871 45.1802 56.8419 45.0868C57.199 44.9943 57.5991 45.0364 58.0423 45.2132C58.4855 45.3901 58.8621 45.6578 59.172 46.0164C59.4841 46.3759 59.7125 46.7969 59.8572 47.2795C60.0041 47.763 60.0503 48.2786 59.9958 48.8265C59.9417 49.3698 59.8007 49.8073 59.5728 50.1388C59.347 50.4712 59.0556 50.6837 58.6986 50.7762C58.3437 50.8696 57.9446 50.8279 57.5014 50.6511ZM57.5736 49.9251C57.9103 50.0594 58.1965 50.0775 58.4322 49.9793C58.668 49.8811 58.853 49.7021 58.9874 49.4425C59.1218 49.1828 59.2065 48.8771 59.2414 48.5256C59.2764 48.174 59.2568 47.8256 59.1826 47.4803C59.1084 47.135 58.9719 46.8254 58.7732 46.5515C58.5744 46.2776 58.3067 46.0735 57.9701 45.9392C57.6334 45.8049 57.3471 45.788 57.1111 45.8885C56.8752 45.9889 56.6899 46.1702 56.5553 46.4321C56.4207 46.6941 56.3359 47.0009 56.3009 47.3524C56.2659 47.704 56.2857 48.0513 56.3601 48.3943C56.4346 48.7373 56.5713 49.0446 56.7702 49.3162C56.9692 49.5878 57.237 49.7908 57.5736 49.9251ZM61.0684 51.9602L61.5915 46.7004L62.3202 46.9912L62.2385 47.813L62.3024 47.8385C62.4326 47.5985 62.6195 47.4464 62.8629 47.3821C63.1066 47.3156 63.3882 47.3461 63.7078 47.4736C64.0317 47.6028 64.2934 47.7891 64.493 48.0325C64.6949 48.2744 64.8426 48.56 64.9361 48.8893L64.9873 48.9097C65.14 48.6882 65.35 48.5477 65.6174 48.4882C65.8849 48.4264 66.1945 48.4657 66.5461 48.6059C66.985 48.781 67.3294 49.0715 67.5793 49.4774C67.8294 49.881 67.9236 50.3921 67.8621 51.0107L67.512 54.5309L66.7577 54.23L67.1078 50.7098C67.1464 50.3217 67.0749 50.0048 66.8933 49.7591C66.7117 49.5134 66.4867 49.337 66.2182 49.2299C65.873 49.0921 65.5944 49.0973 65.3826 49.2454C65.1709 49.3912 65.0481 49.6341 65.0143 49.9743L64.6737 53.3986L63.9066 53.0926L64.2649 49.4902C64.2947 49.1911 64.2281 48.9141 64.0651 48.6592C63.9024 48.4021 63.6782 48.2165 63.3927 48.1026C63.1967 48.0244 63.0079 48.0072 62.8263 48.0511C62.6468 48.0958 62.495 48.1966 62.3708 48.3536C62.249 48.5091 62.1753 48.7158 62.1496 48.9738L61.8227 52.2611L61.0684 51.9602ZM71.1186 56.0838C70.6456 55.8951 70.2487 55.6204 69.9279 55.2598C69.6094 54.8978 69.3776 54.4778 69.2324 53.9997C69.0896 53.5203 69.0449 53.0112 69.0985 52.4724C69.1521 51.9336 69.291 51.4953 69.5151 51.1575C69.7416 50.8183 70.0314 50.5993 70.3846 50.5005C70.7402 50.4002 71.1396 50.4385 71.5828 50.6154C71.8385 50.7174 72.0864 50.8638 72.3267 51.0545C72.5669 51.2453 72.7791 51.4842 72.9632 51.7713C73.1475 52.0561 73.2838 52.3905 73.3718 52.7746C73.4599 53.1586 73.4795 53.596 73.4307 54.0868L73.3967 54.4293L69.6123 52.9195L69.6818 52.2209L72.699 53.4247C72.7286 53.1279 72.6995 52.841 72.6119 52.5639C72.5263 52.2877 72.3891 52.0419 72.2 51.8264C72.0131 51.6118 71.7833 51.4501 71.5106 51.3413C71.2101 51.2214 70.9422 51.1976 70.7069 51.2699C70.4738 51.3407 70.2861 51.4794 70.1437 51.686C70.0013 51.8927 69.9157 52.141 69.8869 52.4309L69.8406 52.8966C69.8011 53.2938 69.8315 53.6561 69.9319 53.9833C70.0346 54.3091 70.1939 54.5898 70.4097 54.8254C70.6258 55.0588 70.8861 55.2363 71.1908 55.3578C71.389 55.4369 71.571 55.4786 71.7367 55.483C71.9047 55.486 72.0534 55.4504 72.1826 55.3761C72.3121 55.2996 72.4178 55.1828 72.4999 55.0257L73.2069 55.5355C73.1038 55.7698 72.9518 55.9512 72.7507 56.0798C72.5498 56.2062 72.3106 56.2721 72.0331 56.2777C71.7559 56.281 71.451 56.2164 71.1186 56.0838ZM76.4734 58.2201C76.0131 58.0365 75.6283 57.7619 75.3191 57.3965C75.0098 57.031 74.786 56.6082 74.6477 56.1282C74.5094 55.6481 74.4663 55.1456 74.5185 54.6205C74.5717 54.0863 74.7102 53.6515 74.9341 53.3159C75.1603 52.979 75.45 52.7611 75.8033 52.6623C76.1588 52.5621 76.5582 52.6003 77.0014 52.7772C77.3466 52.9149 77.6509 53.1075 77.9143 53.355C78.1777 53.6025 78.3855 53.8848 78.5379 54.2019C78.6902 54.519 78.7713 54.8504 78.7812 55.1961L78.0269 54.8952C77.9932 54.6326 77.8865 54.3692 77.7067 54.1053C77.5293 53.8399 77.2744 53.6408 76.942 53.5082C76.6479 53.3909 76.3819 53.3702 76.144 53.4462C75.9084 53.5207 75.714 53.6817 75.5609 53.9292C75.4102 54.1752 75.3151 54.4968 75.2756 54.8941C75.2351 55.3004 75.2596 55.6781 75.349 56.027C75.4404 56.3768 75.5876 56.6788 75.7905 56.933C75.9956 57.1881 76.2472 57.3751 76.5456 57.4941C76.7416 57.5723 76.9232 57.6068 77.0902 57.5975C77.2573 57.5882 77.4031 57.5372 77.5275 57.4444C77.6519 57.3517 77.7471 57.2187 77.8131 57.0457L78.5674 57.3466C78.4939 57.6401 78.3606 57.8777 78.1675 58.0593C77.9768 58.2396 77.7367 58.3479 77.4473 58.3844C77.1602 58.4194 76.8356 58.3646 76.4734 58.2201ZM81.745 60.3233C81.2719 60.1345 80.875 59.8599 80.5542 59.4993C80.2357 59.1373 80.0039 58.7172 79.8587 58.2392C79.7159 57.7597 79.6713 57.2506 79.7248 56.7119C79.7784 56.1731 79.9173 55.7348 80.1414 55.397C80.3679 55.0578 80.6577 54.8388 81.0109 54.7399C81.3665 54.6397 81.7659 54.678 82.2091 54.8548C82.4648 54.9568 82.7128 55.1032 82.953 55.294C83.1932 55.4848 83.4054 55.7237 83.5895 56.0108C83.7739 56.2956 83.9101 56.63 83.9982 57.014C84.0862 57.3981 84.1059 57.8355 84.0571 58.3263L84.023 58.6688L80.2387 57.159L80.3081 56.4604L83.3254 57.6641C83.3549 57.3674 83.3258 57.0805 83.2382 56.8034C83.1527 56.5272 83.0154 56.2814 82.8264 56.0659C82.6395 55.8513 82.4096 55.6896 82.1369 55.5808C81.8365 55.4609 81.5686 55.4371 81.3332 55.5093C81.1002 55.5802 80.9125 55.7189 80.7701 55.9255C80.6277 56.1322 80.5421 56.3805 80.5132 56.6704L80.4669 57.1361C80.4274 57.5333 80.4578 57.8955 80.5582 58.2228C80.6609 58.5486 80.8202 58.8293 81.036 59.0649C81.2521 59.2983 81.5125 59.4757 81.8172 59.5973C82.0153 59.6764 82.1973 59.7181 82.363 59.7225C82.5311 59.7255 82.6797 59.6898 82.8089 59.6156C82.9384 59.5391 83.0442 59.4223 83.1263 59.2651L83.8332 59.775C83.7302 60.0092 83.5781 60.1907 83.377 60.3193C83.1761 60.4456 82.9369 60.5116 82.6595 60.5172C82.3822 60.5205 82.0774 60.4559 81.745 60.3233ZM89.26 63.3357C88.9489 63.2116 88.6728 63.0362 88.4317 62.8094C88.1909 62.5804 88.0078 62.3163 87.8825 62.0171C87.7574 61.7156 87.7119 61.3937 87.7459 61.0512C87.7759 60.7499 87.8556 60.5277 87.985 60.3847C88.1147 60.2395 88.2775 60.1501 88.4736 60.1168C88.6696 60.0835 88.8821 60.0852 89.1111 60.1219C89.3424 60.1573 89.5737 60.2044 89.8048 60.2634C90.1072 60.3414 90.3521 60.407 90.5396 60.4604C90.7294 60.5124 90.8695 60.5292 90.9599 60.5107C91.0525 60.493 91.1053 60.4191 91.1182 60.289L91.1209 60.2616C91.1545 59.9237 91.0944 59.6268 90.9404 59.3707C90.7885 59.1155 90.539 58.9186 90.1916 58.7801C89.8315 58.6364 89.5408 58.6082 89.3194 58.6955C89.0981 58.7829 88.9363 58.9058 88.8341 59.0644L88.1454 58.5048C88.305 58.2362 88.5003 58.0554 88.7311 57.9624C88.9642 57.8679 89.2111 57.8358 89.4717 57.8662C89.7347 57.8952 89.9897 57.959 90.2369 58.0576C90.3946 58.1205 90.5737 58.2133 90.7741 58.336C90.977 58.4573 91.1681 58.6178 91.3476 58.8176C91.5293 59.0182 91.6717 59.2685 91.7748 59.5683C91.8779 59.8681 91.9086 60.227 91.8671 60.6447L91.5224 64.1101L90.7681 63.8092L90.8389 63.0969L90.8006 63.0816C90.7381 63.1754 90.6407 63.2635 90.5084 63.346C90.3762 63.4285 90.2064 63.4759 89.9992 63.4882C89.7919 63.5004 89.5455 63.4496 89.26 63.3357ZM89.4473 62.6556C89.7456 62.7747 90.0033 62.8122 90.2203 62.7682C90.4395 62.7251 90.6112 62.6251 90.7353 62.4682C90.8616 62.3121 90.9357 62.1244 90.9575 61.9053L91.031 61.1656C90.995 61.194 90.9209 61.2036 90.8088 61.1945C90.6991 61.1839 90.5727 61.1631 90.4296 61.1321C90.2888 61.0997 90.1514 61.0663 90.0175 61.0318C89.8859 60.996 89.7791 60.9676 89.697 60.9467C89.4982 60.8959 89.3106 60.8673 89.134 60.8609C88.9597 60.8531 88.8144 60.8889 88.6979 60.9682C88.5838 61.0461 88.5166 61.1878 88.4962 61.3933C88.4682 61.674 88.5441 61.925 88.7237 62.1462C88.9056 62.366 89.1468 62.5358 89.4473 62.6556ZM96.3138 60.5532L97.0681 60.8542L96.5068 66.4974C96.4746 66.8216 96.3944 67.0816 96.2664 67.2773C96.1405 67.474 95.9667 67.5957 95.7449 67.6425C95.5253 67.6901 95.2578 67.6511 94.9424 67.5253C94.9168 67.5151 94.8913 67.5048 94.8657 67.4946C94.8401 67.4844 94.8146 67.4742 94.789 67.464L94.8639 66.7107C94.8895 66.7209 94.9129 66.7302 94.9342 66.7387C94.9556 66.7472 94.979 66.7566 95.0046 66.7668C95.2347 66.8586 95.4103 66.8527 95.5314 66.7491C95.6522 66.6478 95.7259 66.4636 95.7525 66.1965L96.3138 60.5532ZM96.7717 59.8245C96.6247 59.7659 96.5032 59.6616 96.4074 59.5118C96.3136 59.3629 96.2743 59.2131 96.2892 59.0624C96.3042 58.9117 96.3693 58.8036 96.4843 58.7379C96.6016 58.6731 96.7337 58.6701 96.8807 58.7287C97.0277 58.7874 97.1481 58.8912 97.2419 59.0401C97.3377 59.1899 97.3782 59.3402 97.3632 59.4909C97.3482 59.6415 97.2821 59.7493 97.1649 59.814C97.0498 59.8797 96.9187 59.8832 96.7717 59.8245ZM100.09 67.6422C99.6469 67.4654 99.2692 67.1972 98.9572 66.8378C98.6472 66.4791 98.4187 66.0593 98.2716 65.5781C98.1267 65.0978 98.0812 64.586 98.1352 64.0426C98.1897 63.4947 98.33 63.0535 98.556 62.7188C98.7842 62.385 99.0757 62.1713 99.4306 62.078C99.7876 61.9854 100.188 62.0276 100.631 62.2044C101.074 62.3812 101.451 62.6489 101.761 63.0076C102.073 63.367 102.301 63.7881 102.446 64.2707C102.593 64.7541 102.639 65.2698 102.584 65.8177C102.53 66.361 102.389 66.7984 102.161 67.13C101.936 67.4624 101.644 67.6748 101.287 67.7674C100.932 67.8608 100.533 67.819 100.09 67.6422ZM100.162 66.9163C100.499 67.0506 100.785 67.0686 101.021 66.9704C101.257 66.8722 101.442 66.6933 101.576 66.4336C101.71 66.1739 101.795 65.8683 101.83 65.5167C101.865 65.1652 101.845 64.8167 101.771 64.4715C101.697 64.1262 101.561 63.8166 101.362 63.5427C101.163 63.2688 100.895 63.0647 100.559 62.9303C100.222 62.796 99.9357 62.7791 99.6998 62.8796C99.4638 62.9801 99.2785 63.1613 99.1439 63.4233C99.0093 63.6852 98.9245 63.992 98.8896 64.3436C98.8546 64.6951 98.8743 65.0424 98.9488 65.3854C99.0232 65.7284 99.1599 66.0357 99.3588 66.3073C99.5578 66.579 99.8256 66.7819 100.162 66.9163ZM105.432 71.8239C105.067 71.6786 104.759 71.5034 104.507 71.2984C104.255 71.0956 104.049 70.8784 103.89 70.6466C103.734 70.4179 103.613 70.1919 103.529 69.9684L104.175 69.7562C104.234 69.8792 104.309 70.0233 104.401 70.1882C104.493 70.3554 104.625 70.5208 104.797 70.6844C104.971 70.8511 105.206 70.9935 105.502 71.1117C105.899 71.2698 106.236 71.2976 106.514 71.195C106.793 71.0924 106.954 70.8219 106.997 70.3836L107.103 69.3152L107.039 69.2897C106.975 69.3635 106.884 69.4507 106.768 69.5515C106.654 69.6508 106.496 69.7174 106.296 69.7513C106.098 69.7838 105.839 69.7363 105.519 69.6088C105.123 69.4506 104.777 69.2082 104.481 68.8815C104.188 68.5557 103.969 68.1644 103.824 67.7078C103.681 67.252 103.637 66.7502 103.691 66.2023C103.745 65.6635 103.88 65.2296 104.096 64.9007C104.313 64.5695 104.59 64.3572 104.927 64.2639C105.265 64.1682 105.64 64.2029 106.054 64.3678C106.373 64.4953 106.621 64.6536 106.797 64.8425C106.976 65.03 107.108 65.2157 107.194 65.3995C107.282 65.5818 107.349 65.7297 107.396 65.8431L107.472 65.8737L107.555 65.0382L108.284 65.3289L107.746 70.7393C107.701 71.1913 107.569 71.5206 107.349 71.7272C107.131 71.9369 106.854 72.0438 106.519 72.0478C106.186 72.055 105.824 71.9804 105.432 71.8239ZM105.693 68.9236C105.996 69.0443 106.259 69.0721 106.483 69.0071C106.706 68.942 106.886 68.7919 107.023 68.5567C107.159 68.3216 107.247 68.0099 107.285 67.6219C107.323 67.2429 107.303 66.8872 107.225 66.5548C107.147 66.2223 107.012 65.9323 106.82 65.6846C106.627 65.4369 106.378 65.2519 106.071 65.1295C105.751 65.0019 105.476 64.9824 105.246 65.0709C105.018 65.1603 104.836 65.3298 104.7 65.5795C104.567 65.83 104.482 66.1334 104.447 66.4895C104.411 66.8548 104.432 67.199 104.51 67.5223C104.591 67.8442 104.729 68.1271 104.924 68.3711C105.122 68.6136 105.378 68.7978 105.693 68.9236ZM110.754 71.911C110.443 71.7869 110.167 71.6115 109.926 71.3847C109.685 71.1557 109.502 70.8916 109.377 70.5924C109.252 70.2909 109.206 69.969 109.24 69.6265C109.27 69.3252 109.35 69.103 109.479 68.96C109.609 68.8148 109.772 68.7255 109.968 68.6921C110.164 68.6588 110.376 68.6605 110.605 68.6973C110.837 68.7326 111.068 68.7797 111.299 68.8387C111.601 68.9167 111.846 68.9823 112.034 69.0357C112.224 69.0877 112.364 69.1045 112.454 69.086C112.547 69.0683 112.599 68.9944 112.612 68.8643L112.615 68.8369C112.649 68.499 112.589 68.2021 112.435 67.946C112.283 67.6908 112.033 67.4939 111.686 67.3554C111.326 67.2117 111.035 67.1835 110.814 67.2708C110.592 67.3582 110.43 67.4811 110.328 67.6397L109.64 67.0802C109.799 66.8116 109.994 66.6307 110.225 66.5377C110.458 66.4432 110.705 66.4112 110.966 66.4415C111.229 66.4705 111.484 66.5343 111.731 66.6329C111.889 66.6958 112.068 66.7886 112.268 66.9113C112.471 67.0326 112.662 67.1931 112.842 67.3929C113.023 67.5935 113.166 67.8438 113.269 68.1436C113.372 68.4435 113.403 68.8023 113.361 69.22L113.017 72.6854L112.262 72.3845L112.333 71.6722L112.295 71.6569C112.232 71.7507 112.135 71.8388 112.003 71.9213C111.87 72.0039 111.701 72.0512 111.493 72.0635C111.286 72.0757 111.04 72.0249 110.754 71.911ZM110.941 71.231C111.24 71.35 111.497 71.3875 111.715 71.3436C111.934 71.3005 112.105 71.2004 112.23 71.0435C112.356 70.8874 112.43 70.6997 112.452 70.4806L112.525 69.7409C112.489 69.7693 112.415 69.7789 112.303 69.7698C112.193 69.7592 112.067 69.7385 111.924 69.7075C111.783 69.675 111.646 69.6416 111.512 69.6072C111.38 69.5713 111.273 69.5429 111.191 69.522C110.992 69.4712 110.805 69.4426 110.628 69.4362C110.454 69.4284 110.309 69.4642 110.192 69.5435C110.078 69.6214 110.011 69.7631 109.99 69.9686C109.962 70.2494 110.038 70.5003 110.218 70.7215C110.4 70.9413 110.641 71.1111 110.941 71.231ZM114.573 73.3065L115.097 68.0468L115.825 68.3375L115.746 69.132L115.797 69.1524C115.913 68.9278 116.096 68.7813 116.346 68.7127C116.597 68.6441 116.869 68.6685 117.163 68.7858C117.218 68.8079 117.288 68.8367 117.37 68.8721C117.453 68.9076 117.516 68.9361 117.558 68.9576L117.476 69.7795C117.451 69.7624 117.394 69.7288 117.304 69.6785C117.216 69.6268 117.122 69.581 117.022 69.5411C116.783 69.4458 116.564 69.4145 116.366 69.447C116.17 69.478 116.009 69.5655 115.882 69.7093C115.757 69.8517 115.682 70.0416 115.659 70.279L115.328 73.6075L114.573 73.3065Z" fill="white"/>
<rect x="-0.251297" y="-0.413555" width="119.213" height="32.0997" rx="5.14806" transform="matrix(0.92881 0.370557 -0.0989724 0.99509 22.6795 16.8467)" stroke="#C7B3FF" stroke-width="0.605654" shape-rendering="crispEdges"/>
</g>
<defs>
<filter id="filter0_dd_444_14771" x="0.127859" y="-0.1039" width="152.267" height="114.052" filterUnits="userSpaceOnUse" color-interpolation-filters="sRGB">
<feFlood flood-opacity="0" result="BackgroundImageFix"/>
<feColorMatrix in="SourceAlpha" type="matrix" values="0 0 0 0 0 0 0 0 0 0 0 0 0 0 0 0 0 0 127 0" result="hardAlpha"/>
<feOffset dx="2.42262" dy="3.02827"/>
<feComposite in2="hardAlpha" operator="out"/>
<feColorMatrix type="matrix" values="0 0 0 0 0.474986 0 0 0 0 0.258333 0 0 0 0 1 0 0 0 1 0"/>
<feBlend mode="normal" in2="BackgroundImageFix" result="effect1_dropShadow_444_14771"/>
<feColorMatrix in="SourceAlpha" type="matrix" values="0 0 0 0 0 0 0 0 0 0 0 0 0 0 0 0 0 0 127 0" result="hardAlpha"/>
<feOffset dy="2.52141"/>
<feGaussianBlur stdDeviation="9.69046"/>
<feComposite in2="hardAlpha" operator="out"/>
<feColorMatrix type="matrix" values="0 0 0 0 0.534305 0 0 0 0 0.436354 0 0 0 0 0.8875 0 0 0 0.5 0"/>
<feBlend mode="normal" in2="effect1_dropShadow_444_14771" result="effect2_dropShadow_444_14771"/>
<feBlend mode="normal" in="SourceGraphic" in2="effect2_dropShadow_444_14771" result="shape"/>
</filter>
</defs>
</svg>