<svg xmlns:xlink="http://www.w3.org/1999/xlink" xmlns="http://www.w3.org/2000/svg" width="369" height="264" viewBox="0 0 369 264" fill="none">
<g filter="url(#filter0_bdf_444_15212)">
<rect width="271.137" height="99.8693" rx="20.6804" transform="matrix(0.951057 -0.309017 0.25342 0.967356 43 121.786)" fill="#0F1729" fill-opacity="0.2" shape-rendering="crispEdges"/>
<circle cx="0.998118" cy="0.998118" r="0.998118" transform="matrix(0.951057 -0.309017 0.25342 0.967356 73.0352 135.307)" stroke="#D92D20" stroke-width="0.748589" stroke-linecap="round" stroke-linejoin="round"/>
<circle cx="0.998118" cy="0.998118" r="0.998118" transform="matrix(0.951057 -0.309017 0.25342 0.967356 78.0029 136.574)" stroke="#D92D20" stroke-width="0.748589" stroke-linecap="round" stroke-linejoin="round"/>
<path d="M78.6026 140.832L72.907 142.683" stroke="#D92D20" stroke-width="0.748589" stroke-linecap="round" stroke-linejoin="round"/>
<path d="M76.996 138.756L75.0918 136.418" stroke="#D92D20" stroke-width="0.748589" stroke-linecap="round" stroke-linejoin="round"/>
<path d="M73.7364 136.859L73.2596 139.97" stroke="#D92D20" stroke-width="0.748589" stroke-linecap="round" stroke-linejoin="round"/>
<rect width="7.98495" height="1.99624" rx="0.748589" transform="matrix(0.951057 -0.309017 0.25342 0.967356 71.958 142.991)" stroke="#D92D20" stroke-width="0.748589" stroke-linecap="round" stroke-linejoin="round"/>
<path d="M75.7545 141.757C75.39 140.366 76.5329 138.735 78.3885 137.829" stroke="#D92D20" stroke-width="0.748589" stroke-linecap="round" stroke-linejoin="round"/>
<path d="M78.6852 140.805C78.5224 139.934 78.5445 139.028 78.7499 138.148" stroke="#D92D20" stroke-width="0.748589" stroke-linecap="round" stroke-linejoin="round"/>
<circle cx="0.998118" cy="0.998118" r="0.998118" transform="matrix(0.951057 -0.309017 0.25342 0.967356 69.459 139.35)" stroke="#D92D20" stroke-width="0.748589" stroke-linecap="round" stroke-linejoin="round"/>
<path d="M75.7544 141.757C75.3899 140.366 73.6387 139.675 71.6367 140.022" stroke="#D92D20" stroke-width="0.748589" stroke-linecap="round" stroke-linejoin="round"/>
<path d="M72.8248 142.71C72.5414 141.878 72.0854 141.127 71.4873 140.508" stroke="#D92D20" stroke-width="0.748589" stroke-linecap="round" stroke-linejoin="round"/>
<path d="M89.1514 133.805C88.992 133.336 88.7078 133 88.2988 132.798C87.8921 132.596 87.4213 132.581 86.8865 132.755C86.5359 132.869 86.2404 133.039 85.9999 133.266C85.7594 133.493 85.5908 133.753 85.4941 134.044C85.3968 134.334 85.3886 134.633 85.4695 134.942C85.5162 135.12 85.5885 135.275 85.6864 135.407C85.7844 135.539 85.9094 135.648 86.0614 135.735C86.2151 135.819 86.3962 135.882 86.6045 135.923C86.8146 135.962 87.0534 135.98 87.3209 135.977L88.1677 135.97C88.4911 135.966 88.7771 135.988 89.0256 136.033C89.2742 136.079 89.4884 136.152 89.6683 136.252C89.8498 136.35 89.9988 136.476 90.1152 136.632C90.231 136.785 90.3173 136.97 90.3742 137.188C90.47 137.553 90.4632 137.909 90.3538 138.255C90.2443 138.6 90.0457 138.908 89.7579 139.178C89.47 139.447 89.1081 139.653 88.6721 139.794C88.2519 139.931 87.865 139.976 87.5114 139.93C87.1573 139.881 86.8536 139.755 86.6005 139.552C86.349 139.346 86.1671 139.075 86.0548 138.74L86.2706 138.67C86.3721 138.964 86.5351 139.2 86.7596 139.378C86.9842 139.555 87.254 139.664 87.569 139.703C87.8863 139.741 88.2349 139.698 88.6146 139.575C89.0102 139.446 89.338 139.264 89.5981 139.028C89.8599 138.79 90.0399 138.518 90.138 138.213C90.2385 137.908 90.2453 137.589 90.1584 137.258C90.0926 137.006 89.9808 136.803 89.8233 136.649C89.6651 136.492 89.4511 136.378 89.1813 136.306C88.9115 136.235 88.5748 136.202 88.1712 136.207L87.3245 136.214C86.7374 136.216 86.2716 136.118 85.927 135.92C85.5847 135.721 85.3603 135.419 85.2537 135.012C85.1633 134.667 85.1712 134.329 85.2775 133.999C85.3832 133.667 85.5693 133.373 85.8359 133.115C86.1047 132.856 86.4357 132.663 86.829 132.535C87.2245 132.407 87.5927 132.374 87.9335 132.437C88.2743 132.5 88.5692 132.643 88.8181 132.868C89.0671 133.092 89.2501 133.381 89.3672 133.735L89.1514 133.805ZM94.6474 137.853C94.1957 138 93.7687 138.008 93.3665 137.878C92.9666 137.748 92.6194 137.507 92.3251 137.156C92.0308 136.806 91.816 136.372 91.6806 135.855C91.5453 135.339 91.517 134.844 91.5957 134.372C91.6767 133.9 91.8476 133.491 92.1083 133.145C92.369 132.8 92.7028 132.562 93.1096 132.429C93.4107 132.332 93.7064 132.306 93.9968 132.353C94.2893 132.4 94.5614 132.507 94.8129 132.676C95.0644 132.845 95.2825 133.063 95.4671 133.33C95.6535 133.595 95.7912 133.897 95.8805 134.238L95.9379 134.457L91.7849 135.807L91.7274 135.587L95.6647 134.308C95.5539 133.885 95.3682 133.53 95.1076 133.242C94.8464 132.953 94.5453 132.753 94.2043 132.643C93.8634 132.533 93.5176 132.535 93.167 132.649C92.812 132.764 92.5188 132.976 92.2874 133.284C92.056 133.593 91.9023 133.96 91.8263 134.387C91.7502 134.813 91.7688 135.261 91.882 135.73L91.8892 135.758C92.0095 136.217 92.199 136.615 92.4575 136.95C92.7177 137.282 93.0297 137.514 93.3935 137.646C93.7574 137.779 94.1562 137.774 94.5899 137.634C94.9091 137.53 95.1615 137.386 95.3473 137.201C95.5354 137.016 95.6751 136.828 95.7665 136.637C95.8602 136.446 95.9247 136.287 95.9601 136.161L96.1677 136.228C96.126 136.385 96.0501 136.57 95.9398 136.782C95.8295 136.994 95.6708 137.198 95.4637 137.394C95.2566 137.591 94.9845 137.743 94.6474 137.853ZM101.237 133.718L100.31 130.179L100.526 130.109L101.905 135.376L101.69 135.446L101.47 134.609L101.443 134.618C101.394 134.932 101.251 135.216 101.016 135.471C100.783 135.726 100.487 135.911 100.13 136.027C99.7838 136.139 99.4581 136.162 99.1528 136.095C98.8475 136.028 98.5842 135.884 98.363 135.663C98.1418 135.443 97.985 135.156 97.8928 134.804L96.9658 131.266L97.1816 131.196L98.1086 134.734C98.2307 135.2 98.474 135.533 98.8383 135.732C99.2026 135.931 99.6139 135.956 100.072 135.808C100.378 135.708 100.631 135.553 100.832 135.341C101.035 135.129 101.172 134.882 101.245 134.601C101.32 134.318 101.317 134.024 101.237 133.718Z" fill="white"/>
<path d="M108.734 133.276C108.248 133.434 107.8 133.453 107.388 133.334C106.976 133.214 106.623 132.981 106.327 132.633C106.031 132.285 105.814 131.849 105.676 131.323C105.536 130.788 105.509 130.284 105.595 129.813C105.683 129.338 105.871 128.928 106.158 128.584C106.448 128.237 106.826 127.987 107.294 127.836C107.658 127.717 108.004 127.679 108.332 127.721C108.66 127.764 108.95 127.878 109.201 128.064C109.452 128.25 109.643 128.501 109.775 128.815L108.979 129.074C108.855 128.854 108.665 128.685 108.407 128.568C108.152 128.447 107.848 128.444 107.498 128.558C107.188 128.659 106.937 128.829 106.747 129.07C106.558 129.307 106.437 129.596 106.384 129.936C106.334 130.272 106.36 130.639 106.465 131.037C106.571 131.444 106.727 131.778 106.932 132.038C107.139 132.299 107.38 132.474 107.655 132.566C107.933 132.657 108.229 132.651 108.543 132.549C108.75 132.482 108.928 132.384 109.078 132.256C109.227 132.129 109.342 131.977 109.423 131.802C109.504 131.627 109.544 131.435 109.543 131.227L110.339 130.969C110.375 131.294 110.337 131.61 110.225 131.917C110.114 132.221 109.933 132.493 109.682 132.734C109.432 132.971 109.116 133.152 108.734 133.276ZM113.65 131.694C113.322 131.8 113.008 131.834 112.707 131.795C112.406 131.754 112.146 131.639 111.925 131.45C111.705 131.259 111.549 130.992 111.46 130.649C111.381 130.347 111.375 130.084 111.443 129.858C111.51 129.631 111.627 129.431 111.794 129.26C111.962 129.089 112.157 128.939 112.379 128.81C112.603 128.678 112.831 128.557 113.063 128.447C113.367 128.303 113.614 128.189 113.804 128.105C113.995 128.018 114.129 127.934 114.205 127.852C114.284 127.769 114.306 127.663 114.272 127.533L114.265 127.505C114.176 127.167 114.016 126.934 113.785 126.805C113.556 126.676 113.259 126.671 112.892 126.79C112.512 126.914 112.237 127.095 112.065 127.334C111.894 127.574 111.79 127.804 111.752 128.024L110.925 127.995C110.976 127.631 111.091 127.324 111.269 127.072C111.448 126.818 111.663 126.612 111.912 126.454C112.162 126.293 112.418 126.171 112.678 126.086C112.845 126.032 113.041 125.99 113.268 125.962C113.496 125.93 113.727 125.942 113.962 126C114.199 126.057 114.417 126.188 114.617 126.394C114.817 126.599 114.972 126.911 115.082 127.329L115.991 130.799L115.195 131.058L115.008 130.344L114.968 130.357C114.944 130.489 114.886 130.641 114.794 130.812C114.703 130.983 114.564 131.148 114.379 131.308C114.194 131.467 113.951 131.596 113.65 131.694ZM113.581 130.927C113.895 130.825 114.144 130.676 114.327 130.48C114.512 130.284 114.634 130.068 114.692 129.833C114.752 129.598 114.753 129.371 114.696 129.151L114.502 128.411C114.479 128.463 114.415 128.524 114.309 128.596C114.205 128.664 114.082 128.735 113.94 128.809C113.8 128.879 113.663 128.946 113.528 129.01C113.396 129.07 113.288 129.12 113.205 129.159C113.006 129.254 112.824 129.361 112.661 129.481C112.499 129.598 112.379 129.735 112.3 129.892C112.223 130.046 112.212 130.226 112.266 130.432C112.34 130.713 112.498 130.892 112.74 130.97C112.984 131.044 113.264 131.03 113.581 130.927ZM120.23 124.987L119.569 125.425C119.492 125.318 119.395 125.222 119.277 125.136C119.162 125.047 119.019 124.989 118.851 124.962C118.683 124.935 118.484 124.959 118.252 125.034C117.935 125.137 117.691 125.297 117.518 125.514C117.348 125.728 117.292 125.949 117.351 126.175C117.404 126.376 117.517 126.512 117.692 126.582C117.866 126.651 118.116 126.676 118.442 126.654L119.261 126.596C119.754 126.56 120.145 126.623 120.434 126.785C120.722 126.944 120.914 127.208 121.01 127.576C121.089 127.877 121.075 128.175 120.966 128.468C120.86 128.761 120.673 129.025 120.405 129.26C120.138 129.496 119.803 129.679 119.401 129.81C118.873 129.982 118.405 130.007 117.998 129.886C117.591 129.766 117.282 129.496 117.073 129.078L117.778 128.641C117.924 128.901 118.116 129.069 118.353 129.146C118.592 129.222 118.875 129.207 119.201 129.101C119.571 128.981 119.845 128.805 120.021 128.574C120.199 128.34 120.258 128.11 120.198 127.884C120.151 127.701 120.048 127.569 119.889 127.486C119.731 127.401 119.513 127.37 119.236 127.393L118.319 127.468C117.815 127.508 117.42 127.444 117.135 127.276C116.851 127.105 116.662 126.838 116.566 126.475C116.489 126.178 116.502 125.888 116.606 125.606C116.712 125.323 116.891 125.071 117.142 124.848C117.396 124.624 117.705 124.453 118.069 124.335C118.581 124.168 119.013 124.152 119.365 124.285C119.72 124.418 120.008 124.652 120.23 124.987ZM125.379 123.314L124.718 123.752C124.642 123.645 124.544 123.549 124.427 123.463C124.311 123.374 124.169 123.316 124.001 123.289C123.833 123.262 123.633 123.286 123.401 123.361C123.085 123.464 122.84 123.624 122.668 123.841C122.497 124.055 122.441 124.276 122.501 124.502C122.553 124.703 122.667 124.839 122.841 124.908C123.016 124.978 123.266 125.002 123.592 124.981L124.411 124.923C124.904 124.887 125.294 124.95 125.583 125.111C125.871 125.271 126.063 125.535 126.16 125.903C126.239 126.204 126.224 126.502 126.115 126.795C126.009 127.087 125.822 127.352 125.555 127.587C125.287 127.823 124.953 128.006 124.55 128.137C124.022 128.309 123.554 128.334 123.147 128.213C122.74 128.093 122.432 127.823 122.222 127.405L122.927 126.968C123.073 127.228 123.265 127.396 123.502 127.473C123.741 127.549 124.024 127.534 124.35 127.428C124.721 127.308 124.994 127.132 125.17 126.901C125.348 126.667 125.407 126.437 125.348 126.211C125.3 126.028 125.197 125.895 125.039 125.813C124.88 125.728 124.662 125.697 124.385 125.72L123.468 125.795C122.964 125.834 122.57 125.771 122.284 125.603C122 125.432 121.811 125.165 121.716 124.802C121.638 124.504 121.651 124.215 121.755 123.933C121.862 123.65 122.041 123.398 122.292 123.174C122.545 122.951 122.854 122.78 123.218 122.661C123.731 122.495 124.163 122.479 124.515 122.612C124.869 122.745 125.157 122.979 125.379 123.314ZM127.931 126.919L126.552 121.653L127.347 121.394L128.727 126.661L127.931 126.919ZM126.726 120.643C126.571 120.694 126.424 120.684 126.283 120.613C126.145 120.541 126.056 120.43 126.016 120.279C125.977 120.128 125.998 119.981 126.08 119.838C126.164 119.694 126.284 119.597 126.439 119.546C126.594 119.496 126.741 119.507 126.879 119.578C127.019 119.649 127.109 119.76 127.149 119.911C127.188 120.062 127.166 120.209 127.082 120.353C127 120.496 126.881 120.593 126.726 120.643ZM130.34 122.699L131.17 125.867L130.374 126.126L128.994 120.859L129.763 120.609L129.978 121.432L130.046 121.41C130.097 121.103 130.225 120.829 130.43 120.586C130.634 120.341 130.931 120.155 131.323 120.028C131.673 119.914 131.999 119.888 132.3 119.949C132.601 120.007 132.863 120.16 133.086 120.408C133.309 120.653 133.479 120.999 133.596 121.447L134.473 124.794L133.678 125.052L132.815 121.761C132.707 121.347 132.517 121.059 132.245 120.897C131.973 120.732 131.652 120.71 131.284 120.83C131.03 120.912 130.817 121.042 130.647 121.219C130.478 121.395 130.365 121.609 130.307 121.861C130.248 122.113 130.259 122.393 130.34 122.699ZM138.249 123.686C137.781 123.838 137.342 123.858 136.93 123.746C136.52 123.634 136.163 123.406 135.858 123.064C135.556 122.72 135.334 122.277 135.191 121.733C135.048 121.184 135.02 120.673 135.108 120.201C135.199 119.727 135.39 119.321 135.681 118.98C135.975 118.639 136.355 118.393 136.823 118.241C137.29 118.089 137.729 118.069 138.138 118.182C138.551 118.294 138.908 118.522 139.211 118.868C139.516 119.213 139.74 119.659 139.884 120.208C140.026 120.752 140.052 121.26 139.961 121.731C139.872 122.201 139.681 122.607 139.387 122.948C139.096 123.288 138.716 123.534 138.249 123.686ZM138.058 122.959C138.414 122.844 138.681 122.656 138.862 122.397C139.043 122.137 139.149 121.838 139.18 121.501C139.211 121.163 139.18 120.819 139.088 120.467C138.996 120.115 138.855 119.804 138.665 119.536C138.475 119.268 138.241 119.077 137.963 118.964C137.685 118.851 137.368 118.853 137.013 118.968C136.658 119.083 136.39 119.272 136.21 119.534C136.03 119.796 135.925 120.097 135.894 120.437C135.864 120.776 135.895 121.122 135.987 121.474C136.079 121.826 136.22 122.135 136.409 122.401C136.598 122.667 136.832 122.855 137.109 122.966C137.387 123.077 137.703 123.074 138.058 122.959Z" fill="#FDFCFF"/>
<rect width="229.777" height="10.3402" rx="5.17011" transform="matrix(0.951057 -0.309017 0.25342 0.967356 74.875 161.991)" fill="#D92D20"/>
<rect width="157.69" height="10.3402" rx="5.17011" transform="matrix(0.951057 -0.309017 0.25342 0.967356 80.1162 181.997)" fill="#D92D20" fill-opacity="0.3"/>
<rect x="0.389205" y="0.21273" width="270.491" height="99.223" rx="20.3573" transform="matrix(0.951057 -0.309017 0.25342 0.967356 42.9651 121.913)" stroke="#C3C3FA" stroke-opacity="0.2" stroke-width="0.646264" shape-rendering="crispEdges"/>
</g>
<defs>
<filter id="filter0_bdf_444_15212" x="-3.7803" y="-4.88194" width="376.736" height="273.956" filterUnits="userSpaceOnUse" color-interpolation-filters="sRGB">
<feFlood flood-opacity="0" result="BackgroundImageFix"/>
<feGaussianBlur in="BackgroundImageFix" stdDeviation="7.75516"/>
<feComposite in2="SourceAlpha" operator="in" result="effect1_backgroundBlur_444_15212"/>
<feColorMatrix in="SourceAlpha" type="matrix" values="0 0 0 0 0 0 0 0 0 0 0 0 0 0 0 0 0 0 127 0" result="hardAlpha"/>
<feOffset dy="3.89836"/>
<feGaussianBlur stdDeviation="23.3901"/>
<feComposite in2="hardAlpha" operator="out"/>
<feColorMatrix type="matrix" values="0 0 0 0 0.854902 0 0 0 0 0.180392 0 0 0 0 0.12549 0 0 0 0.1 0"/>
<feBlend mode="normal" in2="effect1_backgroundBlur_444_15212" result="effect2_dropShadow_444_15212"/>
<feBlend mode="normal" in="SourceGraphic" in2="effect2_dropShadow_444_15212" result="shape"/>
<feGaussianBlur stdDeviation="0.974589" result="effect3_foregroundBlur_444_15212"/>
</filter>
</defs>
</svg>