<svg xmlns:xlink="http://www.w3.org/1999/xlink" xmlns="http://www.w3.org/2000/svg" width="128" height="93" viewBox="0 0 128 93" fill="none">
<g filter="url(#filter0_ddf_444_14770)">
<rect width="92.705" height="25.0647" rx="3.85611" transform="matrix(0.866025 -0.5 0.720188 0.693779 14.9766 58.9697)" fill="#D92F22" shape-rendering="crispEdges"/>
<path d="M36.8945 56.8901C37.7654 56.9965 38.4065 57.6141 38.3264 58.2695C38.2463 58.9249 37.4755 59.37 36.6046 59.2636C35.7337 59.1572 35.0926 58.5397 35.1727 57.8842C35.2528 57.2288 36.0236 56.7837 36.8945 56.8901" stroke="#FDFCFF" stroke-width="0.723021" stroke-linecap="round" stroke-linejoin="round"/>
<path fill-rule="evenodd" clip-rule="evenodd" d="M37.2937 62.8885L37.583 63.1671C37.7427 63.321 38.0281 63.3558 38.2201 63.245L43.0902 60.4332C43.2823 60.3224 43.3085 60.1075 43.1488 59.9537L42.8595 59.675C41.9842 58.8318 40.0407 59.0776 38.6325 59.8906C37.2244 60.7036 36.4183 62.0452 37.2937 62.8885Z" stroke="#FDFCFF" stroke-width="0.723021" stroke-linecap="round" stroke-linejoin="round"/>
<path d="M47.6252 52.5211L47.4639 52.6142C47.2997 52.5024 47.1045 52.4044 46.8781 52.3204C46.6518 52.2363 46.4075 52.1788 46.1453 52.1479C45.883 52.1169 45.6177 52.1232 45.3493 52.1668C45.0809 52.2103 44.8226 52.3037 44.5744 52.4471C44.2423 52.6388 44.0104 52.8892 43.8786 53.1982C43.747 53.5051 43.7404 53.8483 43.8586 54.2278C43.9771 54.605 44.2455 54.9951 44.6636 55.3979C45.087 55.8058 45.5287 56.0998 45.9888 56.2798C46.4504 56.459 46.8963 56.5389 47.3263 56.5196C47.7579 56.4993 48.1398 56.3933 48.4718 56.2016C48.7201 56.0583 48.9067 55.8958 49.0318 55.7142C49.1555 55.5313 49.2308 55.342 49.2577 55.1462C49.2832 54.9491 49.2698 54.7583 49.2174 54.5738C49.1637 54.3881 49.0841 54.2213 48.9787 54.0735L49.14 53.9804C49.2519 54.1345 49.3398 54.3117 49.4035 54.512C49.4659 54.7109 49.4868 54.9187 49.4663 55.1352C49.4457 55.3516 49.3677 55.5628 49.2324 55.7686C49.0957 55.9731 48.8842 56.158 48.598 56.3232C48.1996 56.5532 47.7626 56.6718 47.287 56.679C46.8114 56.6862 46.3332 56.5885 45.8524 56.386C45.3715 56.1834 44.9247 55.8833 44.5118 55.4855C44.0989 55.0878 43.8212 54.69 43.6788 54.2921C43.5363 53.8942 43.5293 53.5245 43.6578 53.1829C43.7862 52.8413 44.0497 52.5555 44.4481 52.3255C44.7343 52.1602 45.0273 52.0539 45.327 52.0064C45.6268 51.959 45.9197 51.955 46.2059 51.9943C46.4908 52.0325 46.7552 52.0996 46.9992 52.1958C47.2418 52.2907 47.4505 52.3991 47.6252 52.5211ZM53.0064 53.7902C52.7202 53.9554 52.3949 54.0379 52.0304 54.0376C51.6647 54.0361 51.297 53.9596 50.9275 53.8083C50.5583 53.6548 50.2251 53.4349 49.9279 53.1487C49.6294 52.8611 49.4274 52.5654 49.322 52.2617C49.2181 51.957 49.2117 51.673 49.3026 51.4098C49.3922 51.1454 49.5801 50.9305 49.8663 50.7653C50.1525 50.6001 50.4777 50.5187 50.8419 50.5211C51.2077 50.5227 51.5753 50.5991 51.9448 50.7504C52.3143 50.9018 52.6476 51.1206 52.9448 51.4068C53.242 51.6931 53.4432 51.9892 53.5483 52.2952C53.6538 52.599 53.6617 52.8831 53.5721 53.1475C53.4811 53.4107 53.2926 53.625 53.0064 53.7902ZM52.8801 53.6686C53.1379 53.5198 53.3056 53.3257 53.3834 53.0863C53.4627 52.846 53.4525 52.5865 53.3528 52.3078C53.2531 52.0291 53.0665 51.7579 52.793 51.4945C52.5195 51.231 52.2142 51.0294 51.8771 50.8898C51.5402 50.748 51.2067 50.6752 50.8765 50.6713C50.5449 50.6662 50.2503 50.7381 49.9926 50.8869C49.7364 51.0348 49.5693 51.2295 49.4913 51.4711C49.4136 51.7104 49.4238 51.9699 49.5219 52.2496C49.6202 52.5271 49.8062 52.7975 50.0797 53.061C50.3532 53.3245 50.6584 53.5271 50.9952 53.6689C51.3321 53.8107 51.6656 53.8836 51.9959 53.8874C52.3276 53.8903 52.6224 53.8174 52.8801 53.6686ZM55.6544 52.1641L52.6248 49.2456L52.7766 49.158L53.2263 49.5912L53.2453 49.5802C53.1644 49.4 53.1647 49.2176 53.246 49.0328C53.3289 48.8472 53.4914 48.6845 53.7333 48.5448C54.0084 48.386 54.284 48.314 54.5599 48.3289C54.8374 48.3429 55.1017 48.4233 55.3527 48.5701L55.3717 48.5592C55.2424 48.3421 55.213 48.1261 55.2833 47.9113C55.3536 47.6965 55.5264 47.5096 55.8015 47.3508C56.1668 47.1399 56.533 47.0773 56.9002 47.1631C57.2677 47.2467 57.6033 47.4348 57.9071 47.7275L59.9426 49.6883L59.7908 49.776L57.7553 47.8151C57.4871 47.5567 57.196 47.3884 56.8823 47.3103C56.5685 47.2321 56.2503 47.2861 55.9277 47.4724C55.6052 47.6586 55.444 47.8834 55.4442 48.1466C55.443 48.4086 55.5746 48.6669 55.8389 48.9215L57.8744 50.8824L57.7226 50.97L55.6871 49.0092C55.4188 48.7508 55.1278 48.5825 54.8141 48.5043C54.5003 48.4262 54.1821 48.4802 53.8595 48.6665C53.6445 48.7906 53.5014 48.933 53.4304 49.0935C53.3609 49.2531 53.3558 49.4212 53.4151 49.5977C53.476 49.7732 53.5945 49.9459 53.7707 50.1156L55.8062 52.0765L55.6544 52.1641ZM62.7939 48.1393C62.4761 48.3228 62.1288 48.417 61.752 48.4219C61.3767 48.4258 61.0051 48.3516 60.6372 48.1994C60.2693 48.0472 59.9367 47.8279 59.6395 47.5416C59.3424 47.2553 59.1411 46.9603 59.0356 46.6565C58.9318 46.3518 58.9246 46.0673 59.0143 45.8028C59.1039 45.5383 59.2918 45.3235 59.578 45.1583C59.7899 45.0359 60.0234 44.9588 60.2786 44.927C60.5354 44.8942 60.7974 44.903 61.0646 44.9533C61.3318 45.0036 61.5894 45.091 61.8373 45.2153C62.0854 45.3374 62.3075 45.4928 62.5034 45.6816L62.6296 45.8032L59.7076 47.4902L59.5813 47.3686L62.3516 45.7692C62.1083 45.5348 61.828 45.3574 61.5106 45.2367C61.1919 45.1148 60.8728 45.056 60.5534 45.0601C60.2339 45.0642 59.9509 45.1375 59.7042 45.2799C59.4544 45.4241 59.2901 45.6142 59.2113 45.8501C59.1325 46.086 59.1387 46.3417 59.23 46.6172C59.3213 46.8927 59.4979 47.1615 59.7598 47.4236L59.7756 47.4388C60.0399 47.6934 60.3385 47.8958 60.6714 48.046C61.0045 48.1939 61.3443 48.2703 61.6905 48.275C62.0368 48.2797 62.3625 48.1939 62.6677 48.0177C62.8922 47.8881 63.0475 47.7478 63.1336 47.5968C63.2212 47.4449 63.2681 47.3014 63.2744 47.1661C63.2822 47.0299 63.278 46.9199 63.2618 46.836L63.4561 46.8332C63.4786 46.9377 63.4828 47.066 63.4686 47.218C63.4545 47.37 63.3978 47.5273 63.2985 47.69C63.1993 47.8526 63.0311 48.0024 62.7939 48.1393ZM66.7254 45.8695C66.4312 46.0393 66.1004 46.125 65.7328 46.1266C65.3654 46.1259 64.997 46.0499 64.6275 45.8986C64.2596 45.7464 63.9264 45.5265 63.6279 45.239C63.332 44.9539 63.1314 44.6595 63.0259 44.3558C62.9192 44.0507 62.9114 43.7655 63.0026 43.5001C63.0954 43.2338 63.2896 43.0153 63.5853 42.8446C63.8035 42.7187 64.043 42.6412 64.3037 42.6122C64.5647 42.581 64.8272 42.5976 65.0913 42.6619C65.354 42.725 65.5956 42.8347 65.816 42.9911L65.6547 43.0842C65.3677 42.8832 65.044 42.7723 64.6835 42.7515C64.3233 42.7285 63.9993 42.8001 63.7115 42.9662C63.4506 43.1169 63.279 43.3132 63.1965 43.5553C63.1142 43.7953 63.1222 44.0551 63.2203 44.3347C63.3171 44.6131 63.5036 44.8853 63.7797 45.1513C64.0479 45.4097 64.3489 45.6107 64.6826 45.7544C65.0179 45.8971 65.3535 45.9707 65.6895 45.9753C66.0255 45.9798 66.3287 45.904 66.5991 45.7479C66.7936 45.6356 66.9388 45.5002 67.0346 45.3416C67.129 45.1817 67.1682 45.0111 67.1522 44.83C67.1377 44.6479 67.0625 44.4695 66.9266 44.2947L67.0878 44.2016C67.2437 44.4054 67.331 44.6113 67.3497 44.8193C67.3684 45.0273 67.3246 45.2227 67.2185 45.4055C67.1111 45.5871 66.9467 45.7417 66.7254 45.8695ZM70.6076 43.6281C70.2897 43.8116 69.9424 43.9058 69.5656 43.9107C69.1903 43.9146 68.8188 43.8404 68.4508 43.6882C68.0829 43.536 67.7503 43.3167 67.4532 43.0304C67.156 42.7441 66.9547 42.4491 66.8492 42.1453C66.7454 41.8406 66.7383 41.5561 66.8279 41.2916C66.9175 41.0271 67.1054 40.8123 67.3916 40.6471C67.6035 40.5247 67.837 40.4476 68.0922 40.4158C68.349 40.383 68.611 40.3918 68.8782 40.4421C69.1455 40.4924 69.403 40.5798 69.6509 40.7041C69.899 40.8262 70.1211 40.9816 70.317 41.1704L70.4432 41.292L67.5212 42.979L67.395 42.8574L70.1652 41.258C69.9219 41.0236 69.6416 40.8462 69.3242 40.7255C69.0055 40.6036 68.6864 40.5448 68.367 40.5489C68.0476 40.553 67.7645 40.6263 67.5179 40.7687C67.268 40.9129 67.1037 41.103 67.0249 41.3389C66.9461 41.5748 66.9524 41.8305 67.0436 42.106C67.1349 42.3815 67.3115 42.6503 67.5734 42.9124L67.5892 42.9276C67.8535 43.1822 68.1521 43.3846 68.485 43.5348C68.8182 43.6827 69.1579 43.7591 69.5042 43.7638C69.8504 43.7685 70.1762 43.6827 70.4813 43.5065C70.7059 43.3769 70.8611 43.2366 70.9472 43.0856C71.0348 42.9337 71.0818 42.7902 71.088 42.6549C71.0958 42.5187 71.0916 42.4087 71.0754 42.3248L71.2697 42.322C71.2923 42.4265 71.2964 42.5548 71.2823 42.7068C71.2681 42.8588 71.2114 43.0161 71.1122 43.1788C71.0129 43.3414 70.8447 43.4912 70.6076 43.6281ZM76.1526 40.4267C75.9533 40.5418 75.7349 40.6152 75.4974 40.647C75.2614 40.6779 75.0263 40.6597 74.792 40.5923C74.5593 40.5241 74.3483 40.3988 74.1589 40.2164C74.0564 40.1176 73.9801 40.0137 73.9303 39.9047C73.8791 39.7945 73.8664 39.6752 73.8924 39.5467C73.9184 39.4183 73.9944 39.2771 74.1205 39.1233C74.2482 38.9686 74.4381 38.7971 74.6904 38.6089C74.8422 38.4969 74.9819 38.3879 75.1095 38.2818C75.2371 38.1758 75.3265 38.0755 75.3777 37.9811C75.4289 37.8867 75.4151 37.8015 75.3362 37.7255L75.1548 37.5507C74.922 37.3265 74.6412 37.201 74.3123 37.1741C73.9822 37.1459 73.6605 37.2222 73.3475 37.4029C73.0913 37.5508 72.9149 37.7256 72.8183 37.9273C72.7203 38.1277 72.7182 38.3315 72.8119 38.5387L72.6223 38.5753C72.553 38.4208 72.5316 38.265 72.5581 38.1079C72.5847 37.9507 72.6544 37.8011 72.7673 37.6589C72.8802 37.5167 73.0315 37.3909 73.2212 37.2813C73.4062 37.1745 73.5945 37.1013 73.786 37.0616C73.9777 37.0198 74.1658 37.0085 74.3501 37.0277C74.5331 37.0456 74.706 37.0916 74.8689 37.1657C75.0318 37.2398 75.1777 37.3389 75.3065 37.4631L77.4841 39.5607L77.3323 39.6484L76.7169 39.0556L76.6979 39.0665C76.7588 39.2421 76.7796 39.4144 76.7604 39.5835C76.7415 39.7504 76.6812 39.9068 76.5797 40.0525C76.4783 40.1961 76.336 40.3208 76.1526 40.4267ZM76.0263 40.3051C76.2572 40.1718 76.4154 40.0015 76.501 39.794C76.5853 39.5853 76.5907 39.3604 76.5173 39.1191C76.4426 38.8766 76.283 38.6376 76.0384 38.4019L75.5808 37.9611C75.5641 38.0133 75.5347 38.0678 75.4925 38.1246C75.4519 38.1804 75.4006 38.2394 75.3386 38.3015C75.2769 38.3615 75.2061 38.4236 75.1262 38.4879C75.0464 38.5523 74.9595 38.6197 74.8657 38.69C74.5715 38.9085 74.3633 39.1026 74.2412 39.2724C74.119 39.4422 74.0679 39.5963 74.0877 39.7348C74.1075 39.8733 74.1819 40.0046 74.3107 40.1287C74.5395 40.3491 74.8147 40.4729 75.1362 40.5C75.4592 40.5262 75.7559 40.4612 76.0263 40.3051ZM77.9271 34.6373L78.0789 34.5497L81.5503 37.8938C81.6923 38.0306 81.7765 38.1714 81.8029 38.3162C81.8293 38.461 81.8076 38.5972 81.7376 38.7247C81.6677 38.8522 81.5584 38.9588 81.4097 39.0446C81.4002 39.0501 81.3893 39.0554 81.3769 39.0605C81.3659 39.0669 81.3489 39.0737 81.3259 39.0808L81.2266 38.9559C81.2361 38.9504 81.2455 38.9449 81.255 38.9395C81.2645 38.934 81.274 38.9285 81.2835 38.923C81.4638 38.819 81.572 38.6784 81.6084 38.5015C81.6447 38.3245 81.5747 38.1512 81.3985 37.9814L77.9271 34.6373ZM77.4507 34.0615C77.4096 34.0852 77.3616 34.0937 77.3065 34.087C77.2515 34.0803 77.2069 34.0605 77.1727 34.0275C77.1385 33.9946 77.124 33.9574 77.129 33.916C77.1341 33.8746 77.1572 33.842 77.1983 33.8183C77.2394 33.7945 77.2875 33.786 77.3425 33.7928C77.3975 33.7995 77.4421 33.8193 77.4763 33.8522C77.5105 33.8852 77.5251 33.9223 77.52 33.9638C77.5149 34.0052 77.4919 34.0377 77.4507 34.0615ZM83.9053 35.9507C83.6191 36.1159 83.2938 36.1984 82.9293 36.1981C82.5636 36.1966 82.1959 36.1202 81.8264 35.9688C81.4572 35.8153 81.124 35.5954 80.8268 35.3092C80.5283 35.0216 80.3263 34.726 80.2209 34.4222C80.117 34.1175 80.1106 33.8335 80.2015 33.5703C80.2911 33.3059 80.479 33.091 80.7652 32.9258C81.0514 32.7606 81.3766 32.6792 81.7408 32.6816C82.1066 32.6832 82.4742 32.7596 82.8437 32.9109C83.2132 33.0623 83.5465 33.2811 83.8437 33.5673C84.1409 33.8536 84.3421 34.1497 84.4473 34.4557C84.5527 34.7595 84.5606 35.0436 84.471 35.3081C84.38 35.5712 84.1915 35.7855 83.9053 35.9507ZM83.779 35.8291C84.0368 35.6803 84.2045 35.4862 84.2823 35.2468C84.3616 35.0066 84.3514 34.747 84.2517 34.4683C84.152 34.1896 83.9654 33.9185 83.6919 33.655C83.4184 33.3915 83.1131 33.1899 82.776 33.0503C82.4391 32.9085 82.1056 32.8357 81.7754 32.8319C81.4438 32.8267 81.1492 32.8986 80.8915 33.0474C80.6353 33.1953 80.4682 33.39 80.3902 33.6316C80.3125 33.8709 80.3227 34.1304 80.4208 34.4101C80.5191 34.6876 80.7051 34.958 80.9786 35.2215C81.2521 35.485 81.5573 35.6876 81.8942 35.8294C82.231 35.9712 82.5646 36.0441 82.8948 36.0479C83.2266 36.0508 83.5213 35.9779 83.779 35.8291ZM88.9858 34.7678C88.7819 34.8856 88.5707 34.972 88.3523 35.0272C88.1353 35.0836 87.9189 35.1042 87.7033 35.0889C87.4889 35.0749 87.2839 35.0211 87.0881 34.9275L87.1831 34.7997C87.3567 34.8818 87.5369 34.9287 87.7236 34.9404C87.9132 34.9525 88.1037 34.9327 88.2952 34.8809C88.4897 34.8294 88.6778 34.7512 88.8596 34.6462C89.2391 34.4271 89.4513 34.1759 89.4962 33.8927C89.5424 33.6108 89.3952 33.3058 89.0546 32.9777L88.2341 32.1873L88.2151 32.1983C88.3202 32.3969 88.3668 32.5868 88.355 32.7678C88.3418 32.9476 88.2813 33.1122 88.1734 33.2616C88.0642 33.4098 87.9195 33.5359 87.7392 33.6399C87.4546 33.8043 87.1433 33.8857 86.8055 33.8842C86.4677 33.8828 86.1279 33.8065 85.7863 33.6552C85.4447 33.504 85.1254 33.2852 84.8282 32.999C84.5284 32.7101 84.3171 32.4189 84.1942 32.1251C84.0714 31.8314 84.0467 31.558 84.1203 31.3048C84.1938 31.0516 84.3745 30.842 84.6623 30.6758C84.8583 30.5626 85.0705 30.4918 85.2989 30.4633C85.5259 30.4335 85.7605 30.4439 86.0027 30.4945C86.2436 30.5438 86.4814 30.6304 86.7161 30.7542L86.7351 30.7433L85.9619 29.9984L86.1137 29.9108L89.2064 32.8901C89.4549 33.1295 89.6088 33.3618 89.668 33.5869C89.7285 33.8133 89.7003 34.0261 89.5834 34.2253C89.4665 34.4245 89.2673 34.6053 88.9858 34.7678ZM87.613 33.5183C87.866 33.3723 88.0299 33.1915 88.1047 32.9762C88.1811 32.7598 88.1674 32.5226 88.0638 32.2644C87.9604 32.004 87.7673 31.7376 87.4846 31.4653C87.2111 31.2018 86.9153 30.9948 86.5971 30.8442C86.2776 30.6923 85.9607 30.6099 85.6463 30.597C85.3322 30.5818 85.0462 30.6486 84.7885 30.7975C84.5308 30.9463 84.3716 31.1364 84.311 31.3679C84.2506 31.5972 84.279 31.8463 84.3961 32.115C84.5118 32.3824 84.7065 32.6478 84.98 32.9113C85.2535 33.1748 85.5447 33.3774 85.8537 33.5191C86.1629 33.6586 86.4693 33.7309 86.7729 33.7359C87.0768 33.7388 87.3568 33.6662 87.613 33.5183ZM91.5612 31.5306C91.362 31.6456 91.1436 31.719 90.906 31.7508C90.67 31.7817 90.4349 31.7635 90.2006 31.6962C89.9679 31.6279 89.7569 31.5026 89.5675 31.3202C89.465 31.2214 89.3888 31.1175 89.3389 31.0086C89.2877 30.8983 89.2751 30.779 89.301 30.6505C89.327 30.5221 89.4031 30.381 89.5291 30.2271C89.6568 30.0724 89.8468 29.9009 90.099 29.7127C90.2508 29.6008 90.3905 29.4917 90.5181 29.3857C90.6457 29.2796 90.7351 29.1793 90.7864 29.085C90.8376 28.9906 90.8237 28.9054 90.7448 28.8294L90.5634 28.6545C90.3306 28.4303 90.0498 28.3048 89.721 28.2779C89.3908 28.2497 89.0692 28.326 88.7561 28.5068C88.4999 28.6547 88.3235 28.8294 88.2269 29.0311C88.1289 29.2315 88.1268 29.4353 88.2205 29.6425L88.0309 29.6791C87.9616 29.5246 87.9402 29.3688 87.9667 29.2117C87.9933 29.0545 88.063 28.9049 88.1759 28.7627C88.2888 28.6206 88.4401 28.4947 88.6299 28.3852C88.8149 28.2783 89.0031 28.2051 89.1946 28.1655C89.3864 28.1236 89.5744 28.1123 89.7587 28.1315C89.9417 28.1494 90.1146 28.1955 90.2775 28.2696C90.4404 28.3437 90.5863 28.4428 90.7152 28.5669L92.8927 30.6646L92.7409 30.7522L92.1255 30.1594L92.1065 30.1704C92.1674 30.3459 92.1882 30.5182 92.169 30.6873C92.1501 30.8543 92.0899 31.0106 91.9883 31.1563C91.887 31.2999 91.7446 31.4247 91.5612 31.5306ZM91.4349 31.409C91.6658 31.2757 91.824 31.1053 91.9096 30.8979C91.9939 30.6892 91.9994 30.4642 91.9259 30.223C91.8512 29.9804 91.6916 29.7414 91.447 29.5058L90.9894 29.065C90.9727 29.1171 90.9433 29.1716 90.9011 29.2284C90.8605 29.2842 90.8092 29.3432 90.7472 29.4054C90.6855 29.4653 90.6147 29.5274 90.5348 29.5918C90.455 29.6561 90.3681 29.7235 90.2743 29.7939C89.9801 30.0123 89.7719 30.2065 89.6498 30.3763C89.5276 30.546 89.4765 30.7002 89.4963 30.8386C89.5161 30.9771 89.5905 31.1084 89.7193 31.2326C89.9481 31.453 90.2233 31.5767 90.5448 31.6038C90.8678 31.63 91.1646 31.5651 91.4349 31.409ZM94.3343 29.8323L91.3047 26.9138L91.4565 26.8261L91.9378 27.2897L91.9568 27.2788C91.8843 27.0775 91.898 26.8751 91.9979 26.6716C92.0993 26.4672 92.2757 26.2924 92.5271 26.1473C92.546 26.1363 92.5587 26.129 92.565 26.1253C92.5713 26.1217 92.584 26.1144 92.603 26.1034L92.7292 26.225C92.7102 26.236 92.6976 26.2433 92.6912 26.247C92.6849 26.2506 92.6723 26.2579 92.6533 26.2689C92.4383 26.393 92.2857 26.5408 92.1957 26.7123C92.1073 26.8829 92.0832 27.0619 92.1235 27.2494C92.1654 27.4359 92.2744 27.614 92.4506 27.7837L94.4861 29.7446L94.3343 29.8323Z" fill="white"/>
<rect x="-0.382289" y="-0.0467021" width="93.187" height="25.5467" rx="4.09712" transform="matrix(0.866025 -0.5 0.720188 0.693779 14.959 58.7643)" stroke="white" stroke-width="0.482014" shape-rendering="crispEdges"/>
</g>
<defs>
<filter id="filter0_ddf_444_14770" x="-0.447886" y="-0.800576" width="129.185" height="94.5908" filterUnits="userSpaceOnUse" color-interpolation-filters="sRGB">
<feFlood flood-opacity="0" result="BackgroundImageFix"/>
<feColorMatrix in="SourceAlpha" type="matrix" values="0 0 0 0 0 0 0 0 0 0 0 0 0 0 0 0 0 0 127 0" result="hardAlpha"/>
<feOffset dx="1.92806" dy="2.41007"/>
<feComposite in2="hardAlpha" operator="out"/>
<feColorMatrix type="matrix" values="0 0 0 0 0.608333 0 0 0 0 0.136084 0 0 0 0 0.09125 0 0 0 1 0"/>
<feBlend mode="normal" in2="BackgroundImageFix" result="effect1_dropShadow_444_14770"/>
<feColorMatrix in="SourceAlpha" type="matrix" values="0 0 0 0 0 0 0 0 0 0 0 0 0 0 0 0 0 0 127 0" result="hardAlpha"/>
<feOffset dy="2.00669"/>
<feGaussianBlur stdDeviation="7.71222"/>
<feComposite in2="hardAlpha" operator="out"/>
<feColorMatrix type="matrix" values="0 0 0 0 0.831373 0 0 0 0 0.203922 0 0 0 0 0.145098 0 0 0 0.5 0"/>
<feBlend mode="normal" in2="effect1_dropShadow_444_14770" result="effect2_dropShadow_444_14770"/>
<feBlend mode="normal" in="SourceGraphic" in2="effect2_dropShadow_444_14770" result="shape"/>
<feGaussianBlur stdDeviation="0.775634" result="effect3_foregroundBlur_444_14770"/>
</filter>
</defs>
</svg>