<svg xmlns:xlink="http://www.w3.org/1999/xlink" width="56" height="56" viewBox="0 0 56 56" fill="none" xmlns="http://www.w3.org/2000/svg">
<path d="M19.9172 34L27.9999 18L36.0826 34" stroke="#fff" stroke-width="1.5px" stroke-linecap="round" stroke-linejoin="round" fill="none"></path>
<path d="M21.9463 30.0532H34.0796" stroke="#fff" stroke-width="1.5px" stroke-linecap="round" stroke-linejoin="round" fill="none"></path>
<path d="M9.33333 12.6666V39.3333" stroke="#fff" stroke-width="1.5px" stroke-linecap="round" stroke-linejoin="round" fill="none"></path>
<path d="M46.6666 39.3333V12.6666" stroke="#fff" stroke-width="1.5px" stroke-linecap="round" stroke-linejoin="round" fill="none"></path>
<path fill-rule="evenodd" clip-rule="evenodd" d="M49.3333 50H43.9999C42.5279 50 41.3333 48.8054 41.3333 47.3334V42C41.3333 40.528 42.5279 39.3334 43.9999 39.3334H49.3333C50.8053 39.3334 51.9999 40.528 51.9999 42V47.3334C51.9999 48.8054 50.8053 50 49.3333 50Z" stroke="#fff" stroke-width="1.5px" stroke-linecap="round" stroke-linejoin="round" fill="none"></path>
<path fill-rule="evenodd" clip-rule="evenodd" d="M12 50H6.66667C5.19467 50 4 48.8054 4 47.3334V42C4 40.528 5.19467 39.3334 6.66667 39.3334H12C13.472 39.3334 14.6667 40.528 14.6667 42V47.3334C14.6667 48.8054 13.472 50 12 50Z" stroke="#fff" stroke-width="1.5px" stroke-linecap="round" stroke-linejoin="round" fill="none"></path>
<path fill-rule="evenodd" clip-rule="evenodd" d="M49.3333 12.6667H43.9999C42.5279 12.6667 41.3333 11.472 41.3333 10V4.66667C41.3333 3.19467 42.5279 2 43.9999 2H49.3333C50.8053 2 51.9999 3.19467 51.9999 4.66667V10C51.9999 11.472 50.8053 12.6667 49.3333 12.6667Z" stroke="#fff" stroke-width="1.5px" stroke-linecap="round" stroke-linejoin="round" fill="none"></path>
<path fill-rule="evenodd" clip-rule="evenodd" d="M12 12.6667H6.66667C5.19467 12.6667 4 11.472 4 10V4.66667C4 3.19467 5.19467 2 6.66667 2H12C13.472 2 14.6667 3.19467 14.6667 4.66667V10C14.6667 11.472 13.472 12.6667 12 12.6667Z" stroke="#fff" stroke-width="1.5px" stroke-linecap="round" stroke-linejoin="round" fill="none"></path>
<path d="M14.6667 44.6667H41.3334" stroke="#fff" stroke-width="1.5px" stroke-linecap="round" stroke-linejoin="round" fill="none"></path>
<path d="M41.3334 7.33333H14.6667" stroke="#fff" stroke-width="1.5px" stroke-linecap="round" stroke-linejoin="round" fill="none"></path>
</svg>