<svg xmlns:xlink="http://www.w3.org/1999/xlink" xmlns="http://www.w3.org/2000/svg" width="265" height="125" viewBox="0 0 265 125" fill="none">
<g filter="url(#filter0_bd_444_14779)">
<rect width="209.773" height="77.2667" rx="16" transform="matrix(1 0 -0.123775 0.99231 32.5635 22)" fill="#0F1729" fill-opacity="0.2" shape-rendering="crispEdges"/>
<circle cx="0.772222" cy="0.772222" r="0.772222" transform="matrix(1 0 -0.123775 0.99231 50.3008 39.0264)" stroke="#FFE08F" stroke-width="0.579167" stroke-linecap="round" stroke-linejoin="round"/>
<circle cx="0.772222" cy="0.772222" r="0.772222" transform="matrix(1 0 -0.123775 0.99231 53.5127 41.1335)" stroke="#FFE08F" stroke-width="0.579167" stroke-linecap="round" stroke-linejoin="round"/>
<path d="M52.7208 44.3903H48.0874" stroke="#FFE08F" stroke-width="0.579167" stroke-linecap="round" stroke-linejoin="round"/>
<path d="M52.1607 42.4901L51.4619 40.3279" stroke="#FFE08F" stroke-width="0.579167" stroke-linecap="round" stroke-linejoin="round"/>
<path d="M50.3591 40.3279L49.1209 42.4901" stroke="#FFE08F" stroke-width="0.579167" stroke-linecap="round" stroke-linejoin="round"/>
<rect width="6.17778" height="1.54444" rx="0.579167" transform="matrix(1 0 -0.123775 0.99231 47.3145 44.3904)" stroke="#FFE08F" stroke-width="0.579167" stroke-linecap="round" stroke-linejoin="round"/>
<path d="M50.4043 44.3904C50.542 43.2862 51.8341 42.3647 53.4308 42.1431" stroke="#FFE08F" stroke-width="0.579167" stroke-linecap="round" stroke-linejoin="round"/>
<path d="M52.7879 44.3904C52.9212 43.7148 53.1977 43.0574 53.5987 42.4626" stroke="#FFE08F" stroke-width="0.579167" stroke-linecap="round" stroke-linejoin="round"/>
<circle cx="0.772222" cy="0.772222" r="0.772222" transform="matrix(1 0 -0.123775 0.99231 46.5635 41.1335)" stroke="#FFE08F" stroke-width="0.579167" stroke-linecap="round" stroke-linejoin="round"/>
<path d="M50.4044 44.3904C50.5421 43.2862 49.4799 42.3647 47.9385 42.1431" stroke="#FFE08F" stroke-width="0.579167" stroke-linecap="round" stroke-linejoin="round"/>
<path d="M48.0203 44.3904C48.0555 43.7148 47.943 43.0574 47.6904 42.4626" stroke="#FFE08F" stroke-width="0.579167" stroke-linecap="round" stroke-linejoin="round"/>
<path d="M62.3048 42.0188C62.3249 41.6378 62.2168 41.3249 61.9804 41.08C61.7459 40.835 61.4111 40.7126 60.976 40.7126C60.6908 40.7126 60.4289 40.767 60.1905 40.8759C59.9521 40.9847 59.7561 41.1344 59.6025 41.3249C59.4492 41.5135 59.3572 41.7303 59.3267 41.9752C59.309 42.1167 59.3165 42.2473 59.3491 42.3671C59.3817 42.4868 59.4402 42.5966 59.5247 42.6963C59.6112 42.7943 59.7235 42.8832 59.8616 42.963C60.0018 43.041 60.1686 43.1109 60.362 43.1725L60.9738 43.3685C61.2076 43.4428 61.4075 43.5263 61.5733 43.6188C61.739 43.7113 61.8723 43.8156 61.973 43.9318C62.0757 44.046 62.1466 44.1739 62.1856 44.3154C62.2249 44.4551 62.2338 44.6111 62.2123 44.7835C62.1761 45.0737 62.0689 45.3323 61.8907 45.559C61.7125 45.7858 61.481 45.9636 61.1962 46.0924C60.9114 46.2212 60.5916 46.2856 60.2369 46.2856C59.8951 46.2856 59.6035 46.2266 59.3623 46.1087C59.1213 45.989 58.9388 45.8248 58.8149 45.6162C58.6931 45.4057 58.64 45.1644 58.6557 44.8923H58.8312C58.8196 45.1318 58.8691 45.3431 58.9797 45.5264C59.0903 45.7096 59.2534 45.8529 59.469 45.9563C59.6865 46.0597 59.9497 46.1114 60.2587 46.1114C60.5804 46.1114 60.8689 46.0561 61.124 45.9454C61.3812 45.8329 61.5889 45.6769 61.7473 45.4774C61.9075 45.2778 62.0039 45.0465 62.0368 44.7835C62.0617 44.5839 62.0396 44.4089 61.9706 44.2583C61.9019 44.1059 61.7806 43.9717 61.6068 43.8556C61.433 43.7395 61.2001 43.6351 60.9082 43.5426L60.2964 43.3467C59.873 43.2088 59.5658 43.0265 59.3747 42.7997C59.1854 42.573 59.1109 42.2981 59.1512 41.9752C59.1853 41.7013 59.2881 41.4564 59.4595 41.2405C59.631 41.0228 59.8499 40.8514 60.1159 40.7262C60.3838 40.601 60.6778 40.5384 60.9977 40.5384C61.3194 40.5384 61.594 40.6019 61.8213 40.7289C62.0486 40.8559 62.2196 41.031 62.3344 41.2541C62.4492 41.4772 62.4978 41.7321 62.4803 42.0188H62.3048ZM65.0978 46.2856C64.7303 46.2856 64.4205 46.1903 64.1682 45.9998C63.9177 45.8094 63.737 45.5509 63.626 45.2243C63.5149 44.8978 63.485 44.5295 63.5362 44.1195C63.5873 43.7095 63.7091 43.3413 63.9016 43.0147C64.0959 42.6882 64.3365 42.4297 64.6235 42.2392C64.9106 42.0487 65.2195 41.9535 65.5504 41.9535C65.7954 41.9535 66.0156 42.0052 66.2111 42.1086C66.4085 42.212 66.5734 42.3553 66.706 42.5385C66.8385 42.7217 66.9328 42.9331 66.9889 43.1725C67.047 43.4102 67.0592 43.6642 67.0255 43.9345L67.0037 44.1086H63.6253L63.647 43.9345H66.85C66.8918 43.5989 66.8602 43.295 66.7552 43.0229C66.6505 42.7489 66.4912 42.5312 66.2773 42.3698C66.0634 42.2083 65.8139 42.1276 65.5287 42.1276C65.2398 42.1276 64.9678 42.2129 64.7125 42.3834C64.4572 42.5539 64.2409 42.7861 64.0634 43.08C63.886 43.3739 63.7706 43.7059 63.7171 44.076L63.7144 44.0977C63.6689 44.4624 63.691 44.798 63.7807 45.1046C63.8725 45.4094 64.0304 45.6534 64.2543 45.8366C64.4783 46.0198 64.7667 46.1114 65.1195 46.1114C65.3791 46.1114 65.6023 46.0661 65.7892 45.9754C65.9778 45.8847 66.1325 45.7803 66.2532 45.6624C66.3758 45.5445 66.4679 45.4438 66.5295 45.3604L66.6599 45.4583C66.5846 45.5636 66.4768 45.6806 66.3364 45.8094C66.196 45.9382 66.023 46.0497 65.8175 46.1441C65.6119 46.2384 65.372 46.2856 65.0978 46.2856ZM71.0318 44.827L71.3821 42.0188H71.5576L71.0363 46.1985H70.8608L70.9436 45.5345H70.9216C70.7958 45.7522 70.6113 45.9264 70.3684 46.057C70.1272 46.1876 69.8613 46.2529 69.5706 46.2529C69.2891 46.2529 69.048 46.1921 68.8474 46.0706C68.6469 45.9491 68.4987 45.7812 68.4029 45.5672C68.3071 45.3531 68.2767 45.1064 68.3115 44.827L68.6618 42.0188H68.8373L68.487 44.827C68.4408 45.1971 68.5203 45.4982 68.7253 45.7305C68.9304 45.9627 69.2194 46.0788 69.5923 46.0788C69.8409 46.0788 70.0679 46.0252 70.2732 45.9182C70.4804 45.8112 70.6505 45.6633 70.7838 45.4747C70.9188 45.286 71.0015 45.0701 71.0318 44.827Z" fill="white"/>
<path d="M76.5569 46.2856C76.1621 46.2856 75.8336 46.1931 75.5714 46.008C75.3093 45.823 75.1217 45.5681 75.0087 45.2434C74.8956 44.9186 74.8651 44.5476 74.9171 44.1304C74.9701 43.7059 75.0954 43.3313 75.2932 43.0065C75.4929 42.68 75.7459 42.4251 76.0522 42.2419C76.3604 42.0569 76.7047 41.9643 77.085 41.9643C77.3811 41.9643 77.6413 42.0188 77.8654 42.1276C78.0894 42.2365 78.2651 42.3888 78.3924 42.5848C78.5197 42.7807 78.5854 43.0093 78.5894 43.2705H77.9422C77.9166 43.08 77.8279 42.9113 77.6762 42.7644C77.5266 42.6156 77.3092 42.5412 77.024 42.5412C76.7717 42.5412 76.5423 42.6065 76.3359 42.7372C76.1316 42.866 75.9616 43.0483 75.8262 43.2841C75.6928 43.5181 75.6064 43.793 75.567 44.1086C75.5268 44.4315 75.5429 44.7127 75.6154 44.9522C75.6897 45.1917 75.8128 45.3776 75.9846 45.51C76.1582 45.6425 76.373 45.7087 76.6289 45.7087C76.7971 45.7087 76.9534 45.6797 77.0977 45.6216C77.2421 45.5636 77.3686 45.4801 77.4772 45.3713C77.5859 45.2624 77.6698 45.1318 77.729 44.9794H78.3762C78.3089 45.2261 78.1906 45.4484 78.0216 45.6461C77.8545 45.842 77.6458 45.998 77.3955 46.1141C77.1473 46.2284 76.8677 46.2856 76.5569 46.2856ZM80.5519 46.2965C80.285 46.2965 80.049 46.2466 79.8439 46.1468C79.639 46.0452 79.4845 45.8992 79.3803 45.7087C79.2763 45.5164 79.2413 45.2842 79.2752 45.0121C79.3051 44.7726 79.3768 44.5785 79.4904 44.4297C79.6043 44.2792 79.7461 44.1612 79.9157 44.076C80.0854 43.9907 80.2689 43.9272 80.466 43.8855C80.6652 43.842 80.8642 43.8075 81.063 43.7821C81.323 43.7494 81.5336 43.7249 81.6947 43.7086C81.8578 43.6905 81.9786 43.6605 82.0569 43.6188C82.137 43.5771 82.1836 43.5045 82.1965 43.4011L82.1992 43.3794C82.2327 43.1109 82.1847 42.9022 82.0551 42.7535C81.9274 42.6047 81.7146 42.5303 81.4166 42.5303C81.1076 42.5303 80.857 42.5975 80.6648 42.7317C80.4725 42.866 80.3312 43.0093 80.2409 43.1617L79.6538 42.944C79.7952 42.69 79.9661 42.4922 80.1666 42.3507C80.3691 42.2074 80.5826 42.1077 80.8072 42.0514C81.0338 41.9934 81.2532 41.9643 81.4653 41.9643C81.6005 41.9643 81.7539 41.9807 81.9253 42.0133C82.0988 42.0442 82.2617 42.1086 82.414 42.2065C82.5682 42.3045 82.6878 42.4523 82.7728 42.6501C82.8578 42.8478 82.8796 43.1127 82.8382 43.4447L82.4947 46.1985H81.8475L81.9181 45.6325H81.8852C81.83 45.7232 81.7448 45.8202 81.6295 45.9237C81.5143 46.0271 81.3671 46.115 81.188 46.1876C81.0089 46.2602 80.7969 46.2965 80.5519 46.2965ZM80.7226 45.7196C80.9786 45.7196 81.2005 45.6697 81.3885 45.5699C81.5782 45.4701 81.7278 45.3413 81.837 45.1835C81.9481 45.0257 82.0145 44.8597 82.0363 44.6855L82.1096 44.0977C82.0781 44.1304 82.014 44.1603 81.9174 44.1875C81.8228 44.2129 81.7139 44.2356 81.5908 44.2556C81.4697 44.2737 81.3516 44.29 81.2364 44.3046C81.1233 44.3173 81.0315 44.3281 80.9609 44.3372C80.79 44.359 80.6283 44.3944 80.476 44.4433C80.3256 44.4905 80.1997 44.5622 80.0981 44.6583C79.9986 44.7526 79.9387 44.8814 79.9183 45.0447C79.8905 45.2678 79.9526 45.4366 80.1047 45.5509C80.2589 45.6633 80.4649 45.7196 80.7226 45.7196ZM87.2186 42.9548L86.6168 43.1181C86.5923 43.022 86.55 42.9285 86.49 42.8378C86.4321 42.7453 86.3465 42.6691 86.2333 42.6093C86.1201 42.5494 85.9694 42.5195 85.7811 42.5195C85.5233 42.5195 85.3011 42.5784 85.1146 42.6963C84.9301 42.8124 84.8266 42.9603 84.8042 43.1399C84.7843 43.2995 84.8271 43.4256 84.9326 43.5181C85.038 43.6107 85.2112 43.6878 85.4522 43.7494L86.0584 43.9018C86.4237 43.9925 86.687 44.1313 86.8483 44.3182C87.0099 44.5032 87.0725 44.7418 87.036 45.0338C87.0062 45.2733 86.91 45.4874 86.7475 45.676C86.5869 45.8647 86.3764 46.0135 86.116 46.1223C85.8556 46.2311 85.5618 46.2856 85.2345 46.2856C84.8049 46.2856 84.4609 46.1931 84.2024 46.008C83.944 45.823 83.7994 45.5527 83.7688 45.1971L84.4021 45.0447C84.4325 45.2697 84.5221 45.4384 84.6708 45.5509C84.8213 45.6633 85.0291 45.7196 85.2942 45.7196C85.5958 45.7196 85.8432 45.6561 86.0364 45.5291C86.2316 45.4003 86.3404 45.2461 86.3629 45.0665C86.381 44.9214 86.3449 44.7998 86.2548 44.7018C86.1648 44.6021 86.0169 44.5277 85.8109 44.4787L85.1293 44.3154C84.7548 44.2247 84.489 44.0841 84.3318 43.8937C84.1766 43.7014 84.117 43.461 84.153 43.1725C84.1824 42.9367 84.2752 42.7281 84.4312 42.5467C84.5892 42.3653 84.7906 42.2228 85.0357 42.1194C85.2826 42.016 85.5542 41.9643 85.8503 41.9643C86.2672 41.9643 86.5831 42.055 86.7981 42.2365C87.015 42.4179 87.1551 42.6573 87.2186 42.9548ZM91.4076 42.9548L90.8059 43.1181C90.7813 43.022 90.739 42.9285 90.679 42.8378C90.6211 42.7453 90.5355 42.6691 90.4223 42.6093C90.3091 42.5494 90.1584 42.5195 89.9701 42.5195C89.7123 42.5195 89.4902 42.5784 89.3036 42.6963C89.1191 42.8124 89.0156 42.9603 88.9932 43.1399C88.9733 43.2995 89.0161 43.4256 89.1216 43.5181C89.227 43.6107 89.4002 43.6878 89.6412 43.7494L90.2474 43.9018C90.6127 43.9925 90.876 44.1313 91.0373 44.3182C91.1989 44.5032 91.2615 44.7418 91.225 45.0338C91.1952 45.2733 91.099 45.4874 90.9365 45.676C90.7759 45.8647 90.5654 46.0135 90.305 46.1223C90.0446 46.2311 89.7508 46.2856 89.4235 46.2856C88.9939 46.2856 88.6499 46.1931 88.3914 46.008C88.133 45.823 87.9884 45.5527 87.9578 45.1971L88.5911 45.0447C88.6216 45.2697 88.7111 45.4384 88.8598 45.5509C89.0103 45.6633 89.2181 45.7196 89.4832 45.7196C89.7848 45.7196 90.0322 45.6561 90.2254 45.5291C90.4206 45.4003 90.5295 45.2461 90.5519 45.0665C90.57 44.9214 90.5339 44.7998 90.4438 44.7018C90.3538 44.6021 90.2059 44.5277 89.9999 44.4787L89.3183 44.3154C88.9438 44.2247 88.678 44.0841 88.5208 43.8937C88.3656 43.7014 88.306 43.461 88.342 43.1725C88.3714 42.9367 88.4642 42.7281 88.6202 42.5467C88.7782 42.3653 88.9797 42.2228 89.2247 42.1194C89.4716 42.016 89.7432 41.9643 90.0393 41.9643C90.4562 41.9643 90.7721 42.055 90.9871 42.2365C91.204 42.4179 91.3441 42.6573 91.4076 42.9548ZM92.2084 46.1985L92.7298 42.0188H93.3769L92.8556 46.1985H92.2084ZM93.1457 41.3221C93.0196 41.3221 92.9161 41.2795 92.8353 41.1942C92.7564 41.109 92.7244 41.0065 92.7393 40.8868C92.7543 40.767 92.8118 40.6645 92.9121 40.5793C93.0141 40.494 93.1282 40.4514 93.2543 40.4514C93.3805 40.4514 93.483 40.494 93.562 40.5793C93.6427 40.6645 93.6757 40.767 93.6607 40.8868C93.6458 41.0065 93.5873 41.109 93.4853 41.1942C93.385 41.2795 93.2719 41.3221 93.1457 41.3221ZM95.1562 43.6841L94.8425 46.1985H94.1954L94.7167 42.0188H95.342L95.2605 42.6718H95.3153C95.4405 42.4596 95.6117 42.2891 95.8289 42.1603C96.0463 42.0296 96.314 41.9643 96.6321 41.9643C96.9173 41.9643 97.1596 42.0224 97.359 42.1385C97.5587 42.2528 97.7033 42.4269 97.793 42.661C97.8828 42.8932 97.9056 43.1871 97.8612 43.5426L97.53 46.1985H96.8828L97.2086 43.5862C97.2496 43.2578 97.1956 43.002 97.0466 42.8188C96.8978 42.6337 96.6735 42.5412 96.3737 42.5412C96.1671 42.5412 95.9769 42.5857 95.8031 42.6746C95.6312 42.7635 95.4879 42.8932 95.3734 43.0637C95.2589 43.2342 95.1865 43.441 95.1562 43.6841ZM100.567 46.2856C100.187 46.2856 99.8646 46.1958 99.6 46.0162C99.3372 45.8366 99.1455 45.5853 99.0249 45.2624C98.9061 44.9395 98.8737 44.5622 98.9275 44.1304C98.9818 43.695 99.1088 43.3149 99.3083 42.9902C99.5097 42.6655 99.7642 42.4133 100.072 42.2337C100.381 42.0541 100.726 41.9643 101.106 41.9643C101.487 41.9643 101.808 42.0541 102.071 42.2337C102.336 42.4133 102.527 42.6655 102.646 42.9902C102.766 43.3149 102.799 43.695 102.745 44.1304C102.691 44.5622 102.563 44.9395 102.362 45.2624C102.163 45.5853 101.909 45.8366 101.599 46.0162C101.292 46.1958 100.948 46.2856 100.567 46.2856ZM100.639 45.7087C100.928 45.7087 101.175 45.6352 101.38 45.4883C101.585 45.3413 101.747 45.1481 101.866 44.9087C101.986 44.6692 102.063 44.4098 102.098 44.1304C102.132 43.851 102.12 43.5907 102.061 43.3494C102.001 43.1081 101.887 42.9131 101.72 42.7644C101.552 42.6156 101.323 42.5412 101.034 42.5412C100.746 42.5412 100.499 42.6156 100.294 42.7644C100.089 42.9131 99.9262 43.1081 99.8065 43.3494C99.6868 43.5907 99.6096 43.851 99.5747 44.1304C99.5399 44.4098 99.5523 44.6692 99.612 44.9087C99.6717 45.1481 99.7856 45.3413 99.9538 45.4883C100.122 45.6352 100.35 45.7087 100.639 45.7087Z" fill="#FDFCFF"/>
<rect width="177.773" height="8" rx="4" transform="matrix(1 0 -0.123775 0.99231 43.9512 58.98)" fill="#FFE08F"/>
<rect width="122.001" height="8" rx="4" transform="matrix(1 0 -0.123775 0.99231 41.9707 74.8569)" fill="#FFE08F" fill-opacity="0.3"/>
<rect x="0.219056" y="0.248078" width="209.273" height="76.7667" rx="15.75" transform="matrix(1 0 -0.123775 0.99231 32.5942 22.0019)" stroke="#C3C3FA" stroke-opacity="0.2" stroke-width="0.5" shape-rendering="crispEdges"/>
</g>
<defs>
<filter id="filter0_bd_444_14779" x="-1" y="0" width="267.337" height="124.673" filterUnits="userSpaceOnUse" color-interpolation-filters="sRGB">
<feFlood flood-opacity="0" result="BackgroundImageFix"/>
<feGaussianBlur in="BackgroundImageFix" stdDeviation="6"/>
<feComposite in2="SourceAlpha" operator="in" result="effect1_backgroundBlur_444_14779"/>
<feColorMatrix in="SourceAlpha" type="matrix" values="0 0 0 0 0 0 0 0 0 0 0 0 0 0 0 0 0 0 127 0" result="hardAlpha"/>
<feOffset dy="2"/>
<feGaussianBlur stdDeviation="12"/>
<feComposite in2="hardAlpha" operator="out"/>
<feColorMatrix type="matrix" values="0 0 0 0 1 0 0 0 0 0.878431 0 0 0 0 0.560784 0 0 0 0.1 0"/>
<feBlend mode="normal" in2="effect1_backgroundBlur_444_14779" result="effect2_dropShadow_444_14779"/>
<feBlend mode="normal" in="SourceGraphic" in2="effect2_dropShadow_444_14779" result="shape"/>
</filter>
</defs>
</svg>