<svg xmlns:xlink="http://www.w3.org/1999/xlink" width="56" height="56" viewBox="0 0 56 56" fill="none" xmlns="http://www.w3.org/2000/svg">
<path d="M39.0159 18.4986C41.1076 17.8085 43.397 18.6739 44.5093 20.575L48.3691 27.175C48.9988 28.2514 49.1716 29.5351 48.8489 30.7397C48.5263 31.9443 47.735 32.9697 46.6516 33.5873C40.7162 36.9703 31.5319 42.2054 23.1868 46.9619C20.8313 48.3045 18.1666 49.01 15.4553 49.0088V49.0088" stroke="#fff" stroke-width="1.5px" stroke-linecap="round" stroke-linejoin="round" fill="none"></path>
<path fill-rule="evenodd" clip-rule="evenodd" d="M11.6598 6.99121H18.6627C21.2411 6.99121 23.3313 9.08142 23.3313 11.6598V40.8386C23.3313 45.3508 19.6735 49.0087 15.1613 49.0087V49.0087C10.6491 49.0087 6.99121 45.3508 6.99121 40.8386V11.6598C6.99121 9.08142 9.08142 6.99121 11.6598 6.99121Z" stroke="#fff" stroke-width="1.5px" stroke-linecap="round" stroke-linejoin="round" fill="none"></path>
<path d="M15.1614 49.0087V49.0087C19.0553 49.0107 22.6576 46.9456 24.6235 43.5843C29.5839 35.1024 34.8982 26.0151 38.5128 19.8343C39.1425 18.7577 39.3151 17.474 38.9924 16.2693C38.6696 15.0646 37.8782 14.0391 36.7946 13.4215L30.057 9.58128C27.8345 8.3146 25.0065 9.07239 23.7151 11.2807L23.3314 11.9367" stroke="#fff" stroke-width="1.5px" stroke-linecap="round" stroke-linejoin="round" fill="none"></path>
<path d="M15.7456 40.8393C15.7452 41.1614 15.4839 41.4223 15.1618 41.4221C14.8397 41.422 14.5786 41.1609 14.5784 40.8388C14.5783 40.5167 14.8392 40.2554 15.1613 40.255C15.3163 40.2548 15.4651 40.3163 15.5747 40.4259C15.6843 40.5355 15.7458 40.6843 15.7456 40.8393" stroke="#fff" stroke-width="1.5px" stroke-linecap="round" stroke-linejoin="round" fill="none"></path>
</svg>