<svg xmlns:xlink="http://www.w3.org/1999/xlink" width="32" height="32" viewBox="0 0 32 32" fill="none" xmlns="http://www.w3.org/2000/svg">
<path d="M4.39491 27.4694L12.8802 18.984M23.5656 15.2107L21.0256 22.8307C20.985 22.9528 20.9156 23.0634 20.8233 23.153C20.7309 23.2426 20.6182 23.3086 20.4949 23.3454L4.92425 27.9734C4.78397 28.015 4.63495 28.0174 4.49341 27.9803C4.35186 27.9431 4.22322 27.8679 4.12148 27.7627C4.01974 27.6575 3.9488 27.5264 3.91637 27.3837C3.88395 27.241 3.89128 27.0922 3.93758 26.9534L8.99358 11.788C9.02981 11.6791 9.08905 11.5793 9.16727 11.4954C9.24549 11.4114 9.34086 11.3452 9.44691 11.3014L16.6296 8.34403C16.7756 8.28372 16.9362 8.268 17.0912 8.29884C17.2461 8.32969 17.3885 8.40573 17.5002 8.51736L23.3722 14.3907C23.4776 14.4959 23.5514 14.6283 23.5856 14.7732C23.6198 14.918 23.6128 15.0696 23.5656 15.2107Z" stroke="#FCFCFD" stroke-linecap="round" stroke-linejoin="round" fill="none"></path>
<path d="M23.7228 14.7413L27.4934 10.9693C27.9934 10.4692 28.2742 9.79109 28.2742 9.08399C28.2742 8.37688 27.9934 7.69873 27.4934 7.19865L24.6668 4.36932C24.4191 4.12158 24.1251 3.92506 23.8015 3.79098C23.4779 3.6569 23.1311 3.58789 22.7808 3.58789C22.4305 3.58789 22.0836 3.6569 21.76 3.79098C21.4364 3.92506 21.1424 4.12158 20.8948 4.36932L17.1241 8.14132M15.7081 16.1547C15.5223 15.969 15.3018 15.8217 15.0591 15.7212C14.8164 15.6208 14.5563 15.5691 14.2936 15.5692C14.031 15.5692 13.7709 15.621 13.5282 15.7216C13.2856 15.8222 13.0651 15.9695 12.8794 16.1553C12.6938 16.3411 12.5465 16.5616 12.446 16.8043C12.3456 17.047 12.2939 17.3071 12.2939 17.5698C12.294 17.8325 12.3458 18.0925 12.4464 18.3352C12.547 18.5778 12.6943 18.7983 12.8801 18.984C13.2553 19.359 13.7641 19.5696 14.2946 19.5695C14.8251 19.5694 15.3338 19.3585 15.7088 18.9833C16.0838 18.6081 16.2944 18.0993 16.2943 17.5689C16.2942 17.0384 16.0833 16.5297 15.7081 16.1547Z" stroke="#FCFCFD" stroke-linecap="round" stroke-linejoin="round" fill="none"></path>
</svg>