<svg xmlns:xlink="http://www.w3.org/1999/xlink" width="32" height="32" viewBox="0 0 32 32" fill="none" xmlns="http://www.w3.org/2000/svg">
<path d="M12.6241 14.2945H3.62648C2.81048 14.2945 2.14648 13.6297 2.14648 12.8113V3.81447C2.14648 2.99847 2.81048 2.33447 3.62648 2.33447H12.6241C13.4401 2.33447 14.1041 2.99847 14.1041 3.81447V12.8121C14.1041 13.6297 13.4401 14.2945 12.6241 14.2945ZM3.62648 3.04327C3.42209 3.04348 3.22614 3.12483 3.08168 3.26943C2.93723 3.41404 2.85608 3.61008 2.85608 3.81447V12.8121C2.85608 13.2385 3.20168 13.5857 3.62648 13.5857H12.6241C12.8288 13.585 13.0248 13.5032 13.1693 13.3582C13.3137 13.2132 13.3947 13.0168 13.3945 12.8121V3.81447C13.3945 3.61008 13.3133 3.41404 13.1689 3.26943C13.0244 3.12483 12.8285 3.04348 12.6241 3.04327H3.62648ZM28.3745 14.2945H19.3745C18.9817 14.2936 18.6054 14.137 18.3281 13.8589C18.0507 13.5808 17.8951 13.204 17.8953 12.8113V3.81447C17.8953 2.99847 18.5585 2.33447 19.3745 2.33447H28.3745C28.7666 2.33511 29.1424 2.49132 29.4195 2.7688C29.6965 3.04629 29.8521 3.42237 29.8521 3.81447V12.8121C29.8521 13.2044 29.6966 13.5807 29.4196 13.8586C29.1426 14.1365 28.7668 14.2932 28.3745 14.2945ZM19.3745 3.04327C19.1701 3.04348 18.9741 3.12483 18.8297 3.26943C18.6852 3.41404 18.6041 3.61008 18.6041 3.81447V12.8121C18.6041 13.2385 18.9497 13.5857 19.3745 13.5857H28.3745C28.7905 13.5857 29.1425 13.2313 29.1425 12.8121V3.81447C29.1427 3.71341 29.123 3.61329 29.0845 3.51984C29.046 3.42638 28.9895 3.34143 28.9182 3.26981C28.8469 3.1982 28.7622 3.14134 28.6689 3.10247C28.5756 3.0636 28.4756 3.04348 28.3745 3.04327H19.3745ZM12.6241 29.6665H3.62648C2.81048 29.6665 2.14648 29.0025 2.14648 28.1865V19.1865C2.14648 18.3697 2.81048 17.7057 3.62648 17.7057H12.6241C13.4401 17.7057 14.1041 18.3697 14.1041 19.1865V28.1857C14.1041 29.0017 13.4401 29.6665 12.6241 29.6665ZM3.62648 18.4153C3.42215 18.4157 3.22632 18.4971 3.08191 18.6417C2.93751 18.7862 2.8563 18.9821 2.85608 19.1865V28.1857C2.85608 28.6113 3.20168 28.9569 3.62648 28.9569H12.6241C12.8285 28.9567 13.0244 28.8753 13.1689 28.7307C13.3133 28.5861 13.3945 28.3901 13.3945 28.1857V19.1865C13.3945 18.9821 13.3133 18.786 13.1689 18.6414C13.0244 18.4968 12.8285 18.4155 12.6241 18.4153H3.62648ZM28.3745 29.6665H19.3745C18.5585 29.6665 17.8953 29.0025 17.8953 28.1865V19.1865C17.8953 18.3697 18.5585 17.7057 19.3745 17.7057H28.3745C29.1889 17.7057 29.8521 18.3697 29.8521 19.1865V28.1857C29.8519 28.5778 29.6962 28.9538 29.4193 29.2314C29.1423 29.509 28.7666 29.6654 28.3745 29.6665ZM19.3745 18.4153C19.1702 18.4157 18.9743 18.4971 18.8299 18.6417C18.6855 18.7862 18.6043 18.9821 18.6041 19.1865V28.1857C18.6041 28.6113 18.9497 28.9569 19.3745 28.9569H28.3745C28.7985 28.9569 29.1425 28.6113 29.1425 28.1857V19.1865C29.1427 19.0854 29.123 18.9853 29.0845 18.8918C29.046 18.7984 28.9895 18.7134 28.9182 18.6418C28.8469 18.5702 28.7622 18.5133 28.6689 18.4745C28.5756 18.4356 28.4756 18.4155 28.3745 18.4153H19.3745Z" fill="#FCFCFD"></path>
</svg>