<svg xmlns:xlink="http://www.w3.org/1999/xlink" width="32" height="32" viewBox="0 0 32 32" fill="none" xmlns="http://www.w3.org/2000/svg">
<path d="M15.9993 29.3336C23.3631 29.3336 29.3327 23.3641 29.3327 16.0003C29.3327 8.6365 23.3631 2.66699 15.9993 2.66699C8.63555 2.66699 2.66602 8.6365 2.66602 16.0003C2.66602 23.3641 8.63555 29.3336 15.9993 29.3336Z" stroke="#FCFCFD" fill="none"></path>
<path d="M3.99902 20.6573C5.75364 21.3609 7.01676 21.3609 7.78829 20.6573C8.94562 19.6019 7.94696 16.3988 9.56782 15.5154C11.1886 14.632 13.6581 18.5478 15.9662 17.2594C18.2743 15.9708 15.7488 12.5351 17.3505 11.1422C18.9522 9.74938 21.035 11.3202 21.3991 8.99124C21.7632 6.66227 19.7004 7.67238 19.3046 5.47153C19.0407 4.00432 19.0407 3.2328 19.3046 3.15698" stroke="#FCFCFD" stroke-linecap="round" fill="none"></path>
<path d="M19.346 28.9004C18.0966 27.6218 17.6468 26.4332 17.9966 25.3347C18.5214 23.687 19.3871 23.7844 19.7646 22.7656C20.142 21.7467 19.0758 20.2956 21.4416 19.0552C23.0188 18.2282 25.1874 19.1864 27.9472 21.9297" stroke="#FCFCFD" stroke-linecap="round" fill="none"></path>
</svg>